<?xml version="1.0" encoding="UTF-8" standalone="no"?>
<svg
   xmlns:dc="http://purl.org/dc/elements/1.1/"
   xmlns:cc="http://creativecommons.org/ns#"
   xmlns:rdf="http://www.w3.org/1999/02/22-rdf-syntax-ns#"
   xmlns:svg="http://www.w3.org/2000/svg"
   xmlns="http://www.w3.org/2000/svg"
   xmlns:sodipodi="http://sodipodi.sourceforge.net/DTD/sodipodi-0.dtd"
   xmlns:inkscape="http://www.inkscape.org/namespaces/inkscape"
   sodipodi:docname="pa.svg"
   inkscape:version="1.0 (4035a4fb49, 2020-05-01)"
   id="svg3567"
   version="1.1"
   viewBox="0 0 150 150"
   height="150mm"
   width="150mm">
  <defs
     id="defs3561" />
  <sodipodi:namedview
     inkscape:snap-smooth-nodes="true"
     inkscape:object-paths="true"
     inkscape:window-maximized="1"
     inkscape:window-y="-8"
     inkscape:window-x="-8"
     inkscape:window-height="1017"
     inkscape:window-width="1920"
     showgrid="false"
     inkscape:document-rotation="0"
     inkscape:current-layer="layer1"
     inkscape:document-units="mm"
     inkscape:cy="138.93459"
     inkscape:cx="92.820715"
     inkscape:zoom="0.175"
     inkscape:pageshadow="2"
     inkscape:pageopacity="0.0"
     borderopacity="1.0"
     bordercolor="#666666"
     pagecolor="#ffffff"
     id="base" />
  <metadata
     id="metadata3564">
    <rdf:RDF>
      <cc:Work
         rdf:about="">
        <dc:format>image/svg+xml</dc:format>
        <dc:type
           rdf:resource="http://purl.org/dc/dcmitype/StillImage" />
        <dc:title></dc:title>
      </cc:Work>
    </rdf:RDF>
  </metadata>
  <g
     id="layer1"
     inkscape:groupmode="layer"
     inkscape:label="Calque 1">
    <g
       id="g1808"
       transform="matrix(1.999999,0,0,1.999999,1238.4332,-260.1097)">
      <g
         id="g1792">
        <g
           transform="translate(-293.30952,218.47024)"
           id="g1742">
          <path
             style="fill:#a1f88f;fill-opacity:1;fill-rule:evenodd;stroke:#a1f88f;stroke-width:1.5;stroke-linecap:butt;stroke-linejoin:miter;stroke-miterlimit:4;stroke-dasharray:none;stroke-opacity:1"
             d="m -301.05802,-25.891369 c -2.76519,-2.209379 -1.80283,-50.834781 0.37795,-54.712054 2.18078,-3.877273 23.42087,-2.680852 26.2045,-0.01621 2.67986,2.565307 1.50179,53.174006 0.25384,55.106243 -1.23274,1.908689 -24.0711,1.831402 -26.83629,-0.377977 z"
             id="path1693"
             sodipodi:nodetypes="zzssz" />
          <path
             style="fill:none;fill-opacity:1;fill-rule:evenodd;stroke:#a1f88f;stroke-width:1.5;stroke-linecap:round;stroke-linejoin:round;stroke-miterlimit:4;stroke-dasharray:none;stroke-opacity:1"
             d="m -302.75236,-49.452551 c 0,0.142852 -8.48299,1.076767 -8.48299,2.01221 0,0.935445 8.56588,7.413003 8.56588,7.413003"
             id="path1729" />
          <path
             style="fill:none;fill-opacity:1;fill-rule:evenodd;stroke:#a1f88f;stroke-width:1.5;stroke-linecap:round;stroke-linejoin:round;stroke-miterlimit:4;stroke-dasharray:none;stroke-opacity:1"
             d="m -276.22307,-40.224064 c 3.09447,-0.132958 9.35445,0.267269 10.55717,-0.801809 1.20271,-1.069078 -10.0226,-8.686258 -10.0226,-8.686258"
             id="path1731" />
          <path
             style="fill:none;fill-opacity:1;fill-rule:evenodd;stroke:#a1f88f;stroke-width:1.5;stroke-linecap:round;stroke-linejoin:round;stroke-miterlimit:4;stroke-dasharray:none;stroke-opacity:1"
             d="m -282.9048,-28.865107 c 0.88003,4.634781 -0.93543,13.363474 -0.93543,13.363474"
             id="path1733" />
          <path
             style="fill:none;fill-opacity:1;fill-rule:evenodd;stroke:#a1f88f;stroke-width:1.5;stroke-linecap:round;stroke-linejoin:round;stroke-miterlimit:4;stroke-dasharray:none;stroke-opacity:1"
             d="m -292.12558,-29.399648 c 0.28104,5.093056 1.73725,15.234363 1.73725,15.234363"
             id="path1735" />
        </g>
        <path
           sodipodi:nodetypes="czzzzzzzzzc"
           id="path1695"
           d="m -592.55546,139.79334 c 0,0 -5.09055,-3.16272 -3.2128,-5.76413 1.87776,-2.60141 4.46129,3.45346 6.35221,3.75017 1.89091,0.29671 -2.7549,-3.52321 -0.30461,-5.54556 2.4503,-2.02236 3.52029,4.64468 5.53896,5.16376 2.01867,0.51909 -3.19332,-8.02013 1.33244,-7.83727 4.52576,0.18285 0.71647,7.2405 4.24256,9.15347 3.52609,1.91298 -2.87002,-7.35235 1.07677,-6.35206 3.94678,1.00029 2.8558,7.06126 3.73588,6.77016 0.88009,-0.29109 -0.57997,-7.5779 4.52899,-6.95243 5.10896,0.62547 0.7684,7.47354 0.7684,7.47354"
           style="fill:none;fill-rule:evenodd;stroke:#a1f88f;stroke-width:1.5;stroke-linecap:round;stroke-linejoin:round;stroke-miterlimit:4;stroke-dasharray:none;stroke-opacity:1" />
      </g>
      <g
         id="g1783">
        <path
           id="path1697"
           d="m -595.33385,147.40152 c 3.80111,1.89908 7.95885,4.7339 7.95885,4.7339"
           style="fill:none;fill-rule:evenodd;stroke:#000000;stroke-width:1.5;stroke-linecap:round;stroke-linejoin:round;stroke-miterlimit:4;stroke-dasharray:none;stroke-opacity:1" />
        <path
           id="path1699"
           d="m -573.10639,153.64732 c 4.53572,-1.41741 6.79135,-3.20646 6.79135,-3.20646"
           style="fill:none;fill-rule:evenodd;stroke:#000000;stroke-width:1.5;stroke-linecap:round;stroke-linejoin:round;stroke-miterlimit:4;stroke-dasharray:none;stroke-opacity:1" />
        <path
           id="path1701"
           d="m -587.0915,175.94792 c 3.59077,-5.95313 6.42559,-4.06325 8.50445,0.0945"
           style="fill:none;fill-rule:evenodd;stroke:#000000;stroke-width:1.5;stroke-linecap:round;stroke-linejoin:round;stroke-miterlimit:4;stroke-dasharray:none;stroke-opacity:1" />
        <circle
           r="2.8625002"
           cy="159.60045"
           cx="-592.95013"
           id="path1703"
           style="color:#000000;overflow:visible;fill:#000000;fill-opacity:1;stroke:#000000;stroke-width:1;stroke-linecap:round;stroke-linejoin:round;stroke-miterlimit:4;stroke-dasharray:none;stroke-opacity:1;stop-color:#000000" />
        <circle
           r="3.1498349"
           cy="161.39584"
           cx="-569.3266"
           id="path1705"
           style="color:#000000;overflow:visible;fill:#000000;fill-opacity:1;stroke:#000000;stroke-width:1;stroke-linecap:round;stroke-linejoin:round;stroke-miterlimit:4;stroke-dasharray:none;stroke-opacity:1;stop-color:#000000" />
      </g>
    </g>
  </g>
</svg>
