<?xml version="1.0" encoding="UTF-8" standalone="no"?>
<svg
   xmlns:dc="http://purl.org/dc/elements/1.1/"
   xmlns:cc="http://creativecommons.org/ns#"
   xmlns:rdf="http://www.w3.org/1999/02/22-rdf-syntax-ns#"
   xmlns:svg="http://www.w3.org/2000/svg"
   xmlns="http://www.w3.org/2000/svg"
   xmlns:sodipodi="http://sodipodi.sourceforge.net/DTD/sodipodi-0.dtd"
   xmlns:inkscape="http://www.inkscape.org/namespaces/inkscape"
   sodipodi:docname="grandpa-2.svg"
   inkscape:version="1.0 (4035a4fb49, 2020-05-01)"
   id="svg3567"
   version="1.1"
   viewBox="0 0 150 150"
   height="150mm"
   width="150mm">
  <defs
     id="defs3561" />
  <sodipodi:namedview
     inkscape:snap-smooth-nodes="true"
     inkscape:object-paths="true"
     inkscape:window-maximized="1"
     inkscape:window-y="-8"
     inkscape:window-x="-8"
     inkscape:window-height="1017"
     inkscape:window-width="1920"
     showgrid="false"
     inkscape:document-rotation="0"
     inkscape:current-layer="layer1"
     inkscape:document-units="mm"
     inkscape:cy="182.72274"
     inkscape:cx="345.7042"
     inkscape:zoom="0.9899495"
     inkscape:pageshadow="2"
     inkscape:pageopacity="0.0"
     borderopacity="1.0"
     bordercolor="#666666"
     pagecolor="#ffffff"
     id="base" />
  <metadata
     id="metadata3564">
    <rdf:RDF>
      <cc:Work
         rdf:about="">
        <dc:format>image/svg+xml</dc:format>
        <dc:type
           rdf:resource="http://purl.org/dc/dcmitype/StillImage" />
        <dc:title></dc:title>
      </cc:Work>
    </rdf:RDF>
  </metadata>
  <g
     id="layer1"
     inkscape:groupmode="layer"
     inkscape:label="Calque 1">
    <path
       style="fill:#68e3c7;fill-opacity:1;fill-rule:evenodd;stroke:#68e3c7;stroke-width:4;stroke-linecap:butt;stroke-linejoin:miter;stroke-miterlimit:4;stroke-dasharray:none;stroke-opacity:1"
       d="M 73.463141,135.43834 C 50.878913,134.472 36.67158,118.48329 37.694919,88.920027 38.718279,59.356761 60.630626,55.998411 66.193203,34.171422 78.431817,-13.851854 116.894,35.551273 110.41094,82.27841 c -3.41502,24.61395 -14.36357,54.12627 -36.947799,53.15993 z"
       id="path4415"
       sodipodi:nodetypes="zzssz" />
    <path
       style="fill:none;fill-opacity:1;fill-rule:evenodd;stroke:#60e3c4;stroke-width:4;stroke-linecap:round;stroke-linejoin:round;stroke-miterlimit:4;stroke-dasharray:none;stroke-opacity:1"
       d="m 25.354705,70.892776 c 0.80178,0.267279 4.409898,1.069079 4.409898,1.069079 l -0.935399,15.234352 11.492534,3.741779"
       id="path4417" />
    <path
       style="fill:none;fill-opacity:1;fill-rule:evenodd;stroke:#60e3c4;stroke-width:4;stroke-linecap:round;stroke-linejoin:round;stroke-miterlimit:4;stroke-dasharray:none;stroke-opacity:1"
       d="m 63.841506,147.19819 c -0.2673,-2.53906 -1.737259,-20.0452 -1.737259,-20.0452"
       id="path4419" />
    <path
       style="fill:none;fill-opacity:1;fill-rule:evenodd;stroke:#60e3c4;stroke-width:4;stroke-linecap:round;stroke-linejoin:round;stroke-miterlimit:4;stroke-dasharray:none;stroke-opacity:1"
       d="m 69.186864,148 c 0.801799,-2.53906 4.677197,-20.17884 4.677197,-20.17884"
       id="path4421" />
    <path
       style="fill:none;fill-opacity:1;fill-rule:evenodd;stroke:#60e3c4;stroke-width:4;stroke-linecap:round;stroke-linejoin:round;stroke-miterlimit:4;stroke-dasharray:none;stroke-opacity:1"
       d="m 99.655588,95.748843 c 4.982042,2.410059 16.169792,5.879917 16.169792,5.879917 l 5.0781,-12.027114 3.74178,0.66816"
       id="path4423" />
    <g
       transform="translate(0,11.705062)"
       id="g2727">
      <path
         id="path4425"
         d="m 101.66007,30.786257 c 2.35988,-3.564158 2.27182,-24.989688 2.27182,-24.989688"
         style="fill:none;fill-opacity:1;fill-rule:evenodd;stroke:#60e3c4;stroke-width:4;stroke-linecap:round;stroke-linejoin:round;stroke-miterlimit:4;stroke-dasharray:none;stroke-opacity:1" />
      <path
         id="path4427"
         d="m 97.918329,22.500902 c 1.331179,-5.609758 -0.4009,-23.6533295 -0.4009,-23.6533295"
         style="fill:none;fill-opacity:1;fill-rule:evenodd;stroke:#60e3c4;stroke-width:4;stroke-linecap:round;stroke-linejoin:round;stroke-miterlimit:4;stroke-dasharray:none;stroke-opacity:1" />
      <path
         id="path4429"
         d="M 93.107472,15.284625 C 95.006651,10.431067 88.029374,-5.6960053 88.029374,-5.6960053"
         style="fill:none;fill-opacity:1;fill-rule:evenodd;stroke:#60e3c4;stroke-width:4;stroke-linecap:round;stroke-linejoin:round;stroke-miterlimit:4;stroke-dasharray:none;stroke-opacity:1" />
      <path
         id="path4431"
         d="M 83.753016,9.9392469 C 84.861256,2.7408505 76.93768,-9.7050623 76.93768,-9.7050623"
         style="fill:none;fill-opacity:1;fill-rule:evenodd;stroke:#60e3c4;stroke-width:4;stroke-linecap:round;stroke-linejoin:round;stroke-miterlimit:4;stroke-dasharray:none;stroke-opacity:1" />
      <path
         id="path4433"
         d="M 79.209438,11.542867 C 78.698419,3.74021 69.587763,-6.7650847 69.587763,-6.7650847"
         style="fill:none;fill-opacity:1;fill-rule:evenodd;stroke:#60e3c4;stroke-width:4;stroke-linecap:round;stroke-linejoin:round;stroke-miterlimit:4;stroke-dasharray:none;stroke-opacity:1" />
      <path
         id="path4435"
         d="M 73.730461,19.694583 C 74.595581,7.813288 64.108726,-1.4197074 64.108726,-1.4197074"
         style="fill:none;fill-opacity:1;fill-rule:evenodd;stroke:#60e3c4;stroke-width:4;stroke-linecap:round;stroke-linejoin:round;stroke-miterlimit:4;stroke-dasharray:none;stroke-opacity:1" />
      <path
         sodipodi:nodetypes="cc"
         id="path4437"
         d="M 69.786003,29.877498 C 69.186864,21.030922 62.505147,8.2019878 62.505147,8.2019878"
         style="fill:none;fill-opacity:1;fill-rule:evenodd;stroke:#60e3c4;stroke-width:4;stroke-linecap:round;stroke-linejoin:round;stroke-miterlimit:4;stroke-dasharray:none;stroke-opacity:1" />
    </g>
    <circle
       r="7.4835429"
       cy="60.870178"
       cx="65.044289"
       id="path931"
       style="color:#000000;overflow:visible;fill:#000000;fill-opacity:1;stroke:#000000;stroke-width:2;stroke-linecap:round;stroke-linejoin:round;stroke-miterlimit:4;stroke-dasharray:none;stroke-opacity:1;stop-color:#000000" />
    <circle
       r="4.1426754"
       cy="73.298203"
       cx="98.853722"
       id="path933"
       style="color:#000000;overflow:visible;fill:#000000;fill-opacity:1;stroke:#000000;stroke-width:2;stroke-linecap:round;stroke-linejoin:round;stroke-miterlimit:4;stroke-dasharray:none;stroke-opacity:1;stop-color:#000000" />
    <path
       sodipodi:nodetypes="cc"
       id="path935"
       d="m 73.196021,88.398915 c 4.860218,1.423599 5.487938,4.110198 6.949017,6.548117"
       style="fill:none;fill-opacity:1;fill-rule:evenodd;stroke:#000000;stroke-width:3;stroke-linecap:round;stroke-linejoin:round;stroke-miterlimit:4;stroke-dasharray:none;stroke-opacity:1" />
    <g
       transform="matrix(1.999999,0,0,1.999999,1560.2383,159.05645)"
       id="g1504"
       style="stroke-width:1;stroke-miterlimit:4;stroke-dasharray:none">
      <path
         sodipodi:nodetypes="ccscczzzzzzc"
         id="path1492"
         d="m -748.86531,-37.986607 c 0,-0.330729 1.08667,-1.228421 1.08667,-1.228421 0,0 0.189,1.133928 0.23625,0.944938 0.0472,-0.188986 0.89768,-2.126114 0.89768,-2.126114 l 0.0473,1.417409 c 0,0 0.36628,-1.210979 0.70872,-1.889879 0.34244,-0.6789 0.0945,2.645833 0.47246,1.937126 0.37798,-0.708707 0.57458,-2.386422 0.99219,-2.598584 0.41761,-0.212162 0.0262,2.960478 0.51972,2.220608 0.49355,-0.73987 0.57777,-2.961155 0.8032,-2.409597 0.22543,0.551558 -0.0642,3.073922 0.23622,2.645833 0.30043,-0.428089 0.8977,-2.362351 0.8977,-2.362351"
         style="fill:none;fill-rule:evenodd;stroke:#000000;stroke-width:1;stroke-linecap:round;stroke-linejoin:round;stroke-miterlimit:4;stroke-dasharray:none;stroke-opacity:1" />
      <path
         sodipodi:nodetypes="cczzzzzccc"
         id="path1494"
         d="m -739.65214,-39.970982 -0.85045,2.267857 c 0,0 2.10015,-2.769132 2.12611,-1.984375 0.026,0.784757 -1.42156,2.706233 -1.55914,3.260045 -0.13758,0.553812 2.20995,-1.385049 2.69306,-1.464656 0.48311,-0.07961 -0.30701,1.515873 -0.99219,2.362351 -0.68518,0.846478 2.74339,-0.905099 2.36236,-0.283483 -0.38103,0.621616 -1.08667,1.322917 -1.08667,1.322917 l 0.8032,0.330729 -0.47247,0.992187"
         style="fill:none;fill-rule:evenodd;stroke:#000000;stroke-width:1;stroke-linecap:round;stroke-linejoin:round;stroke-miterlimit:4;stroke-dasharray:none;stroke-opacity:1" />
      <path
         sodipodi:nodetypes="ccccczzzzzzzzzc"
         id="path1496"
         d="m -752.59757,-55.825921 0.53454,-1.102487 0.0334,1.102487 0.96885,-1.703843 -0.0668,1.369756 c 0,0 0.46798,-1.114871 1.2621,-1.782472 0.79412,-0.6676 -0.21878,1.143249 -0.15964,1.84929 0.0591,0.706041 1.46481,-1.700155 2.30521,-2.037932 0.8404,-0.337777 -0.87048,1.446527 -0.83521,2.138156 0.0353,0.691629 1.31158,-1.305708 2.27179,-1.804069 0.96021,-0.498361 -1.1731,1.081215 -1.13591,2.037932 0.0372,0.956717 2.44391,-2.324229 2.2718,-1.33635 -0.17211,0.987879 -0.91862,0.89159 -1.33634,1.971114 -0.41772,1.079524 1.31936,-1.042328 2.43883,-1.5368 1.11947,-0.494472 -1.10249,2.338609 -1.10249,2.338609"
         style="fill:none;fill-rule:evenodd;stroke:#000000;stroke-width:1;stroke-linecap:round;stroke-linejoin:round;stroke-miterlimit:4;stroke-dasharray:none;stroke-opacity:1" />
      <path
         sodipodi:nodetypes="czzzzzzzscccc"
         id="path1498"
         d="m -731.31624,-51.215522 c -0.0668,1.035669 -0.10807,2.136353 0.10023,3.040189 0.2083,0.903836 0.51664,-2.129243 1.40316,-2.839738 0.88652,-0.710495 -0.63708,2.030091 -0.20044,2.706105 0.43664,0.676014 0.33518,-1.307468 1.06907,-2.104747 0.73389,-0.797279 -0.0452,1.378684 0.20045,2.037929 0.24564,0.659245 0.22447,-0.810549 0.7684,-1.503391 0.54393,-0.692842 -0.28283,1.104315 -0.0334,1.603618 0.24943,0.499303 0.66959,-0.781738 0.73499,-0.935445 0.36616,-0.860578 0.36748,1.603619 0.36748,1.603619 l 0.50114,-0.334087 0.20045,1.00226 c 0.0668,0.618061 0.83521,0.7684 0.83521,0.7684"
         style="fill:none;fill-rule:evenodd;stroke:#000000;stroke-width:1;stroke-linecap:round;stroke-linejoin:round;stroke-miterlimit:4;stroke-dasharray:none;stroke-opacity:1" />
    </g>
  </g>
</svg>
