<?xml version="1.0" encoding="UTF-8" standalone="no"?>
<svg
   xmlns:dc="http://purl.org/dc/elements/1.1/"
   xmlns:cc="http://creativecommons.org/ns#"
   xmlns:rdf="http://www.w3.org/1999/02/22-rdf-syntax-ns#"
   xmlns:svg="http://www.w3.org/2000/svg"
   xmlns="http://www.w3.org/2000/svg"
   xmlns:sodipodi="http://sodipodi.sourceforge.net/DTD/sodipodi-0.dtd"
   xmlns:inkscape="http://www.inkscape.org/namespaces/inkscape"
   sodipodi:docname="grandpa.svg"
   inkscape:version="1.0 (4035a4fb49, 2020-05-01)"
   id="svg3567"
   version="1.1"
   viewBox="0 0 150 150"
   height="150mm"
   width="150mm">
  <defs
     id="defs3561" />
  <sodipodi:namedview
     inkscape:snap-smooth-nodes="true"
     inkscape:object-paths="true"
     inkscape:window-maximized="1"
     inkscape:window-y="-8"
     inkscape:window-x="-8"
     inkscape:window-height="1017"
     inkscape:window-width="1920"
     showgrid="false"
     inkscape:document-rotation="0"
     inkscape:current-layer="layer1"
     inkscape:document-units="mm"
     inkscape:cy="138.93459"
     inkscape:cx="92.820715"
     inkscape:zoom="0.175"
     inkscape:pageshadow="2"
     inkscape:pageopacity="0.0"
     borderopacity="1.0"
     bordercolor="#666666"
     pagecolor="#ffffff"
     id="base" />
  <metadata
     id="metadata3564">
    <rdf:RDF>
      <cc:Work
         rdf:about="">
        <dc:format>image/svg+xml</dc:format>
        <dc:type
           rdf:resource="http://purl.org/dc/dcmitype/StillImage" />
        <dc:title></dc:title>
      </cc:Work>
    </rdf:RDF>
  </metadata>
  <g
     id="layer1"
     inkscape:groupmode="layer"
     inkscape:label="Calque 1">
    <g
       id="g1178"
       transform="matrix(1.999999,0,0,1.999999,1343.0636,7.1699774)">
      <g
         id="g1163">
        <path
           style="fill:none;fill-opacity:1;fill-rule:evenodd;stroke:#d1ec6b;stroke-width:2;stroke-linecap:round;stroke-linejoin:round;stroke-miterlimit:4;stroke-dasharray:none;stroke-opacity:1"
           d="m -614.16826,51.894213 c 0,0 -2.0628,-1.892914 -2.03295,-2.145298 0.0298,-0.252383 4.67878,-3.902321 4.67878,-3.902321 l -3.99684,-4.676179"
           id="path4358-9" />
        <path
           id="rect4351-6"
           style="color:#000000;overflow:visible;fill:#d1ec6b;fill-opacity:1;stroke:#d1ec6b;stroke-width:2;stroke-linecap:round;stroke-miterlimit:4;stroke-dasharray:none;stroke-opacity:1;stop-color:#000000"
           d="m -645.23707,14.947037 c 10.10291,-2.363802 17.15527,-0.167694 24.67959,1.322916 2.74078,0.542965 5.03243,2.107315 5.05727,4.724691 0.11465,12.080544 0.75919,23.996073 -2.2252,37.041694 -0.58556,2.559671 -2.26567,4.502403 -5.05729,4.72469 -6.85893,0.546157 -12.47321,2.08902 -22.85895,-0.188989 -2.72757,-0.598263 -4.9095,-2.110855 -5.05728,-4.72469 -0.74259,-13.135084 -1.95898,-26.491485 0.40459,-38.175621 0.52028,-2.571953 2.33948,-4.088802 5.05727,-4.724691 z"
           sodipodi:nodetypes="sssssssss" />
        <path
           style="fill:none;fill-opacity:1;fill-rule:evenodd;stroke:#d1ec6b;stroke-width:2;stroke-linecap:round;stroke-linejoin:round;stroke-miterlimit:4;stroke-dasharray:none;stroke-opacity:1"
           d="m -636.01528,61.343618 c -0.0945,0.47247 -0.94496,9.071429 -0.94496,9.071429"
           id="path4354-9" />
        <path
           style="fill:none;fill-opacity:1;fill-rule:evenodd;stroke:#d1ec6b;stroke-width:2;stroke-linecap:round;stroke-linejoin:round;stroke-miterlimit:4;stroke-dasharray:none;stroke-opacity:1"
           d="m -633.01037,70.226059 1.4174,-9.260417"
           id="path4356-7" />
        <path
           style="fill:none;fill-opacity:1;fill-rule:evenodd;stroke:#d1ec6b;stroke-width:2;stroke-linecap:butt;stroke-linejoin:miter;stroke-miterlimit:4;stroke-dasharray:none;stroke-opacity:1"
           d="m -646.37845,16.558066 c 0,0 -5.43219,-7.552404 -2.65811,-8.981561 2.77408,-1.429157 7.64162,8.449537 5.76414,7.370532 -1.87748,-1.079005 -1.07188,-5.70947 1.03944,-6.236602 2.11132,-0.527132 5.60943,6.009879 4.09942,5.34263 -0.31321,-0.138404 -1.07004,-6.927517 1.38121,-7.138019 2.45125,-0.210502 3.98911,6.344973 2.65626,7.004471 -1.33285,0.659498 -2.04802,-7.579998 1.59599,-7.854915 3.64401,-0.274917 4.36999,8.505144 3.034,8.284495 -0.65912,-0.108859 0.76637,-2.369934 2.44666,-1.953395 1.68029,0.416539 2.13853,2.832029 1.14022,2.61597 -0.99831,-0.216059 3.0067,-6.101087 5.19086,-6.39573 2.18416,-0.294643 1.84321,7.953218 0.47249,7.654012 -1.37072,-0.299206 3.33566,-9.719839 5.07122,-5.022427 1.73555,4.697412 -1.04029,7.437768 -1.04029,7.437768 z"
           id="path4362-8"
           sodipodi:nodetypes="czzzszzzszzzzzcc" />
      </g>
      <g
         id="g1505">
        <circle
           style="color:#000000;overflow:visible;fill:#000000;fill-opacity:1;stroke:#000000;stroke-width:1.5;stroke-linecap:round;stroke-linejoin:round;stroke-miterlimit:4;stroke-dasharray:none;stroke-opacity:1;stop-color:#000000"
           id="path1206"
           cx="-647.97186"
           cy="29.215872"
           r="2.4722431" />
        <circle
           style="color:#000000;overflow:visible;fill:#000000;fill-opacity:1;stroke:#000000;stroke-width:1.5;stroke-linecap:round;stroke-linejoin:round;stroke-miterlimit:4;stroke-dasharray:none;stroke-opacity:1;stop-color:#000000"
           id="path1208"
           cx="-622.84851"
           cy="31.420847"
           r="3.7417734" />
        <circle
           style="color:#000000;overflow:visible;fill:none;fill-opacity:1;stroke:#000000;stroke-width:1.5;stroke-linecap:round;stroke-linejoin:round;stroke-miterlimit:4;stroke-dasharray:none;stroke-opacity:1;stop-color:#000000"
           id="path1210"
           cx="-648.70685"
           cy="28.814966"
           r="8.0849037" />
        <path
           style="fill:none;fill-opacity:1;fill-rule:evenodd;stroke:#000000;stroke-width:1.5;stroke-linecap:round;stroke-linejoin:round;stroke-miterlimit:4;stroke-dasharray:none;stroke-opacity:1"
           d="m -650.1303,36.773571 c 0.4009,8.218538 -2.32951,22.405661 2.09167,24.648279 4.42118,2.242618 4.2763,-2.605878 4.2763,-2.605878"
           id="path1212"
           sodipodi:nodetypes="czc" />
        <path
           style="fill:none;fill-opacity:1;fill-rule:evenodd;stroke:#000000;stroke-width:1.5;stroke-linecap:round;stroke-linejoin:round;stroke-miterlimit:4;stroke-dasharray:none;stroke-opacity:1"
           d="m -645.63323,46.454757 c 2.47219,-11.756786 3.5605,-3.512689 6.14722,-3.474503 2.58672,0.03819 4.29947,-7.585823 7.81762,3.207235"
           id="path1214"
           sodipodi:nodetypes="czc" />
        <path
           style="fill:none;fill-opacity:1;fill-rule:evenodd;stroke:#000000;stroke-width:1.5;stroke-linecap:round;stroke-linejoin:round;stroke-miterlimit:4;stroke-dasharray:none;stroke-opacity:1"
           d="m -627.85979,22.734587 c 0.38597,-0.222224 0.94485,-2.811494 0.96026,-2.333631 0.0579,1.795789 1.26288,1.433165 1.36612,0.776239 0.10454,-0.665163 0.15054,-1.97465 0.36083,-1.59944 0.36196,0.645823 1.22257,2.116895 1.42362,1.54611 0.24878,-0.70629 0.71894,-1.147942 1.50183,-0.594252"
           id="path1216"
           sodipodi:nodetypes="cssssc" />
      </g>
    </g>
  </g>
</svg>
