<?xml version="1.0" encoding="UTF-8" standalone="no"?>
<svg
   xmlns:dc="http://purl.org/dc/elements/1.1/"
   xmlns:cc="http://creativecommons.org/ns#"
   xmlns:rdf="http://www.w3.org/1999/02/22-rdf-syntax-ns#"
   xmlns:svg="http://www.w3.org/2000/svg"
   xmlns="http://www.w3.org/2000/svg"
   xmlns:sodipodi="http://sodipodi.sourceforge.net/DTD/sodipodi-0.dtd"
   xmlns:inkscape="http://www.inkscape.org/namespaces/inkscape"
   width="150mm"
   height="150mm"
   viewBox="0 0 150 150"
   version="1.1"
   id="svg3567"
   inkscape:version="1.0 (4035a4fb49, 2020-05-01)"
   sodipodi:docname="grandma-2.svg">
  <defs
     id="defs3561" />
  <sodipodi:namedview
     id="base"
     pagecolor="#ffffff"
     bordercolor="#666666"
     borderopacity="1.0"
     inkscape:pageopacity="0.0"
     inkscape:pageshadow="2"
     inkscape:zoom="0.12374369"
     inkscape:cx="-480.86317"
     inkscape:cy="-577.12924"
     inkscape:document-units="mm"
     inkscape:current-layer="layer1"
     inkscape:document-rotation="0"
     showgrid="false"
     inkscape:window-width="1920"
     inkscape:window-height="1017"
     inkscape:window-x="-8"
     inkscape:window-y="-8"
     inkscape:window-maximized="1"
     inkscape:object-paths="true"
     inkscape:snap-smooth-nodes="true" />
  <metadata
     id="metadata3564">
    <rdf:RDF>
      <cc:Work
         rdf:about="">
        <dc:format>image/svg+xml</dc:format>
        <dc:type
           rdf:resource="http://purl.org/dc/dcmitype/StillImage" />
        <dc:title />
      </cc:Work>
    </rdf:RDF>
  </metadata>
  <g
     inkscape:label="Calque 1"
     inkscape:groupmode="layer"
     id="layer1">
    <path
       style="fill:none;fill-opacity:1;fill-rule:evenodd;stroke:#4d94fb;stroke-width:4;stroke-linecap:round;stroke-linejoin:miter;stroke-miterlimit:4;stroke-dasharray:none;stroke-opacity:1"
       d="m 66.117571,148 c 2.834799,-6.04762 3.401799,-27.02528 3.401799,-27.02528"
       id="path957" />
    <g
       id="g2790"
       transform="translate(0,2.0531887)">
      <path
         sodipodi:nodetypes="zzzzz"
         id="path949"
         d="M 21.815934,79.040272 C 19.784875,61.408061 22.117693,4.1344093 73.574448,13.702405 125.03122,23.27038 129.41356,56.313584 121.08356,80.260352 112.75357,104.20713 105.10069,129.42405 72.278428,127.80188 39.456165,126.17972 23.846993,96.672464 21.815934,79.040272 Z"
         style="fill:#4d94fb;fill-opacity:1;fill-rule:evenodd;stroke:#4d94fb;stroke-width:4;stroke-linecap:butt;stroke-linejoin:miter;stroke-miterlimit:4;stroke-dasharray:none;stroke-opacity:1" />
      <path
         id="path951"
         d="M 7.3423208,66.092599 32.099748,81.778611"
         style="fill:none;fill-opacity:1;fill-rule:evenodd;stroke:#4d94fb;stroke-width:4;stroke-linecap:round;stroke-linejoin:miter;stroke-miterlimit:4;stroke-dasharray:none;stroke-opacity:1" />
      <path
         id="path953"
         d="m 113.74255,80.455692 c 11.33929,0.189 28.91514,-6.425597 28.91514,-6.425597"
         style="fill:none;fill-opacity:1;fill-rule:evenodd;stroke:#4d94fb;stroke-width:4;stroke-linecap:round;stroke-linejoin:miter;stroke-miterlimit:4;stroke-dasharray:none;stroke-opacity:1" />
      <path
         id="path955"
         d="m 84.827362,122.22204 -4.913677,16.81994 9.071455,1.13392"
         style="fill:none;fill-opacity:1;fill-rule:evenodd;stroke:#4d94fb;stroke-width:4;stroke-linecap:round;stroke-linejoin:miter;stroke-miterlimit:4;stroke-dasharray:none;stroke-opacity:1" />
      <path
         id="path959"
         d="M 31.343769,45.114929 19.248575,38.500353"
         style="fill:none;fill-opacity:1;fill-rule:evenodd;stroke:#4d94fb;stroke-width:4;stroke-linecap:round;stroke-linejoin:miter;stroke-miterlimit:4;stroke-dasharray:none;stroke-opacity:1" />
      <path
         id="path961"
         d="M 33.989607,38.878333 C 33.044668,35.854514 24.351212,26.783099 24.351212,26.783099"
         style="fill:none;fill-opacity:1;fill-rule:evenodd;stroke:#4d94fb;stroke-width:4;stroke-linecap:round;stroke-linejoin:miter;stroke-miterlimit:4;stroke-dasharray:none;stroke-opacity:1" />
      <path
         id="path963"
         d="M 42.116063,29.239937 C 41.549124,24.13728 36.446466,12.231026 36.446466,12.231026"
         style="fill:none;fill-opacity:1;fill-rule:evenodd;stroke:#4d94fb;stroke-width:4;stroke-linecap:round;stroke-linejoin:miter;stroke-miterlimit:4;stroke-dasharray:none;stroke-opacity:1" />
      <path
         id="path965"
         d="M 55.912237,24.13728 C 56.047036,13.103465 50.431539,2.78163 50.431539,2.78163"
         style="fill:none;fill-opacity:1;fill-rule:evenodd;stroke:#4d94fb;stroke-width:4;stroke-linecap:round;stroke-linejoin:miter;stroke-miterlimit:4;stroke-dasharray:none;stroke-opacity:1" />
      <path
         id="path967"
         d="m 72.921128,20.168522 c 0.65336,-6.466117 -0.189,-20.22171066 -0.189,-20.22171066"
         style="fill:none;fill-opacity:1;fill-rule:evenodd;stroke:#4d94fb;stroke-width:4;stroke-linecap:round;stroke-linejoin:miter;stroke-miterlimit:4;stroke-dasharray:none;stroke-opacity:1" />
      <path
         id="path969"
         d="M 84.827362,22.247381 C 88.36072,17.486983 91.252979,3.7265695 91.252979,3.7265695"
         style="fill:none;fill-opacity:1;fill-rule:evenodd;stroke:#4d94fb;stroke-width:4;stroke-linecap:round;stroke-linejoin:miter;stroke-miterlimit:4;stroke-dasharray:none;stroke-opacity:1" />
      <path
         sodipodi:nodetypes="cc"
         id="path971"
         d="m 95.599717,27.161078 c 5.921413,-7.042456 8.126473,-15.497032 8.126473,-15.497032"
         style="fill:none;fill-opacity:1;fill-rule:evenodd;stroke:#4d94fb;stroke-width:4;stroke-linecap:round;stroke-linejoin:miter;stroke-miterlimit:4;stroke-dasharray:none;stroke-opacity:1" />
      <path
         id="path973"
         d="m 105.23811,34.909595 c 4.54686,-5.751118 6.80354,-14.363093 6.80354,-14.363093"
         style="fill:none;fill-opacity:1;fill-rule:evenodd;stroke:#4d94fb;stroke-width:4;stroke-linecap:round;stroke-linejoin:miter;stroke-miterlimit:4;stroke-dasharray:none;stroke-opacity:1" />
      <path
         id="path975"
         d="m 108.63985,41.713151 c 7.873,-5.318977 16.06401,-17.197911 16.06401,-17.197911"
         style="fill:none;fill-opacity:1;fill-rule:evenodd;stroke:#4d94fb;stroke-width:4;stroke-linecap:round;stroke-linejoin:miter;stroke-miterlimit:4;stroke-dasharray:none;stroke-opacity:1" />
      <path
         id="path977"
         d="m 113.55353,46.815829 c 8.02793,-1.16882 17.19791,-9.260416 17.19791,-9.260416"
         style="fill:none;fill-opacity:1;fill-rule:evenodd;stroke:#4d94fb;stroke-width:4;stroke-linecap:round;stroke-linejoin:miter;stroke-miterlimit:4;stroke-dasharray:none;stroke-opacity:1" />
      <circle
         r="5.6696401"
         cy="68.322243"
         cx="58.342552"
         id="path996"
         style="color:#000000;overflow:visible;fill:#000000;fill-opacity:1;stroke:#000000;stroke-width:3;stroke-linecap:round;stroke-linejoin:round;stroke-miterlimit:4;stroke-dasharray:none;stroke-opacity:1;stop-color:#000000" />
      <circle
         r="6.0476165"
         cy="69.078194"
         cx="87.824593"
         id="path998"
         style="color:#000000;overflow:visible;fill:#000000;fill-opacity:1;stroke:#000000;stroke-width:3;stroke-linecap:round;stroke-linejoin:round;stroke-miterlimit:4;stroke-dasharray:none;stroke-opacity:1;stop-color:#000000" />
      <path
         id="path1002"
         d="m 42.089623,66.054399 c 0.78816,-1.253901 3.309079,-20.066688 4.329098,-10.763023 1.11244,10.146627 5.109858,-18.572682 4.517778,-5.560221 -0.47836,10.513057 6.581777,-16.130618 4.579678,-2.763462 -1.03246,6.893294 4.942497,-4.751056 6.213377,-5.619328 3.368818,-2.301571 -0.55216,8.642042 -0.55216,8.642042"
         style="fill:none;fill-opacity:1;fill-rule:evenodd;stroke:#000000;stroke-width:3;stroke-linecap:round;stroke-linejoin:round;stroke-miterlimit:4;stroke-dasharray:none;stroke-opacity:1"
         sodipodi:nodetypes="cssssc" />
      <path
         id="path1004"
         d="m 81.021144,53.392193 c 0,0 2.922619,-8.888015 4.796178,-8.624809 1.264459,0.17764 -1.24136,7.511324 0.002,8.573307 1.116699,0.953102 5.621757,-15.74259 4.890737,-2.634258 -0.1178,2.113509 -0.1468,8.515553 2.470519,-0.11614 2.190999,-7.225485 5.027617,-3.114573 3.440458,2.044409 -0.957759,3.113214 1.790059,-0.339306 2.986459,1.433501 1.142015,1.692257 0.710195,8.67391 0.878475,8.962383"
         style="fill:none;fill-opacity:1;fill-rule:evenodd;stroke:#000000;stroke-width:3;stroke-linecap:round;stroke-linejoin:round;stroke-miterlimit:4;stroke-dasharray:none;stroke-opacity:1"
         sodipodi:nodetypes="cssssssc" />
      <path
         sodipodi:nodetypes="cczc"
         id="path1006"
         d="m 58.720595,83.06331 c 7.462716,7.452657 11.967874,7.880637 23.812488,3.968758 C 81.853204,90.124027 79.553185,102.01871 70.248849,101.01718 60.944514,100.01566 57.701356,87.467108 58.720595,83.06331 Z"
         style="fill:#000000;fill-opacity:1;fill-rule:evenodd;stroke:#000000;stroke-width:3;stroke-linecap:round;stroke-linejoin:round;stroke-miterlimit:4;stroke-dasharray:none;stroke-opacity:1" />
    </g>
  </g>
</svg>
