<?xml version="1.0" encoding="UTF-8" standalone="no"?>
<svg
   xmlns:dc="http://purl.org/dc/elements/1.1/"
   xmlns:cc="http://creativecommons.org/ns#"
   xmlns:rdf="http://www.w3.org/1999/02/22-rdf-syntax-ns#"
   xmlns:svg="http://www.w3.org/2000/svg"
   xmlns="http://www.w3.org/2000/svg"
   xmlns:sodipodi="http://sodipodi.sourceforge.net/DTD/sodipodi-0.dtd"
   xmlns:inkscape="http://www.inkscape.org/namespaces/inkscape"
   width="150mm"
   height="150mm"
   viewBox="0 0 150 150"
   version="1.1"
   id="svg3567"
   inkscape:version="1.0 (4035a4fb49, 2020-05-01)"
   sodipodi:docname="greatgrandpa.svg">
  <defs
     id="defs3561" />
  <sodipodi:namedview
     id="base"
     pagecolor="#ffffff"
     bordercolor="#666666"
     borderopacity="1.0"
     inkscape:pageopacity="0.0"
     inkscape:pageshadow="2"
     inkscape:zoom="0.12374369"
     inkscape:cx="-944.54569"
     inkscape:cy="534.86208"
     inkscape:document-units="mm"
     inkscape:current-layer="layer1"
     inkscape:document-rotation="0"
     showgrid="false"
     inkscape:window-width="1920"
     inkscape:window-height="1017"
     inkscape:window-x="-8"
     inkscape:window-y="-8"
     inkscape:window-maximized="1"
     inkscape:object-paths="true"
     inkscape:snap-smooth-nodes="true" />
  <metadata
     id="metadata3564">
    <rdf:RDF>
      <cc:Work
         rdf:about="">
        <dc:format>image/svg+xml</dc:format>
        <dc:type
           rdf:resource="http://purl.org/dc/dcmitype/StillImage" />
        <dc:title />
      </cc:Work>
    </rdf:RDF>
  </metadata>
  <g
     inkscape:label="Calque 1"
     inkscape:groupmode="layer"
     id="layer1">
    <path
       sodipodi:nodetypes="zzzzz"
       id="path1240"
       d="M 49.337891,92.331992 C 37.173016,74.827573 42.956516,34.506236 64.070862,23.044629 85.185208,11.583023 110.94728,22.682703 117.53827,48.941471 c 6.591,26.258767 -5.25533,78.522359 -29.39964,84.457139 -24.144308,5.93476 -26.635864,-23.5622 -38.800739,-41.066618 z"
       style="fill:#3ac7d1;fill-opacity:1;fill-rule:evenodd;stroke:#3ac7d1;stroke-width:3;stroke-linecap:butt;stroke-linejoin:miter;stroke-miterlimit:4;stroke-dasharray:none;stroke-opacity:1" />
    <path
       id="path1242"
       d="M 56.187663,91.077771 C 51.055414,100.70477 42.442851,111.71172 42.442851,111.71172"
       style="fill:none;fill-opacity:1;fill-rule:evenodd;stroke:#3ac7d1;stroke-width:3;stroke-linecap:round;stroke-linejoin:miter;stroke-miterlimit:4;stroke-dasharray:none;stroke-opacity:1" />
    <path
       id="path1244"
       d="m 111.86655,88.230072 c 8.49534,9.969315 6.21712,26.630068 6.21712,26.630068"
       style="fill:none;fill-opacity:1;fill-rule:evenodd;stroke:#3ac7d1;stroke-width:3;stroke-linecap:round;stroke-linejoin:miter;stroke-miterlimit:4;stroke-dasharray:none;stroke-opacity:1" />
    <path
       id="path1246"
       d="M 84.670531,124.68751 C 84.457431,134.16879 80.701773,148.5 80.701773,148.5"
       style="fill:none;fill-opacity:1;fill-rule:evenodd;stroke:#3ac7d1;stroke-width:3;stroke-linecap:round;stroke-linejoin:miter;stroke-miterlimit:4;stroke-dasharray:none;stroke-opacity:1" />
    <path
       id="path1248"
       d="m 76.733035,123.74257 c 0.5081,10.73744 -2.078839,23.05653 -2.078839,23.05653"
       style="fill:none;fill-opacity:1;fill-rule:evenodd;stroke:#3ac7d1;stroke-width:3;stroke-linecap:round;stroke-linejoin:miter;stroke-miterlimit:4;stroke-dasharray:none;stroke-opacity:1" />
    <path
       id="path1250"
       d="m 111.88482,46.257493 c 6.80353,-17.575887 2.64582,-37.9865932 2.64582,-37.9865932"
       style="fill:none;fill-opacity:1;fill-rule:evenodd;stroke:#3ac7d1;stroke-width:3;stroke-linecap:round;stroke-linejoin:miter;stroke-miterlimit:4;stroke-dasharray:none;stroke-opacity:1" />
    <g
       id="g2837"
       transform="translate(0,15.907659)">
      <path
         style="fill:none;fill-opacity:1;fill-rule:evenodd;stroke:#3ac7d1;stroke-width:3;stroke-linecap:round;stroke-linejoin:miter;stroke-miterlimit:4;stroke-dasharray:none;stroke-opacity:1"
         d="m 107.34912,37.753037 c 7.62978,-26.726233 -3.4018,-38.17558283 -3.4018,-38.17558283"
         id="path1252" />
      <path
         style="fill:none;fill-opacity:1;fill-rule:evenodd;stroke:#3ac7d1;stroke-width:3;stroke-linecap:round;stroke-linejoin:miter;stroke-miterlimit:4;stroke-dasharray:none;stroke-opacity:1"
         d="M 98.655644,16.208396 C 96.387805,-4.013316 85.615451,-11.005875 85.615451,-11.005875"
         id="path1254" />
      <path
         style="fill:none;fill-opacity:1;fill-rule:evenodd;stroke:#3ac7d1;stroke-width:3;stroke-linecap:round;stroke-linejoin:miter;stroke-miterlimit:4;stroke-dasharray:none;stroke-opacity:1"
         d="M 86.182451,7.892928 C 78.622954,-13.651707 66.7167,-14.407659 66.7167,-14.407659"
         id="path1256" />
      <path
         style="fill:none;fill-opacity:1;fill-rule:evenodd;stroke:#3ac7d1;stroke-width:3;stroke-linecap:round;stroke-linejoin:miter;stroke-miterlimit:4;stroke-dasharray:none;stroke-opacity:1"
         d="M 75.788096,9.2158434 C 62.747962,-13.273727 52.920547,-13.273727 52.920547,-13.273727"
         id="path1258" />
      <path
         style="fill:none;fill-opacity:1;fill-rule:evenodd;stroke:#3ac7d1;stroke-width:3;stroke-linecap:round;stroke-linejoin:miter;stroke-miterlimit:4;stroke-dasharray:none;stroke-opacity:1"
         d="M 64.070862,7.1369704 C 54.999426,-6.8481406 46.49497,-6.092189 46.49497,-6.092189"
         id="path1260" />
    </g>
    <g
       id="g2847"
       transform="translate(0,6.3500003)">
      <circle
         style="color:#000000;overflow:visible;fill:#000000;fill-opacity:1;stroke:#000000;stroke-width:2;stroke-linecap:round;stroke-linejoin:round;stroke-miterlimit:4;stroke-dasharray:none;stroke-opacity:1;stop-color:#000000"
         id="path1288"
         cx="56.417461"
         cy="68.575348"
         r="3.4017839" />
      <circle
         style="color:#000000;overflow:visible;fill:#000000;fill-opacity:1;stroke:#000000;stroke-width:2;stroke-linecap:round;stroke-linejoin:round;stroke-miterlimit:4;stroke-dasharray:none;stroke-opacity:1;stop-color:#000000"
         id="path1290"
         cx="87.978355"
         cy="67.252426"
         r="4.346724" />
      <g
         id="g1307"
         style="fill:none;fill-opacity:1;stroke:#000000;stroke-opacity:1"
         transform="matrix(1.999999,0,0,1.999999,1071.6609,162.12439)">
        <path
           id="path1292"
           d="m -500.91294,-34.584819 c 1.13392,-0.283483 3.59079,0.09449 3.59079,0.09449"
           style="fill:none;fill-opacity:1;fill-rule:evenodd;stroke:#000000;stroke-width:1.5;stroke-linecap:round;stroke-linejoin:round;stroke-miterlimit:4;stroke-dasharray:none;stroke-opacity:1" />
        <path
           sodipodi:nodetypes="cssc"
           id="path1294"
           d="m -513.29166,-50.081843 c 0.54787,-1.106617 2.15926,-8.412907 2.14104,-4.226377 -0.016,3.684517 2.08733,-7.058404 1.86891,-2.085345 -0.2803,6.381715 3.13935,-7.980253 2.22665,1.114548"
           style="fill:none;fill-opacity:1;fill-rule:evenodd;stroke:#000000;stroke-width:1.5;stroke-linecap:round;stroke-linejoin:round;stroke-miterlimit:4;stroke-dasharray:none;stroke-opacity:1" />
        <path
           sodipodi:nodetypes="csssc"
           id="path1296"
           d="m -493.92038,-54.428569 c 0.4905,-11.636978 2.94493,2.207855 2.99223,-2.432338 0.0502,-4.920844 2.05351,2.736275 1.95141,0.747312 -0.24558,-4.784299 2.06441,4.655849 2.11271,1.592981 0.064,-4.057964 2.77105,3.871805 2.77105,3.871805"
           style="fill:none;fill-opacity:1;fill-rule:evenodd;stroke:#000000;stroke-width:1.5;stroke-linecap:round;stroke-linejoin:round;stroke-miterlimit:4;stroke-dasharray:none;stroke-opacity:1" />
        <path
           sodipodi:nodetypes="csssc"
           id="path1298"
           d="m -500.72395,-39.593006 c 0.16702,-8.033153 -1.41609,2.477541 -1.99734,-0.181285 -0.9234,-4.223971 -1.05103,7.260366 -1.85337,1.112269 -0.0831,-0.636585 -1.22896,0.97862 -0.61158,2.511343 1.41457,3.511785 -3.72952,4.535556 -3.19174,1.282375"
           style="fill:none;fill-opacity:1;fill-rule:evenodd;stroke:#000000;stroke-width:1.5;stroke-linecap:round;stroke-linejoin:round;stroke-miterlimit:4;stroke-dasharray:none;stroke-opacity:1" />
        <path
           sodipodi:nodetypes="cssssc"
           id="path1300"
           d="m -497.49396,-39.249421 c 1.09857,-9.103834 1.97659,1.155495 2.52013,-0.386456 1.03524,-2.936832 1.37026,3.644997 1.60246,1.960048 0.71209,-5.16723 0.86843,3.821002 1.31259,1.89346 1.09204,-4.739198 0.58305,1.290456 1.66873,2.360571 1.96469,1.936525 4.58447,-0.879707 2.42951,-3.458558"
           style="fill:none;fill-opacity:1;fill-rule:evenodd;stroke:#000000;stroke-width:1.5;stroke-linecap:round;stroke-linejoin:round;stroke-miterlimit:4;stroke-dasharray:none;stroke-opacity:1" />
      </g>
    </g>
  </g>
</svg>
