<?xml version="1.0" encoding="UTF-8" standalone="no"?>
<!-- Created with Inkscape (http://www.inkscape.org/) -->

<svg
   width="240.506mm"
   height="137.45676mm"
   viewBox="0 0 240.50599 137.45676"
   version="1.1"
   id="svg5"
   inkscape:version="1.1.1 (3bf5ae0d25, 2021-09-20)"
   sodipodi:docname="geovis.svg"
   xmlns:inkscape="http://www.inkscape.org/namespaces/inkscape"
   xmlns:sodipodi="http://sodipodi.sourceforge.net/DTD/sodipodi-0.dtd"
   xmlns="http://www.w3.org/2000/svg"
   xmlns:svg="http://www.w3.org/2000/svg">
  <sodipodi:namedview
     id="namedview7"
     pagecolor="#ffffff"
     bordercolor="#cccccc"
     borderopacity="1"
     inkscape:pageshadow="0"
     inkscape:pageopacity="0"
     inkscape:pagecheckerboard="0"
     inkscape:document-units="mm"
     showgrid="false"
     fit-margin-top="0"
     fit-margin-left="0"
     fit-margin-right="0"
     fit-margin-bottom="0"
     inkscape:zoom="2.0056913"
     inkscape:cx="605.52687"
     inkscape:cy="346.26465"
     inkscape:window-width="2880"
     inkscape:window-height="1541"
     inkscape:window-x="2869"
     inkscape:window-y="-11"
     inkscape:window-maximized="1"
     inkscape:current-layer="layer1" />
  <defs
     id="defs2" />
  <g
     inkscape:label="Calque 1"
     inkscape:groupmode="layer"
     id="layer1"
     transform="translate(-224.90754,-345.8842)">
    <ellipse
       style="fill:#ffffff;stroke-width:0.171203;stroke-linecap:round;stroke-linejoin:round;stop-color:#000000"
       id="path845"
       cx="345.21518"
       cy="414.61258"
       rx="71.630531"
       ry="68.728378" />
    <path
       id="path1292"
       style="fill:#0ca3fc;stroke-width:0.264583"
       d="m 339.73671,471.49481 c -0.3638,-0.0653 -1.91162,-0.29361 -3.43959,-0.50728 -3.91921,-0.54806 -7.19103,-1.40002 -12.17083,-3.16917 -2.02472,-0.71933 -7.42728,-3.4087 -9.78958,-4.87323 -8.97123,-5.56179 -16.54504,-13.83745 -21.26516,-23.23577 -6.34313,-12.62994 -7.92409,-26.8762 -4.48513,-40.41627 1.25632,-4.94643 3.36669,-10.21929 5.71835,-14.28749 1.04556,-1.80876 3.18435,-5.16096 3.79824,-5.95313 4.48111,-5.78246 9.33485,-10.34336 14.8321,-13.93724 1.63022,-1.06577 3.01271,-1.93776 3.07221,-1.93776 0.0595,0 0.92835,-0.45072 1.93077,-1.00159 3.09153,-1.69891 8.18741,-3.68102 12.30804,-4.78737 4.43806,-1.19156 7.89565,-1.65497 13.45933,-1.80391 4.6921,-0.1256 5.94873,-0.068 9.31314,0.42714 17.07761,2.51316 31.15594,11.36564 40.78943,25.64845 0.82015,1.21596 1.49118,2.24632 1.49118,2.28968 0,0.0434 0.41095,0.80591 0.91323,1.69453 1.93939,3.43112 4.50361,9.69936 4.42502,10.81697 -0.0235,0.33432 0.23812,1.28682 0.58138,2.11666 0.80923,1.95633 1.02514,2.89805 0.69005,3.00975 -0.1571,0.0524 -0.054,0.51036 0.24831,1.10337 1.02686,2.01412 1.5732,9.84004 1.09379,15.66772 -1.25214,15.22094 -8.2256,28.95567 -19.89435,39.1833 -3.25974,2.85716 -8.20323,6.08584 -12.43097,8.11891 -5.9126,2.84328 -10.70533,4.35969 -16.90146,5.34759 -2.64866,0.42229 -12.73254,0.7654 -14.2875,0.48614 z m 12.56771,-1.68324 c 0.58208,-0.13456 1.89177,-0.62956 2.91041,-1.10001 l 1.85209,-0.85533 -3.57188,-0.33319 c -1.96453,-0.18324 -3.83553,-0.3824 -4.15777,-0.44255 -0.3788,-0.0707 -1.39298,0.38374 -2.86919,1.28569 -1.91692,1.1712 -2.18378,1.41396 -1.66306,1.51297 1.17724,0.22384 6.44405,0.17636 7.49939,-0.0676 z m -8.3976,-1.48946 c 2.49745,-1.23118 2.90845,-1.75509 1.49802,-1.90951 -0.42534,-0.0466 -2.56787,-0.5453 -4.76119,-1.10829 l -3.98784,-1.02363 -1.74412,1.66861 -1.74411,1.66858 1.49862,0.44309 c 1.52395,0.45057 5.67922,1.39362 6.38337,1.44874 0.21276,0.0166 1.49852,-0.51777 2.85725,-1.18759 z m 17.39343,-0.24735 c 1.51438,-0.52722 1.65911,-0.62181 0.79375,-0.51874 -0.58208,0.0693 -1.35599,0.13001 -1.71979,0.13485 -0.36381,0.005 -0.95912,0.24162 -1.32292,0.52619 -0.60324,0.47186 -0.61488,0.51674 -0.13229,0.50995 0.29104,-0.004 1.3626,-0.29761 2.38125,-0.65225 z m -34.15887,-1.06024 c -1.2945,-0.4725 -2.93603,-1.11259 -3.64785,-1.42242 -0.71182,-0.30984 -1.35873,-0.49883 -1.43757,-0.41999 -0.26639,0.26639 0.34187,0.59218 2.86408,1.53401 3.36021,1.25474 4.05778,1.46437 4.33801,1.30351 0.13033,-0.0748 -0.82217,-0.5226 -2.11667,-0.99511 z m 5.34573,-0.61547 c 2.18136,-1.60592 2.99464,-2.94448 1.789,-2.94448 -0.43782,0 -2.34862,-0.71656 -6.80504,-2.55189 -1.5801,-0.65074 -2.91244,-1.14366 -2.96074,-1.09535 -0.16581,0.1658 -1.70696,3.69653 -1.70696,3.91059 0,0.11772 0.32743,0.33987 0.72761,0.49368 0.40018,0.1538 2.27541,0.87654 4.16719,1.60609 1.89177,0.72953 3.51101,1.32972 3.59832,1.33373 0.0873,0.004 0.62309,-0.33454 1.19062,-0.75237 z m 29.38653,-1.95231 c 2.0731,-1.84806 3.79223,-3.66305 3.79223,-4.00368 0,-0.0899 -0.92273,-0.16452 -2.05052,-0.16576 -1.12778,-0.001 -3.41974,-0.12642 -5.09323,-0.27816 l -3.04271,-0.27588 -0.79374,1.00485 c -0.43657,0.55267 -1.66998,1.92016 -2.74092,3.03886 l -1.94716,2.034 1.02112,0.16733 c 0.56162,0.092 1.19972,0.20512 1.418,0.25131 0.21828,0.0462 1.94673,0.0978 3.841,0.11467 l 3.44412,0.0307 z m 3.91575,1.23465 c 2.47617,-0.44699 3.02626,-0.72775 6.27713,-3.20367 0.82822,-0.63081 1.77058,-1.51868 2.09413,-1.97306 l 0.58826,-0.82614 -1.43266,0.15916 c -0.78797,0.0875 -2.36101,0.23728 -3.49565,0.33277 -2.06008,0.17338 -2.06472,0.1755 -3.30729,1.50841 -0.68437,0.73412 -1.92892,2.01113 -2.76567,2.83779 -0.83674,0.82665 -1.52135,1.58297 -1.52135,1.68071 0,0.0977 0.26789,0.11799 0.59531,0.045 0.32742,-0.073 1.66293,-0.32542 2.96779,-0.56097 z m -15.99744,-1.49923 c 1.89062,-1.80419 3.96767,-4.19426 3.96767,-4.56561 0,-0.16068 -0.87871,-0.43979 -1.95268,-0.62025 -1.07397,-0.18046 -3.54452,-0.71445 -5.4901,-1.18667 -2.94299,-0.71429 -3.58131,-0.95682 -3.7986,-1.44327 -0.34623,-0.77513 -0.92945,-0.7473 -0.92945,0.0444 0,0.75437 -0.62788,1.34328 -1.19867,1.12425 -0.32909,-0.12629 -0.3527,-0.26813 -0.11768,-0.70726 0.25908,-0.48408 0.19763,-0.58566 -0.51775,-0.85568 -0.59607,-0.22498 -0.81173,-0.4755 -0.81173,-0.94292 0,-0.55359 0.0948,-0.61739 0.7276,-0.48969 0.40018,0.0808 0.92166,0.22195 1.15884,0.31378 0.327,0.12658 0.66779,-0.25606 1.40982,-1.58292 1.96868,-3.52035 3.88966,-7.60618 3.67301,-7.81232 -0.12232,-0.11637 -0.81771,-0.3936 -1.54531,-0.61604 -1.8289,-0.55912 -4.05202,-1.38995 -7.01146,-2.62029 -1.38245,-0.57474 -2.83642,-1.17652 -3.23105,-1.3373 -0.39463,-0.16077 -0.8007,-0.20912 -0.90237,-0.10745 -0.35211,0.35211 1.42017,1.89185 3.50468,3.04482 0.34125,0.18876 0.98512,0.87322 1.43082,1.52102 0.4457,0.6478 1.16194,1.35964 1.59164,1.58185 0.99886,0.51653 1.01654,1.32506 0.0537,2.45454 -0.55053,0.64581 -1.32321,1.05527 -3.175,1.68251 -1.34607,0.45594 -2.44739,0.97565 -2.44739,1.15491 0,0.30606 0.30088,0.45706 2.44739,1.22822 1.16767,0.4195 1.52136,0.72428 1.52136,1.31097 0,0.6748 -0.41411,0.62913 -2.68457,-0.29607 -2.16221,-0.8811 -2.6071,-0.95734 -2.6071,-0.44679 0,0.19133 -0.38695,0.5534 -0.8599,0.8046 -0.47294,0.25121 -1.15755,0.63588 -1.52135,0.85484 -0.64811,0.39007 -2.45055,0.37643 -3.48999,-0.0264 -0.34401,-0.13333 -0.60364,0.13521 -1.12448,1.16304 -0.84483,1.6672 -0.84239,1.76924 0.0504,2.10507 0.40018,0.15055 1.50151,0.59586 2.44739,0.9896 2.24059,0.93267 4.83873,1.89911 6.4358,2.39391 1.55265,0.48107 1.55028,0.48269 3.38464,-2.30472 0.7581,-1.15196 1.40873,-2.09446 1.44586,-2.09446 0.40312,0 0.90454,0.40597 0.90454,0.73235 0,0.22614 -0.66499,1.29467 -1.47774,2.37451 -0.81276,1.07984 -1.4023,2.03879 -1.3101,2.13099 0.26194,0.26193 1.56602,0.5885 9.00554,2.25513 1.25224,0.28053 1.64714,0.12365 3.04378,-1.20913 z m -28.85094,0.39688 c -0.006,-0.10915 -0.63073,-0.49256 -1.38906,-0.85203 -0.75833,-0.35947 -2.31601,-1.16315 -3.4615,-1.78594 -1.1455,-0.62279 -2.15022,-1.13235 -2.23271,-1.13235 -0.31766,0 0.9353,0.97572 2.19876,1.71224 3.14382,1.83265 4.91141,2.57743 4.88451,2.05808 z m 1.47563,-3.41408 c 0.50756,-1.11375 0.8915,-2.04894 0.85322,-2.07819 -0.0383,-0.0292 -0.96931,-0.48721 -2.06895,-1.0177 -1.52728,-0.73679 -2.3304,-0.96452 -3.40151,-0.96452 -1.16268,0 -1.57546,-0.13725 -2.41678,-0.80359 l -1.01462,-0.80359 0.24441,0.85222 c 0.29945,1.0441 0.17899,1.19111 -0.66201,0.80792 -0.78194,-0.35627 -0.98754,-0.10918 -0.77857,0.93567 0.0976,0.48785 0.46493,0.96709 0.98419,1.28394 1.33021,0.8117 6.90805,3.7818 7.13268,3.79803 0.11281,0.008 0.62039,-0.89643 1.12794,-2.01019 z m 44.20592,-2.10122 c 1.01654,-0.27284 6.30358,-9.00374 5.5855,-9.22376 -0.17846,-0.0547 -1.87229,-0.16925 -3.76406,-0.25461 -1.89177,-0.0853 -4.22712,-0.2301 -5.18967,-0.32166 l -1.75007,-0.16648 -1.07257,2.10503 c -1.21492,2.38442 -1.69922,3.25534 -3.05736,5.49817 -0.52631,0.86913 -0.86554,1.67162 -0.75385,1.78331 0.11168,0.11169 2.10329,0.30573 4.42579,0.43121 2.3225,0.12548 4.40132,0.2441 4.6196,0.2636 0.21828,0.0195 0.6488,-0.0322 0.95669,-0.11481 z m 8.3026,-0.87039 2.24405,-0.44858 1.28619,-1.57688 c 1.82278,-2.23475 2.36101,-3.57606 2.14113,-5.33592 -0.0967,-0.77403 -0.25857,-1.45845 -0.35968,-1.52094 -0.10112,-0.0625 -1.54196,0.0284 -3.20188,0.20193 l -3.01803,0.31556 -1.33126,2.5499 c -0.7322,1.40244 -1.89681,3.3953 -2.58804,4.42859 -0.69122,1.03328 -1.25677,1.94983 -1.25677,2.03675 0,0.23694 3.53648,-0.1411 6.08429,-0.65041 z m -18.57855,-2.21327 c 2.16104,-3.53196 3.78628,-6.912 3.41954,-7.11169 -0.17489,-0.0952 -1.03236,-0.31088 -1.90548,-0.47922 -2.38051,-0.45895 -7.25587,-1.61905 -8.54207,-2.03259 -1.30384,-0.41922 -2.17356,-0.46999 -2.17356,-0.12689 0,0.33952 -2.85848,6.2639 -3.76252,7.79807 -0.41771,0.70886 -0.71223,1.33607 -0.65449,1.39381 0.24254,0.24255 6.64297,1.85893 9.3118,2.35164 3.01182,0.55602 2.82076,0.63557 4.30678,-1.79313 z m -31.85939,0.7849 c 0.57435,-1.50392 0.57167,-1.51251 -0.47158,-1.51251 -1.2469,0 -1.74143,0.23345 -1.74143,0.82206 0,0.27547 -0.11907,0.50086 -0.26459,0.50086 -0.5448,0 -0.23525,0.44776 0.59532,0.86112 1.25961,0.62688 1.40641,0.57451 1.88228,-0.67153 z m -12.79635,0.0221 c 0,-0.65851 -0.0706,-0.77611 -0.3175,-0.52916 -0.17462,0.17462 -0.56157,0.32015 -0.85989,0.32338 -0.50721,0.006 -0.49948,0.0395 0.11906,0.52328 0.90597,0.70866 1.05833,0.66296 1.05833,-0.3175 z m -6.21917,-4.18203 c -0.2642,-0.29194 -0.53774,-0.47341 -0.60788,-0.40326 -0.17778,0.17777 0.48213,0.93404 0.81504,0.93404 0.15026,0 0.057,-0.23884 -0.20716,-0.53078 z m -0.70895,-2.02982 c -0.0391,-0.58095 0.0642,-1.01634 0.25629,-1.08038 0.63728,-0.21243 0.34012,-1.33704 -0.51398,-1.94522 l -0.83582,-0.59514 0.17085,1.45362 c 0.16705,1.42136 0.64518,3.14022 0.8735,3.14022 0.0631,0 0.0852,-0.43789 0.0492,-0.9731 z m -2.25477,-2.40571 -0.387,-2.45277 -3.02029,-2.97119 c -2.88859,-2.84162 -3.01286,-2.9308 -2.8499,-2.04514 0.40954,2.22565 1.74038,5.04874 3.09028,6.55534 1.46108,1.63069 3.40707,3.54035 3.498,3.43271 0.0308,-0.0364 -0.11824,-1.16993 -0.33109,-2.51895 z m 71.35331,-1.2943 c 0.69216,-1.84999 0.52801,-2.00533 -1.84542,-1.74633 -2.73705,0.29867 -3.20523,0.22389 -3.89825,-0.62268 -0.34358,-0.4197 -0.97624,-1.12633 -1.40593,-1.57029 -0.44303,-0.45775 -0.78123,-1.09447 -0.78123,-1.47078 0,-0.36497 -0.16739,-0.89249 -0.37196,-1.17226 -0.35351,-0.48345 -0.39126,-0.46299 -0.76123,0.41246 -0.92898,2.1982 -2.57098,6.55588 -2.57098,6.82305 0,0.5009 2.09529,0.7173 7.72005,0.79725 l 3.35443,0.0477 z m 4.46914,1.23962 c 2.92008,-0.33574 3.04119,-0.38585 3.55959,-1.47296 0.7663,-1.60694 0.42157,-2.33301 -0.79785,-1.68039 -0.70057,0.37493 -0.67425,0.39054 -1.53567,-0.91076 -0.20924,-0.31609 -0.5311,-0.35677 -1.53875,-0.19452 -1.58582,0.25536 -1.83512,0.51086 -2.66489,2.73119 l -0.66744,1.78593 0.71575,-0.002 c 0.39366,-10e-4 1.71183,-0.11653 2.92926,-0.25649 z m -17.1198,-1.79203 c 0.70509,-1.60231 1.36839,-3.33132 2.34989,-6.12542 0.5687,-1.61897 0.70417,-2.31517 0.49868,-2.56278 -0.20076,-0.2419 -0.19345,-0.50565 0.0253,-0.91444 0.1691,-0.31596 0.20713,-0.67031 0.0845,-0.78743 -0.12262,-0.11712 -1.28393,-0.40943 -2.58069,-0.64957 -2.08993,-0.38703 -5.30964,-1.19693 -7.72713,-1.94372 -0.45346,-0.14008 -0.93139,-0.17827 -1.06207,-0.0849 -0.13068,0.0934 -0.85259,1.71762 -1.60425,3.60939 -0.75165,1.89177 -1.73224,4.25435 -2.17908,5.25018 -0.97023,2.16228 -0.99641,2.49887 -0.21712,2.79221 1.52897,0.57552 9.63782,2.41951 11.65107,2.64949 0.11431,0.0131 0.45671,-0.5418 0.76088,-1.23303 z m -55.20931,-1.05833 c 0.24179,-0.69122 0.62411,-1.63728 0.84958,-2.10235 0.27828,-0.57397 0.37127,-1.31212 0.2895,-2.29812 -0.0986,-1.18902 -0.29998,-1.67164 -1.10999,-2.66015 -1.09042,-1.33072 -1.66716,-1.51928 -1.87269,-0.6123 -0.36624,1.61616 -0.66514,4.21625 -0.66693,5.80166 -0.002,1.67888 0.0408,1.80047 0.8579,2.44446 0.47294,0.37274 0.93934,0.67902 1.03645,0.68064 0.0971,0.002 0.37439,-0.56262 0.61618,-1.25384 z m 42.07715,-4.10104 c 2.31588,-5.5067 3.31497,-8.16208 3.16332,-8.40746 -0.0829,-0.13414 -0.71117,-0.41818 -1.39614,-0.63119 -1.76662,-0.54938 -3.94677,-1.36639 -7.54453,-2.8273 l -3.12413,-1.26859 -1.19804,2.56545 c -0.65892,1.41099 -1.67863,3.637 -2.26602,4.94669 -0.5874,1.30969 -1.1725,2.49436 -1.30023,2.63261 -0.55756,0.60344 -0.2073,1.34136 0.87358,1.84038 2.908,1.34258 10.41529,4.0933 11.23655,4.11715 0.16711,0.005 0.86715,-1.33063 1.55564,-2.96774 z m -45.80759,0.70919 c 0.098,-0.95602 0.34947,-2.72097 0.55893,-3.92212 l 0.38084,-2.1839 -3.60132,-3.62639 c -1.98072,-1.99451 -3.67431,-3.55343 -3.76353,-3.46426 -0.0892,0.0892 -0.20422,2.04646 -0.25556,4.34952 l -0.0933,4.1874 3.10641,3.19898 c 1.70854,1.75944 3.19262,3.19897 3.29796,3.19897 0.10534,0 0.27167,-0.78219 0.36962,-1.7382 z m -7.89044,-3.63381 c -0.0914,-0.46513 -0.52482,-1.26241 -0.96328,-1.77174 l -0.79718,-0.92604 0.3824,0.92604 c 1.32474,3.20809 1.77343,3.78496 1.37806,1.77174 z m 35.16981,0.8741 c 0.0957,-0.15478 -0.17885,-0.26459 -0.66146,-0.26459 -0.48261,0 -0.75712,0.10981 -0.66146,0.26459 0.0899,0.14552 0.3876,0.26458 0.66146,0.26458 0.27387,0 0.57152,-0.11906 0.66146,-0.26458 z m 4.76854,-3.63802 c 0.84325,-1.85539 1.99295,-4.36316 2.55488,-5.57282 0.56194,-1.20966 0.95985,-2.29946 0.88425,-2.42179 -0.0756,-0.12232 -1.53654,-0.93219 -3.24652,-1.7997 -1.70999,-0.86751 -4.16795,-2.18872 -5.46214,-2.93602 -1.29419,-0.74731 -2.44424,-1.35874 -2.55568,-1.35874 -0.11144,0 -0.75652,1.02444 -1.43351,2.27654 -1.10445,2.04266 -1.20205,2.3593 -0.95005,3.08219 0.15447,0.44311 0.28085,1.14307 0.28085,1.55547 0,0.63069 0.20344,0.85289 1.28059,1.39873 1.26605,0.64155 2.95275,2.2719 2.95275,2.85409 0,0.16538 0.19755,0.51899 0.43901,0.78579 0.24145,0.26681 0.51994,1.01838 0.61885,1.67017 0.1534,1.01074 0.10827,1.20779 -0.30671,1.3395 -0.26761,0.0849 -0.48657,0.26383 -0.48657,0.39754 0,0.21109 3.29406,2.05421 3.73435,2.08947 0.0894,0.007 0.8524,-1.50503 1.69565,-3.36042 z m -39.80848,-6.34516 0.3006,-2.17796 -1.28346,-1.77506 c -0.7059,-0.97628 -1.65025,-2.40752 -2.09856,-3.18054 -0.44831,-0.77301 -0.8948,-1.32579 -0.99219,-1.2284 -0.26432,0.26432 -0.21402,3.21206 0.10439,6.11858 0.28873,2.63551 0.85268,4.25317 2.18706,6.27343 1.33934,2.02778 1.36224,2.02771 1.42474,-0.005 0.0312,-1.01607 0.19209,-2.8275 0.35742,-4.02538 z m 71.09101,3.82407 c 0.32984,-0.7634 0.5962,-1.91748 0.59531,-2.57942 -7.9e-4,-0.66551 0.18403,-1.4629 0.41606,-1.79418 0.41792,-0.59666 1.76751,-6.60491 1.5593,-6.94181 -0.0607,-0.0983 -0.63312,-0.25031 -1.27197,-0.33787 -0.63884,-0.0876 -2.63639,-0.5364 -4.43899,-0.99743 -1.8026,-0.46101 -3.65113,-0.89373 -4.10784,-0.96158 l -0.8304,-0.12336 -1.6467,4.96764 c -0.90568,2.73221 -1.87146,5.49199 -2.14617,6.13286 -0.2747,0.64086 -0.49946,1.25219 -0.49946,1.35851 0,0.46771 10.71351,3.02794 11.50937,2.75043 0.14552,-0.0507 0.53319,-0.71395 0.86149,-1.47379 z m -61.75149,0.73312 c 0.27698,-0.72178 -0.1334,-6.584 -0.52689,-7.52661 -0.48417,-1.15983 -0.2515,-2.39324 0.45146,-2.39324 0.27947,0 0.51618,-0.0893 0.526,-0.19843 0.01,-0.10915 0.0702,-0.60214 0.13414,-1.09555 0.10709,-0.82626 -0.0663,-1.08746 -2.1954,-3.30729 -1.27142,-1.3256 -2.38533,-2.44387 -2.47535,-2.48503 -0.41387,-0.18927 -3.01139,6.91388 -3.32292,9.08683 l -0.15405,1.07449 3.49768,3.62186 c 1.92373,1.99203 3.59096,3.62187 3.70497,3.62187 0.11401,0 0.27617,-0.1795 0.36036,-0.3989 z m 50.44643,-8.85038 c 1.39126,-4.11517 1.96917,-6.16232 1.75968,-6.23334 -2.07454,-0.70338 -6.78748,-2.48813 -8.45477,-3.20177 -1.1657,-0.49893 -2.14807,-0.8746 -2.18306,-0.83482 -0.035,0.0398 -0.42073,0.84624 -0.85721,1.79213 -1.54677,3.35199 -2.39878,5.19057 -3.60853,7.78693 -0.92609,1.98758 -1.14268,2.67925 -0.88924,2.8398 0.56871,0.36027 6.81851,2.79522 9.32958,3.63485 1.31569,0.43993 2.48102,0.69473 2.60595,0.5698 0.1243,-0.1243 1.15822,-2.98341 2.2976,-6.35358 z m -15.07967,0.055 c 0.32807,-0.69122 0.86402,-1.85208 1.19099,-2.57969 0.32698,-0.7276 1.21002,-2.62428 1.96233,-4.21483 2.06883,-4.37399 2.13735,-4.01966 -1.09042,-5.63876 -1.50338,-0.75411 -3.74544,-1.963 -4.98237,-2.68642 -2.17185,-1.2702 -2.26359,-1.29829 -2.67573,-0.81925 -0.73297,0.85198 -6.3201,10.51438 -6.3201,10.93002 0,0.21702 0.92273,0.9317 2.05052,1.58819 2.80542,1.63304 8.59727,4.64493 8.9667,4.66286 0.16587,0.008 0.57001,-0.55089 0.89808,-1.24212 z m 61.53423,-0.21442 c 0.16246,-0.64731 0.1156,-1.12598 -0.37398,-3.82047 -0.29287,-1.61184 -1.90264,-4.05061 -1.90264,-2.88247 0,0.65459 0.8582,3.5835 1.21011,4.12993 0.20757,0.3223 0.37739,1.1855 0.37739,1.91823 0,1.40987 0.4034,1.79317 0.68912,0.65478 z m -104.64588,-2.49758 c 0.32994,-1.09139 1.06048,-3.09889 1.62341,-4.4611 0.87416,-2.1153 0.97339,-2.54598 0.68,-2.9512 -2.08134,-2.87469 -2.95871,-4.18773 -3.70081,-5.53845 -0.48182,-0.87698 -0.97901,-1.56172 -1.10486,-1.52163 -0.56757,0.18071 -2.44447,6.53964 -2.70977,9.18073 -0.14103,1.40392 -0.0934,1.54378 1.35073,3.96875 0.8233,1.38244 1.80706,2.92112 2.18613,3.41928 0.79217,1.04103 0.68687,1.17279 1.67517,-2.09638 z m 75.47401,0.86525 1.36296,-0.70472 -0.79375,-0.18125 c -1.12193,-0.25619 -2.46112,-0.27959 -2.59996,-0.0454 -0.0647,0.10914 -0.20434,0.85328 -0.31028,1.65364 l -0.19262,1.45521 0.58535,-0.73636 c 0.32194,-0.40502 1.19868,-1.05351 1.9483,-1.4411 z m -47.33807,-0.52586 c 0.51906,-0.9775 0.94374,-1.84946 0.94374,-1.93767 0,-0.0882 -0.8632,-0.74393 -1.91823,-1.45714 -1.05502,-0.7132 -3.08645,-2.19274 -4.51428,-3.28784 -1.42782,-1.09511 -2.8193,-2.14948 -3.09216,-2.34303 -0.44638,-0.31664 -0.56408,-0.24424 -1.17426,0.72235 -0.37298,0.59085 -0.67815,1.18295 -0.67815,1.31579 0,0.35369 0.69606,0.56274 1.87372,0.56274 1.16144,0 1.2839,0.22343 0.50753,0.92604 -0.87103,0.78827 -0.6874,1.28554 0.409,1.10762 0.83225,-0.13506 0.96777,-0.0744 1.20037,0.53739 0.28667,0.75401 3.0134,3.42595 3.73531,3.66025 0.24743,0.0803 0.70363,0.55659 1.01376,1.0584 0.31014,0.50181 0.60574,0.91238 0.6569,0.91238 0.0512,0 0.5177,-0.79978 1.03675,-1.77728 z m -35.05819,-2.88676 c 0.0118,-1.1954 -0.14056,-2.26104 -0.4161,-2.91042 -0.6435,-1.51663 -0.7474,-0.69195 -0.3488,2.76862 0.38041,3.30265 0.73309,3.36803 0.7649,0.1418 z m 17.88644,0.94617 c 0.0946,-0.15305 0.54717,-0.24235 1.00572,-0.19844 0.74,0.0709 0.83528,0.002 0.84759,-0.61123 0.008,-0.38009 0.21693,-1.00098 0.46511,-1.37975 0.24818,-0.37877 0.45124,-0.93882 0.45124,-1.24455 0,-0.30573 0.12325,-0.78616 0.27389,-1.06764 0.35864,-0.67012 -0.10701,-1.5701 -0.81236,-1.5701 -0.28593,0 -0.51986,0.11906 -0.51986,0.26458 0,0.14552 -0.09,0.26458 -0.19999,0.26458 -0.36459,0 -1.38751,-2.57318 -1.38751,-3.49032 0,-0.49597 -0.11703,-1.01879 -0.26006,-1.16182 -0.17007,-0.17007 -0.1706,-0.80642 -0.002,-1.83886 0.34381,-2.09959 0.33039,-2.26774 -0.24015,-3.00988 l -0.48998,-0.63733 -1.18397,1.82796 c -1.49675,2.31086 -2.82394,4.56683 -3.86344,6.56711 -0.98399,1.89346 -1.01425,1.81617 1.90048,4.85405 2.4299,2.53256 3.53776,3.20355 4.01482,2.43164 z m 66.94705,-0.74272 c 0.22469,-0.56155 0.7169,-1.18604 1.0938,-1.38776 0.37691,-0.20171 0.96751,-0.81382 1.31245,-1.36024 0.66507,-1.05354 0.87279,-1.16457 1.32772,-0.70964 0.15612,0.15612 0.68595,0.24542 1.17739,0.19844 0.75394,-0.0721 0.89354,-0.18876 0.89354,-0.74688 0,-0.55561 -0.14036,-0.67493 -0.87718,-0.74565 -0.48245,-0.0463 -1.05327,0.0619 -1.2685,0.24056 -0.31868,0.26448 -0.46334,0.22193 -0.77935,-0.22923 -0.21342,-0.3047 -0.70443,-0.59155 -1.09113,-0.63744 -0.69409,-0.0824 -0.74945,-0.20281 -0.88973,-1.93553 -0.0553,-0.68336 0.25967,-3.86108 0.40624,-4.09824 0.0909,-0.14706 1.0512,-0.26739 2.13402,-0.26739 1.47349,0 1.96876,-0.0896 1.96876,-0.35612 0,-0.27065 -0.80969,-0.39824 -3.37344,-0.53159 -1.85539,-0.0965 -3.61841,-0.2418 -3.91783,-0.32288 -0.51922,-0.14059 -0.56609,0.0461 -1.01384,4.03732 -0.2582,2.30161 -0.65079,5.22718 -0.87243,6.50128 -0.22163,1.2741 -0.33798,2.48591 -0.25855,2.6929 0.1489,0.38804 0.89843,0.57061 2.62521,0.63945 0.92034,0.0367 1.02472,-0.0363 1.40285,-0.98136 z m -5.07592,-2.22014 c 0.48277,-2.91283 1.22353,-9.141 1.22353,-10.28717 0,-0.65544 -0.11192,-0.71923 -1.78594,-1.01778 -1.48611,-0.26504 -4.10731,-0.89573 -6.20619,-1.4933 -0.35883,-0.10215 -0.53888,0.18667 -0.87713,1.40699 -0.93436,3.37096 -1.20671,4.322 -2.24776,7.84911 -0.59541,2.01726 -1.04633,3.69641 -1.00204,3.73143 0.25419,0.20105 7.98388,2.1169 9.47323,2.348 0.3638,0.0564 0.73151,0.11886 0.81714,0.13867 0.0856,0.0198 0.35795,-1.18436 0.60516,-2.67595 z m -42.39958,0.79375 c 0.22439,-0.47294 1.14955,-2.11005 2.0559,-3.63802 2.20131,-3.71106 2.13453,-3.6014 3.28242,-5.39023 0.55322,-0.86211 0.91041,-1.65283 0.79376,-1.75717 -0.11665,-0.10434 -1.22413,-0.88684 -2.46105,-1.7389 -2.59143,-1.7851 -5.64788,-4.11757 -5.77674,-4.4084 -0.0485,-0.10948 -0.18297,-0.19905 -0.29882,-0.19905 -0.36389,0 -5.86612,7.12137 -7.49109,9.69549 l -0.66946,1.0605 2.15712,1.71679 c 3.23792,2.57698 7.3108,5.47842 7.72438,5.5027 0.15158,0.009 0.4592,-0.37077 0.68358,-0.84371 z m -3.61589,-4.18479 c -0.28477,-0.46076 0.0396,-0.55834 0.40244,-0.12108 0.20869,0.25145 0.22877,0.40327 0.0533,0.40327 -0.15475,0 -0.35984,-0.12699 -0.45576,-0.28219 z m -2.37037,-1.77837 c -0.58209,-0.22516 -1.40127,-0.81048 -1.82041,-1.30071 -0.76543,-0.89524 -0.79179,-1.50291 -0.0381,-0.87738 0.34387,0.28539 0.40327,0.23248 0.40327,-0.35917 0,-0.38162 0.0893,-0.69063 0.19843,-0.68669 0.46149,0.0166 2.13423,1.85405 2.41119,2.64853 0.43536,1.24886 0.50142,1.21593 -1.15441,0.57542 z m 71.3226,6.54916 c 0.35325,-0.18905 0.51177,-0.55496 0.51177,-1.18131 0,-1.13835 0.52863,-1.44991 2.14995,-1.26717 0.67137,0.0757 1.28415,0.0346 1.36173,-0.0914 0.29616,-0.48074 -0.61237,-4.92212 -1.14552,-5.59991 -0.36434,-0.46318 -0.48607,-0.90114 -0.38207,-1.37463 0.10839,-0.49352 10e-4,-0.83193 -0.36989,-1.16776 -0.28739,-0.26008 -0.62598,-0.40894 -0.75242,-0.33079 -0.29387,0.18162 -0.25325,2.04185 0.0555,2.54142 0.14291,0.23123 0.13121,0.41432 -0.0299,0.46803 -0.14556,0.0485 -0.20835,0.47186 -0.13953,0.94077 0.1127,0.76786 0.0818,0.81658 -0.31135,0.49031 -0.24007,-0.19924 -0.43649,-0.54836 -0.43649,-0.77582 0,-0.22746 -0.24827,-0.67785 -0.55172,-1.00085 -0.30344,-0.323 -0.7086,-1.04363 -0.90035,-1.60138 -0.23166,-0.67385 -0.68095,-1.22442 -1.33911,-1.64096 l -0.99048,-0.62686 0.17076,0.88827 c 0.0939,0.48855 0.44696,1.13189 0.78454,1.42964 0.51866,0.45747 0.59323,0.72399 0.48121,1.71979 -0.16876,1.50026 -0.11299,5.60389 0.0958,7.04864 0.1052,0.72789 0.31416,1.1483 0.60941,1.22608 0.24713,0.0651 0.48691,0.13217 0.53286,0.14905 0.046,0.0169 0.31384,-0.0926 0.59531,-0.2432 z m -3.04996,-2.43808 c -0.0945,-0.76399 -0.27653,-1.98438 -0.40454,-2.71198 -0.12802,-0.72761 -0.30847,-2.00671 -0.40101,-2.84245 -0.12226,-1.10413 -0.3161,-1.62308 -0.70909,-1.89833 -0.29745,-0.20835 -0.76349,-0.74495 -1.03563,-1.19246 -0.58029,-0.95421 -1.11203,-1.03393 -1.66172,-0.24914 -0.21747,0.31048 -0.6707,0.59294 -1.00719,0.62769 -0.33649,0.0348 -0.7011,0.0784 -0.81024,0.097 -0.10914,0.0186 -0.19843,0.29599 -0.19843,0.61648 0,0.3205 -0.36373,0.95799 -0.80828,1.41665 -0.80095,0.82638 -0.80661,0.85239 -0.62371,2.87069 0.13781,1.52084 0.27257,2.00299 0.53202,1.90343 0.19109,-0.0733 1.09684,-0.27096 2.01277,-0.43918 0.91593,-0.16822 1.87206,-0.41209 2.12475,-0.54195 0.88071,-0.4526 1.20958,-0.26139 1.39031,0.80836 0.097,0.57445 0.0564,1.25898 -0.0903,1.52118 -0.34953,0.62457 0.32566,1.40311 1.21684,1.40311 0.62386,0 0.63958,-0.0461 0.47348,-1.38906 z m -3.05285,-4.51538 c 0,-0.20868 -0.0753,-0.78125 -0.16728,-1.27238 -0.11404,-0.60873 -0.0808,-0.80875 0.10441,-0.62839 0.41926,0.40828 0.6635,1.90898 0.34294,2.10709 -0.15404,0.0952 -0.28007,0.002 -0.28007,-0.20632 z m -0.2437,-2.98115 c 0.0127,-0.30823 0.0754,-0.37092 0.15985,-0.15985 0.0764,0.19099 0.067,0.4192 -0.0209,0.50711 -0.0879,0.0879 -0.15045,-0.0684 -0.13896,-0.34726 z m -27.04999,2.4033 c 2.20861,-7.75727 2.13968,-7.18941 0.91273,-7.51979 -0.79031,-0.21281 -5.12245,-1.87593 -7.40397,-2.84241 -0.18925,-0.0802 -0.65359,0.58881 -1.16246,1.67477 -3.75881,8.02163 -4.74505,10.2773 -4.62749,10.58367 0.0744,0.19399 0.32908,0.35272 0.56585,0.35272 0.23678,0 0.74653,0.17485 1.13279,0.38856 1.77595,0.98263 8.55642,3.37438 8.81479,3.10934 0.1022,-0.10484 0.89769,-2.69093 1.76776,-5.74686 z m -45.47208,2.78698 c 0.61253,-1.01377 1.07267,-1.9365 1.02254,-2.05052 -0.0501,-0.11401 -1.00158,-1.07869 -2.11432,-2.14372 l -2.02318,-1.93643 -0.70708,0.92703 c -0.8499,1.11427 -1.12318,2.02961 -0.97778,3.27501 0.0928,0.79514 0.25714,0.98825 1.13395,1.33267 0.77263,0.3035 1.02539,0.55129 1.02539,1.00521 0,0.66261 0.6343,1.43398 1.17917,1.43398 0.19119,0 0.84878,-0.82945 1.46131,-1.84323 z m -22.56123,-1.57729 c 0.32145,-1.29541 0.98618,-3.3671 1.47717,-4.60375 l 0.8927,-2.24846 -0.87706,-2.6027 c -0.48239,-1.43149 -0.87922,-2.83487 -0.88186,-3.11864 -0.009,-0.95591 -0.54038,-0.0274 -1.52428,2.66264 -0.90472,2.4736 -0.95733,2.79558 -0.96782,5.92309 -0.008,2.41932 0.11318,3.71576 0.45175,4.82865 0.25457,0.83674 0.54882,1.51981 0.65389,1.51792 0.10508,-0.002 0.45406,-1.06334 0.77551,-2.35875 z m 107.70816,0.13374 c 0.10108,-2.70734 10e-4,-2.973 -0.88158,-2.35006 -0.62461,0.44066 -0.66493,0.58877 -0.52314,1.92161 0.23207,2.18153 0.40856,2.69407 0.89566,2.60111 0.34679,-0.0662 0.44627,-0.49079 0.50906,-2.17266 z m -97.83708,-0.69089 c 0.86355,-1.71068 2.26319,-4.05432 4.15218,-6.95264 1.16415,-1.78618 1.17047,-1.80842 0.71291,-2.50675 -0.25391,-0.38751 -0.65376,-0.91077 -0.88855,-1.16279 -0.2348,-0.25203 -1.13729,-1.64999 -2.00553,-3.10659 -0.86825,-1.4566 -1.69422,-2.61391 -1.83549,-2.5718 -0.41866,0.12478 -3.68027,5.06393 -5.01231,7.5903 l -1.23394,2.34031 0.84492,1.53579 c 1.15636,2.1019 4.0265,6.42837 4.26531,6.42959 0.10705,5.3e-4 0.55727,-0.71739 1.0005,-1.59542 z m 44.85812,-0.26263 c 0.20395,-0.35998 0.83295,-1.66653 1.39779,-2.90346 0.56484,-1.23692 1.63873,-3.56841 2.38641,-5.18108 0.74769,-1.61267 1.35943,-3.05173 1.35943,-3.19789 0,-0.14618 -0.98227,-0.7601 -2.18281,-1.36428 -1.20055,-0.60417 -3.02493,-1.57354 -4.05419,-2.15413 l -1.87137,-1.05563 -0.89572,1.25098 c -1.50855,2.10689 -5.83751,8.61634 -6.23078,9.36921 -0.36639,0.70142 -0.35266,0.72091 1.14974,1.63357 2.30183,1.39829 8.10238,4.40243 8.35134,4.32522 0.12064,-0.0374 0.38621,-0.36254 0.59016,-0.72251 z m -29.5089,-1.72559 c 0.55693,-0.90112 0.56139,-0.95958 0.11139,-1.45683 -0.25784,-0.28492 -0.39809,-0.58875 -0.31165,-0.67519 0.23967,-0.23966 0.72154,0.14294 0.72154,0.5729 0,0.61267 0.37943,0.4416 0.87272,-0.39348 0.44373,-0.75117 0.44101,-0.78002 -0.0892,-0.9483 -0.38862,-0.12334 -0.47058,-0.26542 -0.2833,-0.49108 0.57902,-0.69768 -0.45548,-3.19916 -1.96641,-4.75492 -0.73731,-0.75919 -0.83775,-0.96825 -0.46481,-0.96748 1.13935,0.002 2.05619,0.96298 2.9893,3.13199 0.50933,1.18391 0.99952,2.15394 1.08932,2.15562 0.0898,0.002 0.46199,-0.44341 0.82708,-0.98912 0.36508,-0.5457 1.33274,-1.82562 2.15035,-2.84427 0.81761,-1.01864 1.48722,-1.95497 1.48803,-2.08072 0.002,-0.25788 -2.14287,-2.25728 -2.43913,-2.27405 -0.1054,-0.006 -0.38722,0.3761 -0.62626,0.84904 -0.8393,1.66056 -2.2248,2.68676 -2.2248,1.64784 0,-0.22148 0.35639,-1.18869 0.79198,-2.14936 l 0.79198,-1.74668 -1.49331,-1.62095 c -0.82132,-0.89152 -1.57234,-1.65328 -1.66894,-1.69278 -0.19906,-0.0814 -3.91444,3.92377 -4.47912,4.8285 -0.32944,0.52782 -0.30886,0.65102 0.19243,1.15231 0.68155,0.68155 0.56188,1.07064 -0.54247,1.76394 -0.46361,0.29104 -1.0295,0.64823 -1.25753,0.79375 -0.5553,0.35436 -1.59544,1.41315 -1.59544,1.62405 0,0.0929 0.47625,0.68552 1.05833,1.31701 0.58209,0.63148 1.05834,1.29716 1.05834,1.47927 0,0.34029 4.20872,4.70779 4.53664,4.70779 0.10048,0 0.44379,-0.42246 0.76291,-0.9388 z m 21.66744,-9.26601 3.69104,-5.5379 -0.71079,-0.60127 c -0.46669,-0.39478 -0.91522,-0.55206 -1.3061,-0.45798 -0.4629,0.11142 -0.59531,0.0285 -0.59531,-0.3729 0,-0.61549 -1.30288,-1.61056 -2.10876,-1.61056 -0.78956,0 -1.59541,0.4705 -1.59541,0.93149 0,0.31728 -0.22717,0.29417 -1.31213,-0.13348 -1.15417,-0.45493 -1.35893,-0.4704 -1.70089,-0.12844 -0.21382,0.21382 -0.50197,0.38877 -0.64033,0.38877 -0.25201,0 -1.29886,1.10038 -4.01956,4.22512 -2.16887,2.49096 -2.27827,2.6729 -1.81799,3.02361 0.2107,0.16054 1.37069,1.04892 2.57775,1.97417 2.53808,1.94554 5.63106,4.05364 5.75929,3.9254 0.0485,-0.0485 1.74911,-2.58019 3.77919,-5.62603 z m 41.98527,4.75921 c -0.0883,-0.23018 -0.16135,-0.5576 -0.16227,-0.7276 -7.9e-4,-0.17 -0.36582,-0.51634 -0.81089,-0.76964 -0.91122,-0.51861 -0.81788,-0.99466 0.19503,-0.99466 0.50603,0 0.6341,-0.10437 0.51355,-0.41851 -0.0883,-0.23019 -0.1606,-0.58737 -0.1606,-0.79375 0,-0.24238 -0.28737,-0.37524 -0.81158,-0.37524 -0.70707,0 -0.7886,-0.0724 -0.63315,-0.5622 0.11065,-0.34862 0.046,-0.64402 -0.17008,-0.7776 -0.27781,-0.17169 -0.25185,-0.32221 0.12792,-0.74186 0.42606,-0.47079 0.43894,-0.63075 0.12177,-1.51275 -0.19507,-0.54246 -0.55202,-1.03821 -0.79323,-1.10165 -0.76222,-0.2005 -1.11405,-2.97686 -0.37724,-2.97686 0.20615,0 0.42798,0.14883 0.49294,0.33073 0.20872,0.58441 0.52452,-0.0183 0.35775,-0.68277 -0.15276,-0.60867 -0.28551,-0.64765 -2.61146,-0.76697 -1.34778,-0.0691 -2.46624,-0.11353 -2.48546,-0.0987 -0.0192,0.0149 -0.0788,2.94408 -0.1323,6.50934 l -0.0973,6.48229 1.19063,0.1587 c 0.65484,0.0873 2.36422,0.17658 3.79862,0.19844 2.27919,0.0347 2.58775,-0.013 2.4474,-0.37878 z m -5.18768,-5.87857 c 0,-0.11641 0.13783,-0.34949 0.30629,-0.51795 0.23199,-0.23199 0.21837,-0.41222 -0.0562,-0.743 -0.31061,-0.37426 -0.29765,-0.48411 0.0906,-0.76799 0.24917,-0.1822 0.45303,-0.46697 0.45303,-0.63283 0,-0.16586 0.29765,-0.30156 0.66146,-0.30156 0.62364,0 0.66146,0.0814 0.66146,1.42435 0,1.25344 -0.0714,1.44349 -0.59532,1.58389 -0.83769,0.22449 -1.52135,0.20431 -1.52135,-0.0449 z m 21.82812,5.50334 c 0.13203,-0.60111 0.32191,-0.79375 0.78238,-0.79375 1.34994,0 1.57351,-1.89824 0.34433,-2.92355 -0.84753,-0.70696 -1.13355,-0.64007 -1.75311,0.41001 -0.30051,0.50932 -0.72899,0.92604 -0.95217,0.92604 -0.47126,0 -0.5487,0.43743 -0.10371,0.58576 0.16615,0.0554 0.32789,0.52566 0.35942,1.04505 0.0315,0.5194 0.14074,1.07932 0.24269,1.24427 0.34564,0.55925 0.90505,0.3035 1.08017,-0.49383 z m -25.4408,-2.18281 c 0.0935,-1.20055 0.17064,-4.10712 0.17151,-6.45904 l 0.002,-4.27622 -1.12448,-0.18166 c -0.61846,-0.0999 -1.92615,-0.3999 -2.90598,-0.66663 -0.97982,-0.26674 -1.83259,-0.4023 -1.89503,-0.30126 -0.0625,0.10103 -0.54616,2.26579 -1.07492,4.81056 -0.52876,2.54477 -1.12161,5.22216 -1.31745,5.94977 -0.19584,0.7276 -0.27968,1.40366 -0.18629,1.50234 0.22544,0.23827 6.59362,1.75936 7.47275,1.78492 0.67427,0.0196 0.69187,-0.0247 0.85831,-2.16278 z m -75.71471,-1.14782 c 0.62866,-1.10424 1.2628,-2.20557 1.40919,-2.4474 0.24067,-0.39755 2.80423,-4.1064 3.42988,-4.96221 0.17462,-0.23886 0.0345,-1.05082 -0.43892,-2.54435 -0.38247,-1.20645 -0.77116,-2.64002 -0.86377,-3.18573 -0.0926,-0.5457 -0.25229,-0.98576 -0.35483,-0.97792 -0.391,0.0299 -5.46616,7.72239 -5.92566,8.98157 -0.21393,0.58625 0.17341,3.04187 0.82426,5.22552 0.31445,1.05503 0.61788,1.91823 0.67429,1.91823 0.0564,0 0.61691,-0.90347 1.24556,-2.00771 z m 66.59562,-1.36573 c 0.67937,-2.82561 1.29411,-5.68338 1.74316,-8.1034 0.30296,-1.63276 0.29356,-1.83147 -0.0916,-1.93558 -0.23606,-0.0638 -1.56029,-0.56417 -2.94274,-1.1119 -2.23046,-0.88371 -2.54587,-0.9488 -2.80064,-0.57796 -0.9234,1.34412 -5.14733,11.12976 -4.80613,11.13445 0.0364,5.3e-4 0.95912,0.36984 2.05052,0.82075 1.09141,0.45092 2.28203,0.92006 2.64584,1.04255 0.3638,0.12249 1.13771,0.40277 1.71979,0.62285 1.82744,0.69092 1.86832,0.65976 2.48177,-1.89176 z m 20.01521,-0.92745 c 0.0949,-0.37798 0.3999,-0.89306 0.67786,-1.1446 0.61161,-0.5535 0.66502,-1.94496 0.11546,-3.0077 -0.32657,-0.63151 -0.33182,-0.80221 -0.0323,-1.05077 0.27872,-0.23132 0.39977,-0.16425 0.54882,0.30411 0.10517,0.33049 0.17273,0.85354 0.15011,1.16234 -0.0226,0.30879 0.15475,0.6366 0.39413,0.72846 0.58278,0.22364 1.01382,-0.0575 0.69548,-0.45357 -0.13578,-0.16894 -0.32781,-0.6859 -0.42673,-1.14878 -0.0989,-0.46289 -0.35079,-0.98349 -0.55972,-1.15688 -0.20893,-0.1734 -0.37986,-0.4647 -0.37986,-0.64734 0,-0.18265 -0.18228,-0.48336 -0.40507,-0.66826 -0.34396,-0.28546 -0.45249,-0.21053 -0.71946,0.49677 -0.36566,0.96873 -0.59667,1.03534 -1.05354,0.30378 -0.22446,-0.35942 -0.61702,-0.52917 -1.22373,-0.52917 -0.80195,0 -0.87532,0.0608 -0.71774,0.59531 0.0965,0.32742 0.41118,1.72355 0.69921,3.10251 0.28802,1.37896 0.63964,2.62316 0.78138,2.7649 0.14173,0.14173 0.2577,0.72619 0.2577,1.2988 v 1.04109 l 0.51276,-0.65187 c 0.28202,-0.35853 0.59039,-0.96114 0.68526,-1.33913 z m -75.54594,1.27063 c 0,-0.34949 -0.64738,-1.46766 -0.84972,-1.46766 -0.565,0 -1.00714,-1.96114 -1.06954,-4.74406 l -0.0651,-2.90405 -0.99104,0.96622 c -1.34902,1.31524 -1.42293,1.7188 -0.58323,3.18426 1.90935,3.33222 3.55865,5.63344 3.55865,4.9653 z m 89.56146,-0.8062 c 0,-0.51548 -0.14808,-0.81502 -0.42973,-0.86926 -0.51635,-0.0994 -0.78008,0.47418 -0.5763,1.25343 0.22702,0.86813 1.00603,0.57064 1.00603,-0.38417 z m -85.18676,-2.51354 c 0.6943,-0.80036 2.0784,-2.32808 3.07576,-3.39491 l 1.8134,-1.93971 -0.72932,-1.02622 c -1.02487,-1.44207 -2.01884,-1.6292 -3.01157,-0.56697 -0.41317,0.44209 -0.98588,0.87828 -1.2727,0.96931 -0.62792,0.1993 -2.17644,2.25703 -2.76611,3.67572 -0.65813,1.5834 -0.55657,2.80017 0.30178,3.61527 0.82104,0.77968 0.70446,0.83967 2.58876,-1.33249 z m 15.01114,0.10486 c 0.68842,-0.7427 1.25166,-1.46937 1.25166,-1.61483 0,-0.14546 -0.90505,-0.34097 -2.01123,-0.43448 -1.7954,-0.15176 -2.09749,-0.10858 -2.81515,0.40244 l -0.80393,0.57245 1.3625,1.29973 c 0.74937,0.71486 1.45295,1.26042 1.5635,1.21238 0.11055,-0.048 0.76424,-0.695 1.45265,-1.43769 z m 26.28148,0.53352 c 0.21811,-0.52201 0.88005,-1.98052 1.47099,-3.24114 1.8565,-3.96042 3.13263,-6.85124 3.1296,-7.08948 -0.003,-0.25469 -5.49581,-3.17061 -5.63092,-2.98937 -0.0467,0.0627 -0.4692,0.6125 -0.93888,1.2219 -0.66982,0.86907 -0.81569,1.26049 -0.67647,1.8152 0.1569,0.62512 0.11448,0.68721 -0.36543,0.53489 -0.29861,-0.0948 -0.6195,-0.0484 -0.7131,0.10302 -0.10082,0.16314 0.1037,0.27535 0.50186,0.27535 0.93957,0 1.23338,1.15383 0.48449,1.90272 -0.43548,0.43548 -0.63212,0.47789 -1.08702,0.23443 -0.82693,-0.44256 -2.27296,0.24631 -2.82905,1.34774 -0.27413,0.54295 -0.31132,0.75389 -0.097,0.55001 0.19125,-0.1819 0.54359,-0.33073 0.78297,-0.33073 0.23938,0 0.65074,-0.23813 0.91413,-0.52917 0.26339,-0.29104 0.69856,-0.52917 0.96705,-0.52917 0.55278,0 0.62862,0.28287 0.19272,0.71878 -0.21753,0.21753 -0.14776,0.45396 0.26458,0.89656 0.79409,0.85235 0.72786,1.918 -0.15515,2.49657 l -0.71518,0.46861 -1.20305,-1.36431 c -0.66168,-0.75037 -1.33819,-1.36427 -1.50335,-1.36422 -0.30118,10e-5 -1.15682,1.12252 -1.15273,1.51214 10e-4,0.11426 0.50722,0.49176 1.12448,0.83889 2.49531,1.40329 6.427,3.45889 6.6259,3.46422 0.11657,0.003 0.3904,-0.42142 0.60851,-0.94344 z m 35.38197,-2.52919 c 0.0817,-0.31234 -0.0202,-1.05648 -0.22639,-1.65364 -0.22643,-0.65579 -0.27302,-1.12067 -0.11765,-1.17394 0.32894,-0.11278 0.33802,-0.83785 0.0105,-0.83785 -0.13571,0 -0.31845,-0.2259 -0.40608,-0.502 -0.20936,-0.65964 -1.03615,-0.4478 -1.5978,0.4094 -0.45477,0.69406 -0.40612,1.01763 0.46142,3.06916 0.41098,0.97185 0.66704,1.25676 1.12948,1.25676 0.3891,0 0.6499,-0.19838 0.74652,-0.56789 z m -43.78748,-3.30184 c 0.60652,-0.81866 1.10277,-1.65385 1.10277,-1.85597 0,-0.31899 -1.22178,-1.2479 -1.97614,-1.50245 -0.14099,-0.0476 -0.26005,-0.60324 -0.26458,-1.23482 -0.01,-1.37709 -0.59427,-1.77011 -0.71788,-0.48277 -0.0704,0.73371 -0.20225,0.88955 -0.81171,0.95967 -1.46251,0.16828 -0.73542,1.07851 1.19063,1.49051 0.82497,0.17647 0.96725,0.6616 0.24912,0.8494 -0.26316,0.0688 -0.69639,0.52975 -0.96272,1.0243 -0.4814,0.89392 -0.48054,0.90309 0.14775,1.56533 0.3476,0.36638 0.70129,0.6682 0.78599,0.67071 0.0847,0.003 0.65024,-0.66524 1.25677,-1.48391 z m -1.63125,0.78293 c -0.2593,-0.2593 -0.21492,-1.14653 0.0573,-1.14653 0.12855,0 0.29064,0.29766 0.36018,0.66146 0.12249,0.64075 -0.0553,0.8473 -0.41753,0.48507 z m -47.66343,-1.82793 c 0.83033,-1.2479 2.07494,-2.97323 2.76582,-3.83408 1.17694,-1.4665 1.26754,-1.69102 1.43701,-3.56124 0.0995,-1.09784 0.2553,-2.19001 0.34626,-2.42704 0.65856,-1.7162 -1.83742,2.04153 -3.88499,5.84888 -1.42737,2.65411 -2.73893,6.24238 -2.28167,6.24238 0.0593,0 0.78725,-1.02101 1.61757,-2.2689 z m 13.0926,-5.28811 c 0.18693,-0.57307 0.41763,-1.10148 0.51267,-1.17424 0.48572,-0.37185 1.62584,-2.7395 1.55353,-3.22615 -0.0688,-0.46299 -0.28592,-0.28924 -1.25243,1.0023 -0.64307,0.85931 -1.34574,2.00888 -1.56149,2.55458 -0.35884,0.90762 -0.84118,1.33741 -0.84118,0.74954 0,-0.55025 1.0287,-2.5703 1.54326,-3.03049 0.30442,-0.27226 0.68627,-0.89734 0.84855,-1.38907 0.16229,-0.49172 0.47389,-0.89404 0.69245,-0.89404 0.30743,0 0.3582,-0.19462 0.22431,-0.8599 -0.38067,-1.89137 -0.33684,-1.85834 -1.40445,-1.05822 -1.67723,1.25699 -2.48893,1.97624 -5.29981,4.69624 l -2.73424,2.64584 0.1581,1.21478 c 0.17644,1.35581 0.74926,3.66739 1.20446,4.86051 l 0.29896,0.78363 2.85872,-2.91668 c 1.99566,-2.03611 2.96134,-3.23125 3.19859,-3.95863 z m 69.44095,4.58046 c -0.32976,-1.5318 -2.41535,-7.226 -3.33119,-9.095 -0.80307,-1.63888 -0.97654,-1.82729 -1.75126,-1.90199 -0.47294,-0.0456 -0.8599,0.0259 -0.8599,0.15889 0,0.13298 0.29293,1.94065 0.65095,4.01704 0.35803,2.07639 0.64158,3.85037 0.63013,3.94217 -0.0115,0.0918 -0.007,0.90351 0.0105,1.80379 l 0.0313,1.63687 0.85989,0.10671 c 0.47295,0.0587 1.55397,0.12577 2.40228,0.14906 l 1.54238,0.0423 z m 3.05349,-0.046 c 0,-0.49822 0.13653,-1.49735 0.3034,-2.22027 0.29347,-1.27138 0.27245,-1.36947 -0.64233,-2.99675 -0.52015,-0.92528 -1.59366,-2.63484 -2.38557,-3.799 -1.17739,-1.73085 -1.55167,-2.10357 -2.05331,-2.04482 -0.3374,0.0395 -0.66762,0.12601 -0.73381,0.1922 -0.0662,0.0662 0.51075,1.70061 1.28208,3.63204 0.77134,1.93143 1.69399,4.46432 2.05033,5.62864 0.79382,2.59378 0.74504,2.51381 1.53336,2.51381 0.55898,0 0.64585,-0.12183 0.64585,-0.90585 z m -8.96064,0.25329 c 0.0679,-0.0679 0.0579,-0.69096 -0.022,-1.38466 -0.11812,-1.02435 -0.24484,-1.26602 -0.67461,-1.28657 -1.24748,-0.0596 -1.45521,-0.13927 -1.45521,-0.55798 0,-0.2432 -0.19025,-0.65243 -0.42279,-0.90937 -0.23254,-0.25695 -0.34457,-0.59374 -0.24897,-0.74844 0.22014,-0.3562 0.93634,-0.36895 0.93634,-0.0167 0,0.14552 0.29766,0.26459 0.66146,0.26459 0.58797,0 0.66145,-0.11023 0.66141,-0.99219 -5e-5,-1.03271 -0.61997,-4.59733 -0.94832,-5.45292 -0.16863,-0.4394 -0.21428,-0.44647 -0.42712,-0.0661 -0.13107,0.23421 -0.41099,0.42584 -0.62204,0.42584 -0.49668,0 -0.49045,0.3758 0.0131,0.79375 0.42636,0.35385 0.54137,1.05833 0.17278,1.05833 -0.12325,0 -0.49866,-0.23812 -0.83424,-0.52916 -0.77135,-0.669 -0.79375,-0.66527 -0.79375,0.13229 0,0.52916 0.1323,0.66146 0.66146,0.66146 0.95976,0 0.81147,0.44188 -0.34652,1.03264 -1.00776,0.51412 -1.00806,0.51478 -1.32292,2.87964 -0.51486,3.86705 -0.64505,3.57307 1.86788,4.21789 2.27701,0.58429 2.93715,0.68458 3.14405,0.47768 z m 13.82163,-0.56171 c 0.35508,-0.13625 0.34112,-0.27765 -0.11065,-1.12056 -0.28436,-0.53054 -0.51701,-1.3436 -0.51701,-1.8068 0,-1.18722 -0.24189,-1.67921 -0.82561,-1.67921 -0.47203,0 -0.48001,0.0584 -0.12441,0.90945 0.20899,0.5002 0.31588,1.15461 0.23752,1.45425 -0.0784,0.29963 0.0555,0.96194 0.29743,1.47179 0.48044,1.01246 0.45764,0.9956 1.04273,0.77108 z m -20.2456,-3.00389 c 0.16684,-1.0103 0.30336,-2.13498 0.30336,-2.49929 v -0.66239 l -1.51416,0.52095 c -0.83278,0.28652 -1.6305,0.6373 -1.77271,0.77951 -0.1422,0.1422 -0.47127,0.25855 -0.73125,0.25855 -0.29392,0 -0.62546,0.3656 -0.8766,0.96667 -0.22214,0.53166 -0.37257,0.99125 -0.33428,1.02131 0.34321,0.26939 3.63427,1.43838 4.06574,1.44416 0.48438,0.006 0.59588,-0.23074 0.8599,-1.82947 z m -7.50845,-1.27195 c -0.24771,-0.58667 -0.23858,-3.12422 0.015,-4.16719 0.26129,-1.07467 0.87114,-1.71979 1.62578,-1.71979 0.86405,0 1.36099,-1.08445 0.89551,-1.95419 -0.28308,-0.52895 -0.26363,-0.73635 0.12463,-1.32892 1.78253,-2.72049 -2.92289,1.31738 -6.71576,5.76299 -1.03773,1.21631 -1.04573,1.20395 1.75607,2.71428 2.33893,1.26081 2.56771,1.32976 2.29877,0.69283 z m -18.06798,-0.66146 c 0.0691,-0.71651 0.20424,-0.87385 0.81052,-0.94361 1.04727,-0.12051 0.89759,-0.57774 -0.18913,-0.57774 -1.00877,0 -1.46452,0.52977 -1.46452,1.70239 0,1.02548 0.74217,0.86612 0.84313,-0.18104 z m 47.57562,-0.44108 c 0,-0.13346 -0.2614,-0.81807 -0.58089,-1.52136 -0.54457,-1.19878 -0.58701,-1.23323 -0.67903,-0.5511 -0.0622,0.46085 -0.26146,0.73155 -0.54359,0.73836 -0.31693,0.008 -0.18115,0.23666 0.4706,0.79375 0.94265,0.80573 1.33291,0.96394 1.33291,0.54035 z m -36.61635,-0.74311 c -0.27977,-0.27977 -0.5123,-0.16982 -0.57729,0.27296 -0.057,0.38855 0.001,0.41857 0.3119,0.16073 0.21012,-0.17438 0.32954,-0.36954 0.26539,-0.43369 z m -48.06653,-1.99077 c 2.27164,-2.15156 3.23389,-2.98113 5.24174,-4.51902 1.61203,-1.23472 1.65371,-1.29783 1.65655,-2.5079 0.002,-0.68272 0.0808,-1.71311 0.17604,-2.28974 l 0.17313,-1.04844 -1.43281,1.02332 c -0.78805,0.56283 -2.5193,1.95485 -3.84722,3.0934 -1.98333,1.70047 -2.51358,2.31907 -2.96989,3.46469 -0.82259,2.06525 -1.31479,4.43734 -0.92074,4.43734 0.0975,0 0.96293,-0.74414 1.9232,-1.65365 z m 36.5628,1.05833 c 0.2199,-0.1819 0.60259,-0.65815 0.85042,-1.05833 0.3762,-0.60745 0.63529,-0.72782 1.56899,-0.72892 1.27225,-0.002 2.49009,-0.82162 2.62403,-1.7671 0.0923,-0.6516 -2.25656,-3.52324 -2.88185,-3.52324 -0.20343,0 -0.70284,0.17219 -1.10981,0.38264 -0.56756,0.29349 -0.74829,0.58627 -0.77579,1.25676 -0.0197,0.48078 0.0971,1.1344 0.25956,1.45251 0.25126,0.49195 0.17147,0.73485 -0.53399,1.62557 -0.5267,0.66501 -0.8294,1.34714 -0.8294,1.86903 0,0.88807 0.20263,1.00828 0.82784,0.49108 z m 41.99219,-0.60776 c 0.45642,-1.00172 0.42193,-1.08839 -1.05424,-2.64922 -1.43631,-1.51869 -1.73826,-1.67927 -1.97881,-1.05237 -0.13514,0.35214 2.20336,4.31777 2.57003,4.35827 0.0858,0.009 0.29414,-0.28603 0.46302,-0.65668 z m -32.83515,-0.30253 c -0.24601,-0.246 -0.53596,-0.35859 -0.64435,-0.25019 -0.10839,0.10838 -0.0219,0.30784 0.19214,0.44321 0.64414,0.40738 0.93041,0.28519 0.45221,-0.19302 z m 4.55223,-0.65898 c 0.71721,-0.86336 0.89748,-1.29855 0.84719,-2.04524 -0.0351,-0.52168 -0.16619,-1.05082 -0.29124,-1.17587 -0.27365,-0.27365 -0.89727,0.78992 -0.6745,1.15036 0.26839,0.43426 -0.68511,1.5895 -1.31193,1.5895 -0.43088,0 -0.70579,-0.26862 -1.01543,-0.99218 -0.23353,-0.54571 -0.4616,-1.23032 -0.50683,-1.52136 -0.14395,-0.92628 -1.08497,-0.65953 -1.29493,0.36707 -0.22319,1.09126 0.34921,2.15797 1.6519,3.07848 1.22637,0.86655 1.54782,0.81074 2.59577,-0.45076 z m 31.75073,-0.90969 c -1.49171,-1.56666 -3.98957,-3.57272 -4.31396,-3.46459 -0.5428,0.18094 -0.32428,0.59306 1.2588,2.37405 1.53155,1.72302 1.65543,1.79235 3.58433,2.00581 0.21278,0.0235 -0.0221,-0.38275 -0.52917,-0.91527 z m -72.46946,-1.18172 c 0.16243,-0.3035 0.22903,-0.61813 0.148,-0.69916 -0.21853,-0.21853 -0.95388,0.46489 -0.95388,0.88651 0,0.54777 0.47107,0.43826 0.80588,-0.18735 z m 73.43721,-0.62216 c -0.48565,-0.9018 -2.10133,-1.99971 -2.44177,-1.65927 -0.10244,0.10243 0.45841,0.77075 1.24632,1.48515 0.78792,0.7144 1.48688,1.24575 1.55326,1.18077 0.0664,-0.065 -0.0946,-0.51797 -0.35781,-1.00665 z m -28.20393,-2.07287 c 1.05995,-0.98541 1.88015,-1.82366 1.82266,-1.86279 -0.0575,-0.0391 -0.55453,-0.40248 -1.10454,-0.80747 -0.82681,-0.6088 -1.12469,-0.69455 -1.7198,-0.49507 -0.65769,0.22046 -0.71265,0.34193 -0.63728,1.4085 0.0459,0.64953 -0.10079,1.60353 -0.33073,2.15092 -0.46179,1.09933 -0.52647,1.61779 -0.18536,1.48575 0.12532,-0.0485 1.09509,-0.89443 2.15505,-1.87984 z m -44.62281,-0.0126 c 0.72316,-0.82822 1.25345,-1.56725 1.17842,-1.64228 -0.075,-0.075 -0.80861,0.29988 -1.63017,0.83311 -1.25672,0.81567 -1.49376,1.09296 -1.49376,1.74739 0,1.049 0.36339,0.87375 1.94551,-0.93822 z m 34.46392,0.96389 c 0.56601,-0.38945 2.07789,-1.40691 3.35974,-2.26101 l 2.33063,-1.55292 -0.74313,-0.89489 c -0.70635,-0.8506 -1.66917,-1.23621 -1.66917,-0.66851 0,0.14552 0.23812,0.26459 0.52916,0.26459 0.71203,0 0.72525,1.19936 0.0174,1.57819 -0.84214,0.4507 -1.97352,0.32713 -2.33724,-0.25528 -0.35111,-0.56221 -1.75001,-0.74314 -2.04577,-0.26458 -0.0899,0.14552 -0.36486,0.26387 -0.61093,0.26299 -0.65566,-0.002 -3.21574,1.14892 -3.22102,1.44848 -0.006,0.36051 2.69065,3.05103 3.05838,3.05103 0.16657,0 0.76595,-0.31864 1.33196,-0.7081 z m -0.0202,-1.64459 c -0.0874,-0.27533 -0.37322,-0.55664 -0.63519,-0.62515 -0.74857,-0.19576 -0.56992,-0.94768 0.26894,-1.13192 0.40989,-0.09 0.83653,-0.12783 0.94809,-0.084 0.16512,0.0649 0.20647,1.03633 0.0912,2.14325 -0.0415,0.39873 -0.51858,0.18455 -0.67305,-0.30217 z m 30.87003,1.15698 c 1.44339,-0.95519 1.96814,-2.24902 1.55391,-3.83138 -0.42406,-1.61993 -1.77362,-3.80156 -3.12449,-5.05091 -1.25284,-1.15869 -1.65956,-1.28254 -1.65956,-0.50534 0,0.31173 -0.17639,0.52916 -0.42927,0.52916 -0.35157,0 -0.36965,-0.0718 -0.0999,-0.39687 0.18116,-0.21828 0.22551,-0.3987 0.0985,-0.40093 -0.12695,-0.002 -0.0883,-0.0947 0.0859,-0.20542 0.39531,-0.2513 0.19837,-0.53307 -0.99181,-1.41906 -2.46923,-1.83814 -6.92609,-3.66922 -10.55343,-4.33583 -5.60922,-1.03084 -9.54131,0.39966 -9.54131,3.47112 0,0.93743 0.0922,1.17074 0.46302,1.1724 0.6315,0.003 1.21186,1.2307 0.67845,1.43539 -0.51085,0.19604 -0.18245,0.67921 0.46165,0.67921 0.57133,0 0.69835,0.41907 0.18282,0.60319 -0.1819,0.065 -0.24431,0.21091 -0.13869,0.32434 0.10563,0.11341 0.37211,0.0568 0.59218,-0.12587 0.32723,-0.27158 0.43021,-0.25373 0.56516,0.0979 0.0908,0.23653 0.03,0.59275 -0.13505,0.79162 -0.23732,0.28595 0.01,0.64492 1.18235,1.71642 1.52945,1.39783 1.96894,1.6189 1.96894,0.99037 0,-0.70054 0.71907,-1.03623 1.57817,-0.73675 0.62152,0.21666 0.87895,0.19381 1.17725,-0.10448 0.5757,-0.5757 2.35853,-0.48754 2.9309,0.14492 0.41753,0.46137 0.51301,0.47699 0.76973,0.1259 0.2092,-0.2861 0.53715,-0.35199 1.14591,-0.23024 0.96842,0.19369 1.74981,0.91133 1.19544,1.09792 -0.71188,0.23959 -0.27659,0.59638 0.7276,0.59638 1.2095,0 1.28111,0.21784 0.73849,2.2466 -0.4283,1.60138 -0.0214,2.00914 2.21998,2.22473 2.64692,0.2546 5.14198,-0.10042 6.35709,-0.90454 z m -2.73409,-0.59024 c -0.22842,-0.25466 -0.63294,-0.58945 -0.89893,-0.74397 -0.72825,-0.42306 -0.26874,-0.96324 0.51545,-0.60594 0.51384,0.23412 1.21035,1.20843 1.21035,1.69309 0,0.27176 -0.43857,0.0897 -0.82687,-0.34318 z m -0.89292,-1.91823 c -0.0899,-0.14552 0.0816,-0.26458 0.38126,-0.26458 0.29963,0 0.54478,0.11906 0.54478,0.26458 0,0.14552 -0.17157,0.26459 -0.38126,0.26459 -0.20969,0 -0.45484,-0.11907 -0.54478,-0.26459 z m -15.86574,-3.42459 c -0.0957,-0.15483 -0.44341,-0.21389 -0.77271,-0.13124 -0.373,0.0936 -0.72824,-0.006 -0.94223,-0.26362 -0.38794,-0.46744 -0.35592,-0.47717 1.37495,-0.41778 1.47883,0.0507 1.69196,-0.41965 0.30778,-0.67932 -0.78629,-0.14751 -0.88835,-0.2373 -0.59531,-0.52375 0.60594,-0.5923 1.78124,-0.76045 1.96516,-0.28115 0.12176,0.31731 0.28027,0.35637 0.64786,0.15964 0.3214,-0.17201 0.54235,-0.17035 0.65063,0.005 0.0902,0.14592 0.37538,0.2653 0.63378,0.2653 0.60952,0 2.02954,1.55594 1.55651,1.7055 -0.93327,0.29508 -4.66666,0.42006 -4.82642,0.16157 z m -1.67834,-3.20983 c 0.0521,-0.15644 0.20792,-0.28443 0.34616,-0.28443 0.13825,0 0.29402,0.12799 0.34617,0.28443 0.0521,0.15643 -0.10363,0.28442 -0.34617,0.28442 -0.24253,0 -0.39831,-0.12799 -0.34616,-0.28442 z m -2.58357,-2.22346 c -0.28042,-0.21215 -0.39079,-0.38769 -0.24527,-0.39009 0.39316,-0.006 1.06514,0.4658 0.89907,0.63187 -0.0792,0.0792 -0.37338,-0.0296 -0.6538,-0.24178 z m 28.29921,10.85811 c -0.16571,-0.43183 -1.4072,-1.31218 -1.59111,-1.12827 -0.11153,0.11153 1.40138,1.50927 1.63363,1.50927 0.057,0 0.0379,-0.17145 -0.0425,-0.381 z m -29.99969,-0.5759 c 0,-0.45033 -0.31818,-0.47117 -0.74083,-0.0485 -0.4741,0.47409 -0.38427,0.70875 0.21167,0.55291 0.29104,-0.0761 0.52916,-0.30309 0.52916,-0.50441 z m -39.95208,-1.95801 c 0.3638,-0.25225 1.61396,-0.96965 2.77813,-1.59422 1.16416,-0.62458 2.43938,-1.4017 2.83382,-1.72694 0.39443,-0.32524 1.2874,-0.79204 1.98437,-1.03734 2.02024,-0.71101 2.04651,-0.73889 2.25585,-2.39381 0.10718,-0.84733 0.1365,-1.59897 0.0652,-1.67032 -0.31873,-0.31873 -7.16694,2.63028 -10.08408,4.34245 -0.92094,0.54053 -1.68532,2.43792 -1.68532,4.18339 0,0.93035 0.0291,0.96299 0.59531,0.66683 0.32742,-0.17127 0.89297,-0.51779 1.25677,-0.77004 z m 70.75487,0.7062 c -0.0753,-0.19614 -0.45848,-0.59074 -0.85159,-0.87687 -1.17371,-0.85431 -1.37633,-0.93806 -1.37429,-0.56805 10e-4,0.1905 0.50706,0.67188 1.12448,1.06975 1.31268,0.84594 1.27744,0.83394 1.1014,0.37517 z m -42.97362,-0.17254 c 0,-0.14552 -0.11906,-0.26458 -0.26458,-0.26458 -0.14552,0 -0.26459,0.11906 -0.26459,0.26458 0,0.14552 0.11907,0.26459 0.26459,0.26459 0.14552,0 0.26458,-0.11907 0.26458,-0.26459 z m 2.17338,-1.25991 c -0.49711,-0.1657 -1.17514,0.15488 -0.98347,0.46502 0.10885,0.17612 0.36229,0.16165 0.74367,-0.0425 0.37431,-0.20033 0.45896,-0.3495 0.2398,-0.42255 z m 13.17245,-1.20751 c 0,-0.0474 -0.31786,-0.37481 -0.70635,-0.7276 l -0.70636,-0.64143 0.50792,0.7193 c 0.43136,0.61087 0.90479,0.95085 0.90479,0.64973 z m -6.2177,-1.50133 c 0.26338,-0.29104 0.72237,-0.52916 1.01996,-0.52916 0.4248,0 0.47194,-0.0692 0.21933,-0.32175 -0.25259,-0.2526 -0.13604,-0.42079 0.5424,-0.78264 l 0.86414,-0.46092 -1.1979,-0.0111 c -0.65885,-0.006 -1.44015,0.15859 -1.73623,0.36597 -0.31024,0.2173 -0.68391,0.28709 -0.88191,0.16472 -0.32004,-0.19779 -1.34334,-0.0804 -1.34334,0.15412 0,0.0578 0.11037,0.31177 0.24527,0.56446 0.1349,0.25268 0.30976,0.66779 0.38857,0.92245 0.19494,0.62986 1.28453,0.59152 1.87971,-0.0661 z m -1.19063,-0.39687 c 0,-0.21828 0.17859,-0.39688 0.39687,-0.39688 0.21829,0 0.39688,0.1786 0.39688,0.39688 0,0.21828 -0.17859,0.39687 -0.39688,0.39687 -0.21828,0 -0.39687,-0.17859 -0.39687,-0.39687 z m -37.57083,-0.96149 c 0,-0.34614 -0.81219,0.11834 -1.45817,0.83391 l -0.52621,0.5829 0.99219,-0.58452 c 0.5457,-0.32149 0.99219,-0.69602 0.99219,-0.83229 z m 41.70777,0.43395 c 0.46771,-0.24392 0.58887,-0.39587 0.31647,-0.39687 -0.63038,-0.002 -1.27841,0.27943 -1.27841,0.55584 0,0.31521 0.0772,0.30245 0.96194,-0.15897 z m -27.26879,-1.88382 c 0.57908,-0.39298 1.05952,-0.57022 1.11275,-0.41052 0.14773,0.44319 1.35811,-0.18785 2.70452,-1.41003 0.89137,-0.80913 1.70029,-1.23143 3.21846,-1.68023 1.11531,-0.3297 2.09384,-0.77146 2.17451,-0.98168 0.0807,-0.21022 -0.005,-0.38222 -0.19087,-0.38222 -0.62486,0 -6.11175,1.04189 -7.95312,1.5102 -1.98229,0.50414 -2.24964,0.81208 -2.6514,3.05386 -0.21904,1.22226 0.12961,1.28838 1.58515,0.30062 z m -6.49159,-2.29994 c 0.95133,-0.37646 2.38008,-0.88829 3.175,-1.13743 1.2305,-0.38562 1.57016,-0.64335 2.28526,-1.73392 l 0.83995,-1.28096 -0.70766,0.16568 c -1.102,0.25802 -5.86651,2.21727 -7.18994,2.95663 -1.17136,0.65442 -3.70417,2.89008 -3.70417,3.26961 0,0.10672 0.80367,-0.19952 1.78594,-0.68054 0.98226,-0.48102 2.56429,-1.1826 3.51562,-1.55907 z m 28.56511,1.93317 c 0,-0.14552 -0.14883,-0.26834 -0.33073,-0.27294 -0.1819,-0.005 0.003,-0.30226 0.41163,-0.66146 0.64768,-0.56981 0.6766,-0.6531 0.22674,-0.6531 -0.28359,0 -0.58888,0.19095 -0.67844,0.42433 -0.093,0.24227 -0.33215,0.35935 -0.55747,0.27289 -0.56014,-0.21495 -0.50095,0.53749 0.0684,0.86909 0.59447,0.34625 0.85989,0.35279 0.85989,0.0212 z m 4.98033,-0.70857 c -0.0791,-0.41058 -1.49816,-1.00971 -1.76337,-0.7445 -0.17337,0.17337 1.09215,1.16946 1.49879,1.17969 0.19257,0.005 0.31163,-0.191 0.26458,-0.43519 z m -0.27311,-2.51018 c 0.0581,-0.29911 -0.3858,-0.47949 -1.80297,-0.73275 -1.03398,-0.18479 -1.92712,-0.28883 -1.98474,-0.2312 -0.0576,0.0576 -0.0375,0.36189 0.0447,0.67615 0.12683,0.48501 0.37521,0.58528 1.64315,0.66338 1.91002,0.11765 2.00756,0.10021 2.09991,-0.37558 z m -22.93268,-1.69167 c 1.94759,-0.3724 4.64778,-0.7474 6.00041,-0.83332 2.20886,-0.14035 2.51201,-0.22322 2.97657,-0.81381 0.28447,-0.36165 0.51723,-0.76056 0.51723,-0.88645 0,-0.37167 -5.07741,-0.26161 -7.96931,0.17275 -1.95413,0.2935 -2.86387,0.55876 -3.37873,0.98515 -0.7391,0.6121 -2.0054,2.05278 -1.80431,2.05278 0.0644,0 1.71055,-0.30469 3.65814,-0.6771 z m 23.55271,-0.25114 c -0.006,-0.36002 -2.42606,-0.95409 -3.17566,-0.77947 -0.87109,0.20293 -0.56718,0.40041 1.21272,0.78807 1.68786,0.36761 1.969,0.36637 1.96294,-0.009 z m 1.8165,-1.31394 c 0,-0.17321 -1.49747,-0.93282 -1.83895,-0.93282 -0.54375,0 -0.26721,0.75897 0.31759,0.87161 0.91142,0.17554 1.52136,0.20008 1.52136,0.0612 z m 2.23219,-0.90569 c 0.21393,-0.34615 -2.35952,-1.6186 -3.21951,-1.5919 -0.59893,0.0186 -0.39481,0.18557 1.11961,0.91579 2.18123,1.05175 1.91977,0.96757 2.0999,0.67611 z m 3.31461,-0.66203 c -0.21309,-0.20366 -0.80415,-0.4475 -1.31347,-0.54187 l -0.92604,-0.17157 0.62462,0.54187 c 0.73423,0.63696 2.27282,0.80042 1.61489,0.17157 z m -19.88719,-1.03346 c 0.2756,-0.0412 0.27069,-0.15117 -0.0247,-0.55311 -0.34705,-0.4722 -0.54589,-0.48478 -3.3867,-0.21408 -1.6599,0.15818 -3.40513,0.45063 -3.8783,0.64993 -0.76988,0.32425 -0.45004,0.35216 3.04271,0.26553 2.14665,-0.0532 4.0578,-0.11996 4.247,-0.14826 z m 11.12161,-0.68025 c 0.44918,-0.28473 -0.48174,-0.56173 -1.80831,-0.53808 l -0.92604,0.0165 0.92604,0.35662 c 1.12254,0.43228 1.35335,0.45334 1.80831,0.16494 z" />
    <path
       id="path1270"
       style="fill:#000000;stroke-width:0.264583"
       d="m 368.06004,349.18379 c -0.59759,-0.0348 0.45556,0.47152 3.16208,1.52807 2.51421,0.98149 6.65655,3.05052 9.26042,4.62505 5.11321,3.09188 8.55647,5.80238 12.97802,10.21539 4.30882,4.30054 4.72229,4.77351 7.34529,8.40879 2.88734,4.00168 3.91345,5.72649 6.3505,10.67222 3.73984,7.30055 5.68953,15.24014 6.53346,23.34999 0.22302,2.27287 0.21807,10.54564 -0.008,12.8571 -1.88725,19.31705 -11.87077,37.04302 -27.37869,48.6115 -4.9213,3.67115 -9.34799,6.145 -15.79541,8.82788 -1.71736,0.71463 -2.99122,1.30291 -2.83086,1.3069 1.00465,0.026 9.29775,-2.31679 13.86377,-3.91654 4.4894,-1.57292 4.89173,-1.7289 8.89559,-3.44218 7.84378,-3.3564 12.22687,-5.65208 22.97998,-12.03545 2.24687,-1.33381 5.81359,-3.78399 6.21822,-4.27156 0.18441,-0.2222 0.47744,-0.40413 0.65061,-0.40413 0.64251,0 13.60895,-9.83051 17.74827,-13.45601 0.43881,-0.38433 1.68897,-1.47274 2.77813,-2.41846 7.56259,-6.66257 12.34101,-11.6665 19.1363,-18.58745 1.67598,-1.74622 5.46582,-6.4188 5.46582,-6.73913 0,-0.4038 -3.80405,-4.83248 -7.66879,-8.92813 -8.50384,-9.01192 -17.84302,-17.52078 -27.12392,-24.71219 -7.29361,-5.47166 -14.68499,-10.79238 -22.62187,-15.39493 -12.79615,-7.31942 -24.04327,-12.00597 -37.08146,-15.45125 -1.54623,-0.40858 -2.49915,-0.62453 -2.85771,-0.64544 z m -45.69024,0.0444 c -0.64167,0.0138 -4.93646,1.10955 -8.56226,2.19522 -4.88614,1.46305 -10.8213,3.67206 -15.47812,5.76089 -16.66348,7.89775 -32.79219,18.06931 -46.31243,29.79629 -0.58774,0.51443 -1.89282,1.64971 -2.90008,2.52284 -3.58228,3.10523 -5.10485,4.5546 -11.52901,10.96988 -6.33834,6.32958 -12.68036,13.26651 -12.68036,13.87047 0,0.16526 0.26788,0.5978 0.59531,0.96118 0.32742,0.36338 1.66687,1.9101 2.97656,3.437 3.53275,4.11868 15.50797,16.01621 20.52692,20.39359 7.03681,6.09151 15.38581,12.61986 22.60017,17.49817 15.4655,10.45461 31.16146,17.82993 46.83125,22.00487 l -5.3e-4,-5e-4 c 2.23975,0.59645 3.57188,0.81795 3.57188,0.59271 0,-0.0543 -0.98227,-0.48686 -2.18282,-0.96117 -8.48233,-3.35122 -16.32394,-8.51512 -23.05904,-15.1846 -11.19887,-11.72827 -17.26973,-24.28655 -19.77295,-39.7149 -0.44884,-2.81673 -0.45262,-15.14069 -0.005,-17.99167 1.40886,-8.9766 3.35222,-15.13 7.10346,-22.48958 7.52313,-14.75967 20.39993,-26.35545 36.27374,-32.66571 1.20618,-0.47947 2.14315,-0.92178 2.08206,-0.98288 -0.009,-0.009 -0.0358,-0.0128 -0.0786,-0.0119 z"
       sodipodi:nodetypes="csssscccsscssssssccssccscccsccsssssccccsscccssscc" />
  </g>
</svg>
