<?xml version="1.0" encoding="UTF-8" standalone="no"?>
<svg
   sodipodi:docname="vomit.svg"
   inkscape:version="1.2.2 (732a01da63, 2022-12-09)"
   id="svg8"
   version="1.1"
   viewBox="0 0 150 150"
   height="150mm"
   width="150mm"
   xml:space="preserve"
   xmlns:inkscape="http://www.inkscape.org/namespaces/inkscape"
   xmlns:sodipodi="http://sodipodi.sourceforge.net/DTD/sodipodi-0.dtd"
   xmlns:xlink="http://www.w3.org/1999/xlink"
   xmlns="http://www.w3.org/2000/svg"
   xmlns:svg="http://www.w3.org/2000/svg"
   xmlns:rdf="http://www.w3.org/1999/02/22-rdf-syntax-ns#"
   xmlns:cc="http://creativecommons.org/ns#"
   xmlns:dc="http://purl.org/dc/elements/1.1/"><defs
     id="defs2"><linearGradient
       id="linearGradient853"
       inkscape:collect="always"><stop
         id="stop849"
         offset="0"
         style="stop-color:#ffbd86;stop-opacity:1;" /><stop
         style="stop-color:#ffbd86;stop-opacity:1"
         offset="0.70677221"
         id="stop859" /><stop
         style="stop-color:#f6a96c;stop-opacity:1"
         offset="0.70677215"
         id="stop857" /><stop
         id="stop851"
         offset="1"
         style="stop-color:#f6a96c;stop-opacity:1" /></linearGradient><radialGradient
       gradientUnits="userSpaceOnUse"
       gradientTransform="matrix(0.95943271,-0.69755747,0.9519883,1.3093812,-161.76233,-337.25135)"
       r="40.71497"
       fy="151.01155"
       fx="-429.75894"
       cy="151.01155"
       cx="-429.75894"
       id="radialGradient917"
       xlink:href="#linearGradient853"
       inkscape:collect="always" /></defs><sodipodi:namedview
     inkscape:window-maximized="1"
     inkscape:window-y="-8"
     inkscape:window-x="-8"
     inkscape:window-height="1017"
     inkscape:window-width="1920"
     fit-margin-bottom="0"
     fit-margin-right="0"
     fit-margin-left="0"
     fit-margin-top="0"
     showgrid="false"
     inkscape:document-rotation="0"
     inkscape:current-layer="layer1"
     inkscape:document-units="mm"
     inkscape:cy="362.93817"
     inkscape:cx="-28.45595"
     inkscape:zoom="1.001548"
     inkscape:pageshadow="2"
     inkscape:pageopacity="0.0"
     borderopacity="1.0"
     bordercolor="#666666"
     pagecolor="#ffffff"
     id="base"
     inkscape:showpageshadow="2"
     inkscape:pagecheckerboard="0"
     inkscape:deskcolor="#d1d1d1" /><metadata
     id="metadata5"><rdf:RDF><cc:Work
         rdf:about=""><dc:format>image/svg+xml</dc:format><dc:type
           rdf:resource="http://purl.org/dc/dcmitype/StillImage" /></cc:Work></rdf:RDF></metadata><g
     transform="translate(-49.692425,-37.132853)"
     id="layer1"
     inkscape:groupmode="layer"
     inkscape:label="Calque 1"><path
       id="path2740"
       style="fill:#76ed34;fill-opacity:1;stroke:none;stroke-width:1;stroke-dasharray:none;stroke-opacity:1"
       d="m 189.7401,108.25858 c -1.29218,0.006 -2.83698,0.785 -2.07532,2.09134 0.35145,0.27632 0.82227,0.13821 1.23041,0.21291 1.26067,0.2308 3.86388,-1.29118 1.7415,-2.15387 -0.25411,-0.10329 -0.56721,-0.15179 -0.89659,-0.15038 z m -127.928482,1.52726 c -0.648446,0.001 -1.172264,0.21336 -0.606681,0.78032 0.295364,0.29608 0.83499,0.23098 1.238167,0.11317 1.530483,-0.44722 0.316243,-0.89528 -0.631486,-0.89349 z m 56.465032,14.00561 c -0.0376,9.5e-4 -0.0748,0.003 -0.11237,0.005 -1.86966,0.12358 -7.61919,0.0824 -5.45431,2.57562 1.56458,1.80185 4.53964,0.68786 6.8001,0.54201 3.54475,-0.22887 1.13642,-3.18229 -1.23334,-3.1229 z M 58.465053,112.6513 c -0.386073,0.002 -0.681045,0.14069 -0.427365,0.54519 0.136193,0.21717 0.5105,0.0684 0.764812,0.0393 1.328081,-0.15189 0.350769,-0.58722 -0.337447,-0.58446 z m 8.099731,-0.80441 c -1.001524,-0.004 -1.987142,0.5679 -1.449524,1.5844 0.577926,1.09272 3.66419,0.93252 3.045292,-0.72657 -0.217556,-0.5832 -0.910515,-0.85532 -1.595768,-0.85783 z m 113.024836,-0.0555 c -1.4652,0.0101 -3.86889,0.41279 -2.23449,1.59215 1.03332,0.74563 2.47363,0.33835 3.72019,0.33435 2.08488,-0.006 0.40949,-1.73841 -0.79995,-1.89446 -0.17537,-0.0226 -0.41441,-0.0339 -0.68575,-0.032 z m -93.764571,-3.96888 c -1.356881,-5e-5 -2.720092,0.12675 -4.040063,0.27233 -3.034483,0.33468 -6.271638,1.09057 -8.541081,3.32693 -1.506609,1.48464 0.718285,3.6034 3.121773,3.5295 4.258206,-0.13085 9.653841,-1.56692 14.525212,-2.34301 1.522945,-0.24263 2.451545,-2.77754 0.69143,-3.63543 -1.803988,-0.87928 -3.774138,-1.15026 -5.757271,-1.15032 z m 84.829141,8.67001 c -2.02733,0.007 -4.38665,1.09047 -3.31826,3.18457 0.63911,0.42251 1.45444,0.24783 2.16283,0.42719 2.17253,0.5503 6.21482,-1.99319 2.69852,-3.36283 -0.43307,-0.1687 -0.97544,-0.25074 -1.54309,-0.24893 z m -46.10902,6.27647 c -4.19401,-2.68965 -9.94341,-4.12244 -14.38381,-2.04571 -6.39273,2.98981 -29.535913,2.58463 -19.393113,-5.06084 1.99443,-1.50337 8.488487,-3.84962 9.011467,-6.47354 0.620086,-3.11116 -12.244654,-6.07866 -2.636254,-8.24648 5.62498,-1.269101 16.90409,2.26443 22.59355,0.85189 5.35285,-1.32898 7.83429,-5.955201 13.37664,-4.704061 4.26578,0.96298 7.12457,2.09611 10.26792,4.840871 3.05363,2.6664 6.99754,4.1606 11.05235,4.35268 4.4626,0.21139 9.9436,-1.06355 14.38285,-0.35815 4.2867,0.68117 6.92174,5.79099 1.58378,6.42304 -4.31313,0.51071 -9.53764,-0.89903 -13.85465,-0.97392 -4.14271,-0.0719 -11.38051,5.475 -4.20557,5.84688 2.26961,0.11763 5.29307,-0.48323 6.73084,1.41042 4.13666,5.44835 -8.0172,6.98173 -11.08096,6.34145 -2.6273,-0.54906 -4.82433,-2.38104 -7.45923,-2.83241 -2.11257,-0.36188 -3.73546,1.42103 -5.14236,2.78546 -4.14457,4.01947 -7.43678,0.0271 -10.84345,-2.15758 z" /></g></svg>
