<?xml version="1.0" encoding="UTF-8" standalone="no"?>
<svg
   xmlns:dc="http://purl.org/dc/elements/1.1/"
   xmlns:cc="http://creativecommons.org/ns#"
   xmlns:rdf="http://www.w3.org/1999/02/22-rdf-syntax-ns#"
   xmlns:svg="http://www.w3.org/2000/svg"
   xmlns="http://www.w3.org/2000/svg"
   xmlns:xlink="http://www.w3.org/1999/xlink"
   xmlns:sodipodi="http://sodipodi.sourceforge.net/DTD/sodipodi-0.dtd"
   xmlns:inkscape="http://www.inkscape.org/namespaces/inkscape"
   width="150mm"
   height="150mm"
   viewBox="0 0 150 150"
   version="1.1"
   id="svg8"
   inkscape:version="1.0 (4035a4fb49, 2020-05-01)"
   sodipodi:docname="pleading.svg">
  <defs
     id="defs2">
    <linearGradient
       inkscape:collect="always"
       id="linearGradient853">
      <stop
         style="stop-color:#ffbd86;stop-opacity:1;"
         offset="0"
         id="stop849" />
      <stop
         id="stop859"
         offset="0.70677221"
         style="stop-color:#ffbd86;stop-opacity:1" />
      <stop
         id="stop857"
         offset="0.70677215"
         style="stop-color:#f6a96c;stop-opacity:1" />
      <stop
         style="stop-color:#f6a96c;stop-opacity:1"
         offset="1"
         id="stop851" />
    </linearGradient>
    <radialGradient
       inkscape:collect="always"
       xlink:href="#linearGradient853"
       id="radialGradient917"
       cx="-429.75894"
       cy="151.01155"
       fx="-429.75894"
       fy="151.01155"
       r="40.71497"
       gradientTransform="matrix(0.95943271,-0.69755747,0.9519883,1.3093812,-161.76233,-337.25135)"
       gradientUnits="userSpaceOnUse" />
  </defs>
  <sodipodi:namedview
     id="base"
     pagecolor="#ffffff"
     bordercolor="#666666"
     borderopacity="1.0"
     inkscape:pageopacity="0.0"
     inkscape:pageshadow="2"
     inkscape:zoom="1.001548"
     inkscape:cx="340.83105"
     inkscape:cy="212.38757"
     inkscape:document-units="mm"
     inkscape:current-layer="layer1"
     inkscape:document-rotation="0"
     showgrid="false"
     fit-margin-top="0"
     fit-margin-left="0"
     fit-margin-right="0"
     fit-margin-bottom="0"
     inkscape:window-width="1920"
     inkscape:window-height="1017"
     inkscape:window-x="-8"
     inkscape:window-y="-8"
     inkscape:window-maximized="1" />
  <metadata
     id="metadata5">
    <rdf:RDF>
      <cc:Work
         rdf:about="">
        <dc:format>image/svg+xml</dc:format>
        <dc:type
           rdf:resource="http://purl.org/dc/dcmitype/StillImage" />
        <dc:title></dc:title>
      </cc:Work>
    </rdf:RDF>
  </metadata>
  <g
     inkscape:label="Calque 1"
     inkscape:groupmode="layer"
     id="layer1"
     transform="translate(-49.692425,-37.132853)">
    <path
       transform="matrix(0.26458333,0,0,0.26458333,49.692425,37.132853)"
       d="M 323.03125 219.55664 A 78.202386 78.202386 0 0 0 319.90039 241.46484 A 78.202386 78.202386 0 0 0 398.10156 319.66602 A 78.202386 78.202386 0 0 0 476.30469 241.46484 A 78.202386 78.202386 0 0 0 474.39648 224.30273 A 75.760622 75.760622 0 0 1 474.37891 224.58398 A 75.760622 75.760622 0 0 1 474.32617 225.31445 A 75.760622 75.760622 0 0 1 474.26562 226.04297 A 75.760622 75.760622 0 0 1 474.19922 226.77148 A 75.760622 75.760622 0 0 1 474.125 227.5 A 75.760622 75.760622 0 0 1 474.04297 228.22852 A 75.760622 75.760622 0 0 1 473.95508 228.95508 A 75.760622 75.760622 0 0 1 473.86133 229.67969 A 75.760622 75.760622 0 0 1 473.75781 230.4043 A 75.760622 75.760622 0 0 1 473.64844 231.12891 A 75.760622 75.760622 0 0 1 473.5332 231.85156 A 75.760622 75.760622 0 0 1 473.41016 232.57227 A 75.760622 75.760622 0 0 1 473.2793 233.29297 A 75.760622 75.760622 0 0 1 473.14258 234.01172 A 75.760622 75.760622 0 0 1 472.99805 234.73047 A 75.760622 75.760622 0 0 1 472.84766 235.44531 A 75.760622 75.760622 0 0 1 472.68945 236.16016 A 75.760622 75.760622 0 0 1 472.52539 236.87305 A 75.760622 75.760622 0 0 1 472.35352 237.58594 A 75.760622 75.760622 0 0 1 472.17578 238.29492 A 75.760622 75.760622 0 0 1 471.99023 239.00391 A 75.760622 75.760622 0 0 1 471.79688 239.70898 A 75.760622 75.760622 0 0 1 471.59766 240.41406 A 75.760622 75.760622 0 0 1 471.39258 241.11523 A 75.760622 75.760622 0 0 1 471.17969 241.81641 A 75.760622 75.760622 0 0 1 470.96094 242.51562 A 75.760622 75.760622 0 0 1 470.73438 243.21094 A 75.760622 75.760622 0 0 1 470.50195 243.9043 A 75.760622 75.760622 0 0 1 470.26172 244.5957 A 75.760622 75.760622 0 0 1 470.01562 245.28516 A 75.760622 75.760622 0 0 1 469.76367 245.97266 A 75.760622 75.760622 0 0 1 469.50391 246.65625 A 75.760622 75.760622 0 0 1 469.23828 247.33789 A 75.760622 75.760622 0 0 1 468.96484 248.01758 A 75.760622 75.760622 0 0 1 468.6875 248.69531 A 75.760622 75.760622 0 0 1 468.40039 249.36914 A 75.760622 75.760622 0 0 1 468.10938 250.03906 A 75.760622 75.760622 0 0 1 467.81055 250.70703 A 75.760622 75.760622 0 0 1 467.50586 251.37305 A 75.760622 75.760622 0 0 1 467.19336 252.03516 A 75.760622 75.760622 0 0 1 466.875 252.69531 A 75.760622 75.760622 0 0 1 466.55078 253.35156 A 75.760622 75.760622 0 0 1 466.2207 254.00391 A 75.760622 75.760622 0 0 1 465.88477 254.6543 A 75.760622 75.760622 0 0 1 465.54102 255.30078 A 75.760622 75.760622 0 0 1 465.19141 255.94336 A 75.760622 75.760622 0 0 1 464.83594 256.58398 A 75.760622 75.760622 0 0 1 464.47461 257.21875 A 75.760622 75.760622 0 0 1 464.10742 257.85156 A 75.760622 75.760622 0 0 1 463.73242 258.48242 A 75.760622 75.760622 0 0 1 463.35352 259.10742 A 75.760622 75.760622 0 0 1 462.9668 259.72852 A 75.760622 75.760622 0 0 1 462.57422 260.34766 A 75.760622 75.760622 0 0 1 462.17773 260.96094 A 75.760622 75.760622 0 0 1 461.77344 261.57227 A 75.760622 75.760622 0 0 1 461.36328 262.17773 A 75.760622 75.760622 0 0 1 460.94727 262.78125 A 75.760622 75.760622 0 0 1 460.52734 263.37891 A 75.760622 75.760622 0 0 1 460.09961 263.97461 A 75.760622 75.760622 0 0 1 459.66602 264.56445 A 75.760622 75.760622 0 0 1 459.22852 265.15039 A 75.760622 75.760622 0 0 1 458.7832 265.73242 A 75.760622 75.760622 0 0 1 458.33398 266.30859 A 75.760622 75.760622 0 0 1 457.87891 266.88281 A 75.760622 75.760622 0 0 1 457.41797 267.45117 A 75.760622 75.760622 0 0 1 456.95117 268.01562 A 75.760622 75.760622 0 0 1 456.48047 268.57422 A 75.760622 75.760622 0 0 1 456.00195 269.12891 A 75.760622 75.760622 0 0 1 455.51953 269.67969 A 75.760622 75.760622 0 0 1 455.0332 270.22461 A 75.760622 75.760622 0 0 1 454.53906 270.76562 A 75.760622 75.760622 0 0 1 454.04102 271.30273 A 75.760622 75.760622 0 0 1 453.53711 271.83398 A 75.760622 75.760622 0 0 1 453.0293 272.36133 A 75.760622 75.760622 0 0 1 452.51562 272.88281 A 75.760622 75.760622 0 0 1 451.99805 273.39844 A 75.760622 75.760622 0 0 1 451.47266 273.91016 A 75.760622 75.760622 0 0 1 450.94531 274.41602 A 75.760622 75.760622 0 0 1 450.41211 274.91797 A 75.760622 75.760622 0 0 1 449.87305 275.41406 A 75.760622 75.760622 0 0 1 449.33008 275.9043 A 75.760622 75.760622 0 0 1 448.7832 276.39062 A 75.760622 75.760622 0 0 1 448.23047 276.87109 A 75.760622 75.760622 0 0 1 447.67383 277.3457 A 75.760622 75.760622 0 0 1 447.11328 277.81445 A 75.760622 75.760622 0 0 1 446.54688 278.2793 A 75.760622 75.760622 0 0 1 445.97656 278.73828 A 75.760622 75.760622 0 0 1 445.40039 279.19141 A 75.760622 75.760622 0 0 1 444.82227 279.63867 A 75.760622 75.760622 0 0 1 444.23828 280.08008 A 75.760622 75.760622 0 0 1 443.65039 280.51562 A 75.760622 75.760622 0 0 1 443.05859 280.94727 A 75.760622 75.760622 0 0 1 442.46289 281.37109 A 75.760622 75.760622 0 0 1 441.86328 281.79102 A 75.760622 75.760622 0 0 1 441.25781 282.20312 A 75.760622 75.760622 0 0 1 440.65039 282.61133 A 75.760622 75.760622 0 0 1 440.03906 283.01367 A 75.760622 75.760622 0 0 1 439.42188 283.4082 A 75.760622 75.760622 0 0 1 438.80273 283.79688 A 75.760622 75.760622 0 0 1 438.17969 284.18164 A 75.760622 75.760622 0 0 1 437.55273 284.55859 A 75.760622 75.760622 0 0 1 436.92188 284.92969 A 75.760622 75.760622 0 0 1 436.28711 285.29492 A 75.760622 75.760622 0 0 1 435.65039 285.6543 A 75.760622 75.760622 0 0 1 435.00977 286.00781 A 75.760622 75.760622 0 0 1 434.36523 286.35547 A 75.760622 75.760622 0 0 1 433.7168 286.69531 A 75.760622 75.760622 0 0 1 433.06445 287.0293 A 75.760622 75.760622 0 0 1 432.41016 287.35742 A 75.760622 75.760622 0 0 1 431.75391 287.67969 A 75.760622 75.760622 0 0 1 431.09375 287.99414 A 75.760622 75.760622 0 0 1 430.42969 288.30273 A 75.760622 75.760622 0 0 1 429.76367 288.60547 A 75.760622 75.760622 0 0 1 429.09375 288.90234 A 75.760622 75.760622 0 0 1 428.42188 289.19141 A 75.760622 75.760622 0 0 1 427.74609 289.47461 A 75.760622 75.760622 0 0 1 427.06836 289.75 A 75.760622 75.760622 0 0 1 426.38867 290.01953 A 75.760622 75.760622 0 0 1 425.70508 290.2832 A 75.760622 75.760622 0 0 1 425.01953 290.54102 A 75.760622 75.760622 0 0 1 424.33203 290.79102 A 75.760622 75.760622 0 0 1 423.64258 291.0332 A 75.760622 75.760622 0 0 1 422.94922 291.26953 A 75.760622 75.760622 0 0 1 422.25391 291.5 A 75.760622 75.760622 0 0 1 421.55664 291.72461 A 75.760622 75.760622 0 0 1 420.85742 291.93945 A 75.760622 75.760622 0 0 1 420.15625 292.15039 A 75.760622 75.760622 0 0 1 419.45312 292.35352 A 75.760622 75.760622 0 0 1 418.74805 292.54883 A 75.760622 75.760622 0 0 1 418.04102 292.73828 A 75.760622 75.760622 0 0 1 417.33203 292.92188 A 75.760622 75.760622 0 0 1 416.62305 293.09766 A 75.760622 75.760622 0 0 1 415.91016 293.26562 A 75.760622 75.760622 0 0 1 415.19727 293.42773 A 75.760622 75.760622 0 0 1 414.48047 293.58203 A 75.760622 75.760622 0 0 1 413.76367 293.73047 A 75.760622 75.760622 0 0 1 413.04688 293.87305 A 75.760622 75.760622 0 0 1 412.32617 294.00586 A 75.760622 75.760622 0 0 1 411.60547 294.13281 A 75.760622 75.760622 0 0 1 410.88477 294.25391 A 75.760622 75.760622 0 0 1 410.16016 294.36719 A 75.760622 75.760622 0 0 1 409.4375 294.47266 A 75.760622 75.760622 0 0 1 408.71094 294.57227 A 75.760622 75.760622 0 0 1 407.98633 294.66602 A 75.760622 75.760622 0 0 1 407.25781 294.75 A 75.760622 75.760622 0 0 1 406.53125 294.82812 A 75.760622 75.760622 0 0 1 405.80273 294.90039 A 75.760622 75.760622 0 0 1 405.07422 294.96484 A 75.760622 75.760622 0 0 1 404.34375 295.02148 A 75.760622 75.760622 0 0 1 403.61328 295.07227 A 75.760622 75.760622 0 0 1 402.88281 295.11523 A 75.760622 75.760622 0 0 1 402.15234 295.15039 A 75.760622 75.760622 0 0 1 401.41992 295.17969 A 75.760622 75.760622 0 0 1 400.68945 295.20117 A 75.760622 75.760622 0 0 1 399.95703 295.2168 A 75.760622 75.760622 0 0 1 399.22461 295.22461 A 75.760622 75.760622 0 0 1 398.79102 295.22461 A 75.760622 75.760622 0 0 1 398.06055 295.2207 A 75.760622 75.760622 0 0 1 397.32812 295.21094 A 75.760622 75.760622 0 0 1 396.5957 295.19336 A 75.760622 75.760622 0 0 1 395.86523 295.16797 A 75.760622 75.760622 0 0 1 395.13281 295.13672 A 75.760622 75.760622 0 0 1 394.40234 295.09766 A 75.760622 75.760622 0 0 1 393.67188 295.05273 A 75.760622 75.760622 0 0 1 392.94141 294.99805 A 75.760622 75.760622 0 0 1 392.21289 294.93945 A 75.760622 75.760622 0 0 1 391.48438 294.87109 A 75.760622 75.760622 0 0 1 390.75586 294.79688 A 75.760622 75.760622 0 0 1 390.0293 294.7168 A 75.760622 75.760622 0 0 1 389.30273 294.62891 A 75.760622 75.760622 0 0 1 388.57617 294.5332 A 75.760622 75.760622 0 0 1 387.85156 294.43164 A 75.760622 75.760622 0 0 1 387.12695 294.32227 A 75.760622 75.760622 0 0 1 386.4043 294.20508 A 75.760622 75.760622 0 0 1 385.68359 294.08203 A 75.760622 75.760622 0 0 1 384.96289 293.95312 A 75.760622 75.760622 0 0 1 384.24414 293.81445 A 75.760622 75.760622 0 0 1 383.52734 293.67188 A 75.760622 75.760622 0 0 1 382.81055 293.51953 A 75.760622 75.760622 0 0 1 382.0957 293.36328 A 75.760622 75.760622 0 0 1 381.38281 293.19727 A 75.760622 75.760622 0 0 1 380.67188 293.02539 A 75.760622 75.760622 0 0 1 379.96094 292.84766 A 75.760622 75.760622 0 0 1 379.25391 292.66211 A 75.760622 75.760622 0 0 1 378.54688 292.4707 A 75.760622 75.760622 0 0 1 377.8418 292.27148 A 75.760622 75.760622 0 0 1 377.14062 292.06445 A 75.760622 75.760622 0 0 1 376.43945 291.85352 A 75.760622 75.760622 0 0 1 375.74219 291.63281 A 75.760622 75.760622 0 0 1 375.04492 291.4082 A 75.760622 75.760622 0 0 1 374.35156 291.17383 A 75.760622 75.760622 0 0 1 373.66016 290.93555 A 75.760622 75.760622 0 0 1 372.9707 290.68945 A 75.760622 75.760622 0 0 1 372.2832 290.43555 A 75.760622 75.760622 0 0 1 371.59961 290.17773 A 75.760622 75.760622 0 0 1 370.91797 289.91016 A 75.760622 75.760622 0 0 1 370.23828 289.63867 A 75.760622 75.760622 0 0 1 369.5625 289.35938 A 75.760622 75.760622 0 0 1 368.88867 289.07422 A 75.760622 75.760622 0 0 1 368.2168 288.78125 A 75.760622 75.760622 0 0 1 367.54883 288.48242 A 75.760622 75.760622 0 0 1 366.88281 288.17773 A 75.760622 75.760622 0 0 1 366.2207 287.86719 A 75.760622 75.760622 0 0 1 365.56055 287.54883 A 75.760622 75.760622 0 0 1 364.90625 287.22461 A 75.760622 75.760622 0 0 1 364.25195 286.89453 A 75.760622 75.760622 0 0 1 363.60156 286.55664 A 75.760622 75.760622 0 0 1 362.95508 286.21289 A 75.760622 75.760622 0 0 1 362.3125 285.86523 A 75.760622 75.760622 0 0 1 361.67383 285.50977 A 75.760622 75.760622 0 0 1 361.03711 285.14648 A 75.760622 75.760622 0 0 1 360.4043 284.7793 A 75.760622 75.760622 0 0 1 359.77539 284.40625 A 75.760622 75.760622 0 0 1 359.14844 284.02539 A 75.760622 75.760622 0 0 1 358.52734 283.63867 A 75.760622 75.760622 0 0 1 357.9082 283.24805 A 75.760622 75.760622 0 0 1 357.29492 282.84961 A 75.760622 75.760622 0 0 1 356.68359 282.44531 A 75.760622 75.760622 0 0 1 356.07812 282.03516 A 75.760622 75.760622 0 0 1 355.47461 281.62109 A 75.760622 75.760622 0 0 1 354.87695 281.19922 A 75.760622 75.760622 0 0 1 354.2832 280.77148 A 75.760622 75.760622 0 0 1 353.69336 280.33984 A 75.760622 75.760622 0 0 1 353.10742 279.90039 A 75.760622 75.760622 0 0 1 352.52539 279.45703 A 75.760622 75.760622 0 0 1 351.94727 279.00586 A 75.760622 75.760622 0 0 1 351.375 278.55078 A 75.760622 75.760622 0 0 1 350.80469 278.08984 A 75.760622 75.760622 0 0 1 350.24219 277.625 A 75.760622 75.760622 0 0 1 349.68164 277.15234 A 75.760622 75.760622 0 0 1 349.12695 276.67578 A 75.760622 75.760622 0 0 1 348.57617 276.19336 A 75.760622 75.760622 0 0 1 348.03125 275.70508 A 75.760622 75.760622 0 0 1 347.49023 275.21289 A 75.760622 75.760622 0 0 1 346.95312 274.71289 A 75.760622 75.760622 0 0 1 346.42188 274.21094 A 75.760622 75.760622 0 0 1 345.89648 273.70117 A 75.760622 75.760622 0 0 1 345.375 273.1875 A 75.760622 75.760622 0 0 1 344.85742 272.66992 A 75.760622 75.760622 0 0 1 344.3457 272.14648 A 75.760622 75.760622 0 0 1 343.83984 271.61719 A 75.760622 75.760622 0 0 1 343.33789 271.08398 A 75.760622 75.760622 0 0 1 342.8418 270.54688 A 75.760622 75.760622 0 0 1 342.35156 270.00391 A 75.760622 75.760622 0 0 1 341.86523 269.45508 A 75.760622 75.760622 0 0 1 341.38672 268.9043 A 75.760622 75.760622 0 0 1 340.91016 268.34766 A 75.760622 75.760622 0 0 1 340.44141 267.78516 A 75.760622 75.760622 0 0 1 339.97656 267.21875 A 75.760622 75.760622 0 0 1 339.51953 266.64844 A 75.760622 75.760622 0 0 1 339.06641 266.07422 A 75.760622 75.760622 0 0 1 338.61719 265.49414 A 75.760622 75.760622 0 0 1 338.17578 264.91211 A 75.760622 75.760622 0 0 1 337.74023 264.32422 A 75.760622 75.760622 0 0 1 337.30859 263.73242 A 75.760622 75.760622 0 0 1 336.88477 263.13477 A 75.760622 75.760622 0 0 1 336.46484 262.53516 A 75.760622 75.760622 0 0 1 336.05273 261.93164 A 75.760622 75.760622 0 0 1 335.64453 261.32422 A 75.760622 75.760622 0 0 1 335.24414 260.71094 A 75.760622 75.760622 0 0 1 334.84766 260.0957 A 75.760622 75.760622 0 0 1 334.45898 259.47656 A 75.760622 75.760622 0 0 1 334.07422 258.85156 A 75.760622 75.760622 0 0 1 333.69727 258.22461 A 75.760622 75.760622 0 0 1 333.32617 257.5957 A 75.760622 75.760622 0 0 1 332.96094 256.96094 A 75.760622 75.760622 0 0 1 332.60156 256.32227 A 75.760622 75.760622 0 0 1 332.24805 255.68164 A 75.760622 75.760622 0 0 1 331.90234 255.03711 A 75.760622 75.760622 0 0 1 331.56055 254.38867 A 75.760622 75.760622 0 0 1 331.22656 253.73828 A 75.760622 75.760622 0 0 1 330.89844 253.08398 A 75.760622 75.760622 0 0 1 330.57812 252.42578 A 75.760622 75.760622 0 0 1 330.26172 251.76562 A 75.760622 75.760622 0 0 1 329.95312 251.10156 A 75.760622 75.760622 0 0 1 329.65039 250.43555 A 75.760622 75.760622 0 0 1 329.35547 249.76562 A 75.760622 75.760622 0 0 1 329.06641 249.09375 A 75.760622 75.760622 0 0 1 328.7832 248.41992 A 75.760622 75.760622 0 0 1 328.50586 247.74219 A 75.760622 75.760622 0 0 1 328.23633 247.06055 A 75.760622 75.760622 0 0 1 327.97266 246.37891 A 75.760622 75.760622 0 0 1 327.7168 245.69336 A 75.760622 75.760622 0 0 1 327.4668 245.00391 A 75.760622 75.760622 0 0 1 327.22266 244.31445 A 75.760622 75.760622 0 0 1 326.98633 243.62109 A 75.760622 75.760622 0 0 1 326.75586 242.92773 A 75.760622 75.760622 0 0 1 326.5332 242.23047 A 75.760622 75.760622 0 0 1 326.31641 241.53125 A 75.760622 75.760622 0 0 1 326.10547 240.83008 A 75.760622 75.760622 0 0 1 325.90234 240.12695 A 75.760622 75.760622 0 0 1 325.70703 239.42188 A 75.760622 75.760622 0 0 1 325.51758 238.71484 A 75.760622 75.760622 0 0 1 325.33594 238.00586 A 75.760622 75.760622 0 0 1 325.16016 237.29492 A 75.760622 75.760622 0 0 1 324.99023 236.58203 A 75.760622 75.760622 0 0 1 324.82812 235.86914 A 75.760622 75.760622 0 0 1 324.67383 235.1543 A 75.760622 75.760622 0 0 1 324.52539 234.4375 A 75.760622 75.760622 0 0 1 324.38477 233.71875 A 75.760622 75.760622 0 0 1 324.25 233 A 75.760622 75.760622 0 0 1 324.12305 232.2793 A 75.760622 75.760622 0 0 1 324.00195 231.55664 A 75.760622 75.760622 0 0 1 323.88867 230.83398 A 75.760622 75.760622 0 0 1 323.7832 230.10938 A 75.760622 75.760622 0 0 1 323.68359 229.38477 A 75.760622 75.760622 0 0 1 323.5918 228.6582 A 75.760622 75.760622 0 0 1 323.50586 227.93164 A 75.760622 75.760622 0 0 1 323.42773 227.20312 A 75.760622 75.760622 0 0 1 323.35547 226.47461 A 75.760622 75.760622 0 0 1 323.29297 225.74609 A 75.760622 75.760622 0 0 1 323.23438 225.01562 A 75.760622 75.760622 0 0 1 323.18555 224.28516 A 75.760622 75.760622 0 0 1 323.14258 223.55469 A 75.760622 75.760622 0 0 1 323.10547 222.82422 A 75.760622 75.760622 0 0 1 323.07617 222.09375 A 75.760622 75.760622 0 0 1 323.05469 221.36133 A 75.760622 75.760622 0 0 1 323.04102 220.62891 A 75.760622 75.760622 0 0 1 323.0332 219.89844 A 75.760622 75.760622 0 0 1 323.03125 219.55664 z "
       style="color:#000000;overflow:visible;fill:#ffffff;stroke:none;stroke-width:18.3109;stroke-linecap:round;stroke-linejoin:round;stroke-miterlimit:4;stroke-dasharray:none;stop-color:#000000"
       id="path850-9" />
    <path
       transform="matrix(0.26458333,0,0,0.26458333,49.692425,37.132853)"
       d="M 323.03125 219.55664 A 75.760622 75.760622 0 0 0 323.0332 219.89844 A 75.760622 75.760622 0 0 0 323.04102 220.62891 A 75.760622 75.760622 0 0 0 323.05469 221.36133 A 75.760622 75.760622 0 0 0 323.07617 222.09375 A 75.760622 75.760622 0 0 0 323.10547 222.82422 A 75.760622 75.760622 0 0 0 323.14258 223.55469 A 75.760622 75.760622 0 0 0 323.18555 224.28516 A 75.760622 75.760622 0 0 0 323.23438 225.01562 A 75.760622 75.760622 0 0 0 323.29297 225.74609 A 75.760622 75.760622 0 0 0 323.35547 226.47461 A 75.760622 75.760622 0 0 0 323.42773 227.20312 A 75.760622 75.760622 0 0 0 323.50586 227.93164 A 75.760622 75.760622 0 0 0 323.5918 228.6582 A 75.760622 75.760622 0 0 0 323.68359 229.38477 A 75.760622 75.760622 0 0 0 323.7832 230.10938 A 75.760622 75.760622 0 0 0 323.88867 230.83398 A 75.760622 75.760622 0 0 0 324.00195 231.55664 A 75.760622 75.760622 0 0 0 324.12305 232.2793 A 75.760622 75.760622 0 0 0 324.25 233 A 75.760622 75.760622 0 0 0 324.38477 233.71875 A 75.760622 75.760622 0 0 0 324.52539 234.4375 A 75.760622 75.760622 0 0 0 324.67383 235.1543 A 75.760622 75.760622 0 0 0 324.82812 235.86914 A 75.760622 75.760622 0 0 0 324.99023 236.58203 A 75.760622 75.760622 0 0 0 325.16016 237.29492 A 75.760622 75.760622 0 0 0 325.33594 238.00586 A 75.760622 75.760622 0 0 0 325.51758 238.71484 A 75.760622 75.760622 0 0 0 325.70703 239.42188 A 75.760622 75.760622 0 0 0 325.90234 240.12695 A 75.760622 75.760622 0 0 0 326.10547 240.83008 A 75.760622 75.760622 0 0 0 326.31641 241.53125 A 75.760622 75.760622 0 0 0 326.5332 242.23047 A 75.760622 75.760622 0 0 0 326.75586 242.92773 A 75.760622 75.760622 0 0 0 326.98633 243.62109 A 75.760622 75.760622 0 0 0 327.22266 244.31445 A 75.760622 75.760622 0 0 0 327.4668 245.00391 A 75.760622 75.760622 0 0 0 327.7168 245.69336 A 75.760622 75.760622 0 0 0 327.97266 246.37891 A 75.760622 75.760622 0 0 0 328.23633 247.06055 A 75.760622 75.760622 0 0 0 328.50586 247.74219 A 75.760622 75.760622 0 0 0 328.7832 248.41992 A 75.760622 75.760622 0 0 0 329.06641 249.09375 A 75.760622 75.760622 0 0 0 329.35547 249.76562 A 75.760622 75.760622 0 0 0 329.65039 250.43555 A 75.760622 75.760622 0 0 0 329.95312 251.10156 A 75.760622 75.760622 0 0 0 330.26172 251.76562 A 75.760622 75.760622 0 0 0 330.57812 252.42578 A 75.760622 75.760622 0 0 0 330.89844 253.08398 A 75.760622 75.760622 0 0 0 331.22656 253.73828 A 75.760622 75.760622 0 0 0 331.56055 254.38867 A 75.760622 75.760622 0 0 0 331.90234 255.03711 A 75.760622 75.760622 0 0 0 332.24805 255.68164 A 75.760622 75.760622 0 0 0 332.60156 256.32227 A 75.760622 75.760622 0 0 0 332.96094 256.96094 A 75.760622 75.760622 0 0 0 333.32617 257.5957 A 75.760622 75.760622 0 0 0 333.69727 258.22461 A 75.760622 75.760622 0 0 0 334.07422 258.85156 A 75.760622 75.760622 0 0 0 334.45898 259.47656 A 75.760622 75.760622 0 0 0 334.84766 260.0957 A 75.760622 75.760622 0 0 0 335.24414 260.71094 A 75.760622 75.760622 0 0 0 335.64453 261.32422 A 75.760622 75.760622 0 0 0 336.05273 261.93164 A 75.760622 75.760622 0 0 0 336.46484 262.53516 A 75.760622 75.760622 0 0 0 336.88477 263.13477 A 75.760622 75.760622 0 0 0 337.30859 263.73242 A 75.760622 75.760622 0 0 0 337.74023 264.32422 A 75.760622 75.760622 0 0 0 338.17578 264.91211 A 75.760622 75.760622 0 0 0 338.61719 265.49414 A 75.760622 75.760622 0 0 0 339.06641 266.07422 A 75.760622 75.760622 0 0 0 339.51953 266.64844 A 75.760622 75.760622 0 0 0 339.97656 267.21875 A 75.760622 75.760622 0 0 0 340.44141 267.78516 A 75.760622 75.760622 0 0 0 340.91016 268.34766 A 75.760622 75.760622 0 0 0 341.38672 268.9043 A 75.760622 75.760622 0 0 0 341.86523 269.45508 A 75.760622 75.760622 0 0 0 342.35156 270.00391 A 75.760622 75.760622 0 0 0 342.8418 270.54688 A 75.760622 75.760622 0 0 0 343.33789 271.08398 A 75.760622 75.760622 0 0 0 343.83984 271.61719 A 75.760622 75.760622 0 0 0 344.3457 272.14648 A 75.760622 75.760622 0 0 0 344.85742 272.66992 A 75.760622 75.760622 0 0 0 345.375 273.1875 A 75.760622 75.760622 0 0 0 345.89648 273.70117 A 75.760622 75.760622 0 0 0 346.42188 274.21094 A 75.760622 75.760622 0 0 0 346.95312 274.71289 A 75.760622 75.760622 0 0 0 347.49023 275.21289 A 75.760622 75.760622 0 0 0 348.03125 275.70508 A 75.760622 75.760622 0 0 0 348.57617 276.19336 A 75.760622 75.760622 0 0 0 349.12695 276.67578 A 75.760622 75.760622 0 0 0 349.68164 277.15234 A 75.760622 75.760622 0 0 0 350.24219 277.625 A 75.760622 75.760622 0 0 0 350.80469 278.08984 A 75.760622 75.760622 0 0 0 351.375 278.55078 A 75.760622 75.760622 0 0 0 351.94727 279.00586 A 75.760622 75.760622 0 0 0 352.52539 279.45703 A 75.760622 75.760622 0 0 0 353.10742 279.90039 A 75.760622 75.760622 0 0 0 353.69336 280.33984 A 75.760622 75.760622 0 0 0 354.2832 280.77148 A 75.760622 75.760622 0 0 0 354.87695 281.19922 A 75.760622 75.760622 0 0 0 355.47461 281.62109 A 75.760622 75.760622 0 0 0 356.07812 282.03516 A 75.760622 75.760622 0 0 0 356.68359 282.44531 A 75.760622 75.760622 0 0 0 357.29492 282.84961 A 75.760622 75.760622 0 0 0 357.9082 283.24805 A 75.760622 75.760622 0 0 0 358.52734 283.63867 A 75.760622 75.760622 0 0 0 359.14844 284.02539 A 75.760622 75.760622 0 0 0 359.77539 284.40625 A 75.760622 75.760622 0 0 0 360.4043 284.7793 A 75.760622 75.760622 0 0 0 361.03711 285.14648 A 75.760622 75.760622 0 0 0 361.67383 285.50977 A 75.760622 75.760622 0 0 0 362.3125 285.86523 A 75.760622 75.760622 0 0 0 362.95508 286.21289 A 75.760622 75.760622 0 0 0 363.60156 286.55664 A 75.760622 75.760622 0 0 0 364.25195 286.89453 A 75.760622 75.760622 0 0 0 364.90625 287.22461 A 75.760622 75.760622 0 0 0 365.56055 287.54883 A 75.760622 75.760622 0 0 0 366.2207 287.86719 A 75.760622 75.760622 0 0 0 366.88281 288.17773 A 75.760622 75.760622 0 0 0 367.54883 288.48242 A 75.760622 75.760622 0 0 0 368.2168 288.78125 A 75.760622 75.760622 0 0 0 368.88867 289.07422 A 75.760622 75.760622 0 0 0 369.5625 289.35938 A 75.760622 75.760622 0 0 0 370.23828 289.63867 A 75.760622 75.760622 0 0 0 370.91797 289.91016 A 75.760622 75.760622 0 0 0 371.59961 290.17773 A 75.760622 75.760622 0 0 0 372.2832 290.43555 A 75.760622 75.760622 0 0 0 372.9707 290.68945 A 75.760622 75.760622 0 0 0 373.66016 290.93555 A 75.760622 75.760622 0 0 0 374.35156 291.17383 A 75.760622 75.760622 0 0 0 375.04492 291.4082 A 75.760622 75.760622 0 0 0 375.74219 291.63281 A 75.760622 75.760622 0 0 0 376.43945 291.85352 A 75.760622 75.760622 0 0 0 377.14062 292.06445 A 75.760622 75.760622 0 0 0 377.8418 292.27148 A 75.760622 75.760622 0 0 0 378.54688 292.4707 A 75.760622 75.760622 0 0 0 379.25391 292.66211 A 75.760622 75.760622 0 0 0 379.96094 292.84766 A 75.760622 75.760622 0 0 0 380.67188 293.02539 A 75.760622 75.760622 0 0 0 381.38281 293.19727 A 75.760622 75.760622 0 0 0 382.0957 293.36328 A 75.760622 75.760622 0 0 0 382.81055 293.51953 A 75.760622 75.760622 0 0 0 383.52734 293.67188 A 75.760622 75.760622 0 0 0 384.24414 293.81445 A 75.760622 75.760622 0 0 0 384.96289 293.95312 A 75.760622 75.760622 0 0 0 385.68359 294.08203 A 75.760622 75.760622 0 0 0 386.4043 294.20508 A 75.760622 75.760622 0 0 0 387.12695 294.32227 A 75.760622 75.760622 0 0 0 387.85156 294.43164 A 75.760622 75.760622 0 0 0 388.57617 294.5332 A 75.760622 75.760622 0 0 0 389.30273 294.62891 A 75.760622 75.760622 0 0 0 390.0293 294.7168 A 75.760622 75.760622 0 0 0 390.75586 294.79688 A 75.760622 75.760622 0 0 0 391.48438 294.87109 A 75.760622 75.760622 0 0 0 392.21289 294.93945 A 75.760622 75.760622 0 0 0 392.94141 294.99805 A 75.760622 75.760622 0 0 0 393.67188 295.05273 A 75.760622 75.760622 0 0 0 394.40234 295.09766 A 75.760622 75.760622 0 0 0 395.13281 295.13672 A 75.760622 75.760622 0 0 0 395.86523 295.16797 A 75.760622 75.760622 0 0 0 396.5957 295.19336 A 75.760622 75.760622 0 0 0 397.32812 295.21094 A 75.760622 75.760622 0 0 0 398.06055 295.2207 A 75.760622 75.760622 0 0 0 398.79102 295.22461 A 75.760622 75.760622 0 0 0 399.22461 295.22461 A 75.760622 75.760622 0 0 0 399.95703 295.2168 A 75.760622 75.760622 0 0 0 400.68945 295.20117 A 75.760622 75.760622 0 0 0 401.41992 295.17969 A 75.760622 75.760622 0 0 0 402.15234 295.15039 A 75.760622 75.760622 0 0 0 402.88281 295.11523 A 75.760622 75.760622 0 0 0 403.61328 295.07227 A 75.760622 75.760622 0 0 0 404.34375 295.02148 A 75.760622 75.760622 0 0 0 405.07422 294.96484 A 75.760622 75.760622 0 0 0 405.80273 294.90039 A 75.760622 75.760622 0 0 0 406.53125 294.82812 A 75.760622 75.760622 0 0 0 407.25781 294.75 A 75.760622 75.760622 0 0 0 407.98633 294.66602 A 75.760622 75.760622 0 0 0 408.71094 294.57227 A 75.760622 75.760622 0 0 0 409.4375 294.47266 A 75.760622 75.760622 0 0 0 410.16016 294.36719 A 75.760622 75.760622 0 0 0 410.88477 294.25391 A 75.760622 75.760622 0 0 0 411.60547 294.13281 A 75.760622 75.760622 0 0 0 412.32617 294.00586 A 75.760622 75.760622 0 0 0 413.04688 293.87305 A 75.760622 75.760622 0 0 0 413.76367 293.73047 A 75.760622 75.760622 0 0 0 414.48047 293.58203 A 75.760622 75.760622 0 0 0 415.19727 293.42773 A 75.760622 75.760622 0 0 0 415.91016 293.26562 A 75.760622 75.760622 0 0 0 416.62305 293.09766 A 75.760622 75.760622 0 0 0 417.33203 292.92188 A 75.760622 75.760622 0 0 0 418.04102 292.73828 A 75.760622 75.760622 0 0 0 418.74805 292.54883 A 75.760622 75.760622 0 0 0 419.45312 292.35352 A 75.760622 75.760622 0 0 0 420.15625 292.15039 A 75.760622 75.760622 0 0 0 420.85742 291.93945 A 75.760622 75.760622 0 0 0 421.55664 291.72461 A 75.760622 75.760622 0 0 0 422.25391 291.5 A 75.760622 75.760622 0 0 0 422.94922 291.26953 A 75.760622 75.760622 0 0 0 423.64258 291.0332 A 75.760622 75.760622 0 0 0 424.33203 290.79102 A 75.760622 75.760622 0 0 0 425.01953 290.54102 A 75.760622 75.760622 0 0 0 425.70508 290.2832 A 75.760622 75.760622 0 0 0 426.38867 290.01953 A 75.760622 75.760622 0 0 0 427.06836 289.75 A 75.760622 75.760622 0 0 0 427.74609 289.47461 A 75.760622 75.760622 0 0 0 428.42188 289.19141 A 75.760622 75.760622 0 0 0 429.09375 288.90234 A 75.760622 75.760622 0 0 0 429.76367 288.60547 A 75.760622 75.760622 0 0 0 430.42969 288.30273 A 75.760622 75.760622 0 0 0 431.09375 287.99414 A 75.760622 75.760622 0 0 0 431.75391 287.67969 A 75.760622 75.760622 0 0 0 432.41016 287.35742 A 75.760622 75.760622 0 0 0 433.06445 287.0293 A 75.760622 75.760622 0 0 0 433.7168 286.69531 A 75.760622 75.760622 0 0 0 434.36523 286.35547 A 75.760622 75.760622 0 0 0 435.00977 286.00781 A 75.760622 75.760622 0 0 0 435.65039 285.6543 A 75.760622 75.760622 0 0 0 436.28711 285.29492 A 75.760622 75.760622 0 0 0 436.92188 284.92969 A 75.760622 75.760622 0 0 0 437.55273 284.55859 A 75.760622 75.760622 0 0 0 438.17969 284.18164 A 75.760622 75.760622 0 0 0 438.80273 283.79688 A 75.760622 75.760622 0 0 0 439.42188 283.4082 A 75.760622 75.760622 0 0 0 440.03906 283.01367 A 75.760622 75.760622 0 0 0 440.65039 282.61133 A 75.760622 75.760622 0 0 0 441.25781 282.20312 A 75.760622 75.760622 0 0 0 441.86328 281.79102 A 75.760622 75.760622 0 0 0 442.46289 281.37109 A 75.760622 75.760622 0 0 0 443.05859 280.94727 A 75.760622 75.760622 0 0 0 443.65039 280.51562 A 75.760622 75.760622 0 0 0 444.23828 280.08008 A 75.760622 75.760622 0 0 0 444.82227 279.63867 A 75.760622 75.760622 0 0 0 445.40039 279.19141 A 75.760622 75.760622 0 0 0 445.97656 278.73828 A 75.760622 75.760622 0 0 0 446.54688 278.2793 A 75.760622 75.760622 0 0 0 447.11328 277.81445 A 75.760622 75.760622 0 0 0 447.67383 277.3457 A 75.760622 75.760622 0 0 0 448.23047 276.87109 A 75.760622 75.760622 0 0 0 448.7832 276.39062 A 75.760622 75.760622 0 0 0 449.33008 275.9043 A 75.760622 75.760622 0 0 0 449.87305 275.41406 A 75.760622 75.760622 0 0 0 450.41211 274.91797 A 75.760622 75.760622 0 0 0 450.94531 274.41602 A 75.760622 75.760622 0 0 0 451.47266 273.91016 A 75.760622 75.760622 0 0 0 451.99805 273.39844 A 75.760622 75.760622 0 0 0 452.51562 272.88281 A 75.760622 75.760622 0 0 0 453.0293 272.36133 A 75.760622 75.760622 0 0 0 453.53711 271.83398 A 75.760622 75.760622 0 0 0 454.04102 271.30273 A 75.760622 75.760622 0 0 0 454.53906 270.76562 A 75.760622 75.760622 0 0 0 455.0332 270.22461 A 75.760622 75.760622 0 0 0 455.51953 269.67969 A 75.760622 75.760622 0 0 0 456.00195 269.12891 A 75.760622 75.760622 0 0 0 456.48047 268.57422 A 75.760622 75.760622 0 0 0 456.95117 268.01562 A 75.760622 75.760622 0 0 0 457.41797 267.45117 A 75.760622 75.760622 0 0 0 457.87891 266.88281 A 75.760622 75.760622 0 0 0 458.33398 266.30859 A 75.760622 75.760622 0 0 0 458.7832 265.73242 A 75.760622 75.760622 0 0 0 459.22852 265.15039 A 75.760622 75.760622 0 0 0 459.66602 264.56445 A 75.760622 75.760622 0 0 0 460.09961 263.97461 A 75.760622 75.760622 0 0 0 460.52734 263.37891 A 75.760622 75.760622 0 0 0 460.94727 262.78125 A 75.760622 75.760622 0 0 0 461.36328 262.17773 A 75.760622 75.760622 0 0 0 461.77344 261.57227 A 75.760622 75.760622 0 0 0 462.17773 260.96094 A 75.760622 75.760622 0 0 0 462.57422 260.34766 A 75.760622 75.760622 0 0 0 462.9668 259.72852 A 75.760622 75.760622 0 0 0 463.35352 259.10742 A 75.760622 75.760622 0 0 0 463.73242 258.48242 A 75.760622 75.760622 0 0 0 464.10742 257.85156 A 75.760622 75.760622 0 0 0 464.47461 257.21875 A 75.760622 75.760622 0 0 0 464.83594 256.58398 A 75.760622 75.760622 0 0 0 465.19141 255.94336 A 75.760622 75.760622 0 0 0 465.54102 255.30078 A 75.760622 75.760622 0 0 0 465.88477 254.6543 A 75.760622 75.760622 0 0 0 466.2207 254.00391 A 75.760622 75.760622 0 0 0 466.55078 253.35156 A 75.760622 75.760622 0 0 0 466.875 252.69531 A 75.760622 75.760622 0 0 0 467.19336 252.03516 A 75.760622 75.760622 0 0 0 467.50586 251.37305 A 75.760622 75.760622 0 0 0 467.81055 250.70703 A 75.760622 75.760622 0 0 0 468.10938 250.03906 A 75.760622 75.760622 0 0 0 468.40039 249.36914 A 75.760622 75.760622 0 0 0 468.6875 248.69531 A 75.760622 75.760622 0 0 0 468.96484 248.01758 A 75.760622 75.760622 0 0 0 469.23828 247.33789 A 75.760622 75.760622 0 0 0 469.50391 246.65625 A 75.760622 75.760622 0 0 0 469.76367 245.97266 A 75.760622 75.760622 0 0 0 470.01562 245.28516 A 75.760622 75.760622 0 0 0 470.26172 244.5957 A 75.760622 75.760622 0 0 0 470.50195 243.9043 A 75.760622 75.760622 0 0 0 470.73438 243.21094 A 75.760622 75.760622 0 0 0 470.96094 242.51562 A 75.760622 75.760622 0 0 0 471.17969 241.81641 A 75.760622 75.760622 0 0 0 471.39258 241.11523 A 75.760622 75.760622 0 0 0 471.59766 240.41406 A 75.760622 75.760622 0 0 0 471.79688 239.70898 A 75.760622 75.760622 0 0 0 471.99023 239.00391 A 75.760622 75.760622 0 0 0 472.17578 238.29492 A 75.760622 75.760622 0 0 0 472.35352 237.58594 A 75.760622 75.760622 0 0 0 472.52539 236.87305 A 75.760622 75.760622 0 0 0 472.68945 236.16016 A 75.760622 75.760622 0 0 0 472.84766 235.44531 A 75.760622 75.760622 0 0 0 472.99805 234.73047 A 75.760622 75.760622 0 0 0 473.14258 234.01172 A 75.760622 75.760622 0 0 0 473.2793 233.29297 A 75.760622 75.760622 0 0 0 473.41016 232.57227 A 75.760622 75.760622 0 0 0 473.5332 231.85156 A 75.760622 75.760622 0 0 0 473.64844 231.12891 A 75.760622 75.760622 0 0 0 473.75781 230.4043 A 75.760622 75.760622 0 0 0 473.86133 229.67969 A 75.760622 75.760622 0 0 0 473.95508 228.95508 A 75.760622 75.760622 0 0 0 474.04297 228.22852 A 75.760622 75.760622 0 0 0 474.125 227.5 A 75.760622 75.760622 0 0 0 474.19922 226.77148 A 75.760622 75.760622 0 0 0 474.26562 226.04297 A 75.760622 75.760622 0 0 0 474.32617 225.31445 A 75.760622 75.760622 0 0 0 474.37891 224.58398 A 75.760622 75.760622 0 0 0 474.39648 224.30273 A 78.202386 78.202386 0 0 0 398.10156 163.26172 A 78.202386 78.202386 0 0 0 323.03125 219.55664 z "
       style="color:#000000;overflow:visible;fill:#000000;stroke:none;stroke-width:18.3109;stroke-linecap:round;stroke-linejoin:round;stroke-miterlimit:4;stroke-dasharray:none;stop-color:#000000"
       id="path924" />
    <path
       transform="matrix(0.26458333,0,0,0.26458333,49.692425,37.132853)"
       d="M 92.533203 224.30273 A 78.202386 78.202386 0 0 0 90.625 241.46484 A 78.202386 78.202386 0 0 0 168.82617 319.66602 A 78.202386 78.202386 0 0 0 247.0293 241.46484 A 78.202386 78.202386 0 0 0 243.89844 219.56055 A 75.760622 75.760622 0 0 1 243.89453 220.19727 A 75.760622 75.760622 0 0 1 243.88281 220.92773 A 75.760622 75.760622 0 0 1 243.86523 221.66016 A 75.760622 75.760622 0 0 1 243.8418 222.39062 A 75.760622 75.760622 0 0 1 243.80859 223.12305 A 75.760622 75.760622 0 0 1 243.77148 223.85352 A 75.760622 75.760622 0 0 1 243.72461 224.58398 A 75.760622 75.760622 0 0 1 243.67188 225.31445 A 75.760622 75.760622 0 0 1 243.61133 226.04297 A 75.760622 75.760622 0 0 1 243.54492 226.77148 A 75.760622 75.760622 0 0 1 243.4707 227.5 A 75.760622 75.760622 0 0 1 243.38867 228.22852 A 75.760622 75.760622 0 0 1 243.30078 228.95508 A 75.760622 75.760622 0 0 1 243.20508 229.67969 A 75.760622 75.760622 0 0 1 243.10352 230.4043 A 75.760622 75.760622 0 0 1 242.99414 231.12891 A 75.760622 75.760622 0 0 1 242.87891 231.85156 A 75.760622 75.760622 0 0 1 242.75586 232.57227 A 75.760622 75.760622 0 0 1 242.625 233.29297 A 75.760622 75.760622 0 0 1 242.48828 234.01172 A 75.760622 75.760622 0 0 1 242.34375 234.73047 A 75.760622 75.760622 0 0 1 242.19336 235.44531 A 75.760622 75.760622 0 0 1 242.03516 236.16016 A 75.760622 75.760622 0 0 1 241.87109 236.87305 A 75.760622 75.760622 0 0 1 241.69922 237.58594 A 75.760622 75.760622 0 0 1 241.51953 238.29492 A 75.760622 75.760622 0 0 1 241.33594 239.00391 A 75.760622 75.760622 0 0 1 241.14258 239.70898 A 75.760622 75.760622 0 0 1 240.94336 240.41406 A 75.760622 75.760622 0 0 1 240.73828 241.11523 A 75.760622 75.760622 0 0 1 240.52539 241.81641 A 75.760622 75.760622 0 0 1 240.30664 242.51562 A 75.760622 75.760622 0 0 1 240.08008 243.21094 A 75.760622 75.760622 0 0 1 239.84766 243.9043 A 75.760622 75.760622 0 0 1 239.60742 244.5957 A 75.760622 75.760622 0 0 1 239.36133 245.28516 A 75.760622 75.760622 0 0 1 239.10938 245.97266 A 75.760622 75.760622 0 0 1 238.84961 246.65625 A 75.760622 75.760622 0 0 1 238.58398 247.33789 A 75.760622 75.760622 0 0 1 238.31055 248.01758 A 75.760622 75.760622 0 0 1 238.03125 248.69531 A 75.760622 75.760622 0 0 1 237.74609 249.36914 A 75.760622 75.760622 0 0 1 237.45508 250.03906 A 75.760622 75.760622 0 0 1 237.15625 250.70703 A 75.760622 75.760622 0 0 1 236.84961 251.37305 A 75.760622 75.760622 0 0 1 236.53906 252.03516 A 75.760622 75.760622 0 0 1 236.2207 252.69531 A 75.760622 75.760622 0 0 1 235.89648 253.35156 A 75.760622 75.760622 0 0 1 235.56641 254.00391 A 75.760622 75.760622 0 0 1 235.23047 254.6543 A 75.760622 75.760622 0 0 1 234.88672 255.30078 A 75.760622 75.760622 0 0 1 234.53711 255.94336 A 75.760622 75.760622 0 0 1 234.18164 256.58398 A 75.760622 75.760622 0 0 1 233.82031 257.21875 A 75.760622 75.760622 0 0 1 233.45312 257.85156 A 75.760622 75.760622 0 0 1 233.07812 258.48242 A 75.760622 75.760622 0 0 1 232.69922 259.10742 A 75.760622 75.760622 0 0 1 232.3125 259.72852 A 75.760622 75.760622 0 0 1 231.91992 260.34766 A 75.760622 75.760622 0 0 1 231.52148 260.96094 A 75.760622 75.760622 0 0 1 231.11914 261.57227 A 75.760622 75.760622 0 0 1 230.70898 262.17773 A 75.760622 75.760622 0 0 1 230.29297 262.78125 A 75.760622 75.760622 0 0 1 229.87109 263.37891 A 75.760622 75.760622 0 0 1 229.44531 263.97461 A 75.760622 75.760622 0 0 1 229.01172 264.56445 A 75.760622 75.760622 0 0 1 228.57422 265.15039 A 75.760622 75.760622 0 0 1 228.12891 265.73242 A 75.760622 75.760622 0 0 1 227.67969 266.30859 A 75.760622 75.760622 0 0 1 227.22461 266.88281 A 75.760622 75.760622 0 0 1 226.76367 267.45117 A 75.760622 75.760622 0 0 1 226.29688 268.01562 A 75.760622 75.760622 0 0 1 225.82422 268.57422 A 75.760622 75.760622 0 0 1 225.34766 269.12891 A 75.760622 75.760622 0 0 1 224.86523 269.67969 A 75.760622 75.760622 0 0 1 224.37695 270.22461 A 75.760622 75.760622 0 0 1 223.88477 270.76562 A 75.760622 75.760622 0 0 1 223.38672 271.30273 A 75.760622 75.760622 0 0 1 222.88281 271.83398 A 75.760622 75.760622 0 0 1 222.375 272.36133 A 75.760622 75.760622 0 0 1 221.86133 272.88281 A 75.760622 75.760622 0 0 1 221.3418 273.39844 A 75.760622 75.760622 0 0 1 220.81836 273.91016 A 75.760622 75.760622 0 0 1 220.29102 274.41602 A 75.760622 75.760622 0 0 1 219.75781 274.91797 A 75.760622 75.760622 0 0 1 219.21875 275.41406 A 75.760622 75.760622 0 0 1 218.67578 275.9043 A 75.760622 75.760622 0 0 1 218.12891 276.39062 A 75.760622 75.760622 0 0 1 217.57617 276.87109 A 75.760622 75.760622 0 0 1 217.01953 277.3457 A 75.760622 75.760622 0 0 1 216.45703 277.81445 A 75.760622 75.760622 0 0 1 215.89258 278.2793 A 75.760622 75.760622 0 0 1 215.32227 278.73828 A 75.760622 75.760622 0 0 1 214.74609 279.19141 A 75.760622 75.760622 0 0 1 214.16797 279.63867 A 75.760622 75.760622 0 0 1 213.58398 280.08008 A 75.760622 75.760622 0 0 1 212.99609 280.51562 A 75.760622 75.760622 0 0 1 212.4043 280.94727 A 75.760622 75.760622 0 0 1 211.80859 281.37109 A 75.760622 75.760622 0 0 1 211.20898 281.79102 A 75.760622 75.760622 0 0 1 210.60352 282.20312 A 75.760622 75.760622 0 0 1 209.99609 282.61133 A 75.760622 75.760622 0 0 1 209.38477 283.01367 A 75.760622 75.760622 0 0 1 208.76758 283.4082 A 75.760622 75.760622 0 0 1 208.14844 283.79688 A 75.760622 75.760622 0 0 1 207.52539 284.18164 A 75.760622 75.760622 0 0 1 206.89844 284.55859 A 75.760622 75.760622 0 0 1 206.26758 284.92969 A 75.760622 75.760622 0 0 1 205.63281 285.29492 A 75.760622 75.760622 0 0 1 204.99609 285.6543 A 75.760622 75.760622 0 0 1 204.35352 286.00781 A 75.760622 75.760622 0 0 1 203.70898 286.35547 A 75.760622 75.760622 0 0 1 203.0625 286.69531 A 75.760622 75.760622 0 0 1 202.41016 287.0293 A 75.760622 75.760622 0 0 1 201.75586 287.35742 A 75.760622 75.760622 0 0 1 201.09961 287.67969 A 75.760622 75.760622 0 0 1 200.4375 287.99414 A 75.760622 75.760622 0 0 1 199.77539 288.30273 A 75.760622 75.760622 0 0 1 199.10742 288.60547 A 75.760622 75.760622 0 0 1 198.43945 288.90234 A 75.760622 75.760622 0 0 1 197.76758 289.19141 A 75.760622 75.760622 0 0 1 197.0918 289.47461 A 75.760622 75.760622 0 0 1 196.41406 289.75 A 75.760622 75.760622 0 0 1 195.73438 290.01953 A 75.760622 75.760622 0 0 1 195.05078 290.2832 A 75.760622 75.760622 0 0 1 194.36523 290.54102 A 75.760622 75.760622 0 0 1 193.67773 290.79102 A 75.760622 75.760622 0 0 1 192.98633 291.0332 A 75.760622 75.760622 0 0 1 192.29492 291.26953 A 75.760622 75.760622 0 0 1 191.59961 291.5 A 75.760622 75.760622 0 0 1 190.90234 291.72461 A 75.760622 75.760622 0 0 1 190.20312 291.93945 A 75.760622 75.760622 0 0 1 189.50195 292.15039 A 75.760622 75.760622 0 0 1 188.79883 292.35352 A 75.760622 75.760622 0 0 1 188.09375 292.54883 A 75.760622 75.760622 0 0 1 187.38672 292.73828 A 75.760622 75.760622 0 0 1 186.67773 292.92188 A 75.760622 75.760622 0 0 1 185.96875 293.09766 A 75.760622 75.760622 0 0 1 185.25586 293.26562 A 75.760622 75.760622 0 0 1 184.54102 293.42773 A 75.760622 75.760622 0 0 1 183.82617 293.58203 A 75.760622 75.760622 0 0 1 183.10938 293.73047 A 75.760622 75.760622 0 0 1 182.39258 293.87305 A 75.760622 75.760622 0 0 1 181.67188 294.00586 A 75.760622 75.760622 0 0 1 180.95117 294.13281 A 75.760622 75.760622 0 0 1 180.22852 294.25391 A 75.760622 75.760622 0 0 1 179.50586 294.36719 A 75.760622 75.760622 0 0 1 178.78125 294.47266 A 75.760622 75.760622 0 0 1 178.05664 294.57227 A 75.760622 75.760622 0 0 1 177.33008 294.66602 A 75.760622 75.760622 0 0 1 176.60352 294.75 A 75.760622 75.760622 0 0 1 175.87695 294.82812 A 75.760622 75.760622 0 0 1 175.14844 294.90039 A 75.760622 75.760622 0 0 1 174.41797 294.96484 A 75.760622 75.760622 0 0 1 173.68945 295.02148 A 75.760622 75.760622 0 0 1 172.95898 295.07227 A 75.760622 75.760622 0 0 1 172.22852 295.11523 A 75.760622 75.760622 0 0 1 171.49805 295.15039 A 75.760622 75.760622 0 0 1 170.76562 295.17969 A 75.760622 75.760622 0 0 1 170.03516 295.20117 A 75.760622 75.760622 0 0 1 169.30273 295.2168 A 75.760622 75.760622 0 0 1 168.57031 295.22461 A 75.760622 75.760622 0 0 1 168.13672 295.22461 A 75.760622 75.760622 0 0 1 167.40625 295.2207 A 75.760622 75.760622 0 0 1 166.67383 295.21094 A 75.760622 75.760622 0 0 1 165.94141 295.19336 A 75.760622 75.760622 0 0 1 165.21094 295.16797 A 75.760622 75.760622 0 0 1 164.47852 295.13672 A 75.760622 75.760622 0 0 1 163.74805 295.09766 A 75.760622 75.760622 0 0 1 163.01758 295.05273 A 75.760622 75.760622 0 0 1 162.28711 294.99805 A 75.760622 75.760622 0 0 1 161.55859 294.93945 A 75.760622 75.760622 0 0 1 160.83008 294.87109 A 75.760622 75.760622 0 0 1 160.10156 294.79688 A 75.760622 75.760622 0 0 1 159.37305 294.7168 A 75.760622 75.760622 0 0 1 158.64648 294.62891 A 75.760622 75.760622 0 0 1 157.92188 294.5332 A 75.760622 75.760622 0 0 1 157.19727 294.43164 A 75.760622 75.760622 0 0 1 156.47266 294.32227 A 75.760622 75.760622 0 0 1 155.75 294.20508 A 75.760622 75.760622 0 0 1 155.0293 294.08203 A 75.760622 75.760622 0 0 1 154.30859 293.95312 A 75.760622 75.760622 0 0 1 153.58984 293.81445 A 75.760622 75.760622 0 0 1 152.87305 293.67188 A 75.760622 75.760622 0 0 1 152.15625 293.51953 A 75.760622 75.760622 0 0 1 151.44141 293.36328 A 75.760622 75.760622 0 0 1 150.72852 293.19727 A 75.760622 75.760622 0 0 1 150.01758 293.02539 A 75.760622 75.760622 0 0 1 149.30664 292.84766 A 75.760622 75.760622 0 0 1 148.59961 292.66211 A 75.760622 75.760622 0 0 1 147.89258 292.4707 A 75.760622 75.760622 0 0 1 147.1875 292.27148 A 75.760622 75.760622 0 0 1 146.48633 292.06445 A 75.760622 75.760622 0 0 1 145.78516 291.85352 A 75.760622 75.760622 0 0 1 145.08789 291.63281 A 75.760622 75.760622 0 0 1 144.39062 291.4082 A 75.760622 75.760622 0 0 1 143.69727 291.17383 A 75.760622 75.760622 0 0 1 143.00586 290.93555 A 75.760622 75.760622 0 0 1 142.31641 290.68945 A 75.760622 75.760622 0 0 1 141.62891 290.43555 A 75.760622 75.760622 0 0 1 140.94531 290.17773 A 75.760622 75.760622 0 0 1 140.26367 289.91016 A 75.760622 75.760622 0 0 1 139.58398 289.63867 A 75.760622 75.760622 0 0 1 138.90625 289.35938 A 75.760622 75.760622 0 0 1 138.23242 289.07422 A 75.760622 75.760622 0 0 1 137.5625 288.78125 A 75.760622 75.760622 0 0 1 136.89453 288.48242 A 75.760622 75.760622 0 0 1 136.22852 288.17773 A 75.760622 75.760622 0 0 1 135.56641 287.86719 A 75.760622 75.760622 0 0 1 134.90625 287.54883 A 75.760622 75.760622 0 0 1 134.25 287.22461 A 75.760622 75.760622 0 0 1 133.59766 286.89453 A 75.760622 75.760622 0 0 1 132.94727 286.55664 A 75.760622 75.760622 0 0 1 132.30078 286.21289 A 75.760622 75.760622 0 0 1 131.6582 285.86523 A 75.760622 75.760622 0 0 1 131.01758 285.50977 A 75.760622 75.760622 0 0 1 130.38281 285.14648 A 75.760622 75.760622 0 0 1 129.75 284.7793 A 75.760622 75.760622 0 0 1 129.12109 284.40625 A 75.760622 75.760622 0 0 1 128.49414 284.02539 A 75.760622 75.760622 0 0 1 127.87305 283.63867 A 75.760622 75.760622 0 0 1 127.25391 283.24805 A 75.760622 75.760622 0 0 1 126.64062 282.84961 A 75.760622 75.760622 0 0 1 126.0293 282.44531 A 75.760622 75.760622 0 0 1 125.42383 282.03516 A 75.760622 75.760622 0 0 1 124.82031 281.62109 A 75.760622 75.760622 0 0 1 124.22266 281.19922 A 75.760622 75.760622 0 0 1 123.62891 280.77148 A 75.760622 75.760622 0 0 1 123.03711 280.33984 A 75.760622 75.760622 0 0 1 122.45117 279.90039 A 75.760622 75.760622 0 0 1 121.87109 279.45703 A 75.760622 75.760622 0 0 1 121.29297 279.00586 A 75.760622 75.760622 0 0 1 120.7207 278.55078 A 75.760622 75.760622 0 0 1 120.15039 278.08984 A 75.760622 75.760622 0 0 1 119.58789 277.625 A 75.760622 75.760622 0 0 1 119.02734 277.15234 A 75.760622 75.760622 0 0 1 118.47266 276.67578 A 75.760622 75.760622 0 0 1 117.92188 276.19336 A 75.760622 75.760622 0 0 1 117.37695 275.70508 A 75.760622 75.760622 0 0 1 116.83594 275.21289 A 75.760622 75.760622 0 0 1 116.29883 274.71289 A 75.760622 75.760622 0 0 1 115.76758 274.21094 A 75.760622 75.760622 0 0 1 115.24219 273.70117 A 75.760622 75.760622 0 0 1 114.7207 273.1875 A 75.760622 75.760622 0 0 1 114.20312 272.66992 A 75.760622 75.760622 0 0 1 113.69141 272.14648 A 75.760622 75.760622 0 0 1 113.18555 271.61719 A 75.760622 75.760622 0 0 1 112.68359 271.08398 A 75.760622 75.760622 0 0 1 112.1875 270.54688 A 75.760622 75.760622 0 0 1 111.69727 270.00391 A 75.760622 75.760622 0 0 1 111.21094 269.45508 A 75.760622 75.760622 0 0 1 110.73047 268.9043 A 75.760622 75.760622 0 0 1 110.25586 268.34766 A 75.760622 75.760622 0 0 1 109.78711 267.78516 A 75.760622 75.760622 0 0 1 109.32227 267.21875 A 75.760622 75.760622 0 0 1 108.86328 266.64844 A 75.760622 75.760622 0 0 1 108.41016 266.07422 A 75.760622 75.760622 0 0 1 107.96289 265.49414 A 75.760622 75.760622 0 0 1 107.52148 264.91211 A 75.760622 75.760622 0 0 1 107.08594 264.32422 A 75.760622 75.760622 0 0 1 106.6543 263.73242 A 75.760622 75.760622 0 0 1 106.23047 263.13477 A 75.760622 75.760622 0 0 1 105.81055 262.53516 A 75.760622 75.760622 0 0 1 105.39844 261.93164 A 75.760622 75.760622 0 0 1 104.99023 261.32422 A 75.760622 75.760622 0 0 1 104.58984 260.71094 A 75.760622 75.760622 0 0 1 104.19336 260.0957 A 75.760622 75.760622 0 0 1 103.80469 259.47656 A 75.760622 75.760622 0 0 1 103.41992 258.85156 A 75.760622 75.760622 0 0 1 103.04297 258.22461 A 75.760622 75.760622 0 0 1 102.67188 257.5957 A 75.760622 75.760622 0 0 1 102.30664 256.96094 A 75.760622 75.760622 0 0 1 101.94727 256.32227 A 75.760622 75.760622 0 0 1 101.59375 255.68164 A 75.760622 75.760622 0 0 1 101.24805 255.03711 A 75.760622 75.760622 0 0 1 100.90625 254.38867 A 75.760622 75.760622 0 0 1 100.57227 253.73828 A 75.760622 75.760622 0 0 1 100.24414 253.08398 A 75.760622 75.760622 0 0 1 99.923828 252.42578 A 75.760622 75.760622 0 0 1 99.607422 251.76562 A 75.760622 75.760622 0 0 1 99.298828 251.10156 A 75.760622 75.760622 0 0 1 98.996094 250.43555 A 75.760622 75.760622 0 0 1 98.701172 249.76562 A 75.760622 75.760622 0 0 1 98.410156 249.09375 A 75.760622 75.760622 0 0 1 98.128906 248.41992 A 75.760622 75.760622 0 0 1 97.851562 247.74219 A 75.760622 75.760622 0 0 1 97.582031 247.06055 A 75.760622 75.760622 0 0 1 97.318359 246.37891 A 75.760622 75.760622 0 0 1 97.0625 245.69336 A 75.760622 75.760622 0 0 1 96.810547 245.00391 A 75.760622 75.760622 0 0 1 96.568359 244.31445 A 75.760622 75.760622 0 0 1 96.332031 243.62109 A 75.760622 75.760622 0 0 1 96.101562 242.92773 A 75.760622 75.760622 0 0 1 95.878906 242.23047 A 75.760622 75.760622 0 0 1 95.662109 241.53125 A 75.760622 75.760622 0 0 1 95.451172 240.83008 A 75.760622 75.760622 0 0 1 95.248047 240.12695 A 75.760622 75.760622 0 0 1 95.052734 239.42188 A 75.760622 75.760622 0 0 1 94.863281 238.71484 A 75.760622 75.760622 0 0 1 94.679688 238.00586 A 75.760622 75.760622 0 0 1 94.503906 237.29492 A 75.760622 75.760622 0 0 1 94.335938 236.58203 A 75.760622 75.760622 0 0 1 94.173828 235.86914 A 75.760622 75.760622 0 0 1 94.019531 235.1543 A 75.760622 75.760622 0 0 1 93.871094 234.4375 A 75.760622 75.760622 0 0 1 93.730469 233.71875 A 75.760622 75.760622 0 0 1 93.595703 233 A 75.760622 75.760622 0 0 1 93.46875 232.2793 A 75.760622 75.760622 0 0 1 93.347656 231.55664 A 75.760622 75.760622 0 0 1 93.234375 230.83398 A 75.760622 75.760622 0 0 1 93.128906 230.10938 A 75.760622 75.760622 0 0 1 93.029297 229.38477 A 75.760622 75.760622 0 0 1 92.9375 228.6582 A 75.760622 75.760622 0 0 1 92.851562 227.93164 A 75.760622 75.760622 0 0 1 92.773438 227.20312 A 75.760622 75.760622 0 0 1 92.701172 226.47461 A 75.760622 75.760622 0 0 1 92.636719 225.74609 A 75.760622 75.760622 0 0 1 92.580078 225.01562 A 75.760622 75.760622 0 0 1 92.533203 224.30273 z "
       style="color:#000000;overflow:visible;fill:#ffffff;stroke:none;stroke-width:18.3109;stroke-linecap:round;stroke-linejoin:round;stroke-miterlimit:4;stroke-dasharray:none;stop-color:#000000"
       id="path850" />
    <path
       transform="matrix(0.26458333,0,0,0.26458333,49.692425,37.132853)"
       d="M 92.533203 224.30273 A 75.760622 75.760622 0 0 0 92.580078 225.01562 A 75.760622 75.760622 0 0 0 92.636719 225.74609 A 75.760622 75.760622 0 0 0 92.701172 226.47461 A 75.760622 75.760622 0 0 0 92.773438 227.20312 A 75.760622 75.760622 0 0 0 92.851562 227.93164 A 75.760622 75.760622 0 0 0 92.9375 228.6582 A 75.760622 75.760622 0 0 0 93.029297 229.38477 A 75.760622 75.760622 0 0 0 93.128906 230.10938 A 75.760622 75.760622 0 0 0 93.234375 230.83398 A 75.760622 75.760622 0 0 0 93.347656 231.55664 A 75.760622 75.760622 0 0 0 93.46875 232.2793 A 75.760622 75.760622 0 0 0 93.595703 233 A 75.760622 75.760622 0 0 0 93.730469 233.71875 A 75.760622 75.760622 0 0 0 93.871094 234.4375 A 75.760622 75.760622 0 0 0 94.019531 235.1543 A 75.760622 75.760622 0 0 0 94.173828 235.86914 A 75.760622 75.760622 0 0 0 94.335938 236.58203 A 75.760622 75.760622 0 0 0 94.503906 237.29492 A 75.760622 75.760622 0 0 0 94.679688 238.00586 A 75.760622 75.760622 0 0 0 94.863281 238.71484 A 75.760622 75.760622 0 0 0 95.052734 239.42188 A 75.760622 75.760622 0 0 0 95.248047 240.12695 A 75.760622 75.760622 0 0 0 95.451172 240.83008 A 75.760622 75.760622 0 0 0 95.662109 241.53125 A 75.760622 75.760622 0 0 0 95.878906 242.23047 A 75.760622 75.760622 0 0 0 96.101562 242.92773 A 75.760622 75.760622 0 0 0 96.332031 243.62109 A 75.760622 75.760622 0 0 0 96.568359 244.31445 A 75.760622 75.760622 0 0 0 96.810547 245.00391 A 75.760622 75.760622 0 0 0 97.0625 245.69336 A 75.760622 75.760622 0 0 0 97.318359 246.37891 A 75.760622 75.760622 0 0 0 97.582031 247.06055 A 75.760622 75.760622 0 0 0 97.851562 247.74219 A 75.760622 75.760622 0 0 0 98.128906 248.41992 A 75.760622 75.760622 0 0 0 98.410156 249.09375 A 75.760622 75.760622 0 0 0 98.701172 249.76562 A 75.760622 75.760622 0 0 0 98.996094 250.43555 A 75.760622 75.760622 0 0 0 99.298828 251.10156 A 75.760622 75.760622 0 0 0 99.607422 251.76562 A 75.760622 75.760622 0 0 0 99.923828 252.42578 A 75.760622 75.760622 0 0 0 100.24414 253.08398 A 75.760622 75.760622 0 0 0 100.57227 253.73828 A 75.760622 75.760622 0 0 0 100.90625 254.38867 A 75.760622 75.760622 0 0 0 101.24805 255.03711 A 75.760622 75.760622 0 0 0 101.59375 255.68164 A 75.760622 75.760622 0 0 0 101.94727 256.32227 A 75.760622 75.760622 0 0 0 102.30664 256.96094 A 75.760622 75.760622 0 0 0 102.67188 257.5957 A 75.760622 75.760622 0 0 0 103.04297 258.22461 A 75.760622 75.760622 0 0 0 103.41992 258.85156 A 75.760622 75.760622 0 0 0 103.80469 259.47656 A 75.760622 75.760622 0 0 0 104.19336 260.0957 A 75.760622 75.760622 0 0 0 104.58984 260.71094 A 75.760622 75.760622 0 0 0 104.99023 261.32422 A 75.760622 75.760622 0 0 0 105.39844 261.93164 A 75.760622 75.760622 0 0 0 105.81055 262.53516 A 75.760622 75.760622 0 0 0 106.23047 263.13477 A 75.760622 75.760622 0 0 0 106.6543 263.73242 A 75.760622 75.760622 0 0 0 107.08594 264.32422 A 75.760622 75.760622 0 0 0 107.52148 264.91211 A 75.760622 75.760622 0 0 0 107.96289 265.49414 A 75.760622 75.760622 0 0 0 108.41016 266.07422 A 75.760622 75.760622 0 0 0 108.86328 266.64844 A 75.760622 75.760622 0 0 0 109.32227 267.21875 A 75.760622 75.760622 0 0 0 109.78711 267.78516 A 75.760622 75.760622 0 0 0 110.25586 268.34766 A 75.760622 75.760622 0 0 0 110.73047 268.9043 A 75.760622 75.760622 0 0 0 111.21094 269.45508 A 75.760622 75.760622 0 0 0 111.69727 270.00391 A 75.760622 75.760622 0 0 0 112.1875 270.54688 A 75.760622 75.760622 0 0 0 112.68359 271.08398 A 75.760622 75.760622 0 0 0 113.18555 271.61719 A 75.760622 75.760622 0 0 0 113.69141 272.14648 A 75.760622 75.760622 0 0 0 114.20312 272.66992 A 75.760622 75.760622 0 0 0 114.7207 273.1875 A 75.760622 75.760622 0 0 0 115.24219 273.70117 A 75.760622 75.760622 0 0 0 115.76758 274.21094 A 75.760622 75.760622 0 0 0 116.29883 274.71289 A 75.760622 75.760622 0 0 0 116.83594 275.21289 A 75.760622 75.760622 0 0 0 117.37695 275.70508 A 75.760622 75.760622 0 0 0 117.92188 276.19336 A 75.760622 75.760622 0 0 0 118.47266 276.67578 A 75.760622 75.760622 0 0 0 119.02734 277.15234 A 75.760622 75.760622 0 0 0 119.58789 277.625 A 75.760622 75.760622 0 0 0 120.15039 278.08984 A 75.760622 75.760622 0 0 0 120.7207 278.55078 A 75.760622 75.760622 0 0 0 121.29297 279.00586 A 75.760622 75.760622 0 0 0 121.87109 279.45703 A 75.760622 75.760622 0 0 0 122.45117 279.90039 A 75.760622 75.760622 0 0 0 123.03711 280.33984 A 75.760622 75.760622 0 0 0 123.62891 280.77148 A 75.760622 75.760622 0 0 0 124.22266 281.19922 A 75.760622 75.760622 0 0 0 124.82031 281.62109 A 75.760622 75.760622 0 0 0 125.42383 282.03516 A 75.760622 75.760622 0 0 0 126.0293 282.44531 A 75.760622 75.760622 0 0 0 126.64062 282.84961 A 75.760622 75.760622 0 0 0 127.25391 283.24805 A 75.760622 75.760622 0 0 0 127.87305 283.63867 A 75.760622 75.760622 0 0 0 128.49414 284.02539 A 75.760622 75.760622 0 0 0 129.12109 284.40625 A 75.760622 75.760622 0 0 0 129.75 284.7793 A 75.760622 75.760622 0 0 0 130.38281 285.14648 A 75.760622 75.760622 0 0 0 131.01758 285.50977 A 75.760622 75.760622 0 0 0 131.6582 285.86523 A 75.760622 75.760622 0 0 0 132.30078 286.21289 A 75.760622 75.760622 0 0 0 132.94727 286.55664 A 75.760622 75.760622 0 0 0 133.59766 286.89453 A 75.760622 75.760622 0 0 0 134.25 287.22461 A 75.760622 75.760622 0 0 0 134.90625 287.54883 A 75.760622 75.760622 0 0 0 135.56641 287.86719 A 75.760622 75.760622 0 0 0 136.22852 288.17773 A 75.760622 75.760622 0 0 0 136.89453 288.48242 A 75.760622 75.760622 0 0 0 137.5625 288.78125 A 75.760622 75.760622 0 0 0 138.23242 289.07422 A 75.760622 75.760622 0 0 0 138.90625 289.35938 A 75.760622 75.760622 0 0 0 139.58398 289.63867 A 75.760622 75.760622 0 0 0 140.26367 289.91016 A 75.760622 75.760622 0 0 0 140.94531 290.17773 A 75.760622 75.760622 0 0 0 141.62891 290.43555 A 75.760622 75.760622 0 0 0 142.31641 290.68945 A 75.760622 75.760622 0 0 0 143.00586 290.93555 A 75.760622 75.760622 0 0 0 143.69727 291.17383 A 75.760622 75.760622 0 0 0 144.39062 291.4082 A 75.760622 75.760622 0 0 0 145.08789 291.63281 A 75.760622 75.760622 0 0 0 145.78516 291.85352 A 75.760622 75.760622 0 0 0 146.48633 292.06445 A 75.760622 75.760622 0 0 0 147.1875 292.27148 A 75.760622 75.760622 0 0 0 147.89258 292.4707 A 75.760622 75.760622 0 0 0 148.59961 292.66211 A 75.760622 75.760622 0 0 0 149.30664 292.84766 A 75.760622 75.760622 0 0 0 150.01758 293.02539 A 75.760622 75.760622 0 0 0 150.72852 293.19727 A 75.760622 75.760622 0 0 0 151.44141 293.36328 A 75.760622 75.760622 0 0 0 152.15625 293.51953 A 75.760622 75.760622 0 0 0 152.87305 293.67188 A 75.760622 75.760622 0 0 0 153.58984 293.81445 A 75.760622 75.760622 0 0 0 154.30859 293.95312 A 75.760622 75.760622 0 0 0 155.0293 294.08203 A 75.760622 75.760622 0 0 0 155.75 294.20508 A 75.760622 75.760622 0 0 0 156.47266 294.32227 A 75.760622 75.760622 0 0 0 157.19727 294.43164 A 75.760622 75.760622 0 0 0 157.92188 294.5332 A 75.760622 75.760622 0 0 0 158.64648 294.62891 A 75.760622 75.760622 0 0 0 159.37305 294.7168 A 75.760622 75.760622 0 0 0 160.10156 294.79688 A 75.760622 75.760622 0 0 0 160.83008 294.87109 A 75.760622 75.760622 0 0 0 161.55859 294.93945 A 75.760622 75.760622 0 0 0 162.28711 294.99805 A 75.760622 75.760622 0 0 0 163.01758 295.05273 A 75.760622 75.760622 0 0 0 163.74805 295.09766 A 75.760622 75.760622 0 0 0 164.47852 295.13672 A 75.760622 75.760622 0 0 0 165.21094 295.16797 A 75.760622 75.760622 0 0 0 165.94141 295.19336 A 75.760622 75.760622 0 0 0 166.67383 295.21094 A 75.760622 75.760622 0 0 0 167.40625 295.2207 A 75.760622 75.760622 0 0 0 168.13672 295.22461 A 75.760622 75.760622 0 0 0 168.57031 295.22461 A 75.760622 75.760622 0 0 0 169.30273 295.2168 A 75.760622 75.760622 0 0 0 170.03516 295.20117 A 75.760622 75.760622 0 0 0 170.76562 295.17969 A 75.760622 75.760622 0 0 0 171.49805 295.15039 A 75.760622 75.760622 0 0 0 172.22852 295.11523 A 75.760622 75.760622 0 0 0 172.95898 295.07227 A 75.760622 75.760622 0 0 0 173.68945 295.02148 A 75.760622 75.760622 0 0 0 174.41797 294.96484 A 75.760622 75.760622 0 0 0 175.14844 294.90039 A 75.760622 75.760622 0 0 0 175.87695 294.82812 A 75.760622 75.760622 0 0 0 176.60352 294.75 A 75.760622 75.760622 0 0 0 177.33008 294.66602 A 75.760622 75.760622 0 0 0 178.05664 294.57227 A 75.760622 75.760622 0 0 0 178.78125 294.47266 A 75.760622 75.760622 0 0 0 179.50586 294.36719 A 75.760622 75.760622 0 0 0 180.22852 294.25391 A 75.760622 75.760622 0 0 0 180.95117 294.13281 A 75.760622 75.760622 0 0 0 181.67188 294.00586 A 75.760622 75.760622 0 0 0 182.39258 293.87305 A 75.760622 75.760622 0 0 0 183.10938 293.73047 A 75.760622 75.760622 0 0 0 183.82617 293.58203 A 75.760622 75.760622 0 0 0 184.54102 293.42773 A 75.760622 75.760622 0 0 0 185.25586 293.26562 A 75.760622 75.760622 0 0 0 185.96875 293.09766 A 75.760622 75.760622 0 0 0 186.67773 292.92188 A 75.760622 75.760622 0 0 0 187.38672 292.73828 A 75.760622 75.760622 0 0 0 188.09375 292.54883 A 75.760622 75.760622 0 0 0 188.79883 292.35352 A 75.760622 75.760622 0 0 0 189.50195 292.15039 A 75.760622 75.760622 0 0 0 190.20312 291.93945 A 75.760622 75.760622 0 0 0 190.90234 291.72461 A 75.760622 75.760622 0 0 0 191.59961 291.5 A 75.760622 75.760622 0 0 0 192.29492 291.26953 A 75.760622 75.760622 0 0 0 192.98633 291.0332 A 75.760622 75.760622 0 0 0 193.67773 290.79102 A 75.760622 75.760622 0 0 0 194.36523 290.54102 A 75.760622 75.760622 0 0 0 195.05078 290.2832 A 75.760622 75.760622 0 0 0 195.73438 290.01953 A 75.760622 75.760622 0 0 0 196.41406 289.75 A 75.760622 75.760622 0 0 0 197.0918 289.47461 A 75.760622 75.760622 0 0 0 197.76758 289.19141 A 75.760622 75.760622 0 0 0 198.43945 288.90234 A 75.760622 75.760622 0 0 0 199.10742 288.60547 A 75.760622 75.760622 0 0 0 199.77539 288.30273 A 75.760622 75.760622 0 0 0 200.4375 287.99414 A 75.760622 75.760622 0 0 0 201.09961 287.67969 A 75.760622 75.760622 0 0 0 201.75586 287.35742 A 75.760622 75.760622 0 0 0 202.41016 287.0293 A 75.760622 75.760622 0 0 0 203.0625 286.69531 A 75.760622 75.760622 0 0 0 203.70898 286.35547 A 75.760622 75.760622 0 0 0 204.35352 286.00781 A 75.760622 75.760622 0 0 0 204.99609 285.6543 A 75.760622 75.760622 0 0 0 205.63281 285.29492 A 75.760622 75.760622 0 0 0 206.26758 284.92969 A 75.760622 75.760622 0 0 0 206.89844 284.55859 A 75.760622 75.760622 0 0 0 207.52539 284.18164 A 75.760622 75.760622 0 0 0 208.14844 283.79688 A 75.760622 75.760622 0 0 0 208.76758 283.4082 A 75.760622 75.760622 0 0 0 209.38477 283.01367 A 75.760622 75.760622 0 0 0 209.99609 282.61133 A 75.760622 75.760622 0 0 0 210.60352 282.20312 A 75.760622 75.760622 0 0 0 211.20898 281.79102 A 75.760622 75.760622 0 0 0 211.80859 281.37109 A 75.760622 75.760622 0 0 0 212.4043 280.94727 A 75.760622 75.760622 0 0 0 212.99609 280.51562 A 75.760622 75.760622 0 0 0 213.58398 280.08008 A 75.760622 75.760622 0 0 0 214.16797 279.63867 A 75.760622 75.760622 0 0 0 214.74609 279.19141 A 75.760622 75.760622 0 0 0 215.32227 278.73828 A 75.760622 75.760622 0 0 0 215.89258 278.2793 A 75.760622 75.760622 0 0 0 216.45703 277.81445 A 75.760622 75.760622 0 0 0 217.01953 277.3457 A 75.760622 75.760622 0 0 0 217.57617 276.87109 A 75.760622 75.760622 0 0 0 218.12891 276.39062 A 75.760622 75.760622 0 0 0 218.67578 275.9043 A 75.760622 75.760622 0 0 0 219.21875 275.41406 A 75.760622 75.760622 0 0 0 219.75781 274.91797 A 75.760622 75.760622 0 0 0 220.29102 274.41602 A 75.760622 75.760622 0 0 0 220.81836 273.91016 A 75.760622 75.760622 0 0 0 221.3418 273.39844 A 75.760622 75.760622 0 0 0 221.86133 272.88281 A 75.760622 75.760622 0 0 0 222.375 272.36133 A 75.760622 75.760622 0 0 0 222.88281 271.83398 A 75.760622 75.760622 0 0 0 223.38672 271.30273 A 75.760622 75.760622 0 0 0 223.88477 270.76562 A 75.760622 75.760622 0 0 0 224.37695 270.22461 A 75.760622 75.760622 0 0 0 224.86523 269.67969 A 75.760622 75.760622 0 0 0 225.34766 269.12891 A 75.760622 75.760622 0 0 0 225.82422 268.57422 A 75.760622 75.760622 0 0 0 226.29688 268.01562 A 75.760622 75.760622 0 0 0 226.76367 267.45117 A 75.760622 75.760622 0 0 0 227.22461 266.88281 A 75.760622 75.760622 0 0 0 227.67969 266.30859 A 75.760622 75.760622 0 0 0 228.12891 265.73242 A 75.760622 75.760622 0 0 0 228.57422 265.15039 A 75.760622 75.760622 0 0 0 229.01172 264.56445 A 75.760622 75.760622 0 0 0 229.44531 263.97461 A 75.760622 75.760622 0 0 0 229.87109 263.37891 A 75.760622 75.760622 0 0 0 230.29297 262.78125 A 75.760622 75.760622 0 0 0 230.70898 262.17773 A 75.760622 75.760622 0 0 0 231.11914 261.57227 A 75.760622 75.760622 0 0 0 231.52148 260.96094 A 75.760622 75.760622 0 0 0 231.91992 260.34766 A 75.760622 75.760622 0 0 0 232.3125 259.72852 A 75.760622 75.760622 0 0 0 232.69922 259.10742 A 75.760622 75.760622 0 0 0 233.07812 258.48242 A 75.760622 75.760622 0 0 0 233.45312 257.85156 A 75.760622 75.760622 0 0 0 233.82031 257.21875 A 75.760622 75.760622 0 0 0 234.18164 256.58398 A 75.760622 75.760622 0 0 0 234.53711 255.94336 A 75.760622 75.760622 0 0 0 234.88672 255.30078 A 75.760622 75.760622 0 0 0 235.23047 254.6543 A 75.760622 75.760622 0 0 0 235.56641 254.00391 A 75.760622 75.760622 0 0 0 235.89648 253.35156 A 75.760622 75.760622 0 0 0 236.2207 252.69531 A 75.760622 75.760622 0 0 0 236.53906 252.03516 A 75.760622 75.760622 0 0 0 236.84961 251.37305 A 75.760622 75.760622 0 0 0 237.15625 250.70703 A 75.760622 75.760622 0 0 0 237.45508 250.03906 A 75.760622 75.760622 0 0 0 237.74609 249.36914 A 75.760622 75.760622 0 0 0 238.03125 248.69531 A 75.760622 75.760622 0 0 0 238.31055 248.01758 A 75.760622 75.760622 0 0 0 238.58398 247.33789 A 75.760622 75.760622 0 0 0 238.84961 246.65625 A 75.760622 75.760622 0 0 0 239.10938 245.97266 A 75.760622 75.760622 0 0 0 239.36133 245.28516 A 75.760622 75.760622 0 0 0 239.60742 244.5957 A 75.760622 75.760622 0 0 0 239.84766 243.9043 A 75.760622 75.760622 0 0 0 240.08008 243.21094 A 75.760622 75.760622 0 0 0 240.30664 242.51562 A 75.760622 75.760622 0 0 0 240.52539 241.81641 A 75.760622 75.760622 0 0 0 240.73828 241.11523 A 75.760622 75.760622 0 0 0 240.94336 240.41406 A 75.760622 75.760622 0 0 0 241.14258 239.70898 A 75.760622 75.760622 0 0 0 241.33594 239.00391 A 75.760622 75.760622 0 0 0 241.51953 238.29492 A 75.760622 75.760622 0 0 0 241.69922 237.58594 A 75.760622 75.760622 0 0 0 241.87109 236.87305 A 75.760622 75.760622 0 0 0 242.03516 236.16016 A 75.760622 75.760622 0 0 0 242.19336 235.44531 A 75.760622 75.760622 0 0 0 242.34375 234.73047 A 75.760622 75.760622 0 0 0 242.48828 234.01172 A 75.760622 75.760622 0 0 0 242.625 233.29297 A 75.760622 75.760622 0 0 0 242.75586 232.57227 A 75.760622 75.760622 0 0 0 242.87891 231.85156 A 75.760622 75.760622 0 0 0 242.99414 231.12891 A 75.760622 75.760622 0 0 0 243.10352 230.4043 A 75.760622 75.760622 0 0 0 243.20508 229.67969 A 75.760622 75.760622 0 0 0 243.30078 228.95508 A 75.760622 75.760622 0 0 0 243.38867 228.22852 A 75.760622 75.760622 0 0 0 243.4707 227.5 A 75.760622 75.760622 0 0 0 243.54492 226.77148 A 75.760622 75.760622 0 0 0 243.61133 226.04297 A 75.760622 75.760622 0 0 0 243.67188 225.31445 A 75.760622 75.760622 0 0 0 243.72461 224.58398 A 75.760622 75.760622 0 0 0 243.77148 223.85352 A 75.760622 75.760622 0 0 0 243.80859 223.12305 A 75.760622 75.760622 0 0 0 243.8418 222.39062 A 75.760622 75.760622 0 0 0 243.86523 221.66016 A 75.760622 75.760622 0 0 0 243.88281 220.92773 A 75.760622 75.760622 0 0 0 243.89453 220.19727 A 75.760622 75.760622 0 0 0 243.89844 219.56055 A 78.202386 78.202386 0 0 0 168.82617 163.26172 A 78.202386 78.202386 0 0 0 92.533203 224.30273 z "
       style="color:#000000;overflow:visible;fill:#000000;stroke:none;stroke-width:18.3109;stroke-linecap:round;stroke-linejoin:round;stroke-miterlimit:4;stroke-dasharray:none;stop-color:#000000"
       id="path919" />
    <g
       style="stroke:#000000;stroke-width:5.89767829;stroke-miterlimit:4;stroke-dasharray:none;stroke-opacity:1"
       transform="matrix(1,0,0,0.71874999,2.8143485,22.702958)"
       id="g882">
      <path
         style="fill:none;fill-rule:evenodd;stroke:#000000;stroke-width:5.89767829;stroke-linecap:round;stroke-linejoin:round;stroke-miterlimit:4;stroke-dasharray:none;stroke-opacity:1"
         d="M 70.033853,80.721626 C 77.754661,65.944417 91.444736,58.77427 105.16905,55.360886"
         id="path863"
         sodipodi:nodetypes="cc" />
      <path
         sodipodi:nodetypes="cc"
         id="path863-4"
         d="M 173.7223,80.721626 C 166.0015,65.944416 152.31142,58.774269 138.58711,55.360885"
         style="fill:none;fill-rule:evenodd;stroke:#000000;stroke-width:5.89767829;stroke-linecap:round;stroke-linejoin:round;stroke-miterlimit:4;stroke-dasharray:none;stroke-opacity:1" />
    </g>
    <circle
       style="color:#000000;overflow:visible;fill:#ffffff;stroke-width:5.52341;stroke-linecap:round;stroke-linejoin:round;stop-color:#000000"
       id="path875-3-7-5"
       cx="149.78641"
       cy="91.508034"
       r="4.1826963" />
    <circle
       r="4.1826963"
       cy="91.508034"
       cx="88.898247"
       id="path875-3-4"
       style="color:#000000;overflow:visible;fill:#ffffff;stroke-width:5.52341;stroke-linecap:round;stroke-linejoin:round;stop-color:#000000" />
  </g>
</svg>
