<?xml version="1.0" encoding="UTF-8" standalone="no"?>
<svg
   xmlns:dc="http://purl.org/dc/elements/1.1/"
   xmlns:cc="http://creativecommons.org/ns#"
   xmlns:rdf="http://www.w3.org/1999/02/22-rdf-syntax-ns#"
   xmlns:svg="http://www.w3.org/2000/svg"
   xmlns="http://www.w3.org/2000/svg"
   xmlns:sodipodi="http://sodipodi.sourceforge.net/DTD/sodipodi-0.dtd"
   xmlns:inkscape="http://www.inkscape.org/namespaces/inkscape"
   sodipodi:docname="ma.svg"
   inkscape:version="1.0 (4035a4fb49, 2020-05-01)"
   id="svg3567"
   version="1.1"
   viewBox="0 0 150 150"
   height="150mm"
   width="150mm">
  <defs
     id="defs3561" />
  <sodipodi:namedview
     inkscape:snap-smooth-nodes="true"
     inkscape:object-paths="true"
     inkscape:window-maximized="1"
     inkscape:window-y="-8"
     inkscape:window-x="-8"
     inkscape:window-height="1017"
     inkscape:window-width="1920"
     showgrid="false"
     inkscape:document-rotation="0"
     inkscape:current-layer="layer1"
     inkscape:document-units="mm"
     inkscape:cy="138.93459"
     inkscape:cx="92.820715"
     inkscape:zoom="0.175"
     inkscape:pageshadow="2"
     inkscape:pageopacity="0.0"
     borderopacity="1.0"
     bordercolor="#666666"
     pagecolor="#ffffff"
     id="base" />
  <metadata
     id="metadata3564">
    <rdf:RDF>
      <cc:Work
         rdf:about="">
        <dc:format>image/svg+xml</dc:format>
        <dc:type
           rdf:resource="http://purl.org/dc/dcmitype/StillImage" />
        <dc:title></dc:title>
      </cc:Work>
    </rdf:RDF>
  </metadata>
  <g
     id="layer1"
     inkscape:groupmode="layer"
     inkscape:label="Calque 1">
    <g
       transform="translate(-300.21527,-260.98214)"
       id="g1594">
      <g
         transform="matrix(1.999999,0,0,1.999999,1242.7717,430.06188)"
         id="g1390"
         style="stroke-width:1.5;stroke-miterlimit:4;stroke-dasharray:none">
        <path
           style="fill:#6068e4;fill-opacity:1;fill-rule:evenodd;stroke:none;stroke-width:1.5;stroke-linecap:round;stroke-linejoin:round;stroke-miterlimit:4;stroke-dasharray:none;stroke-opacity:1"
           d="m -462.07589,-45.735118 c -2.35185,-23.184613 9.0601,-36.921029 27.78125,-34.206843 18.72115,2.714186 26.74996,10.707813 28.9152,33.450892 2.16524,22.743079 -21.472,28.621006 -30.51488,28.703261 -9.04287,0.08225 -23.82972,-4.762697 -26.18157,-27.94731 z"
           id="path1342"
           sodipodi:nodetypes="zzzzz" />
        <path
           style="fill:none;fill-opacity:1;fill-rule:evenodd;stroke:#6068e4;stroke-width:1.5;stroke-linecap:round;stroke-linejoin:round;stroke-miterlimit:4;stroke-dasharray:none;stroke-opacity:1"
           d="m -440.72743,-12.160763 c 4.6772,-2.271791 3.47448,-8.819894 3.47448,-8.819894"
           id="path1344" />
        <path
           style="fill:none;fill-opacity:1;fill-rule:evenodd;stroke:#6068e4;stroke-width:1.5;stroke-linecap:round;stroke-linejoin:round;stroke-miterlimit:4;stroke-dasharray:none;stroke-opacity:1"
           d="m -437.65385,-10.289877 c 6.28084,-2.939964 4.00905,-12.561667 4.00905,-12.561667"
           id="path1346" />
        <path
           style="fill:none;fill-opacity:1;fill-rule:evenodd;stroke:#6068e4;stroke-width:1.5;stroke-linecap:round;stroke-linejoin:round;stroke-miterlimit:4;stroke-dasharray:none;stroke-opacity:1"
           d="m -411.32781,-44.500376 c 5.94837,-1.990693 11.09171,-7.884451 11.09171,-7.884451"
           id="path1348" />
        <path
           style="fill:none;fill-opacity:1;fill-rule:evenodd;stroke:#6068e4;stroke-width:1.5;stroke-linecap:round;stroke-linejoin:round;stroke-miterlimit:4;stroke-dasharray:none;stroke-opacity:1"
           d="m -456.62998,-44.233105 c -5.44591,-1.502013 -10.69078,-9.2208 -10.69078,-9.2208"
           id="path1350" />
        <path
           style="fill:none;fill-opacity:1;fill-rule:evenodd;stroke:#6068e4;stroke-width:1.5;stroke-linecap:round;stroke-linejoin:round;stroke-miterlimit:4;stroke-dasharray:none;stroke-opacity:1"
           d="m -457.83269,-58.932928 c -2.99704,-4.340807 -6.5481,-6.949009 -6.5481,-6.949009"
           id="path1352" />
        <path
           style="fill:none;fill-opacity:1;fill-rule:evenodd;stroke:#6068e4;stroke-width:1.5;stroke-linecap:round;stroke-linejoin:round;stroke-miterlimit:4;stroke-dasharray:none;stroke-opacity:1"
           d="m -455.29362,-63.075608 c -2.91692,-6.393312 -5.87994,-7.617182 -5.87994,-7.617182"
           id="path1354" />
        <path
           style="fill:none;fill-opacity:1;fill-rule:evenodd;stroke:#6068e4;stroke-width:1.5;stroke-linecap:round;stroke-linejoin:round;stroke-miterlimit:4;stroke-dasharray:none;stroke-opacity:1"
           d="m -451.2846,-65.481032 c -3.05258,-8.966219 -6.94899,-11.626226 -6.94899,-11.626226"
           id="path1356" />
        <path
           style="fill:none;fill-opacity:1;fill-rule:evenodd;stroke:#6068e4;stroke-width:1.5;stroke-linecap:round;stroke-linejoin:round;stroke-miterlimit:4;stroke-dasharray:none;stroke-opacity:1"
           d="m -449.4137,-72.296405 c -2.67269,-8.018087 -4.67723,-9.621703 -4.67723,-9.621703"
           id="path1358" />
        <path
           style="fill:none;fill-opacity:1;fill-rule:evenodd;stroke:#6068e4;stroke-width:1.5;stroke-linecap:round;stroke-linejoin:round;stroke-miterlimit:4;stroke-dasharray:none;stroke-opacity:1"
           d="m -443.80104,-74.167293 c -3.60813,-7.617182 -2.93998,-10.156242 -2.93998,-10.156242"
           id="path1360" />
        <path
           style="fill:none;fill-opacity:1;fill-rule:evenodd;stroke:#6068e4;stroke-width:1.5;stroke-linecap:round;stroke-linejoin:round;stroke-miterlimit:4;stroke-dasharray:none;stroke-opacity:1"
           d="m -439.12382,-76.171813 c -0.74687,-4.09181 0.13364,-8.552624 0.13364,-8.552624"
           id="path1362" />
        <path
           style="fill:none;fill-opacity:1;fill-rule:evenodd;stroke:#6068e4;stroke-width:1.5;stroke-linecap:round;stroke-linejoin:round;stroke-miterlimit:4;stroke-dasharray:none;stroke-opacity:1"
           d="m -432.57573,-74.568197 c 1.10313,-4.908505 0.53454,-8.819893 0.53454,-8.819893"
           id="path1364" />
        <path
           style="fill:none;fill-opacity:1;fill-rule:evenodd;stroke:#6068e4;stroke-width:1.5;stroke-linecap:round;stroke-linejoin:round;stroke-miterlimit:4;stroke-dasharray:none;stroke-opacity:1"
           d="m -427.09671,-73.900024 c 2.07423,-3.950491 2.93997,-8.018084 2.93997,-8.018084"
           id="path1366" />
        <path
           style="fill:none;fill-opacity:1;fill-rule:evenodd;stroke:#6068e4;stroke-width:1.5;stroke-linecap:round;stroke-linejoin:round;stroke-miterlimit:4;stroke-dasharray:none;stroke-opacity:1"
           d="m -422.61993,-70.893242 c 1.76162,-3.627675 6.61493,-8.218536 6.61493,-8.218536"
           id="path1368"
           sodipodi:nodetypes="cc" />
        <path
           style="fill:none;fill-opacity:1;fill-rule:evenodd;stroke:#6068e4;stroke-width:1.5;stroke-linecap:round;stroke-linejoin:round;stroke-miterlimit:4;stroke-dasharray:none;stroke-opacity:1"
           d="m -418.41044,-66.550111 c 4.90286,-4.040401 7.08263,-6.949008 7.08263,-6.949008"
           id="path1370" />
        <path
           style="fill:none;fill-opacity:1;fill-rule:evenodd;stroke:#6068e4;stroke-width:1.5;stroke-linecap:round;stroke-linejoin:round;stroke-miterlimit:4;stroke-dasharray:none;stroke-opacity:1"
           d="m -414.93593,-63.743781 c 4.40738,-2.583008 7.61717,-6.949009 7.61717,-6.949009"
           id="path1372" />
      </g>
      <g
         id="g1569"
         transform="translate(0.55113034,6.2983715)">
        <circle
           r="10.11609"
           style="color:#000000;overflow:visible;fill:#000000;fill-opacity:1;stroke:#000000;stroke-width:2.54998;stroke-linecap:round;stroke-linejoin:round;stroke-miterlimit:4;stroke-dasharray:none;stroke-opacity:1;stop-color:#000000"
           id="path1392"
           cx="346.26804"
           cy="323.14853" />
        <circle
           style="color:#000000;overflow:visible;fill:#000000;fill-opacity:1;stroke:#000000;stroke-width:2;stroke-linecap:round;stroke-linejoin:round;stroke-miterlimit:4;stroke-dasharray:none;stroke-opacity:1;stop-color:#000000"
           id="path1394"
           cx="399.93777"
           cy="327.16315"
           r="6.1471963" />
        <path
           style="fill:#000000;fill-rule:evenodd;stroke:#000000;stroke-width:0.529166px;stroke-linecap:butt;stroke-linejoin:miter;stroke-opacity:1"
           d="m 357.30828,340.59344 c 7.99212,3.19422 23.51217,7.29831 31.80506,2.47224 1.97546,-1.14963 -1.24866,12.80642 -14.43253,13.36347 -13.18387,0.55705 -22.62573,-17.93527 -17.37253,-15.83571 z"
           id="path1396"
           sodipodi:nodetypes="sszs" />
        <path
           style="fill:none;fill-rule:evenodd;stroke:#000000;stroke-width:2;stroke-linecap:round;stroke-linejoin:miter;stroke-miterlimit:4;stroke-dasharray:none;stroke-opacity:1"
           d="m 335.18258,305.85741 c 0.1336,-1.20271 0.47292,-4.32473 1.87091,-5.07812 1.398,-0.75339 3.44664,0.7196 4.00902,0.93545 1.20224,0.46143 -1.41444,-4.7583 0.66818,-4.94448 2.08262,-0.18618 3.10914,2.20226 4.40996,2.93996 1.30082,0.7377 -2.29568,-4.99877 0.26724,-5.34539 2.56292,-0.34662 6.31184,6.21876 6.28082,5.07812 -0.02,-0.71938 -4.46818,-7.86264 -0.26722,-6.5481 4.20095,1.31453 6.28077,12.42803 6.28077,12.42803"
           id="path1415"
           sodipodi:nodetypes="czszzzszc" />
        <path
           style="fill:none;fill-rule:evenodd;stroke:#000000;stroke-width:2;stroke-linecap:round;stroke-linejoin:miter;stroke-miterlimit:4;stroke-dasharray:none;stroke-opacity:1"
           d="m 394.04872,314.0554 c 0.5197,-6.70907 5.62238,-15.02455 7.41776,-14.1741 1.79538,0.85045 -0.1418,6.70908 0.23626,8.6462 0.37804,1.93713 3.1193,-4.56003 5.14992,-2.74032 2.03062,1.8197 -1.13392,6.47284 -0.70872,5.14992 0.42522,-1.32292 3.51488,-2.07383 4.44123,-1.18117 0.92636,0.89265 0.4471,1.78321 0.1418,3.30728 -0.30528,1.52408 2.3442,-1.84342 3.0205,-0.7765 0.6763,1.06691 0.75928,4.60351 0.75928,4.60351"
           id="path1417"
           sodipodi:nodetypes="czzzzzzzc" />
      </g>
    </g>
  </g>
</svg>
