<?xml version="1.0" encoding="UTF-8" standalone="no"?>
<svg
   xmlns:dc="http://purl.org/dc/elements/1.1/"
   xmlns:cc="http://creativecommons.org/ns#"
   xmlns:rdf="http://www.w3.org/1999/02/22-rdf-syntax-ns#"
   xmlns:svg="http://www.w3.org/2000/svg"
   xmlns="http://www.w3.org/2000/svg"
   xmlns:sodipodi="http://sodipodi.sourceforge.net/DTD/sodipodi-0.dtd"
   xmlns:inkscape="http://www.inkscape.org/namespaces/inkscape"
   sodipodi:docname="grandma.svg"
   inkscape:version="1.0 (4035a4fb49, 2020-05-01)"
   id="svg3567"
   version="1.1"
   viewBox="0 0 150 150"
   height="150mm"
   width="150mm">
  <defs
     id="defs3561" />
  <sodipodi:namedview
     inkscape:snap-smooth-nodes="true"
     inkscape:object-paths="true"
     inkscape:window-maximized="1"
     inkscape:window-y="-8"
     inkscape:window-x="-8"
     inkscape:window-height="1017"
     inkscape:window-width="1920"
     showgrid="false"
     inkscape:document-rotation="0"
     inkscape:current-layer="layer1"
     inkscape:document-units="mm"
     inkscape:cy="138.93459"
     inkscape:cx="92.820715"
     inkscape:zoom="0.175"
     inkscape:pageshadow="2"
     inkscape:pageopacity="0.0"
     borderopacity="1.0"
     bordercolor="#666666"
     pagecolor="#ffffff"
     id="base" />
  <metadata
     id="metadata3564">
    <rdf:RDF>
      <cc:Work
         rdf:about="">
        <dc:format>image/svg+xml</dc:format>
        <dc:type
           rdf:resource="http://purl.org/dc/dcmitype/StillImage" />
        <dc:title></dc:title>
      </cc:Work>
    </rdf:RDF>
  </metadata>
  <g
     id="layer1"
     inkscape:groupmode="layer"
     inkscape:label="Calque 1">
    <g
       transform="matrix(1.999999,0,0,1.999999,926.58098,150.06594)"
       id="g1691">
      <g
         id="g1649"
         transform="translate(-64.633929,13.796131)">
        <path
           sodipodi:nodetypes="zzzzz"
           id="path1613"
           d="m -379.79,-24.588796 c -6.61161,-3.738901 -7.51986,-38.524152 -0.26726,-45.43582 7.2526,-6.911668 31.47007,-3.57088 38.75408,-0.267269 7.28401,3.303611 7.61102,36.121452 1.06907,43.297662 -6.54195,7.17621 -32.94428,6.144328 -39.55589,2.405427 z"
           style="fill:#65e888;fill-opacity:1;fill-rule:evenodd;stroke:#65e888;stroke-width:1.5;stroke-linecap:butt;stroke-linejoin:miter;stroke-miterlimit:4;stroke-dasharray:none;stroke-opacity:1" />
        <path
           id="path1615"
           d="m -366.3597,-24.521979 c 0.6237,2.727538 -0.26728,10.022607 -0.26728,10.022607"
           style="fill:none;fill-opacity:1;fill-rule:evenodd;stroke:#65e888;stroke-width:1.5;stroke-linecap:butt;stroke-linejoin:miter;stroke-miterlimit:4;stroke-dasharray:none;stroke-opacity:1" />
        <path
           id="path1617"
           d="m -352.26124,-25.591057 c -0.20045,6.080382 -1.73723,11.559407 -1.73723,11.559407"
           style="fill:none;fill-opacity:1;fill-rule:evenodd;stroke:#65e888;stroke-width:1.5;stroke-linecap:butt;stroke-linejoin:miter;stroke-miterlimit:4;stroke-dasharray:none;stroke-opacity:1" />
        <path
           id="path1619"
           d="m -380.72544,-43.097211 c -4.367,-1.671733 -7.01582,-2.605879 -7.01582,-2.605879 0,0 -0.73499,-4.610399 0,-6.882188"
           style="fill:none;fill-opacity:1;fill-rule:evenodd;stroke:#65e888;stroke-width:1.5;stroke-linecap:butt;stroke-linejoin:miter;stroke-miterlimit:4;stroke-dasharray:none;stroke-opacity:1" />
        <path
           sodipodi:nodetypes="cssc"
           id="path1621"
           d="m -372.90779,-69.89098 c 0,0 2.12736,-3.745279 0.60134,-5.61266 -0.77963,-0.954021 -2.80633,0.601356 -3.27406,-0.668176 -0.4677,-1.269529 1.00227,-4.276312 1.00227,-4.276312"
           style="fill:none;fill-opacity:1;fill-rule:evenodd;stroke:#65e888;stroke-width:1.5;stroke-linecap:butt;stroke-linejoin:miter;stroke-miterlimit:4;stroke-dasharray:none;stroke-opacity:1" />
        <path
           sodipodi:nodetypes="cssc"
           id="path1623"
           d="m -366.96104,-71.69505 c 0,0 1.09062,-3.326967 0.66815,-5.211754 -0.49775,-2.220617 -2.32097,-1.01498 -2.47224,-1.80407 -0.49335,-2.573541 1.73725,-3.006783 1.73725,-3.006783"
           style="fill:none;fill-opacity:1;fill-rule:evenodd;stroke:#65e888;stroke-width:1.5;stroke-linecap:butt;stroke-linejoin:miter;stroke-miterlimit:4;stroke-dasharray:none;stroke-opacity:1" />
        <path
           sodipodi:nodetypes="cssc"
           id="path1625"
           d="m -364.55564,-72.363223 c 0,0 2.67272,-2.004523 2.93997,-4.34313 0.26728,-2.33861 -2.80633,-2.472243 -2.87313,-3.274052 -0.0668,-0.80181 2.20495,-1.135896 2.20495,-1.135896"
           style="fill:none;fill-opacity:1;fill-rule:evenodd;stroke:#65e888;stroke-width:1.5;stroke-linecap:butt;stroke-linejoin:miter;stroke-miterlimit:4;stroke-dasharray:none;stroke-opacity:1" />
        <path
           sodipodi:nodetypes="cssc"
           id="path1627"
           d="m -359.54432,-70.960058 c 0,0 0.82599,-0.707577 2.18931,-2.7921 1.36334,-2.084522 -2.05494,-3.783527 -0.52223,-5.960978 0.99471,-1.413141 2.94331,-1.336347 2.94331,-1.336347"
           style="fill:none;fill-opacity:1;fill-rule:evenodd;stroke:#65e888;stroke-width:1.5;stroke-linecap:butt;stroke-linejoin:miter;stroke-miterlimit:4;stroke-dasharray:none;stroke-opacity:1" />
        <path
           id="path1629"
           d="m -354.4662,-71.69505 c 0,0 2.00451,-1.202714 2.53904,-3.34087 0.53454,-2.138156 -1.73725,-3.808589 -0.93543,-4.744032 0.80182,-0.935445 2.80633,-0.868627 2.80633,-0.868627"
           style="fill:none;fill-opacity:1;fill-rule:evenodd;stroke:#65e888;stroke-width:1.5;stroke-linecap:butt;stroke-linejoin:miter;stroke-miterlimit:4;stroke-dasharray:none;stroke-opacity:1" />
        <path
           id="path1631"
           d="m -349.32127,-70.024616 c 0.60137,-0.868625 2.47224,-2.271789 3.27406,-4.142677 0.80179,-1.870887 -1.93771,-3.942225 -1.13591,-5.479026 0.80182,-1.5368 2.47226,-0.06682 2.47226,-0.06682"
           style="fill:none;fill-opacity:1;fill-rule:evenodd;stroke:#65e888;stroke-width:1.5;stroke-linecap:butt;stroke-linejoin:miter;stroke-miterlimit:4;stroke-dasharray:none;stroke-opacity:1" />
        <path
           id="path1633"
           d="m -344.64405,-69.824163 c 0,0 2.53905,-0.668173 3.54132,-2.204974 1.00226,-1.5368 -1.26953,-4.142679 -0.60135,-5.144939 0.66818,-1.00226 2.3386,-0.801809 2.3386,-0.801809"
           style="fill:none;fill-opacity:1;fill-rule:evenodd;stroke:#65e888;stroke-width:1.5;stroke-linecap:butt;stroke-linejoin:miter;stroke-miterlimit:4;stroke-dasharray:none;stroke-opacity:1" />
        <path
           id="path1635"
           d="m -340.70184,-66.750564 c 0,0 2.13818,-1.00226 3.00681,-1.737252 0.86862,-0.734991 -1.13591,-2.806329 0.0668,-4.209494 1.20272,-1.403165 3.60815,1.00226 3.60815,1.00226"
           style="fill:none;fill-opacity:1;fill-rule:evenodd;stroke:#65e888;stroke-width:1.5;stroke-linecap:butt;stroke-linejoin:miter;stroke-miterlimit:4;stroke-dasharray:none;stroke-opacity:1" />
      </g>
      <g
         id="g1669"
         transform="translate(-41.955357,-11.717262)">
        <circle
           r="1.2695302"
           cy="-23.786989"
           cx="-390.74805"
           id="path1651"
           style="color:#000000;overflow:visible;fill:#000000;fill-opacity:1;stroke:#000000;stroke-width:1.5;stroke-linecap:round;stroke-linejoin:round;stroke-miterlimit:4;stroke-dasharray:none;stroke-opacity:1;stop-color:#000000" />
        <circle
           r="1.2695302"
           cy="-24.054258"
           cx="-375.91458"
           id="path1653"
           style="color:#000000;overflow:visible;fill:#000000;fill-opacity:1;stroke:#000000;stroke-width:1.5;stroke-linecap:round;stroke-linejoin:round;stroke-miterlimit:4;stroke-dasharray:none;stroke-opacity:1;stop-color:#000000" />
        <circle
           r="5.0113044"
           cy="-24.45516"
           cx="-391.3494"
           id="path1655"
           style="color:#000000;overflow:visible;fill:none;fill-opacity:1;stroke:#000000;stroke-width:1.5;stroke-linecap:round;stroke-linejoin:round;stroke-miterlimit:4;stroke-dasharray:none;stroke-opacity:1;stop-color:#000000" />
        <circle
           r="5.6126599"
           cy="-24.655615"
           cx="-374.77869"
           id="path1657"
           style="color:#000000;overflow:visible;fill:none;fill-opacity:1;stroke:#000000;stroke-width:1.5;stroke-linecap:round;stroke-linejoin:round;stroke-miterlimit:4;stroke-dasharray:none;stroke-opacity:1;stop-color:#000000" />
        <path
           sodipodi:nodetypes="cc"
           id="path1659"
           d="m -386.54773,-25.889429 c 0.57781,-3.336013 7.01505,-3.174613 6.57209,-0.885992"
           style="fill:none;fill-rule:evenodd;stroke:#000000;stroke-width:1.5;stroke-linecap:round;stroke-linejoin:round;stroke-miterlimit:4;stroke-dasharray:none;stroke-opacity:1" />
        <path
           id="path1661"
           d="m -388.34261,-16.236623 c 3.27403,2.338607 7.28308,0.801807 8.21851,0.601356"
           style="fill:none;fill-rule:evenodd;stroke:#000000;stroke-width:1.5;stroke-linecap:round;stroke-linejoin:round;stroke-miterlimit:4;stroke-dasharray:none;stroke-opacity:1" />
      </g>
    </g>
  </g>
</svg>
