<?xml version="1.0" encoding="UTF-8" standalone="no"?>
<svg
   xmlns:dc="http://purl.org/dc/elements/1.1/"
   xmlns:cc="http://creativecommons.org/ns#"
   xmlns:rdf="http://www.w3.org/1999/02/22-rdf-syntax-ns#"
   xmlns:svg="http://www.w3.org/2000/svg"
   xmlns="http://www.w3.org/2000/svg"
   xmlns:sodipodi="http://sodipodi.sourceforge.net/DTD/sodipodi-0.dtd"
   xmlns:inkscape="http://www.inkscape.org/namespaces/inkscape"
   width="150mm"
   height="150mm"
   viewBox="0 0 150 150"
   version="1.1"
   id="svg3567"
   inkscape:version="1.0 (4035a4fb49, 2020-05-01)"
   sodipodi:docname="greatgrandma.svg">
  <defs
     id="defs3561" />
  <sodipodi:namedview
     id="base"
     pagecolor="#ffffff"
     bordercolor="#666666"
     borderopacity="1.0"
     inkscape:pageopacity="0.0"
     inkscape:pageshadow="2"
     inkscape:zoom="0.24748738"
     inkscape:cx="-149.18626"
     inkscape:cy="291.1004"
     inkscape:document-units="mm"
     inkscape:current-layer="layer1"
     inkscape:document-rotation="0"
     showgrid="false"
     inkscape:window-width="1920"
     inkscape:window-height="1017"
     inkscape:window-x="-8"
     inkscape:window-y="-8"
     inkscape:window-maximized="1"
     inkscape:object-paths="true"
     inkscape:snap-smooth-nodes="true" />
  <metadata
     id="metadata3564">
    <rdf:RDF>
      <cc:Work
         rdf:about="">
        <dc:format>image/svg+xml</dc:format>
        <dc:type
           rdf:resource="http://purl.org/dc/dcmitype/StillImage" />
        <dc:title />
      </cc:Work>
    </rdf:RDF>
  </metadata>
  <g
     inkscape:label="Calque 1"
     inkscape:groupmode="layer"
     id="layer1">
    <g
       transform="matrix(1.999999,0,0,1.999999,1168.8003,13.403509)"
       id="g1196">
      <g
         id="g1350"
         transform="translate(290.78924,7.4835467)">
        <path
           style="fill:none;fill-opacity:1;fill-rule:evenodd;stroke:#b1ec5e;stroke-width:2;stroke-linecap:round;stroke-linejoin:round;stroke-miterlimit:4;stroke-dasharray:none;stroke-opacity:1"
           d="m -818.69642,41.293899 c 0,0 -2.0628,-1.892914 -2.03295,-2.145298 0.0298,-0.252383 4.67878,-3.902321 4.67878,-3.902321 l -3.99684,-4.676179"
           id="path4358" />
        <path
           id="rect4351"
           style="color:#000000;overflow:visible;fill:#b1ec5e;fill-opacity:1;stroke:#b1ec5e;stroke-width:2;stroke-linecap:round;stroke-miterlimit:4;stroke-dasharray:none;stroke-opacity:1;stop-color:#000000"
           d="m -847.8006,4.346723 c 9.43851,-2.363802 16.02707,-0.167694 23.05657,1.322916 2.56054,0.542965 4.70148,2.107315 4.72469,4.724691 0.10711,12.080544 0.70926,23.996073 -2.07887,37.041694 -0.54705,2.559671 -2.11667,4.502403 -4.72469,4.72469 -6.40788,0.546157 -11.65294,2.08902 -21.35568,-0.188989 -2.54819,-0.598263 -4.58663,-2.110855 -4.72469,-4.72469 -0.69376,-13.135084 -1.83016,-26.491485 0.37798,-38.175621 0.48606,-2.571953 2.18563,-4.088802 4.72469,-4.724691 z"
           sodipodi:nodetypes="sssssssss" />
        <path
           style="fill:none;fill-opacity:1;fill-rule:evenodd;stroke:#b1ec5e;stroke-width:2;stroke-linecap:round;stroke-linejoin:round;stroke-miterlimit:4;stroke-dasharray:none;stroke-opacity:1"
           d="m -839.4851,50.743304 c -0.0945,0.47247 -0.94496,9.071429 -0.94496,9.071429"
           id="path4354" />
        <path
           style="fill:none;fill-opacity:1;fill-rule:evenodd;stroke:#b1ec5e;stroke-width:2;stroke-linecap:round;stroke-linejoin:round;stroke-miterlimit:4;stroke-dasharray:none;stroke-opacity:1"
           d="m -837.53853,59.625745 1.4174,-9.260417"
           id="path4356" />
        <path
           style="fill:none;fill-opacity:1;fill-rule:evenodd;stroke:#b1ec5e;stroke-width:2;stroke-linecap:round;stroke-linejoin:round;stroke-miterlimit:4;stroke-dasharray:none;stroke-opacity:1"
           d="m -853.78609,28.558619 c 0.0198,0.891286 -5.54276,1.395995 -5.54276,1.395995 l 5.74622,4.643755 -1.87198,2.4433"
           id="path4360" />
        <path
           style="fill:none;fill-opacity:1;fill-rule:evenodd;stroke:#b1ec5e;stroke-width:2;stroke-linecap:butt;stroke-linejoin:miter;stroke-miterlimit:4;stroke-dasharray:none;stroke-opacity:1"
           d="m -850.90661,5.957752 c 0,0 -5.43219,-7.552404 -2.65811,-8.981561 2.77408,-1.429157 7.64162,8.449537 5.76414,7.370532 -1.87748,-1.079005 -1.07188,-5.70947 1.03944,-6.236602 2.11132,-0.527132 5.60943,6.009879 4.09942,5.34263 -0.31321,-0.138404 -1.07004,-6.927517 1.38121,-7.138019 2.45125,-0.210502 3.98911,6.344973 2.65626,7.004471 -1.33285,0.659498 -2.04802,-7.579998 1.59599,-7.854915 3.64401,-0.274917 4.36999,8.505144 3.034,8.284495 -0.65912,-0.108859 0.76637,-2.369934 2.44666,-1.953395 1.68029,0.416539 2.13853,2.832029 1.14022,2.61597 -0.99831,-0.216059 3.0067,-6.101087 5.19086,-6.39573 2.18416,-0.294643 1.84321,7.953218 0.47249,7.654012 -1.37072,-0.299206 3.33566,-9.719839 5.07122,-5.022427 1.73555,4.697412 -1.04029,7.437768 -1.04029,7.437768 z"
           id="path4362"
           sodipodi:nodetypes="czzzszzzszzzzzcc" />
      </g>
      <g
         style="fill:none;fill-opacity:1;stroke:#000000;stroke-width:1.5;stroke-miterlimit:4;stroke-dasharray:none;stroke-opacity:1"
         id="g1118"
         transform="translate(290.78924,7.4835467)">
        <g
           style="stroke-width:1.5;stroke-miterlimit:4;stroke-dasharray:none"
           id="g1085">
          <circle
             r="1.403165"
             cy="25.111139"
             cx="-844.03589"
             id="path4392"
             style="color:#000000;overflow:visible;fill:#000000;fill-opacity:1;stroke:#000000;stroke-width:1.5;stroke-linecap:round;stroke-linejoin:round;stroke-miterlimit:4;stroke-dasharray:none;stroke-opacity:1;stop-color:#000000" />
          <circle
             r="1.2027128"
             cy="25.111139"
             cx="-829.93744"
             id="path4394"
             style="color:#000000;overflow:visible;fill:#000000;fill-opacity:1;stroke:#000000;stroke-width:1.5;stroke-linecap:round;stroke-linejoin:round;stroke-miterlimit:4;stroke-dasharray:none;stroke-opacity:1;stop-color:#000000" />
          <ellipse
             ry="4.07586"
             rx="4.4767647"
             cy="25.111139"
             cx="-843.96912"
             id="path4396"
             style="color:#000000;overflow:visible;fill:none;fill-opacity:1;stroke:#000000;stroke-width:1.5;stroke-linecap:round;stroke-linejoin:round;stroke-miterlimit:4;stroke-dasharray:none;stroke-opacity:1;stop-color:#000000" />
          <path
             sodipodi:nodetypes="czc"
             id="path4398"
             d="m -845.39933,28.973402 c -0.46772,8.819894 -3.79081,22.75546 -1.042,23.666497 2.74881,0.911037 3.60813,-4.944487 3.60813,-4.944487"
             style="fill:none;fill-opacity:1;fill-rule:evenodd;stroke:#000000;stroke-width:1.5;stroke-linecap:round;stroke-linejoin:round;stroke-miterlimit:4;stroke-dasharray:none;stroke-opacity:1" />
          <path
             sodipodi:nodetypes="cc"
             id="path4400"
             d="m -843.83225,39.265912 c 5.03707,-11.976471 8.7187,-2.318356 10.88803,0.81232"
             style="fill:none;fill-opacity:1;fill-rule:evenodd;stroke:#000000;stroke-width:1.5;stroke-linecap:round;stroke-linejoin:round;stroke-miterlimit:4;stroke-dasharray:none;stroke-opacity:1" />
          <path
             sodipodi:nodetypes="cc"
             id="path4402"
             d="m -833.2115,21.636634 c 2.77909,-1.290684 4.4832,-4.430406 5.87994,-7.216278"
             style="fill:none;fill-opacity:1;fill-rule:evenodd;stroke:#000000;stroke-width:1.5;stroke-linecap:round;stroke-linejoin:round;stroke-miterlimit:4;stroke-dasharray:none;stroke-opacity:1" />
          <path
             sodipodi:nodetypes="cc"
             id="path4404"
             d="m -840.5362,22.495027 c -1.99016,-0.95167 -3.28821,-3.970003 -4.56879,-6.471052"
             style="fill:none;fill-opacity:1;fill-rule:evenodd;stroke:#000000;stroke-width:1.5;stroke-linecap:round;stroke-linejoin:round;stroke-miterlimit:4;stroke-dasharray:none;stroke-opacity:1" />
        </g>
      </g>
    </g>
  </g>
</svg>
