<?xml version="1.0" encoding="UTF-8" standalone="no"?>
<svg
   width="150mm"
   height="150mm"
   viewBox="0 0 150 150"
   version="1.1"
   id="svg3147"
   inkscape:version="1.1.1 (3bf5ae0d25, 2021-09-20)"
   sodipodi:docname="coffee.svg"
   xmlns:inkscape="http://www.inkscape.org/namespaces/inkscape"
   xmlns:sodipodi="http://sodipodi.sourceforge.net/DTD/sodipodi-0.dtd"
   xmlns="http://www.w3.org/2000/svg"
   xmlns:svg="http://www.w3.org/2000/svg"
   xmlns:rdf="http://www.w3.org/1999/02/22-rdf-syntax-ns#"
   xmlns:cc="http://creativecommons.org/ns#"
   xmlns:dc="http://purl.org/dc/elements/1.1/">
  <defs
     id="defs3141" />
  <sodipodi:namedview
     id="base"
     pagecolor="#ffffff"
     bordercolor="#666666"
     borderopacity="1.0"
     inkscape:pageopacity="0.0"
     inkscape:pageshadow="2"
     inkscape:zoom="0.7"
     inkscape:cx="43.571429"
     inkscape:cy="301.42857"
     inkscape:document-units="mm"
     inkscape:current-layer="layer1"
     inkscape:document-rotation="0"
     showgrid="false"
     inkscape:window-width="1920"
     inkscape:window-height="1000"
     inkscape:window-x="-11"
     inkscape:window-y="-11"
     inkscape:window-maximized="1"
     inkscape:pagecheckerboard="0" />
  <metadata
     id="metadata3144">
    <rdf:RDF>
      <cc:Work
         rdf:about="">
        <dc:format>image/svg+xml</dc:format>
        <dc:type
           rdf:resource="http://purl.org/dc/dcmitype/StillImage" />
        <dc:title />
      </cc:Work>
    </rdf:RDF>
  </metadata>
  <g
     inkscape:label="Calque 1"
     inkscape:groupmode="layer"
     id="layer1">
    <g
       id="g7353"
       style="mix-blend-mode:normal"
       transform="translate(960.73465,-1205.9483)">
      <ellipse
         style="mix-blend-mode:normal;fill:none;stroke:#000000;stroke-width:8;stroke-linecap:round;stroke-linejoin:round;stroke-miterlimit:4;stroke-dasharray:none;stroke-opacity:1;stop-color:#000000"
         id="path4620-0"
         cx="517.37024"
         cy="1470.1136"
         rx="9.1837769"
         ry="10.865954"
         transform="rotate(53.037711)" />
      <path
         style="mix-blend-mode:normal;fill:none;fill-opacity:1;stroke:#000000;stroke-width:8;stroke-linecap:round;stroke-linejoin:round;stroke-miterlimit:4;stroke-dasharray:none;stroke-opacity:1;stop-color:#000000"
         id="path4722-5-9"
         sodipodi:type="arc"
         sodipodi:cx="-889.8642"
         sodipodi:cy="1284.6375"
         sodipodi:rx="28.324024"
         sodipodi:ry="29.815828"
         sodipodi:start="0"
         sodipodi:end="3.1276833"
         sodipodi:arc-type="slice"
         d="m -861.54017,1284.6375 a 28.324024,29.815828 0 0 1 -28.12704,29.8151 28.324024,29.815828 0 0 1 -28.51827,-29.4004 l 28.32128,-0.4147 z" />
      <path
         id="rect6032-2"
         style="mix-blend-mode:normal;fill:none;fill-opacity:1;stroke:#000000;stroke-width:5;stroke-linecap:round;stroke-linejoin:round;stroke-miterlimit:4;stroke-dasharray:none;stroke-opacity:1;stop-color:#000000"
         d="m -865.6275,1313.0215 c 0,1.7113 -3.98231,4.1472 -8.92894,4.1472 h -30.96987 c -4.94664,0 -8.92895,-2.4359 -8.92895,-4.1472 z"
         sodipodi:nodetypes="csscc" />
      <ellipse
         style="mix-blend-mode:normal;fill:none;stroke:#000000;stroke-width:8;stroke-linecap:square;stroke-miterlimit:4;stroke-dasharray:none;stroke-opacity:1;stop-color:#000000"
         id="path4722-4"
         cx="-889.8642"
         cy="1284.6375"
         rx="28.324024"
         ry="6.2610998" />
      <g
         id="g6719"
         transform="translate(-85.382993,-75.474349)">
        <ellipse
           style="fill:none;stroke:#603913;stroke-width:3;stroke-linecap:round;stroke-linejoin:round;stroke-miterlimit:4;stroke-dasharray:none;stroke-opacity:1;stop-color:#000000"
           id="path4620"
           cx="629.01648"
           cy="1447.2719"
           rx="9.1837769"
           ry="10.865954"
           transform="rotate(53.037711)" />
        <path
           style="mix-blend-mode:normal;fill:#603913;fill-opacity:1;stroke:#603913;stroke-width:3;stroke-linecap:round;stroke-linejoin:round;stroke-miterlimit:4;stroke-dasharray:none;stroke-opacity:1;stop-color:#000000"
           id="path4722-5"
           sodipodi:type="arc"
           sodipodi:cx="-804.4812"
           sodipodi:cy="1360.1118"
           sodipodi:rx="28.324024"
           sodipodi:ry="29.815828"
           sodipodi:start="0"
           sodipodi:end="3.1276833"
           sodipodi:arc-type="slice"
           d="m -776.15718,1360.1118 a 28.324024,29.815828 0 0 1 -28.12704,29.8151 28.324024,29.815828 0 0 1 -28.51827,-29.4004 l 28.32129,-0.4147 z" />
        <path
           id="rect6032"
           style="fill:#603913;fill-opacity:1;stroke:none;stroke-width:3;stroke-linecap:round;stroke-linejoin:round;stroke-opacity:1;stop-color:#000000"
           d="m -780.24451,1388.4958 c 0,1.7113 -3.98231,4.1472 -8.92894,4.1472 h -30.96987 c -4.94664,0 -8.92895,-2.4359 -8.92895,-4.1472 z"
           sodipodi:nodetypes="csscc" />
        <ellipse
           style="fill:#ffffff;stroke:#603913;stroke-width:3;stroke-linecap:square;stroke-miterlimit:4;stroke-dasharray:none;stroke-opacity:1;stop-color:#000000"
           id="path4722"
           cx="-804.4812"
           cy="1360.1118"
           rx="28.324024"
           ry="6.2610998" />
      </g>
      <g
         id="g26084"
         transform="translate(-127.38488,-52.263047)">
        <ellipse
           style="mix-blend-mode:normal;fill:#ffffff;fill-opacity:1;stroke:#603913;stroke-width:1.5;stroke-linecap:round;stroke-linejoin:round;stroke-miterlimit:4;stroke-dasharray:none;stroke-opacity:1;stop-color:#000000"
           id="path20490-1"
           cx="-1403.0686"
           cy="669.88092"
           rx="6.8115768"
           ry="9.6204739"
           transform="rotate(-34.87424)" />
        <path
           style="mix-blend-mode:normal;fill:#603913;fill-opacity:1;stroke:#603913;stroke-width:0.3;stroke-linecap:round;stroke-linejoin:round;stroke-miterlimit:4;stroke-dasharray:none;stroke-opacity:1"
           d="m -772.46454,1345.9504 c 4.55621,8.8694 8.55303,3.4865 8.18381,11.9304 -0.75843,-7.7091 -6.91491,-2.9352 -8.18381,-11.9304 z"
           id="path20748-9"
           sodipodi:nodetypes="ccc" />
        <ellipse
           style="fill:#ffffff;fill-opacity:1;stroke:#603913;stroke-width:1.5;stroke-linecap:round;stroke-linejoin:round;stroke-miterlimit:4;stroke-dasharray:none;stroke-opacity:1;stop-color:#000000"
           id="path20490"
           cx="55.5257"
           cy="1551.5519"
           rx="6.8115768"
           ry="9.6204739"
           transform="rotate(31.317489)" />
        <path
           style="fill:#603913;fill-opacity:1;stroke:#603913;stroke-width:0.3;stroke-linecap:round;stroke-linejoin:round;stroke-miterlimit:4;stroke-dasharray:none;stroke-opacity:1"
           d="m -755.8145,1348.0119 c -5.6831,8.1932 0.94717,9.1877 -6.67764,12.8344 6.44595,-4.2961 -0.66302,-7.4828 6.67764,-12.8344 z"
           id="path20748"
           sodipodi:nodetypes="ccc" />
      </g>
      <g
         id="g33183"
         transform="matrix(0.95308091,0,0,0.95308091,-121.60929,-11.681427)"
         style="stroke-width:1.04923;stroke-miterlimit:4;stroke-dasharray:none">
        <path
           style="mix-blend-mode:normal;fill:#a36633;fill-opacity:1;stroke:#ffffff;stroke-width:1.04923;stroke-linecap:round;stroke-linejoin:round;stroke-miterlimit:4;stroke-dasharray:none;stroke-opacity:1"
           d="m -802.71612,1316.1863 c 1.60671,0.4642 -2.08524,5.4544 -0.6066,12.889 1.73394,8.7184 5.25374,10.02 5.32998,15.1536 0.10426,7.0193 -6.37141,16.7517 -8.08248,15.9063 -1.71108,-0.8456 2.60808,-5.1136 2.73478,-9.5418 0.20289,-7.0913 -6.02732,-11.2406 -6.47562,-18.4831 -0.52066,-8.4121 5.49323,-16.3883 7.09994,-15.924 z"
           id="path20748-2"
           sodipodi:nodetypes="zsszssz" />
        <path
           style="mix-blend-mode:normal;fill:#a36633;fill-opacity:1;stroke:#ffffff;stroke-width:1.04923;stroke-linecap:round;stroke-linejoin:round;stroke-miterlimit:4;stroke-dasharray:none;stroke-opacity:1"
           d="m -814.06294,1326.9614 c 1.29718,0.3749 -1.68352,4.4036 -0.48973,10.406 1.39989,7.0387 4.2416,8.0896 4.30314,12.2343 0.0842,5.667 -5.14394,13.5243 -6.52537,12.8418 -1.38144,-0.6826 2.10562,-4.1285 2.20792,-7.7035 0.16381,-5.7252 -4.86616,-9.0751 -5.22808,-14.9223 -0.42036,-6.7915 4.43495,-13.2311 5.73212,-12.8563 z"
           id="path20748-2-2"
           sodipodi:nodetypes="zsszssz" />
        <path
           style="mix-blend-mode:normal;fill:#a36633;fill-opacity:1;stroke:#ffffff;stroke-width:1.04923;stroke-linecap:round;stroke-linejoin:round;stroke-miterlimit:4;stroke-dasharray:none;stroke-opacity:1"
           d="m -790.75928,1321.7757 c 1.29717,0.3748 -1.68352,4.4036 -0.48974,10.406 1.39989,7.0387 4.2416,8.0895 4.30314,12.2342 0.0842,5.667 -5.14394,13.5244 -6.52537,12.8419 -1.38144,-0.6826 2.10562,-4.1286 2.20792,-7.7035 0.16381,-5.7253 -4.86616,-9.0752 -5.22808,-14.9224 -0.42036,-6.7915 4.43495,-13.2311 5.73213,-12.8562 z"
           id="path20748-2-8"
           sodipodi:nodetypes="zsszssz" />
      </g>
    </g>
  </g>
</svg>
