<?xml version="1.0" encoding="UTF-8" standalone="no"?>
<svg
   xmlns:dc="http://purl.org/dc/elements/1.1/"
   xmlns:cc="http://creativecommons.org/ns#"
   xmlns:rdf="http://www.w3.org/1999/02/22-rdf-syntax-ns#"
   xmlns:svg="http://www.w3.org/2000/svg"
   xmlns="http://www.w3.org/2000/svg"
   xmlns:xlink="http://www.w3.org/1999/xlink"
   xmlns:sodipodi="http://sodipodi.sourceforge.net/DTD/sodipodi-0.dtd"
   xmlns:inkscape="http://www.inkscape.org/namespaces/inkscape"
   width="150mm"
   height="150mm"
   viewBox="0 0 150 150"
   version="1.1"
   id="svg3147"
   inkscape:version="1.0 (4035a4fb49, 2020-05-01)"
   sodipodi:docname="compass.svg">
  <defs
     id="defs3141">
    <pattern
       patternUnits="userSpaceOnUse"
       width="8.7129582"
       height="7.6109896"
       patternTransform="translate(-2054.333,1959.2791)"
       id="carreau-pt">
      <rect
         style="fill:#800000;fill-opacity:1;stroke:none;stroke-width:1.08628;stroke-linecap:round;stroke-linejoin:round;stroke-miterlimit:4;stroke-dasharray:none;stop-color:#000000"
         id="rect119919"
         width="8.7129364"
         height="7.6109834"
         x="-2.2737368e-13"
         y="6.2746067e-06" />
      <path
         style="fill:#800000;stroke:#c11a1a;stroke-width:1.81047;stroke-linecap:butt;stroke-linejoin:miter;stroke-miterlimit:4;stroke-dasharray:none;stroke-opacity:1"
         d="M 3.0751503,7.6109858 V 0"
         id="path119921" />
      <path
         style="fill:#c11a1a;fill-opacity:1;stroke:#c11a1a;stroke-width:1.81047;stroke-linecap:butt;stroke-linejoin:miter;stroke-miterlimit:4;stroke-dasharray:none;stroke-opacity:1"
         d="M 1.3287401e-5,4.7904378 H 8.7129582"
         id="path119923" />
    </pattern>
    <pattern
       patternUnits="userSpaceOnUse"
       width="85.000037"
       height="85.000002"
       patternTransform="translate(-1862,1831.9999)"
       id="pattern115842">
      <rect
         style="fill:#800000;fill-opacity:1;stroke:none;stroke-width:11.3386;stroke-linecap:round;stroke-linejoin:round;stroke-miterlimit:4;stroke-dasharray:none;stop-color:#000000"
         id="rect104700"
         width="85"
         height="85"
         x="3.4178149e-05"
         y="0" />
      <path
         style="fill:#800000;stroke:#c11a1a;stroke-width:18.8976;stroke-linecap:butt;stroke-linejoin:miter;stroke-miterlimit:4;stroke-dasharray:none;stroke-opacity:1"
         d="M 30,84.999998 V 1.0187008e-5"
         id="path104779" />
      <path
         style="fill:#c11a1a;fill-opacity:1;stroke:#c11a1a;stroke-width:18.8976;stroke-linecap:butt;stroke-linejoin:miter;stroke-miterlimit:4;stroke-dasharray:none;stroke-opacity:1"
         d="M 0,53.500092 H 85.000025"
         id="path107256" />
    </pattern>
    <radialGradient
       inkscape:collect="always"
       xlink:href="#linearGradient1381"
       id="radialGradient3357"
       cx="-1078.6018"
       cy="1407.2086"
       fx="-1078.6018"
       fy="1407.2086"
       r="57.223598"
       gradientTransform="matrix(0.86382796,0.85928703,-0.8492934,0.85378151,1049.6034,1134.1548)"
       gradientUnits="userSpaceOnUse" />
    <linearGradient
       id="linearGradient1381"
       inkscape:collect="always">
      <stop
         id="stop1377"
         offset="0"
         style="stop-color:#fff296;stop-opacity:1" />
      <stop
         style="stop-color:#fff296;stop-opacity:1"
         offset="0.72076988"
         id="stop3359" />
      <stop
         id="stop3361"
         offset="0.72076988"
         style="stop-color:#ffca28;stop-opacity:1" />
      <stop
         id="stop1379"
         offset="1"
         style="stop-color:#ffca28;stop-opacity:1" />
    </linearGradient>
  </defs>
  <sodipodi:namedview
     id="base"
     pagecolor="#ffffff"
     bordercolor="#666666"
     borderopacity="1.0"
     inkscape:pageopacity="0.0"
     inkscape:pageshadow="2"
     inkscape:zoom="0.7"
     inkscape:cx="143.41376"
     inkscape:cy="529.77597"
     inkscape:document-units="mm"
     inkscape:current-layer="layer1"
     inkscape:document-rotation="0"
     showgrid="false"
     inkscape:window-width="1920"
     inkscape:window-height="1017"
     inkscape:window-x="-8"
     inkscape:window-y="-8"
     inkscape:window-maximized="1" />
  <metadata
     id="metadata3144">
    <rdf:RDF>
      <cc:Work
         rdf:about="">
        <dc:format>image/svg+xml</dc:format>
        <dc:type
           rdf:resource="http://purl.org/dc/dcmitype/StillImage" />
        <dc:title></dc:title>
      </cc:Work>
    </rdf:RDF>
  </metadata>
  <g
     inkscape:label="Calque 1"
     inkscape:groupmode="layer"
     id="layer1">
    <g
       transform="translate(1151.1473,-1335.7111)"
       style="mix-blend-mode:normal"
       id="g3395">
      <path
         inkscape:export-ydpi="71"
         inkscape:export-xdpi="71"
         d="m -1020.4237,1410.7108 a 55.723652,55.723631 0 0 1 -55.7236,55.724 55.723652,55.723631 0 0 1 -55.7236,-55.724 55.723652,55.723631 0 0 1 55.7236,-55.7235 55.723652,55.723631 0 0 1 55.7236,55.7235"
         style="color:#000000;overflow:visible;fill:url(#radialGradient3357);fill-opacity:1;stroke:#000000;stroke-width:3;stroke-miterlimit:4;stroke-dasharray:none;stroke-dashoffset:6.32016;stroke-opacity:1;stop-color:#000000"
         id="path1360" />
      <path
         d="m -1032.5031,1410.7108 a 43.644068,43.644079 0 0 1 -43.6442,43.6442 43.644068,43.644079 0 0 1 -43.6442,-43.6442 43.644068,43.644079 0 0 1 43.6442,-43.6441 43.644068,43.644079 0 0 1 43.6442,43.6441"
         style="color:#000000;overflow:visible;fill:#ffffff;fill-opacity:1;stroke:#000000;stroke-width:3;stroke-miterlimit:4;stroke-dasharray:none;stroke-dashoffset:6.32016;stroke-opacity:1;stop-color:#000000"
         id="path1360-8" />
      <g
         transform="matrix(3.1031219,0,0,3.1031219,-147.39069,1543.5395)"
         id="g1446">
        <path
           id="path976-0-6-2"
           style="color:#000000;font-style:normal;font-variant:normal;font-weight:normal;font-stretch:normal;font-size:medium;line-height:normal;font-family:sans-serif;font-variant-ligatures:normal;font-variant-position:normal;font-variant-caps:normal;font-variant-numeric:normal;font-variant-alternates:normal;font-variant-east-asian:normal;font-feature-settings:normal;font-variation-settings:normal;text-indent:0;text-align:start;text-decoration:none;text-decoration-line:none;text-decoration-style:solid;text-decoration-color:#000000;letter-spacing:normal;word-spacing:normal;text-transform:none;writing-mode:lr-tb;direction:ltr;text-orientation:mixed;dominant-baseline:auto;baseline-shift:baseline;text-anchor:start;white-space:normal;shape-padding:0;shape-margin:0;inline-size:0;clip-rule:nonzero;display:inline;overflow:visible;visibility:visible;isolation:auto;mix-blend-mode:normal;color-interpolation:sRGB;color-interpolation-filters:linearRGB;solid-color:#000000;solid-opacity:1;vector-effect:none;fill:#e0c3ab;fill-opacity:1;fill-rule:nonzero;stroke:none;stroke-width:4.03147;stroke-linecap:round;stroke-linejoin:round;stroke-miterlimit:4;stroke-dasharray:none;stroke-dashoffset:20;stroke-opacity:1;color-rendering:auto;image-rendering:auto;shape-rendering:auto;text-rendering:auto;enable-background:accumulate;stop-color:#000000"
           d="m -852.78711,-223.55664 c -0.88936,-0.0102 -1.68272,0.56163 -1.94922,1.41016 l -8.01758,25.56836 -25.13476,7.88281 c -0.83218,0.26139 -1.40029,1.02817 -1.41016,1.90039 -0.0113,0.88934 0.56162,1.68075 1.41016,1.94726 l 25.56836,8.01758 7.88281,25.13477 c 0.26154,0.83217 1.02608,1.40047 1.89844,1.41015 0.88936,0.0102 1.68268,-0.56162 1.94922,-1.41015 l 8.01757,-25.56641 25.13477,-7.88476 c 0.83218,-0.2614 1.40048,-1.02606 1.41016,-1.89844 0.0113,-0.88934 -0.56162,-1.68076 -1.41016,-1.94727 l -25.56836,-8.01953 -7.88281,-25.13476 c -0.26117,-0.8322 -1.02624,-1.40031 -1.89844,-1.41016 z"
           transform="matrix(0.26458333,0,0,0.26458333,-73.697022,6.6646382)" />
        <path
           id="path976-0-6"
           style="color:#000000;font-style:normal;font-variant:normal;font-weight:normal;font-stretch:normal;font-size:medium;line-height:normal;font-family:sans-serif;font-variant-ligatures:normal;font-variant-position:normal;font-variant-caps:normal;font-variant-numeric:normal;font-variant-alternates:normal;font-variant-east-asian:normal;font-feature-settings:normal;font-variation-settings:normal;text-indent:0;text-align:start;text-decoration:none;text-decoration-line:none;text-decoration-style:solid;text-decoration-color:#000000;letter-spacing:normal;word-spacing:normal;text-transform:none;writing-mode:lr-tb;direction:ltr;text-orientation:mixed;dominant-baseline:auto;baseline-shift:baseline;text-anchor:start;white-space:normal;shape-padding:0;shape-margin:0;inline-size:0;clip-rule:nonzero;display:inline;overflow:visible;visibility:visible;isolation:auto;mix-blend-mode:normal;color-interpolation:sRGB;color-interpolation-filters:linearRGB;solid-color:#000000;solid-opacity:1;vector-effect:none;fill:#b2947c;fill-opacity:1;fill-rule:nonzero;stroke:none;stroke-width:4.03147;stroke-linecap:round;stroke-linejoin:round;stroke-miterlimit:4;stroke-dasharray:none;stroke-dashoffset:20;stroke-opacity:1;color-rendering:auto;image-rendering:auto;shape-rendering:auto;text-rendering:auto;enable-background:accumulate;stop-color:#000000"
           d="m -877.54297,-213.29102 c -0.41046,0.0607 -0.80141,0.24785 -1.11328,0.55274 -0.63613,0.62158 -0.79241,1.58654 -0.38086,2.375 l 16.25,31.09961 c 0.0945,0.39972 0.30812,0.76052 0.61328,1.03515 0.2744,0.30339 0.63515,0.51728 1.03321,0.61133 0.27439,0.3035 0.63322,0.51726 1.03124,0.61133 l 31.09961,16.24805 c 0.77326,0.40361 1.71611,0.26431 2.33985,-0.34571 0.63613,-0.62158 0.79241,-1.58655 0.38086,-2.375 l -16.25,-31.0996 c -0.0945,-0.39973 -0.30775,-0.7605 -0.61328,-1.03516 -0.2744,-0.3035 -0.63515,-0.51729 -1.03321,-0.61133 -0.27439,-0.30338 -0.63322,-0.51532 -1.03125,-0.60937 l -31.09961,-16.25 c -0.38662,-0.20182 -0.81609,-0.26769 -1.22656,-0.20704 z"
           transform="matrix(0.26458333,0,0,0.26458333,-73.697022,6.6646382)" />
      </g>
      <path
         d="m -1076.1482,1369.8663 -4.3555,4.3555 4.3555,4.3556 4.3576,-4.3556 z m 22.722,11.9618 v 6.1599 h 6.162 v -6.162 z m -59.2102,24.5264 -4.3555,4.3555 4.3555,4.3576 4.3556,-4.3576 z m 72.9784,0 -4.3555,4.3555 4.3555,4.3576 4.3556,-4.3576 z m -65.3721,27.0776 v 6.1598 h 6.1619 v -6.1619 z m 28.8819,9.4126 -4.3555,4.3555 4.3555,4.3556 4.3576,-4.3556 z"
         style="color:#000000;overflow:visible;fill:#e0c3ab;fill-opacity:1;stroke:none;stroke-width:0.505653;stroke-dasharray:1.01131, 0.505653;stroke-dashoffset:4.95536;stop-color:#000000"
         id="rect1507" />
      <path
         sodipodi:nodetypes="cccccccccc"
         id="path976-0"
         d="m -1048.9517,1383.3712 c -0.6547,-0.6701 -1.6707,-0.8337 -2.5013,-0.4002 l -32.7609,17.1178 c -0.421,0.1 -0.8002,0.3243 -1.0895,0.646 -0.3197,0.2889 -0.5454,0.6687 -0.6444,1.088 l 18.51,18.5071 c 0.4211,-0.099 0.8017,-0.3258 1.0911,-0.6475 0.3197,-0.2889 0.5438,-0.6672 0.6429,-1.0865 l 17.1163,-32.7594 c 0.4252,-0.8146 0.2783,-1.8083 -0.3643,-2.4653 z"
         style="color:#000000;font-style:normal;font-variant:normal;font-weight:normal;font-stretch:normal;font-size:medium;line-height:normal;font-family:sans-serif;font-variant-ligatures:normal;font-variant-position:normal;font-variant-caps:normal;font-variant-numeric:normal;font-variant-alternates:normal;font-variant-east-asian:normal;font-feature-settings:normal;font-variation-settings:normal;text-indent:0;text-align:start;text-decoration:none;text-decoration-line:none;text-decoration-style:solid;text-decoration-color:#000000;letter-spacing:normal;word-spacing:normal;text-transform:none;writing-mode:lr-tb;direction:ltr;text-orientation:mixed;dominant-baseline:auto;baseline-shift:baseline;text-anchor:start;white-space:normal;shape-padding:0;shape-margin:0;inline-size:0;clip-rule:nonzero;display:inline;overflow:visible;visibility:visible;isolation:auto;mix-blend-mode:normal;color-interpolation:sRGB;color-interpolation-filters:linearRGB;solid-color:#000000;solid-opacity:1;vector-effect:none;fill:#ff0000;fill-opacity:1;fill-rule:nonzero;stroke:#000000;stroke-width:3;stroke-linecap:round;stroke-linejoin:round;stroke-miterlimit:4;stroke-dasharray:none;stroke-dashoffset:20;stroke-opacity:1;color-rendering:auto;image-rendering:auto;shape-rendering:auto;text-rendering:auto;enable-background:accumulate;stop-color:#000000" />
      <path
         style="color:#000000;font-style:normal;font-variant:normal;font-weight:normal;font-stretch:normal;font-size:medium;line-height:normal;font-family:sans-serif;font-variant-ligatures:normal;font-variant-position:normal;font-variant-caps:normal;font-variant-numeric:normal;font-variant-alternates:normal;font-variant-east-asian:normal;font-feature-settings:normal;font-variation-settings:normal;text-indent:0;text-align:start;text-decoration:none;text-decoration-line:none;text-decoration-style:solid;text-decoration-color:#000000;letter-spacing:normal;word-spacing:normal;text-transform:none;writing-mode:lr-tb;direction:ltr;text-orientation:mixed;dominant-baseline:auto;baseline-shift:baseline;text-anchor:start;white-space:normal;shape-padding:0;shape-margin:0;inline-size:0;clip-rule:nonzero;display:inline;overflow:visible;visibility:visible;isolation:auto;mix-blend-mode:normal;color-interpolation:sRGB;color-interpolation-filters:linearRGB;solid-color:#000000;solid-opacity:1;vector-effect:none;fill:#2f7889;fill-opacity:1;fill-rule:nonzero;stroke:#000000;stroke-width:3;stroke-linecap:round;stroke-linejoin:round;stroke-miterlimit:4;stroke-dasharray:none;stroke-dashoffset:20;stroke-opacity:1;color-rendering:auto;image-rendering:auto;shape-rendering:auto;text-rendering:auto;enable-background:accumulate;stop-color:#000000"
         d="m -1103.3429,1438.1341 c 0.6548,0.6701 1.6707,0.8336 2.5013,0.4001 l 32.7609,-17.1178 c 0.421,-0.099 0.8002,-0.3242 1.0895,-0.6459 0.3197,-0.2889 0.5454,-0.6688 0.6445,-1.088 l -18.5101,-18.5071 c -0.4211,0.099 -0.8017,0.3257 -1.091,0.6474 -0.3197,0.2889 -0.5439,0.6673 -0.643,1.0865 l -17.1163,32.7595 c -0.4251,0.8145 -0.2783,1.8083 0.3643,2.4653 z"
         id="path976-4-3"
         sodipodi:nodetypes="cccccccccc" />
      <path
         id="path830"
         style="color:#000000;font-style:normal;font-variant:normal;font-weight:normal;font-stretch:normal;font-size:medium;line-height:normal;font-family:sans-serif;font-variant-ligatures:normal;font-variant-position:normal;font-variant-caps:normal;font-variant-numeric:normal;font-variant-alternates:normal;font-feature-settings:normal;text-indent:0;text-align:start;text-decoration:none;text-decoration-line:none;text-decoration-style:solid;text-decoration-color:#000000;letter-spacing:normal;word-spacing:normal;text-transform:none;writing-mode:lr-tb;direction:ltr;text-orientation:mixed;dominant-baseline:auto;baseline-shift:baseline;text-anchor:start;white-space:normal;shape-padding:0;clip-rule:nonzero;display:inline;overflow:visible;visibility:visible;isolation:auto;mix-blend-mode:normal;color-interpolation:sRGB;color-interpolation-filters:linearRGB;solid-color:#000000;solid-opacity:1;vector-effect:none;fill:#ffffff;fill-opacity:1;fill-rule:evenodd;stroke:#000000;stroke-width:3;stroke-linecap:round;stroke-linejoin:round;stroke-miterlimit:4;stroke-dasharray:none;stroke-dashoffset:0;stroke-opacity:1;color-rendering:auto;image-rendering:auto;shape-rendering:auto;text-rendering:auto;enable-background:accumulate"
         d="m -1076.489,1404.112 c -4.6683,0.052 -7.8627,5.6952 -5.5373,9.7255 1.9774,4.188 8.4055,4.7914 11.1053,1.018 3.0345,-3.5208 0.922,-9.6422 -3.6302,-10.5534 -0.6309,-0.1677 -1.287,-0.217 -1.9378,-0.1901 z" />
      <path
         id="rect1507-8"
         style="color:#000000;overflow:visible;fill:#e0c3ab;fill-opacity:1;stroke:none;stroke-width:0.505653;stroke-dasharray:1.01131, 0.505653;stroke-dashoffset:4.95536;stop-color:#000000"
         d="m -1105.0295,1381.8302 v 6.1596 h 6.1597 v -6.1611 z m 51.6035,51.6035 v 6.1597 h 6.1597 v -6.1612 z" />
    </g>
  </g>
</svg>
