<?xml version="1.0" encoding="UTF-8" standalone="no"?>
<svg
   xmlns:dc="http://purl.org/dc/elements/1.1/"
   xmlns:cc="http://creativecommons.org/ns#"
   xmlns:rdf="http://www.w3.org/1999/02/22-rdf-syntax-ns#"
   xmlns:svg="http://www.w3.org/2000/svg"
   xmlns="http://www.w3.org/2000/svg"
   xmlns:xlink="http://www.w3.org/1999/xlink"
   xmlns:sodipodi="http://sodipodi.sourceforge.net/DTD/sodipodi-0.dtd"
   xmlns:inkscape="http://www.inkscape.org/namespaces/inkscape"
   sodipodi:docname="dices.svg"
   inkscape:version="1.0 (4035a4fb49, 2020-05-01)"
   id="svg3147"
   version="1.1"
   viewBox="0 0 150 150"
   height="150mm"
   width="150mm">
  <defs
     id="defs3141">
    <pattern
       id="carreau-pt"
       patternTransform="translate(-2054.333,1959.2791)"
       height="7.6109896"
       width="8.7129582"
       patternUnits="userSpaceOnUse">
      <rect
         y="6.2746067e-06"
         x="-2.2737368e-13"
         height="7.6109834"
         width="8.7129364"
         id="rect119919"
         style="fill:#800000;fill-opacity:1;stroke:none;stroke-width:1.08628;stroke-linecap:round;stroke-linejoin:round;stroke-miterlimit:4;stroke-dasharray:none;stop-color:#000000" />
      <path
         id="path119921"
         d="M 3.0751503,7.6109858 V 0"
         style="fill:#800000;stroke:#c11a1a;stroke-width:1.81047;stroke-linecap:butt;stroke-linejoin:miter;stroke-miterlimit:4;stroke-dasharray:none;stroke-opacity:1" />
      <path
         id="path119923"
         d="M 1.3287401e-5,4.7904378 H 8.7129582"
         style="fill:#c11a1a;fill-opacity:1;stroke:#c11a1a;stroke-width:1.81047;stroke-linecap:butt;stroke-linejoin:miter;stroke-miterlimit:4;stroke-dasharray:none;stroke-opacity:1" />
    </pattern>
    <pattern
       id="pattern115842"
       patternTransform="translate(-1862,1831.9999)"
       height="85.000002"
       width="85.000037"
       patternUnits="userSpaceOnUse">
      <rect
         y="0"
         x="3.4178149e-05"
         height="85"
         width="85"
         id="rect104700"
         style="fill:#800000;fill-opacity:1;stroke:none;stroke-width:11.3386;stroke-linecap:round;stroke-linejoin:round;stroke-miterlimit:4;stroke-dasharray:none;stop-color:#000000" />
      <path
         id="path104779"
         d="M 30,84.999998 V 1.0187008e-5"
         style="fill:#800000;stroke:#c11a1a;stroke-width:18.8976;stroke-linecap:butt;stroke-linejoin:miter;stroke-miterlimit:4;stroke-dasharray:none;stroke-opacity:1" />
      <path
         id="path107256"
         d="M 0,53.500092 H 85.000025"
         style="fill:#c11a1a;fill-opacity:1;stroke:#c11a1a;stroke-width:18.8976;stroke-linecap:butt;stroke-linejoin:miter;stroke-miterlimit:4;stroke-dasharray:none;stroke-opacity:1" />
    </pattern>
    <linearGradient
       gradientTransform="matrix(1.6231602,0.50757691,-0.40343355,1.2901242,1488.9474,240.24083)"
       inkscape:collect="always"
       xlink:href="#linearGradient3705"
       id="linearGradient3555-8-1"
       x1="-1281.0643"
       y1="1399.4445"
       x2="-1288.3505"
       y2="1399.4445"
       gradientUnits="userSpaceOnUse" />
    <linearGradient
       inkscape:collect="always"
       id="linearGradient3705">
      <stop
         style="stop-color:#ffffff;stop-opacity:1"
         offset="0"
         id="stop3697" />
      <stop
         id="stop3699"
         offset="0.70677221"
         style="stop-color:#ffffff;stop-opacity:1" />
      <stop
         id="stop3701"
         offset="0.70677221"
         style="stop-color:#b3c1c9;stop-opacity:1" />
      <stop
         style="stop-color:#b3c1c9;stop-opacity:1"
         offset="1"
         id="stop3703" />
    </linearGradient>
    <linearGradient
       gradientTransform="rotate(155.35236,-1239.1894,1428.2049)"
       gradientUnits="userSpaceOnUse"
       y2="1405.4344"
       x2="-1298.3835"
       y1="1405.4344"
       x1="-1304.0159"
       id="linearGradient3750-0"
       xlink:href="#linearGradient3705"
       inkscape:collect="always" />
    <linearGradient
       inkscape:collect="always"
       xlink:href="#linearGradient3705"
       id="linearGradient3750-0-6"
       x1="-1304.0159"
       y1="1405.4344"
       x2="-1298.3835"
       y2="1405.4344"
       gradientUnits="userSpaceOnUse"
       gradientTransform="rotate(155.35236,-1230.6388,1434.4528)" />
    <linearGradient
       gradientTransform="matrix(0.79213602,-0.04897155,0.045253,0.99844527,-172.61639,-66.403973)"
       gradientUnits="userSpaceOnUse"
       y2="1399.4445"
       x2="-1288.3505"
       y1="1399.4445"
       x1="-1281.0643"
       id="linearGradient3555-1"
       xlink:href="#linearGradient3705"
       inkscape:collect="always" />
    <linearGradient
       inkscape:collect="always"
       xlink:href="#linearGradient3705"
       id="linearGradient3555-1-4"
       x1="-1281.0643"
       y1="1399.4445"
       x2="-1288.3505"
       y2="1399.4445"
       gradientUnits="userSpaceOnUse"
       gradientTransform="matrix(0.79213601,-0.04897155,0.045253,0.99844527,-178.2187,-35.681599)" />
    <linearGradient
       inkscape:collect="always"
       xlink:href="#linearGradient3705"
       id="linearGradient3555-1-5"
       x1="-1281.0643"
       y1="1399.4445"
       x2="-1288.3505"
       y2="1399.4445"
       gradientUnits="userSpaceOnUse"
       gradientTransform="matrix(0.79213601,-0.04897155,0.045253,0.99844527,-175.41748,-51.042802)" />
    <linearGradient
       inkscape:collect="always"
       xlink:href="#linearGradient3705"
       id="linearGradient3555"
       x1="-1281.0643"
       y1="1399.4445"
       x2="-1288.3505"
       y2="1399.4445"
       gradientUnits="userSpaceOnUse" />
    <linearGradient
       gradientUnits="userSpaceOnUse"
       y2="1399.4445"
       x2="-1288.3505"
       y1="1399.4445"
       x1="-1281.0643"
       id="linearGradient3555-7"
       xlink:href="#linearGradient3705"
       inkscape:collect="always"
       gradientTransform="translate(3.901726,8.5721775)" />
    <linearGradient
       gradientUnits="userSpaceOnUse"
       y2="1399.4445"
       x2="-1288.3505"
       y1="1399.4445"
       x1="-1281.0643"
       id="linearGradient3555-8"
       xlink:href="#linearGradient3705"
       inkscape:collect="always"
       gradientTransform="translate(7.8187769,17.209569)" />
    <linearGradient
       gradientUnits="userSpaceOnUse"
       y2="1399.4445"
       x2="-1288.3505"
       y1="1399.4445"
       x1="-1281.0643"
       id="linearGradient3555-92"
       xlink:href="#linearGradient3705"
       inkscape:collect="always"
       gradientTransform="translate(17.887039,-0.8497049)" />
    <linearGradient
       gradientUnits="userSpaceOnUse"
       y2="1399.4445"
       x2="-1288.3505"
       y1="1399.4445"
       x1="-1281.0643"
       id="linearGradient3555-6"
       xlink:href="#linearGradient3705"
       inkscape:collect="always"
       gradientTransform="translate(14.243901,-9.3056959)" />
    <linearGradient
       inkscape:collect="always"
       xlink:href="#linearGradient3705"
       id="linearGradient3750"
       x1="-1304.0159"
       y1="1405.4344"
       x2="-1298.3835"
       y2="1405.4344"
       gradientUnits="userSpaceOnUse"
       gradientTransform="rotate(180,-1301.1997,1405.4344)" />
    <linearGradient
       inkscape:collect="always"
       xlink:href="#linearGradient3705"
       id="linearGradient3758"
       x1="-1306.4554"
       y1="1420.5051"
       x2="-1300.8229"
       y2="1420.5051"
       gradientUnits="userSpaceOnUse"
       gradientTransform="rotate(180,-1303.6391,1420.5051)" />
    <linearGradient
       gradientTransform="translate(21.808896,7.6940908)"
       inkscape:collect="always"
       xlink:href="#linearGradient3705"
       id="linearGradient3555-92-6"
       x1="-1281.0643"
       y1="1399.4445"
       x2="-1288.3505"
       y2="1399.4445"
       gradientUnits="userSpaceOnUse" />
    <linearGradient
       inkscape:collect="always"
       xlink:href="#linearGradient3705"
       id="linearGradient3766"
       x1="-1286.9178"
       y1="1379.6246"
       x2="-1278.7438"
       y2="1379.6246"
       gradientUnits="userSpaceOnUse"
       gradientTransform="rotate(180,-1282.8308,1379.6246)" />
    <linearGradient
       inkscape:collect="always"
       xlink:href="#linearGradient3705"
       id="linearGradient3782"
       x1="-1300.9409"
       y1="1388.3448"
       x2="-1292.767"
       y2="1388.3448"
       gradientUnits="userSpaceOnUse"
       gradientTransform="rotate(180,-1296.854,1388.3449)" />
    <linearGradient
       inkscape:collect="always"
       xlink:href="#linearGradient3705"
       id="linearGradient3790"
       x1="-1311.2216"
       y1="1388.7618"
       x2="-1303.048"
       y2="1388.7618"
       gradientUnits="userSpaceOnUse"
       gradientTransform="rotate(180,-1306.8702,1389.0265)" />
    <linearGradient
       inkscape:collect="always"
       xlink:href="#linearGradient3705"
       id="linearGradient3774"
       x1="-1297.4934"
       y1="1380.3206"
       x2="-1289.3197"
       y2="1380.3206"
       gradientUnits="userSpaceOnUse"
       gradientTransform="rotate(180,-1293.142,1380.5852)" />
  </defs>
  <sodipodi:namedview
     inkscape:window-maximized="1"
     inkscape:window-y="-8"
     inkscape:window-x="-8"
     inkscape:window-height="1017"
     inkscape:window-width="1920"
     showgrid="false"
     inkscape:document-rotation="0"
     inkscape:current-layer="layer1"
     inkscape:document-units="mm"
     inkscape:cy="529.77597"
     inkscape:cx="143.41376"
     inkscape:zoom="0.7"
     inkscape:pageshadow="2"
     inkscape:pageopacity="0.0"
     borderopacity="1.0"
     bordercolor="#666666"
     pagecolor="#ffffff"
     id="base" />
  <metadata
     id="metadata3144">
    <rdf:RDF>
      <cc:Work
         rdf:about="">
        <dc:format>image/svg+xml</dc:format>
        <dc:type
           rdf:resource="http://purl.org/dc/dcmitype/StillImage" />
        <dc:title></dc:title>
      </cc:Work>
    </rdf:RDF>
  </metadata>
  <g
     id="layer1"
     inkscape:groupmode="layer"
     inkscape:label="Calque 1">
    <g
       transform="translate(-28.187512,-123.05948)"
       id="g1420">
      <g
         id="g3319"
         style="mix-blend-mode:normal"
         transform="translate(1364.481,-1221.1454)">
        <path
           sodipodi:nodetypes="cccsscccssccssccssssssc"
           id="path909"
           style="fill:#17c517;fill-opacity:1;stroke:#000000;stroke-width:3;stroke-miterlimit:4;stroke-dasharray:none;stroke-opacity:1"
           d="m -1283.2873,1374.8365 c -6.792,0.7408 -12.3491,3.7665 -12.3491,3.7665 v 0 c 0,0 -16.9188,9.5709 -21.3645,12.5347 v 0 c -4.4457,2.9641 -2.7169,9.0148 -2.7169,9.0148 v 0 c 0,0 8.8232,19.347 10.6206,21.9816 5.3099,7.0393 8.1503,8.1509 17.5359,10.2232 v 0 c 9.3851,2.0723 15.5602,-2.4801 15.5602,-2.4801 v 0 c 0,0 16.7948,-9.7189 21.1923,-13.5468 v 0 c 4.3975,-3.8282 0.5886,-14.3255 0.5886,-14.3255 v 0 c 0,0 -6.7149,-17.289 -9.119,-21.858 v 0 c -2.4044,-4.5693 -6.7343,-5.9279 -9.4434,-6.1752 v 0 c -0.2711,-0.025 -0.5925,-0.036 -0.9523,-0.036 v 0 c -3.2379,0 -9.5524,0.9004 -9.5524,0.9004" />
        <path
           id="path929"
           style="opacity:1;mix-blend-mode:multiply;fill:#17c517;fill-opacity:1;stroke:none;stroke-width:0.297871"
           d="m -1271.427,1379.8145 -20.0133,12.5347 c -5.3242,3.3347 -2.8405,9.3853 -2.8405,9.3853 v 0 c 0,0 7.9034,17.4126 11.3611,24.2776 v 0 c 3.4582,6.8651 9.1496,3.5087 9.1496,3.5087 v 0 c 0,0 14.1909,-9.6326 18.2288,-12.8141 v 0 c 4.0377,-3.1813 2.0881,-12.0781 2.0881,-12.0781 v 0 c 0,0 -6.4969,-16.6018 -9.584,-22.0358 v 0 c -1.5614,-2.7479 -3.6891,-3.427 -5.4114,-3.427 v 0 c -1.683,0 -2.9784,0.6487 -2.9784,0.6487" />
        <path
           id="path1039"
           style="fill:url(#linearGradient3555);fill-opacity:1;stroke:none;stroke-width:0.297871"
           d="m -1288.3505,1399.4444 c 0,2.4718 1.6308,4.4746 3.6432,4.4746 v 0 c 2.0119,0 3.643,-2.0028 3.643,-4.4746 v 0 c 0,-2.4708 -1.6311,-4.4743 -3.643,-4.4743 v 0 c -2.0124,0 -3.6432,2.0035 -3.6432,4.4743" />
        <path
           d="m -1284.4487,1408.0165 c 0,2.4718 1.6308,4.4746 3.6432,4.4746 v 0 c 2.0119,0 3.643,-2.0028 3.643,-4.4746 v 0 c 0,-2.4708 -1.6311,-4.4743 -3.643,-4.4743 v 0 c -2.0124,0 -3.6432,2.0035 -3.6432,4.4743"
           style="fill:url(#linearGradient3555-7);fill-opacity:1;stroke:none;stroke-width:0.297871"
           id="path1039-4" />
        <path
           d="m -1280.5317,1416.6539 c 0,2.4718 1.6308,4.4746 3.6432,4.4746 v 0 c 2.0119,0 3.643,-2.0028 3.643,-4.4746 v 0 c 0,-2.4708 -1.6311,-4.4743 -3.643,-4.4743 v 0 c -2.0124,0 -3.6432,2.0035 -3.6432,4.4743"
           style="fill:url(#linearGradient3555-8);fill-opacity:1;stroke:none;stroke-width:0.297871"
           id="path1039-5" />
        <path
           d="m -1270.4634,1398.5946 c 0,2.4718 1.6308,4.4746 3.6432,4.4746 v 0 c 2.0119,0 3.643,-2.0028 3.643,-4.4746 v 0 c 0,-2.4708 -1.6311,-4.4743 -3.643,-4.4743 v 0 c -2.0124,0 -3.6432,2.0035 -3.6432,4.4743"
           style="fill:url(#linearGradient3555-92);fill-opacity:1;stroke:none;stroke-width:0.297871"
           id="path1039-47" />
        <path
           d="m -1274.1066,1390.1387 c 0,2.4718 1.6308,4.4746 3.6432,4.4746 v 0 c 2.0119,0 3.643,-2.0028 3.643,-4.4746 v 0 c 0,-2.4708 -1.6311,-4.4743 -3.643,-4.4743 v 0 c -2.0124,0 -3.6432,2.0035 -3.6432,4.4743"
           style="fill:url(#linearGradient3555-6);fill-opacity:1;stroke:none;stroke-width:0.297871"
           id="path1039-59" />
        <path
           id="path949"
           style="opacity:1;mix-blend-mode:multiply;fill:#17c517;fill-opacity:1;stroke:none;stroke-width:0.292516"
           d="m -1311.0563,1395.5806 c -10.1198,-0.5958 -7.2811,5.3626 -7.2811,5.3626 v 0 c 0,0 6.6852,15.1208 7.9586,17.6665 v 0 c 1.2735,2.5456 2.752,4.3809 5.61,7.304 v 0 c 2.8577,2.923 9.5092,5.1794 15.9238,5.5701 v 0 c 6.4144,0.3909 2.477,-7.7087 2.477,-7.7087 v 0 c 0,0 -4.3252,-9.1276 -9.8399,-19.444 v 0 c -4.2306,-7.9143 -10.7083,-8.8355 -13.4961,-8.8355 v 0 c -0.8459,0 -1.3523,0.085 -1.3523,0.085" />
        <path
           id="path995"
           style="fill:url(#linearGradient3750);fill-opacity:1;stroke:none;stroke-width:0.297871"
           d="m -1298.966,1409.144 c 0.9469,-0.571 0.7146,-2.6937 -0.5186,-4.7421 v 0 c -1.2338,-2.0491 -3.0017,-3.2474 -3.9486,-2.677 v 0 c -0.9472,0.5707 -0.7152,2.6937 0.5186,4.7424 v 0 c 1.0256,1.7032 2.4205,2.8188 3.4062,2.8188 v 0 c 0.1998,0 0.3827,-0.046 0.5424,-0.1421" />
        <path
           id="path967-9"
           style="opacity:1;mix-blend-mode:normal;fill:#5cd85c;fill-opacity:1;fill-rule:nonzero;stroke:none;stroke-width:0.297871"
           d="m -1286.8685,1385.3335 12.7197,-7.3789 c 0,0 5.3094,-2.223 -1.7129,-2.13 -7.022,0.093 -13.4532,1.951 -15.3468,2.6378 -1.8932,0.6869 -2.4951,0.9221 -4.3785,1.9971 -1.8834,1.0747 -19.2713,11.3947 -19.2713,11.3947 0,0 -5.3532,2.1241 2.4269,1.8768 7.78,-0.2469 13.1962,-0.5576 21.2405,-5.557 z"
           sodipodi:nodetypes="ccssscccc" />
        <path
           id="path1017"
           style="fill:url(#linearGradient3758);fill-opacity:1;stroke:none;stroke-width:0.297871"
           d="m -1301.4056,1424.2148 c 0.9473,-0.571 0.7149,-2.6936 -0.5183,-4.7421 v 0 c -1.2337,-2.049 -3.0016,-3.2471 -3.9485,-2.6772 v 0 c -0.9476,0.5704 -0.7155,2.6936 0.5183,4.7421 v 0 c 1.0258,1.7038 2.4208,2.819 3.4061,2.819 v 0 c 0.1999,0 0.3828,-0.046 0.5424,-0.1418" />
        <path
           id="path1039-47-7"
           style="fill:url(#linearGradient3555-92-6);fill-opacity:1;stroke:none;stroke-width:0.297871"
           d="m -1266.5416,1407.1384 c 0,2.4718 1.6308,4.4746 3.6432,4.4746 v 0 c 2.0119,0 3.643,-2.0028 3.643,-4.4746 v 0 c 0,-2.4708 -1.6311,-4.4743 -3.643,-4.4743 v 0 c -2.0124,0 -3.6432,2.0035 -3.6432,4.4743" />
        <path
           id="path1171"
           style="fill:url(#linearGradient3766);fill-opacity:1;stroke:none;stroke-width:0.297871"
           d="m -1282.4333,1380.4508 c 2.2466,-1.0804 3.8893,-2.3261 3.6698,-2.7824 v 0 c -0.2195,-0.4567 -2.2182,0.049 -4.4648,1.1298 v 0 c -2.2465,1.0804 -3.8899,2.3264 -3.6697,2.783 v 0 c 0.055,0.1138 0.2204,0.1677 0.4733,0.1677 v 0 c 0.7595,0 2.3058,-0.4873 3.9914,-1.2981" />
        <path
           id="path1193"
           style="fill:url(#linearGradient3782);fill-opacity:1;stroke:none;stroke-width:0.297871"
           d="m -1296.4564,1389.1713 c 2.2465,-1.0804 3.8893,-2.3264 3.6697,-2.7827 v 0 c -0.2195,-0.4566 -2.2182,0.049 -4.4647,1.1298 v 0 c -2.2466,1.0804 -3.8896,2.3267 -3.6698,2.783 v 0 c 0.055,0.1141 0.2204,0.168 0.4733,0.168 v 0 c 0.7596,0 2.3058,-0.4873 3.9915,-1.2981" />
        <path
           id="path1215"
           style="fill:url(#linearGradient3790);fill-opacity:1;stroke:none;stroke-width:0.297871"
           d="m -1306.2079,1390.1174 c 2.2462,-1.0804 3.889,-2.3264 3.6694,-2.7827 v 0 c -0.2195,-0.4563 -2.2182,0.049 -4.4644,1.1301 v 0 c -2.2466,1.0804 -3.8896,2.3264 -3.6698,2.783 v 0 c 0.054,0.1138 0.2201,0.1677 0.473,0.1677 v 0 c 0.7599,0 2.3061,-0.4873 3.9918,-1.2981" />
        <path
           id="path1237"
           style="fill:url(#linearGradient3774);fill-opacity:1;stroke:none;stroke-width:0.297871"
           d="m -1292.4797,1381.6761 c 2.2463,-1.0803 3.889,-2.3266 3.6695,-2.7827 v 0 c -0.2195,-0.4566 -2.2183,0.049 -4.4648,1.1299 v 0 c -2.2462,1.0803 -3.8893,2.3263 -3.6695,2.783 v 0 c 0.055,0.1141 0.2201,0.168 0.4731,0.168 v 0 c 0.7595,-3e-4 2.3061,-0.4873 3.9917,-1.2982" />
      </g>
      <g
         id="g3301"
         transform="translate(1279.6816,-1197.6344)"
         style="mix-blend-mode:normal">
        <path
           id="path1261"
           style="fill:#1781f1;fill-opacity:1;stroke:#000000;stroke-width:3;stroke-miterlimit:4;stroke-dasharray:none;stroke-opacity:1"
           d="m -1177.5586,1374.1841 c 0,0 -8.3321,19.2623 -11.4705,27.2697 v 0 c -3.1382,8.0074 0.9738,15.15 0.9738,15.15 v 0 c 0,0 3.2465,4.6531 7.7916,9.7393 v 0 c 4.5447,5.086 12.4445,7.5746 12.4445,7.5746 v 0 l 26.0793,6.601 c 10.0639,2.5971 13.3101,-6.601 13.3101,-6.601 v 0 c 0,0 7.5749,-18.5044 9.5226,-25.4299 v 0 c 1.9479,-6.9254 1.9479,-13.4187 -3.2462,-23.3737 v 0 c -5.1943,-9.9556 -14.9335,-12.1199 -14.9335,-12.1199 v 0 l -27.5944,-5.4108 c -0.5551,-0.071 -1.093,-0.1045 -1.6135,-0.1045 v 0 c -7.3912,3e-4 -11.2638,6.7052 -11.2638,6.7052" />
        <path
           id="path1279"
           style="opacity:1;fill:#58a4f5;fill-opacity:1;fill-rule:nonzero;stroke:none;stroke-width:0.261014"
           d="m -1164.0318,1369.2066 26.1875,5.1941 c 0,0 8.0079,1.7314 5.0861,10.172 -2.9217,8.4406 -10.2803,26.8367 -10.2803,26.8367 0,0 -3.5711,8.4404 -12.3362,6.3844 -8.7654,-2.0561 -28.1355,-6.6008 -28.1355,-6.6008 0,0 -6.7091,-2.4891 -4.0037,-9.4145 2.7051,-6.9255 10.9294,-25.9712 10.9294,-25.9712 0,0 3.2462,-7.5746 12.5527,-6.6007" />
        <path
           id="path1325"
           style="mix-blend-mode:multiply;fill:#ffcbcb;fill-opacity:1;stroke:none;stroke-width:0.261014"
           d="m -1130.5942,1385.0105 -5.1132,13.6569 c 0,0 -3.2463,7.7101 -5.681,14.4467 v 0 c -2.4347,6.7362 1.3797,15.9881 5.681,20.939 v 0 c 4.3016,4.9507 6.5741,-0.3247 6.5741,-0.3247 v 0 l 7.6293,-20.6958 c 0,0 2.029,-4.7883 3.0027,-10.3883 v 0 c 0.9738,-5.6001 -1.3334,-12.4668 -5.4375,-18.342 v 0 c -1.2667,-1.813 -2.3849,-2.4396 -3.3261,-2.4394 v 0 c -2.1092,6e-4 -3.3293,3.1476 -3.3293,3.1476" />
        <path
           id="path1345"
           style="opacity:1;mix-blend-mode:multiply;fill:#ffcbcb;fill-opacity:1;stroke:none;stroke-width:0.261014"
           d="m -1186.3237,1416.8199 c 0,0 2.1643,3.2466 6.8662,8.6574 v 0 c 4.7021,5.4105 11.8548,7.7912 11.8548,7.7912 v 0 c 0,0 24.2395,6.2763 27.208,6.8172 v 0 c 2.9683,0.5413 4.1736,-2.4891 -0.5878,-9.7389 v 0 c -4.7614,-7.2503 -14.6089,-10.172 -14.6089,-10.172 v 0 l -13.4245,-3.3549 c 0,0 -8.0016,-2.164 -13.7369,-3.1379 v 0 c -0.6074,-0.103 -1.126,-0.149 -1.5681,-0.149 v 0 c -3.7329,0 -2.0028,3.2869 -2.0028,3.2869" />
        <path
           id="path1039-5-8"
           style="mix-blend-mode:normal;fill:url(#linearGradient3555-8-1);fill-opacity:1;stroke:none;stroke-width:0.451631"
           d="m -1166.8344,1391.761 c -0.9972,3.189 0.8419,6.6005 4.1084,7.622 v 0 c 3.2655,1.0212 6.7212,-0.7347 7.7184,-3.9236 v 0 c 0.9968,-3.1877 -0.8426,-6.6004 -4.1082,-7.6216 v 0 c -3.2664,-1.0214 -6.7218,0.7356 -7.7186,3.9232" />
        <path
           d="m -1169.7559,1425.48 c 0.6226,-0.9138 -0.4739,-2.7463 -2.449,-4.0936 v 0 c -1.9759,-1.348 -4.0825,-1.6999 -4.7053,-0.7865 v 0 c -0.6228,0.9137 0.4734,2.7466 2.4492,4.094 v 0 c 1.6424,1.1203 3.3754,1.5526 4.2714,1.1415 v 0 c 0.181,-0.085 0.3288,-0.201 0.4337,-0.3554"
           style="mix-blend-mode:normal;fill:url(#linearGradient3750-0);fill-opacity:1;stroke:none;stroke-width:0.297871"
           id="path995-5" />
        <path
           id="path995-5-2"
           style="mix-blend-mode:normal;fill:url(#linearGradient3750-0-6);fill-opacity:1;stroke:none;stroke-width:0.297871"
           d="m -1150.828,1433.8407 c 0.6226,-0.9138 -0.4739,-2.7463 -2.449,-4.0936 v 0 c -1.9759,-1.348 -4.0825,-1.6999 -4.7053,-0.7865 v 0 c -0.6228,0.9137 0.4734,2.7466 2.4492,4.094 v 0 c 1.6424,1.1203 3.3754,1.5526 4.2714,1.1415 v 0 c 0.181,-0.085 0.3288,-0.201 0.4337,-0.3554" />
        <path
           d="m -1129.8362,1393.9573 c 0.1119,2.4678 1.4943,4.3876 3.0884,4.2891 v 0 c 1.5937,-0.099 2.7952,-2.1781 2.6832,-4.646 v 0 c -0.1117,-2.4669 -1.4944,-4.3876 -3.0882,-4.289 v 0 c -1.594,0.099 -2.7951,2.1789 -2.6834,4.6459"
           style="mix-blend-mode:normal;fill:url(#linearGradient3555-1);fill-opacity:1;stroke:none;stroke-width:0.265276"
           id="path1039-3" />
        <path
           inkscape:transform-center-y="8.3556382"
           inkscape:transform-center-x="4.7919003"
           id="path1039-3-9"
           style="mix-blend-mode:normal;fill:url(#linearGradient3555-1-4);fill-opacity:1;stroke:none;stroke-width:0.265277"
           d="m -1135.4385,1424.6796 c 0.1119,2.4678 1.4945,4.3877 3.0884,4.2892 v 0 c 1.5938,-0.098 2.7952,-2.1781 2.6833,-4.6461 v 0 c -0.1118,-2.4669 -1.4945,-4.3874 -3.0883,-4.2889 v 0 c -1.5939,0.099 -2.7951,2.1788 -2.6834,4.6458" />
        <path
           id="path1039-3-2"
           style="mix-blend-mode:normal;fill:url(#linearGradient3555-1-5);fill-opacity:1;stroke:none;stroke-width:0.265277"
           d="m -1132.6373,1409.3183 c 0.1119,2.468 1.4944,4.3877 3.0885,4.2893 v 0 c 1.5936,-0.099 2.795,-2.1781 2.6831,-4.6461 v 0 c -0.1117,-2.467 -1.4945,-4.3875 -3.0882,-4.289 v 0 c -1.594,0.099 -2.7953,2.1788 -2.6834,4.6458" />
      </g>
    </g>
  </g>
</svg>
