<?xml version="1.0" encoding="UTF-8" standalone="no"?>
<svg
   xmlns:dc="http://purl.org/dc/elements/1.1/"
   xmlns:cc="http://creativecommons.org/ns#"
   xmlns:rdf="http://www.w3.org/1999/02/22-rdf-syntax-ns#"
   xmlns:svg="http://www.w3.org/2000/svg"
   xmlns="http://www.w3.org/2000/svg"
   xmlns:sodipodi="http://sodipodi.sourceforge.net/DTD/sodipodi-0.dtd"
   xmlns:inkscape="http://www.inkscape.org/namespaces/inkscape"
   sodipodi:docname="gear.svg"
   inkscape:version="1.0 (4035a4fb49, 2020-05-01)"
   id="svg3147"
   version="1.1"
   viewBox="0 0 150 150"
   height="150mm"
   width="150mm">
  <defs
     id="defs3141">
    <pattern
       id="carreau-pt"
       patternTransform="translate(-2054.333,1959.2791)"
       height="7.6109896"
       width="8.7129582"
       patternUnits="userSpaceOnUse">
      <rect
         y="6.2746067e-06"
         x="-2.2737368e-13"
         height="7.6109834"
         width="8.7129364"
         id="rect119919"
         style="fill:#800000;fill-opacity:1;stroke:none;stroke-width:1.08628;stroke-linecap:round;stroke-linejoin:round;stroke-miterlimit:4;stroke-dasharray:none;stop-color:#000000" />
      <path
         id="path119921"
         d="M 3.0751503,7.6109858 V 0"
         style="fill:#800000;stroke:#c11a1a;stroke-width:1.81047;stroke-linecap:butt;stroke-linejoin:miter;stroke-miterlimit:4;stroke-dasharray:none;stroke-opacity:1" />
      <path
         id="path119923"
         d="M 1.3287401e-5,4.7904378 H 8.7129582"
         style="fill:#c11a1a;fill-opacity:1;stroke:#c11a1a;stroke-width:1.81047;stroke-linecap:butt;stroke-linejoin:miter;stroke-miterlimit:4;stroke-dasharray:none;stroke-opacity:1" />
    </pattern>
    <pattern
       id="pattern115842"
       patternTransform="translate(-1862,1831.9999)"
       height="85.000002"
       width="85.000037"
       patternUnits="userSpaceOnUse">
      <rect
         y="0"
         x="3.4178149e-05"
         height="85"
         width="85"
         id="rect104700"
         style="fill:#800000;fill-opacity:1;stroke:none;stroke-width:11.3386;stroke-linecap:round;stroke-linejoin:round;stroke-miterlimit:4;stroke-dasharray:none;stop-color:#000000" />
      <path
         id="path104779"
         d="M 30,84.999998 V 1.0187008e-5"
         style="fill:#800000;stroke:#c11a1a;stroke-width:18.8976;stroke-linecap:butt;stroke-linejoin:miter;stroke-miterlimit:4;stroke-dasharray:none;stroke-opacity:1" />
      <path
         id="path107256"
         d="M 0,53.500092 H 85.000025"
         style="fill:#c11a1a;fill-opacity:1;stroke:#c11a1a;stroke-width:18.8976;stroke-linecap:butt;stroke-linejoin:miter;stroke-miterlimit:4;stroke-dasharray:none;stroke-opacity:1" />
    </pattern>
  </defs>
  <sodipodi:namedview
     inkscape:window-maximized="1"
     inkscape:window-y="-8"
     inkscape:window-x="-8"
     inkscape:window-height="1017"
     inkscape:window-width="1920"
     showgrid="false"
     inkscape:document-rotation="0"
     inkscape:current-layer="layer1"
     inkscape:document-units="mm"
     inkscape:cy="529.77597"
     inkscape:cx="143.41376"
     inkscape:zoom="0.7"
     inkscape:pageshadow="2"
     inkscape:pageopacity="0.0"
     borderopacity="1.0"
     bordercolor="#666666"
     pagecolor="#ffffff"
     id="base" />
  <metadata
     id="metadata3144">
    <rdf:RDF>
      <cc:Work
         rdf:about="">
        <dc:format>image/svg+xml</dc:format>
        <dc:type
           rdf:resource="http://purl.org/dc/dcmitype/StillImage" />
        <dc:title></dc:title>
      </cc:Work>
    </rdf:RDF>
  </metadata>
  <g
     id="layer1"
     inkscape:groupmode="layer"
     inkscape:label="Calque 1">
    <path
       d="m 73.169611,40.19385 c -3.15777,0 -5.699892,0.932 -5.699892,2.0898 v 5.0535 a 28.689599,28.689599 0 0 0 -6.397549,2.5967 l -3.61476,-3.6148 c -0.81867,-0.8187 -3.27533,0.3199 -5.5082,2.5529 l -3.12177,3.1217 c -2.23287,2.2328 -3.371,4.6895 -2.5523,5.5082 l 3.6282,3.6282 a 28.689599,28.689599 0 0 0 -2.47737,6.0069 h -5.14181 c -1.15781,0 -2.09031,2.542299 -2.09031,5.6999 v 4.4147 c 0,3.157799 0.9325,5.6999 2.09031,5.6999 h 5.1656 a 28.689599,28.689599 0 0 0 2.48406,5.976901 l -3.65868,3.6587 c -0.8187,0.818701 0.31946,3.275499 2.5523,5.508199 l 3.12177,3.1218 c 2.23287,2.2329 4.68953,3.3715 5.5082,2.5528 l 3.67263,-3.6727 a 28.689599,28.689599 0 0 0 6.339679,2.5658 v 5.0534 c 0,1.1578 2.542122,2.0898 5.699892,2.0898 h 4.414729 c 3.157749,0 5.699922,-0.932 5.699922,-2.0898 v -5.2555 a 28.689599,28.689599 0 0 0 5.585698,-2.3637 l 3.672631,3.6727 c 0.8187,0.8187 3.27533,-0.3199 5.508198,-2.5528 l 3.121771,-3.121801 c 2.23287,-2.232699 3.37097,-4.689498 2.5523,-5.508199 l -3.65869,-3.6587 a 28.689599,28.689599 0 0 0 2.4841,-5.976901 h 5.16556 c 1.15779,0 2.09032,-2.542101 2.09032,-5.6999 v -4.4147 c 0,-3.157601 -0.93253,-5.6999 -2.09032,-5.6999 H 102.589 a 28.689599,28.689599 0 0 0 -2.48303,-6.016199 l 3.61889,-3.6189 c 0.8187,-0.8186 -0.31943,-3.2758 -2.5523,-5.5087 l -3.121771,-3.1212 c -2.232868,-2.233 -4.689498,-3.3716 -5.508198,-2.5529 l -3.60598,3.606 a 28.689599,28.689599 0 0 0 -5.652881,-2.3905 v -5.2509 c 0,-1.1578 -2.54217,-2.0898 -5.699919,-2.0898 z m 1.83039,19.3621 A 15.488327,15.488327 0 0 1 90.488472,75.044451 15.488327,15.488327 0 0 1 75.000001,90.532951 15.488327,15.488327 0 0 1 59.51206,75.044451 15.488327,15.488327 0 0 1 75.000001,59.55595 Z"
       style="mix-blend-mode:normal;fill:#3486de;fill-opacity:1;stroke:#000000;stroke-width:3;stroke-linecap:round;stroke-linejoin:round;stroke-miterlimit:4;stroke-dasharray:none;stroke-opacity:1;stop-color:#000000"
       id="path230348-5" />
  </g>
</svg>
