<?xml version="1.0" encoding="UTF-8" standalone="no"?>
<svg
   sodipodi:docname="slim.svg"
   inkscape:version="1.2.2 (732a01da63, 2022-12-09)"
   id="svg8"
   version="1.1"
   viewBox="0 0 150 150"
   height="150mm"
   width="150mm"
   xml:space="preserve"
   xmlns:inkscape="http://www.inkscape.org/namespaces/inkscape"
   xmlns:sodipodi="http://sodipodi.sourceforge.net/DTD/sodipodi-0.dtd"
   xmlns:xlink="http://www.w3.org/1999/xlink"
   xmlns="http://www.w3.org/2000/svg"
   xmlns:svg="http://www.w3.org/2000/svg"
   xmlns:rdf="http://www.w3.org/1999/02/22-rdf-syntax-ns#"
   xmlns:cc="http://creativecommons.org/ns#"
   xmlns:dc="http://purl.org/dc/elements/1.1/"><defs
     id="defs2"><linearGradient
       id="linearGradient853"
       inkscape:collect="always"><stop
         id="stop849"
         offset="0"
         style="stop-color:#ffbd86;stop-opacity:1;" /><stop
         style="stop-color:#ffbd86;stop-opacity:1"
         offset="0.70677221"
         id="stop859" /><stop
         style="stop-color:#f6a96c;stop-opacity:1"
         offset="0.70677215"
         id="stop857" /><stop
         id="stop851"
         offset="1"
         style="stop-color:#f6a96c;stop-opacity:1" /></linearGradient><radialGradient
       gradientUnits="userSpaceOnUse"
       gradientTransform="matrix(0.95943271,-0.69755747,0.9519883,1.3093812,-161.76233,-337.25135)"
       r="40.71497"
       fy="151.01155"
       fx="-429.75894"
       cy="151.01155"
       cx="-429.75894"
       id="radialGradient917"
       xlink:href="#linearGradient853"
       inkscape:collect="always" /></defs><sodipodi:namedview
     inkscape:window-maximized="1"
     inkscape:window-y="-8"
     inkscape:window-x="-8"
     inkscape:window-height="1017"
     inkscape:window-width="1920"
     fit-margin-bottom="0"
     fit-margin-right="0"
     fit-margin-left="0"
     fit-margin-top="0"
     showgrid="false"
     inkscape:document-rotation="0"
     inkscape:current-layer="layer1"
     inkscape:document-units="mm"
     inkscape:cy="277.46345"
     inkscape:cx="319.82429"
     inkscape:zoom="0.70820138"
     inkscape:pageshadow="2"
     inkscape:pageopacity="0.0"
     borderopacity="1.0"
     bordercolor="#666666"
     pagecolor="#ffffff"
     id="base"
     inkscape:showpageshadow="2"
     inkscape:pagecheckerboard="0"
     inkscape:deskcolor="#d1d1d1" /><metadata
     id="metadata5"><rdf:RDF><cc:Work
         rdf:about=""><dc:format>image/svg+xml</dc:format><dc:type
           rdf:resource="http://purl.org/dc/dcmitype/StillImage" /><dc:title /></cc:Work></rdf:RDF></metadata><g
     transform="translate(-49.692425,-37.132853)"
     id="layer1"
     inkscape:groupmode="layer"
     inkscape:label="Calque 1"><path
       id="path440"
       style="fill:#34caed;stroke:none;stroke-width:1;stroke-dasharray:none;stroke-opacity:1;fill-opacity:1"
       d="m 127.59203,87.435371 c -6.08021,0.0265 -12.19712,1.01708 -17.99632,2.87476 -5.11851,1.63964 -7.24422,5.59534 -14.32109,4.26589 -4.689035,-0.88087 -9.705756,0.41227 -14.138672,2.3182 -4.82341,2.07382 -3.626771,6.037599 0.921907,7.926649 4.828491,2.00526 10.155048,2.03312 15.284336,2.5368 1.04022,0.10215 4.414459,0.81116 2.61121,1.78283 -4.31254,2.32377 -9.579402,1.29078 -14.168125,2.91145 -7.479025,2.64151 3.85191,5.40458 7.045048,5.54592 1.623702,0.0719 4.316887,1.29609 3.644737,3.39462 -1.290721,4.02979 -5.827126,7.80409 -0.46509,11.85148 6.964869,5.25722 18.221819,4.30747 27.238129,2.80396 5.76301,-0.96101 8.6901,-4.04381 5.71749,-9.9782 -2.43611,-4.86333 6.64697,-3.7187 9.51828,-3.36 4.81686,0.60174 12.00139,2.54159 12.48606,-4.49947 0.34342,-4.98892 5.24007,-4.94854 9.38909,-4.23385 3.4415,0.59283 6.99238,0.81914 10.39626,-0.0486 5.13189,-1.30823 13.59633,-6.90845 7.14272,-12.07213 -6.72392,-5.379959 -17.96803,-3.105609 -26.53275,-0.66404 -4.71158,1.34315 -9.60104,1.77725 -14.52159,1.07073 -1.43816,-0.20649 -3.73604,-1.37677 -1.65158,-2.659259 3.14698,-1.93624 12.90234,-1.27017 13.19196,-5.81567 0.27767,-4.35796 -13.25236,-5.58108 -16.59279,-5.81515 -1.39485,-0.0977 -2.7961,-0.14306 -4.19922,-0.13694 z m 60.67536,18.946129 c -1.29218,0.006 -2.83698,0.785 -2.07532,2.09134 0.35145,0.27632 0.82227,0.13821 1.23041,0.21291 1.26067,0.2308 3.86388,-1.29118 1.7415,-2.15387 -0.25411,-0.10329 -0.56721,-0.15179 -0.89659,-0.15038 z m -124.983066,2.88716 c -0.648446,0.001 -1.172264,0.21336 -0.606681,0.78032 0.295364,0.29608 0.83499,0.23098 1.238167,0.11317 1.530483,-0.44722 0.316243,-0.89528 -0.631486,-0.89349 z m 12.972852,0.40411 c -0.02213,5.6e-4 -0.04404,0.002 -0.06615,0.003 -1.099858,0.0727 -4.482117,0.0485 -3.20859,1.51515 0.920389,1.05997 2.670524,0.40465 4.000273,0.31885 2.085262,-0.13464 0.66852,-1.87204 -0.725537,-1.8371 z m -16.319417,2.46135 c -0.386073,0.002 -0.681045,0.14069 -0.427365,0.54519 0.136193,0.21717 0.5105,0.0684 0.764812,0.0393 1.328081,-0.15189 0.350769,-0.58722 -0.337447,-0.58446 z m 3.056144,4.70617 c -1.001524,-0.004 -1.987142,0.5679 -1.449524,1.5844 0.577926,1.09272 3.66419,0.93252 3.045292,-0.72657 -0.217556,-0.5832 -0.910515,-0.85532 -1.595768,-0.85783 z m 111.126547,1.89084 c -1.4652,0.0101 -3.86889,0.41279 -2.23449,1.59215 1.03332,0.74563 2.47363,0.33835 3.72019,0.33435 2.08488,-0.006 0.40949,-1.73841 -0.79995,-1.89446 -0.17537,-0.0226 -0.41441,-0.0339 -0.68575,-0.032 z m -93.252703,1.7384 c -1.356881,-5e-5 -2.720092,0.12675 -4.040063,0.27233 -3.034483,0.33468 -6.271638,1.09057 -8.541081,3.32693 -1.506609,1.48464 0.718285,3.6034 3.121773,3.5295 4.258206,-0.13085 9.653841,-1.56692 14.525212,-2.34301 1.522945,-0.24263 2.451545,-2.77754 0.69143,-3.63543 -1.803988,-0.87928 -3.774138,-1.15026 -5.757271,-1.15032 z m 79.100083,2.31975 c -1.24584,0.004 -2.6957,0.67012 -2.03915,1.95699 0.39275,0.25964 0.89379,0.1523 1.32911,0.26252 1.33507,0.33817 3.81916,-1.22486 1.6583,-2.06654 -0.26613,-0.10367 -0.59943,-0.15408 -0.94826,-0.15297 z" /></g></svg>
