<?xml version="1.0" encoding="UTF-8" standalone="no"?>
<svg
   xmlns:dc="http://purl.org/dc/elements/1.1/"
   xmlns:cc="http://creativecommons.org/ns#"
   xmlns:rdf="http://www.w3.org/1999/02/22-rdf-syntax-ns#"
   xmlns:svg="http://www.w3.org/2000/svg"
   xmlns="http://www.w3.org/2000/svg"
   xmlns:xlink="http://www.w3.org/1999/xlink"
   xmlns:sodipodi="http://sodipodi.sourceforge.net/DTD/sodipodi-0.dtd"
   xmlns:inkscape="http://www.inkscape.org/namespaces/inkscape"
   width="150mm"
   height="150mm"
   viewBox="0 0 150 150"
   version="1.1"
   id="svg8"
   inkscape:version="1.0 (4035a4fb49, 2020-05-01)"
   sodipodi:docname="halloween-2.svg">
  <defs
     id="defs2">
    <linearGradient
       inkscape:collect="always"
       id="linearGradient853">
      <stop
         style="stop-color:#ffbd86;stop-opacity:1;"
         offset="0"
         id="stop849" />
      <stop
         id="stop859"
         offset="0.70677221"
         style="stop-color:#ffbd86;stop-opacity:1" />
      <stop
         id="stop857"
         offset="0.70677215"
         style="stop-color:#f6a96c;stop-opacity:1" />
      <stop
         style="stop-color:#f6a96c;stop-opacity:1"
         offset="1"
         id="stop851" />
    </linearGradient>
    <radialGradient
       inkscape:collect="always"
       xlink:href="#linearGradient853"
       id="radialGradient917"
       cx="-429.75894"
       cy="151.01155"
       fx="-429.75894"
       fy="151.01155"
       r="40.71497"
       gradientTransform="matrix(0.95943271,-0.69755747,0.9519883,1.3093812,-161.76233,-337.25135)"
       gradientUnits="userSpaceOnUse" />
  </defs>
  <sodipodi:namedview
     id="base"
     pagecolor="#ffffff"
     bordercolor="#666666"
     borderopacity="1.0"
     inkscape:pageopacity="0.0"
     inkscape:pageshadow="2"
     inkscape:zoom="0.7082014"
     inkscape:cx="-144.47608"
     inkscape:cy="301.20446"
     inkscape:document-units="mm"
     inkscape:current-layer="layer1"
     inkscape:document-rotation="0"
     showgrid="false"
     fit-margin-top="0"
     fit-margin-left="0"
     fit-margin-right="0"
     fit-margin-bottom="0"
     inkscape:window-width="1920"
     inkscape:window-height="1017"
     inkscape:window-x="-8"
     inkscape:window-y="-8"
     inkscape:window-maximized="1" />
  <metadata
     id="metadata5">
    <rdf:RDF>
      <cc:Work
         rdf:about="">
        <dc:format>image/svg+xml</dc:format>
        <dc:type
           rdf:resource="http://purl.org/dc/dcmitype/StillImage" />
        <dc:title />
      </cc:Work>
    </rdf:RDF>
  </metadata>
  <g
     inkscape:label="Calque 1"
     inkscape:groupmode="layer"
     id="layer1"
     transform="translate(-49.692425,-37.132853)">
    <path
       sodipodi:nodetypes="ccccccccccccccccccccccccccccc"
       id="path953"
       d="m 122.74893,127.80469 c -3.71916,3.40692 -7.56272,7.49961 -10.31641,11.0957 -0.38508,-2.93838 -0.69651,-5.7715 -1.05469,-8.87109 -5.23985,3.59367 -10.3258,8.18089 -13.785151,12.86718 -0.0148,-0.41302 -0.107502,-0.63138 -0.06055,-1.1914 l 0.746094,-8.89453 c -6.784737,5.81237 -13.186596,12.28636 -16.215693,19.20016 -0.02388,4.55564 1.125292,8.52497 2.499086,10.62879 0.04002,-2.93406 2.620048,-10.81793 7.700982,-13.92075 1.679045,2.37719 3.483115,3.6996 5.958984,4.71484 2.856878,-3.21693 5.456148,-7.15134 7.869138,-9.88867 0.81618,3.66107 2.20761,7.33838 4.05274,9.87891 3.00103,-3.31096 5.8349,-7.60859 8.38867,-10.9043 1.32623,2.87716 3.06412,5.67418 4.90625,7.33985 2.98186,-3.09681 6.13468,-6.5894 8.51172,-9.53321 2.81061,4.35089 4.14588,8.13257 5.90234,12.9043 3.03162,-2.50931 6.30971,-5.36359 8.25586,-8.46289 2.96186,4.76814 4.257,8.89091 6.20508,14.16797 2.64338,-3.35243 5.69434,-7.19945 6.78516,-10.90039 3.71503,4.3828 4.69268,9.50721 7.32812,15.45898 1.31714,-1.80818 1.24907,-8.0445 -0.65187,-14.51753 -3.68564,-9.89273 -9.08119,-12.04919 -14.67794,-15.27292 0.91379,2.49451 1.46719,5.81619 1.64227,8.40178 -2.54671,-4.23133 -5.39972,-6.59186 -9.03906,-9.83594 -1.11213,2.81954 -1.94594,6.26182 -3.34961,8.65039 -2.49699,-5.06087 -5.02401,-8.16106 -8.49805,-12.35742 -2.27889,3.50023 -5.0576,7.17164 -7.49414,9.95898 -1.05594,-3.47074 -1.18421,-6.96961 -1.60937,-10.71679 z"
       style="color:#000000;font-style:normal;font-variant:normal;font-weight:normal;font-stretch:normal;font-size:medium;line-height:normal;font-family:sans-serif;font-variant-ligatures:normal;font-variant-position:normal;font-variant-caps:normal;font-variant-numeric:normal;font-variant-alternates:normal;font-variant-east-asian:normal;font-feature-settings:normal;font-variation-settings:normal;text-indent:0;text-align:start;text-decoration:none;text-decoration-line:none;text-decoration-style:solid;text-decoration-color:#000000;letter-spacing:normal;word-spacing:normal;text-transform:none;writing-mode:lr-tb;direction:ltr;text-orientation:mixed;dominant-baseline:auto;baseline-shift:baseline;text-anchor:start;white-space:normal;shape-padding:0;shape-margin:0;inline-size:0;clip-rule:nonzero;display:inline;overflow:visible;visibility:visible;opacity:1;isolation:auto;mix-blend-mode:normal;color-interpolation:sRGB;color-interpolation-filters:linearRGB;solid-color:#000000;solid-opacity:1;vector-effect:none;fill:#000000;fill-opacity:1;fill-rule:evenodd;stroke:none;stroke-width:7;stroke-linecap:butt;stroke-linejoin:miter;stroke-miterlimit:4;stroke-dasharray:none;stroke-dashoffset:0;stroke-opacity:1;color-rendering:auto;image-rendering:auto;shape-rendering:auto;text-rendering:auto;enable-background:accumulate;stop-color:#000000;stop-opacity:1" />
  </g>
</svg>
