<?xml version="1.0" encoding="UTF-8" standalone="no"?>
<svg
   xmlns:dc="http://purl.org/dc/elements/1.1/"
   xmlns:cc="http://creativecommons.org/ns#"
   xmlns:rdf="http://www.w3.org/1999/02/22-rdf-syntax-ns#"
   xmlns:svg="http://www.w3.org/2000/svg"
   xmlns="http://www.w3.org/2000/svg"
   xmlns:xlink="http://www.w3.org/1999/xlink"
   xmlns:sodipodi="http://sodipodi.sourceforge.net/DTD/sodipodi-0.dtd"
   xmlns:inkscape="http://www.inkscape.org/namespaces/inkscape"
   width="150mm"
   height="150mm"
   viewBox="0 0 150 150"
   version="1.1"
   id="svg8"
   inkscape:version="1.0 (4035a4fb49, 2020-05-01)"
   sodipodi:docname="monster-teeth.svg">
  <defs
     id="defs2">
    <linearGradient
       inkscape:collect="always"
       id="linearGradient853">
      <stop
         style="stop-color:#ffbd86;stop-opacity:1;"
         offset="0"
         id="stop849" />
      <stop
         id="stop859"
         offset="0.70677221"
         style="stop-color:#ffbd86;stop-opacity:1" />
      <stop
         id="stop857"
         offset="0.70677215"
         style="stop-color:#f6a96c;stop-opacity:1" />
      <stop
         style="stop-color:#f6a96c;stop-opacity:1"
         offset="1"
         id="stop851" />
    </linearGradient>
    <radialGradient
       inkscape:collect="always"
       xlink:href="#linearGradient853"
       id="radialGradient917"
       cx="-429.75894"
       cy="151.01155"
       fx="-429.75894"
       fy="151.01155"
       r="40.71497"
       gradientTransform="matrix(0.95943271,-0.69755747,0.9519883,1.3093812,-161.76233,-337.25135)"
       gradientUnits="userSpaceOnUse" />
  </defs>
  <sodipodi:namedview
     inkscape:object-paths="true"
     inkscape:snap-smooth-nodes="true"
     id="base"
     pagecolor="#ffffff"
     bordercolor="#666666"
     borderopacity="1.0"
     inkscape:pageopacity="0.0"
     inkscape:pageshadow="2"
     inkscape:zoom="0.70820138"
     inkscape:cx="65.291755"
     inkscape:cy="464.78046"
     inkscape:document-units="mm"
     inkscape:current-layer="g942"
     inkscape:document-rotation="0"
     showgrid="false"
     fit-margin-top="0"
     fit-margin-left="0"
     fit-margin-right="0"
     fit-margin-bottom="0"
     inkscape:window-width="1920"
     inkscape:window-height="1017"
     inkscape:window-x="-8"
     inkscape:window-y="-8"
     inkscape:window-maximized="1" />
  <metadata
     id="metadata5">
    <rdf:RDF>
      <cc:Work
         rdf:about="">
        <dc:format>image/svg+xml</dc:format>
        <dc:type
           rdf:resource="http://purl.org/dc/dcmitype/StillImage" />
        <dc:title></dc:title>
      </cc:Work>
    </rdf:RDF>
  </metadata>
  <g
     inkscape:label="Calque 1"
     inkscape:groupmode="layer"
     id="layer1"
     transform="translate(-49.692425,-37.132853)">
    <g
       id="g919"
       transform="translate(-5.7018555,1.0583333)" />
    <g
       id="g942"
       transform="translate(-2.6493967,-2.3775695)">
      <path
         sodipodi:nodetypes="scsccscs"
         d="m 125.45157,146.61142 c -15.58774,0.0147 -30.545394,-6.70384 -30.546455,-5.38262 -3e-6,4.42967 0.894064,8.64927 2.501656,12.49588 2.602329,6.22681 7.103939,11.44304 12.764079,14.9872 h 34.34209 c 5.66013,-3.54416 10.16175,-8.76039 12.76408,-14.9872 1.60759,-3.84661 2.50165,-8.06621 2.50165,-12.49588 -2.52153,-1.37994 -18.73936,5.36794 -34.3271,5.38262 z"
         style="color:#000000;overflow:visible;fill:#000000;stroke:#000000;stroke-width:3.5283;stroke-linecap:round;stroke-linejoin:round;stroke-miterlimit:4;stroke-dasharray:none;stop-color:#000000"
         id="path1004" />
      <path
         id="path986"
         style="color:#000000;overflow:visible;fill:#d40000;stroke:#000000;stroke-width:3.5283;stroke-linecap:round;stroke-linejoin:round;stroke-miterlimit:4;stroke-dasharray:none;stop-color:#000000"
         d="m 144.51287,168.71188 c 0,0 -5.09103,-7.47826 -17.17105,-7.40833 -12.08002,0.0699 -17.17104,7.40833 -17.17104,7.40833 4.98396,3.12078 10.85702,4.95371 17.17104,4.95371 6.31402,0 12.18709,-1.83293 17.17105,-4.95371 z"
         sodipodi:nodetypes="czcsc" />
      <path
         sodipodi:nodetypes="cccc"
         id="path849"
         d="m 107.49556,144.23099 1.44651,14.92451 5.41422,-13.52227 z"
         style="fill:#ffffff;fill-rule:evenodd;stroke:#000000;stroke-width:0.265;stroke-linecap:butt;stroke-linejoin:miter;stroke-miterlimit:4;stroke-dasharray:none;stroke-opacity:1" />
      <path
         style="fill:#ffffff;fill-rule:evenodd;stroke:#000000;stroke-width:0.265;stroke-linecap:butt;stroke-linejoin:miter;stroke-miterlimit:4;stroke-dasharray:none;stroke-opacity:1"
         d="m 145.58548,143.87771 -1.35311,13.75701 -5.50762,-12.35477 z"
         id="path849-4"
         sodipodi:nodetypes="cccc" />
      <path
         style="fill:#ffffff;fill-rule:evenodd;stroke:#000000;stroke-width:0.264999;stroke-linecap:butt;stroke-linejoin:miter;stroke-miterlimit:4;stroke-dasharray:none;stroke-opacity:1"
         d="m 140.82916,170.70476 -1.44889,-13.10321 7.37097,9.57685 z"
         id="path849-2"
         sodipodi:nodetypes="cccc" />
      <path
         sodipodi:nodetypes="cccc"
         id="path849-2-4"
         d="m 114.59391,171.03459 0.14129,-13.33671 -6.06336,9.81035 z"
         style="fill:#ffffff;fill-rule:evenodd;stroke:#000000;stroke-width:0.264999;stroke-linecap:butt;stroke-linejoin:miter;stroke-miterlimit:4;stroke-dasharray:none;stroke-opacity:1" />
      <path
         d="m 158.71983,141.04277 c -4.49833,0.0122 -19.14187,5.55534 -33.26826,5.56865 -15.58774,0.0147 -30.54539,-6.70384 -30.546451,-5.38262 -5e-6,4.42967 0.894065,8.64927 2.501654,12.49588 2.602277,6.22667 7.103597,11.44304 12.763567,14.9872 1.2e-4,8e-5 3.9e-4,-8e-5 5.1e-4,0 4.98388,3.12063 10.85667,4.9537 17.17053,4.9537 6.31402,0 12.18709,-1.83292 17.17104,-4.9537 h 5.2e-4 c 5.66013,-3.54416 10.16175,-8.76039 12.76408,-14.9872 1.60759,-3.84661 2.50166,-8.06621 2.50166,-12.49588 -0.2364,-0.12937 -0.59351,-0.18729 -1.05885,-0.18603 z"
         style="color:#000000;overflow:visible;fill:none;stroke:#000000;stroke-width:3.5283;stroke-linecap:round;stroke-linejoin:round;stroke-miterlimit:4;stroke-dasharray:none;stop-color:#000000"
         id="path1004-9" />
    </g>
  </g>
</svg>
