<?xml version="1.0" encoding="UTF-8" standalone="no"?>
<svg
   xmlns:dc="http://purl.org/dc/elements/1.1/"
   xmlns:cc="http://creativecommons.org/ns#"
   xmlns:rdf="http://www.w3.org/1999/02/22-rdf-syntax-ns#"
   xmlns:svg="http://www.w3.org/2000/svg"
   xmlns="http://www.w3.org/2000/svg"
   xmlns:xlink="http://www.w3.org/1999/xlink"
   xmlns:sodipodi="http://sodipodi.sourceforge.net/DTD/sodipodi-0.dtd"
   xmlns:inkscape="http://www.inkscape.org/namespaces/inkscape"
   width="150mm"
   height="150mm"
   viewBox="0 0 150 150"
   version="1.1"
   id="svg8"
   inkscape:version="1.0 (4035a4fb49, 2020-05-01)"
   sodipodi:docname="surprise.svg">
  <defs
     id="defs2">
    <linearGradient
       inkscape:collect="always"
       id="linearGradient853">
      <stop
         style="stop-color:#ffbd86;stop-opacity:1;"
         offset="0"
         id="stop849" />
      <stop
         id="stop859"
         offset="0.70677221"
         style="stop-color:#ffbd86;stop-opacity:1" />
      <stop
         id="stop857"
         offset="0.70677215"
         style="stop-color:#f6a96c;stop-opacity:1" />
      <stop
         style="stop-color:#f6a96c;stop-opacity:1"
         offset="1"
         id="stop851" />
    </linearGradient>
    <radialGradient
       inkscape:collect="always"
       xlink:href="#linearGradient853"
       id="radialGradient917"
       cx="-429.75894"
       cy="151.01155"
       fx="-429.75894"
       fy="151.01155"
       r="40.71497"
       gradientTransform="matrix(0.95943271,-0.69755747,0.9519883,1.3093812,-161.76233,-337.25135)"
       gradientUnits="userSpaceOnUse" />
  </defs>
  <sodipodi:namedview
     id="base"
     pagecolor="#ffffff"
     bordercolor="#666666"
     borderopacity="1.0"
     inkscape:pageopacity="0.0"
     inkscape:pageshadow="2"
     inkscape:zoom="0.70820139"
     inkscape:cx="-350.79917"
     inkscape:cy="131.30351"
     inkscape:document-units="mm"
     inkscape:current-layer="layer1"
     inkscape:document-rotation="0"
     showgrid="false"
     fit-margin-top="0"
     fit-margin-left="0"
     fit-margin-right="0"
     fit-margin-bottom="0"
     inkscape:window-width="1920"
     inkscape:window-height="1017"
     inkscape:window-x="-8"
     inkscape:window-y="-8"
     inkscape:window-maximized="1" />
  <metadata
     id="metadata5">
    <rdf:RDF>
      <cc:Work
         rdf:about="">
        <dc:format>image/svg+xml</dc:format>
        <dc:type
           rdf:resource="http://purl.org/dc/dcmitype/StillImage" />
        <dc:title></dc:title>
      </cc:Work>
    </rdf:RDF>
  </metadata>
  <g
     inkscape:label="Calque 1"
     inkscape:groupmode="layer"
     id="layer1"
     transform="translate(-49.692425,-37.132853)">
    <path
       transform="matrix(0.26458333,0,0,0.26458333,49.692425,37.132853)"
       d="M 338.3457 369.95117 L 218.29102 369.95117 A 75.575637 75.575637 0 0 0 202.74219 415.86719 A 75.575637 75.575637 0 0 0 228.88086 473.0293 L 327.75586 473.0293 A 75.575637 75.575637 0 0 0 353.89258 415.86719 A 75.575637 75.575637 0 0 0 338.3457 369.95117 z "
       style="color:#000000;overflow:visible;fill:#000000;stroke-width:52.1605;stroke-linecap:round;stroke-linejoin:round;stop-color:#000000"
       id="path985" />
    <path
       transform="matrix(0.26458333,0,0,0.26458333,49.692425,37.132853)"
       d="M 278.31836 340.29102 A 75.575637 75.575637 0 0 0 218.29102 369.95117 L 338.3457 369.95117 A 75.575637 75.575637 0 0 0 278.31836 340.29102 z "
       style="color:#000000;overflow:visible;fill:#ffffff;stroke-width:52.1605;stroke-linecap:round;stroke-linejoin:round;stop-color:#000000"
       id="path983" />
    <path
       sodipodi:nodetypes="czccc"
       transform="matrix(0.26458333,0,0,0.26458333,49.692425,37.132853)"
       d="m 327.75586,473.0293 c 0,0 -14.64383,-15.50077 -49.4375,-16 -34.79367,-0.49923 -49.4375,16 -49.4375,16 13.73232,11.87711 31.28144,18.41366 49.4375,18.41406 18.15606,-4e-4 35.70518,-6.53695 49.4375,-18.41406 z"
       style="color:#000000;overflow:visible;fill:#e05618;fill-opacity:1;stroke-width:52.1605;stroke-linecap:round;stroke-linejoin:round;stop-color:#000000"
       id="path896-4" />
  </g>
</svg>
