<?xml version="1.0" encoding="UTF-8" standalone="no"?>
<svg
   xmlns:dc="http://purl.org/dc/elements/1.1/"
   xmlns:cc="http://creativecommons.org/ns#"
   xmlns:rdf="http://www.w3.org/1999/02/22-rdf-syntax-ns#"
   xmlns:svg="http://www.w3.org/2000/svg"
   xmlns="http://www.w3.org/2000/svg"
   xmlns:xlink="http://www.w3.org/1999/xlink"
   xmlns:sodipodi="http://sodipodi.sourceforge.net/DTD/sodipodi-0.dtd"
   xmlns:inkscape="http://www.inkscape.org/namespaces/inkscape"
   sodipodi:docname="bald-beard.svg"
   inkscape:version="1.0 (4035a4fb49, 2020-05-01)"
   id="svg3147"
   version="1.1"
   viewBox="0 0 150 170"
   height="170mm"
   width="150mm">
  <defs
     id="defs3141">
    <pattern
       id="carreau-pt"
       patternTransform="translate(-2054.333,1959.2791)"
       height="7.6109896"
       width="8.7129582"
       patternUnits="userSpaceOnUse">
      <rect
         y="6.2746067e-06"
         x="-2.2737368e-13"
         height="7.6109834"
         width="8.7129364"
         id="rect119919"
         style="fill:#800000;fill-opacity:1;stroke:none;stroke-width:1.08628;stroke-linecap:round;stroke-linejoin:round;stroke-miterlimit:4;stroke-dasharray:none;stop-color:#000000" />
      <path
         id="path119921"
         d="M 3.0751503,7.6109858 V 0"
         style="fill:#800000;stroke:#c11a1a;stroke-width:1.81047;stroke-linecap:butt;stroke-linejoin:miter;stroke-miterlimit:4;stroke-dasharray:none;stroke-opacity:1" />
      <path
         id="path119923"
         d="M 1.3287401e-5,4.7904378 H 8.7129582"
         style="fill:#c11a1a;fill-opacity:1;stroke:#c11a1a;stroke-width:1.81047;stroke-linecap:butt;stroke-linejoin:miter;stroke-miterlimit:4;stroke-dasharray:none;stroke-opacity:1" />
    </pattern>
    <pattern
       id="pattern115842"
       patternTransform="translate(-1862,1831.9999)"
       height="85.000002"
       width="85.000037"
       patternUnits="userSpaceOnUse">
      <rect
         y="0"
         x="3.4178149e-05"
         height="85"
         width="85"
         id="rect104700"
         style="fill:#800000;fill-opacity:1;stroke:none;stroke-width:11.3386;stroke-linecap:round;stroke-linejoin:round;stroke-miterlimit:4;stroke-dasharray:none;stop-color:#000000" />
      <path
         id="path104779"
         d="M 30,84.999998 V 1.0187008e-5"
         style="fill:#800000;stroke:#c11a1a;stroke-width:18.8976;stroke-linecap:butt;stroke-linejoin:miter;stroke-miterlimit:4;stroke-dasharray:none;stroke-opacity:1" />
      <path
         id="path107256"
         d="M 0,53.500092 H 85.000025"
         style="fill:#c11a1a;fill-opacity:1;stroke:#c11a1a;stroke-width:18.8976;stroke-linecap:butt;stroke-linejoin:miter;stroke-miterlimit:4;stroke-dasharray:none;stroke-opacity:1" />
    </pattern>
    <radialGradient
       gradientUnits="userSpaceOnUse"
       gradientTransform="matrix(0.33123089,0.00270806,-0.00156891,0.19189788,-1216.466,729.01258)"
       r="195.66344"
       fy="602.3324"
       fx="-391.23096"
       cy="602.3324"
       cx="-391.23096"
       id="radialGradient23876-9-24"
       xlink:href="#linearGradient83035"
       inkscape:collect="always" />
    <linearGradient
       inkscape:collect="always"
       id="linearGradient83035">
      <stop
         style="stop-color:#cc906e;stop-opacity:1"
         offset="0"
         id="stop83027" />
      <stop
         id="stop83029"
         offset="0.70413625"
         style="stop-color:#cb8f6e;stop-opacity:1" />
      <stop
         id="stop83031"
         offset="0.70413625"
         style="stop-color:#a06f50;stop-opacity:1" />
      <stop
         style="stop-color:#a06f50;stop-opacity:1"
         offset="1"
         id="stop83033" />
    </linearGradient>
    <radialGradient
       gradientUnits="userSpaceOnUse"
       gradientTransform="matrix(1.544547,-0.26971894,0.45443624,2.1590227,-1091.8728,393.11579)"
       r="29.964201"
       fy="144.48944"
       fx="-213.61194"
       cy="144.48944"
       cx="-213.61194"
       id="radialGradient1872-1-32"
       xlink:href="#linearGradient83035"
       inkscape:collect="always" />
  </defs>
  <sodipodi:namedview
     inkscape:object-paths="true"
     inkscape:window-maximized="1"
     inkscape:window-y="-8"
     inkscape:window-x="-8"
     inkscape:window-height="1017"
     inkscape:window-width="1920"
     showgrid="false"
     inkscape:document-rotation="0"
     inkscape:current-layer="layer1"
     inkscape:document-units="mm"
     inkscape:cy="520.22906"
     inkscape:cx="218.0586"
     inkscape:zoom="0.7"
     inkscape:pageshadow="2"
     inkscape:pageopacity="0.0"
     borderopacity="1.0"
     bordercolor="#666666"
     pagecolor="#ffffff"
     id="base" />
  <metadata
     id="metadata3144">
    <rdf:RDF>
      <cc:Work
         rdf:about="">
        <dc:format>image/svg+xml</dc:format>
        <dc:type
           rdf:resource="http://purl.org/dc/dcmitype/StillImage" />
        <dc:title></dc:title>
      </cc:Work>
    </rdf:RDF>
  </metadata>
  <g
     id="layer1"
     inkscape:groupmode="layer"
     inkscape:label="Calque 1">
    <g
       transform="translate(1420.989,-707.56039)"
       id="g75376"
       style="mix-blend-mode:normal">
      <path
         sodipodi:nodetypes="cccccccsccc"
         d="m -1358.4621,800.04624 v 14.32522 c -5.8244,8.50699 -14.8879,9.95583 -24.1903,13.26689 -13.8799,4.94035 -13.3922,12.09694 -13.3922,12.09694 v 16.3251 h 100.1112 v -16.3251 c 0,0 -0.3713,-9.0145 -13.3917,-12.09694 -10.0816,-2.38671 -16.7193,-5.95194 -23.4347,-13.26689 0,-4.77507 -1.204,-16.87419 0,-14.32522 z"
         style="fill:url(#radialGradient23876-9-24);fill-opacity:1;stroke:#000000;stroke-width:3;stroke-linecap:round;stroke-linejoin:round;stroke-miterlimit:4;stroke-dasharray:none;stroke-opacity:1;stop-color:#000000"
         id="rect8920-2-077" />
      <ellipse
         style="color:#000000;overflow:visible;fill:#cc906e;fill-opacity:1;stroke:#000000;stroke-width:3;stroke-linecap:round;stroke-miterlimit:4;stroke-dasharray:none;stroke-opacity:1;stop-color:#000000"
         id="path861-2-7-94"
         cx="-1375.9987"
         cy="775.83289"
         rx="6.1759887"
         ry="6.678576" />
      <ellipse
         ry="6.678576"
         rx="6.1759887"
         cy="775.83289"
         cx="-1315.9794"
         id="path861-0-6-0-4"
         style="color:#000000;overflow:visible;fill:#a06f50;fill-opacity:1;stroke:#000000;stroke-width:3;stroke-linecap:round;stroke-miterlimit:4;stroke-dasharray:none;stroke-opacity:1;stop-color:#000000" />
      <path
         sodipodi:nodetypes="ssczcss"
         d="m -1345.989,739.23192 c 15.7692,0 28.4642,13.75336 28.4642,29.52253 v 14.15685 c -4.8643,17.82715 -19.0147,28.99338 -28.4642,28.99338 -9.4495,0 -23.9741,-12.85003 -28.4642,-28.99338 v -14.15685 c 0,-15.76917 12.695,-29.52254 28.4642,-29.52253 z"
         style="fill:url(#radialGradient1872-1-32);fill-opacity:1;stroke:#000000;stroke-width:2.86316;stroke-linecap:round;stroke-linejoin:round;stop-color:#000000"
         id="rect1621-7-2" />
      <path
         sodipodi:nodetypes="czc"
         id="path2252-4-7-9"
         d="m -1349.4758,785.35794 c 0,0 2.1024,1.05833 3.4868,1.05833 1.3844,0 3.4868,-1.05833 3.4868,-1.05833"
         style="fill:none;fill-opacity:1;stroke:#a06f50;stroke-width:3;stroke-linecap:round;stroke-linejoin:miter;stroke-miterlimit:4;stroke-dasharray:none;stroke-opacity:1" />
      <path
         sodipodi:nodetypes="czc"
         id="path2252-47-4-5"
         d="m -1352.1216,795.68275 c 0,0 1.9317,1.5875 6.1326,1.5875 4.2009,0 6.1326,-1.5875 6.1326,-1.5875"
         style="fill:none;stroke:#000000;stroke-width:3;stroke-linecap:round;stroke-linejoin:miter;stroke-miterlimit:4;stroke-dasharray:none;stroke-opacity:1" />
      <path
         d="m -1356.5515,775.30371 a 2.3012009,3.2740517 0 0 1 -2.2787,3.2739 2.3012009,3.2740517 0 0 1 -2.3232,-3.21011 2.3012009,3.2740517 0 0 1 2.2335,-3.33644 2.3012009,3.2740517 0 0 1 2.3667,3.1451"
         style="color:#000000;overflow:visible;fill:#000000;fill-opacity:1;stroke:none;stroke-width:3;stroke-linecap:round;stroke-linejoin:round;stroke-miterlimit:4;stroke-dasharray:none;stroke-opacity:1;stop-color:#000000"
         id="path984-6-3-4-28"
         sodipodi:type="arc"
         sodipodi:cx="-1358.8527"
         sodipodi:cy="775.30371"
         sodipodi:rx="2.3012009"
         sodipodi:ry="3.2740517"
         sodipodi:start="0"
         sodipodi:end="6.2442187"
         sodipodi:open="true"
         sodipodi:arc-type="arc" />
      <path
         d="m -1330.8242,775.30371 a 2.3012009,3.2740517 0 0 1 -2.2787,3.2739 2.3012009,3.2740517 0 0 1 -2.3232,-3.21011 2.3012009,3.2740517 0 0 1 2.2335,-3.33644 2.3012009,3.2740517 0 0 1 2.3667,3.1451"
         sodipodi:arc-type="arc"
         sodipodi:open="true"
         sodipodi:end="6.2442187"
         sodipodi:start="0"
         sodipodi:ry="3.2740517"
         sodipodi:rx="2.3012009"
         sodipodi:cy="775.30371"
         sodipodi:cx="-1333.1254"
         sodipodi:type="arc"
         id="path984-3-2-8-1-7"
         style="color:#000000;overflow:visible;fill:#000000;fill-opacity:1;stroke:none;stroke-width:3;stroke-linecap:round;stroke-linejoin:round;stroke-miterlimit:4;stroke-dasharray:none;stroke-opacity:1;stop-color:#000000" />
      <path
         id="path66722-4-8-25"
         d="m -1335.4233,765.12201 h 5.2917"
         style="fill:none;stroke:#000000;stroke-width:3;stroke-linecap:round;stroke-linejoin:round;stroke-miterlimit:4;stroke-dasharray:none;stroke-opacity:1" />
      <path
         id="path66722-1-5-4-1"
         d="m -1361.8464,765.12201 h 5.2917"
         style="fill:none;stroke:#000000;stroke-width:3;stroke-linecap:round;stroke-linejoin:round;stroke-miterlimit:4;stroke-dasharray:none;stroke-opacity:1" />
      <path
         sodipodi:nodetypes="ccccccsccccc"
         d="m -1358.4622,814.37146 c -5.8243,8.50699 -14.8878,9.95583 -24.1902,13.26689 -13.8799,4.94035 -15.5089,12.09694 -15.5089,12.09694 -1.7986,12.54755 -1.4415,23.82672 -0.3168,36.3251 h 105.5285 c 1.6139,-12.49751 -0.061,-23.89363 -0.8671,-36.3251 0,0 -2.4881,-9.0145 -15.5084,-12.09694 -10.0816,-2.38671 -16.7193,-5.95194 -23.4348,-13.26689 0.7669,7.10586 1.6123,14.24576 -4.9174,18.18977 l -7.9337,4.81754 -7.9338,-4.81754 c -6.0035,-4.69939 -6.881,-11.00065 -4.9174,-18.18977 z"
         style="fill:#e6e6e6;fill-opacity:1;stroke:#000000;stroke-width:3;stroke-linecap:round;stroke-linejoin:round;stroke-miterlimit:4;stroke-dasharray:none;stroke-opacity:1;stop-color:#000000"
         id="rect8920-5-2-89" />
      <path
         sodipodi:nodetypes="cc"
         id="path71731-9-2"
         d="m -1345.611,837.37877 v 38.68162"
         style="fill:#dcd8dc;fill-opacity:1;stroke:#000000;stroke-width:3;stroke-linecap:butt;stroke-linejoin:miter;stroke-miterlimit:4;stroke-dasharray:none;stroke-opacity:1" />
      <path
         sodipodi:nodetypes="cc"
         id="path22674-42"
         d="m -1327.3371,819.93445 -5.4228,-5.56299"
         style="fill:none;stroke:#000000;stroke-width:0.264583px;stroke-linecap:butt;stroke-linejoin:miter;stroke-opacity:1" />
      <path
         sodipodi:nodetypes="ccccc"
         id="path22943-9"
         d="m -1358.4622,814.37146 -4.7135,5.03013 2.4463,19.22818 7.1846,-6.06854 c -2.9003,-5.34262 -4.6357,-11.35086 -4.9174,-18.18977 z"
         style="fill:#ffffff;fill-opacity:1;stroke:#000000;stroke-width:3;stroke-linecap:round;stroke-linejoin:round;stroke-miterlimit:4;stroke-dasharray:none;stroke-opacity:1" />
      <path
         sodipodi:nodetypes="ccccc"
         id="path22943-9-8"
         d="m -1332.7599,814.37146 4.7135,5.03013 -2.4463,19.22818 -7.1846,-6.06854 c 2.9564,-4.99693 4.5803,-11.07251 4.9174,-18.18977 z"
         style="fill:#ffffff;fill-opacity:1;stroke:#000000;stroke-width:3;stroke-linecap:round;stroke-linejoin:round;stroke-miterlimit:4;stroke-dasharray:none;stroke-opacity:1" />
      <path
         sodipodi:nodetypes="czcssscc"
         d="m -1357.5623,793.17971 c 0.1323,-0.99504 7.6794,-2.64584 11.5733,-2.64584 3.8939,0 11.1764,1.25678 11.5733,2.64584 1.0456,6.60527 0.9955,8.41049 -0.7375,9.64457 -1.7331,1.23409 -5.1492,-0.21963 -10.8358,-0.1322 -5.6866,0.0874 -8.8049,1.40055 -10.389,0.0525 -1.5842,-1.34808 -1.6342,-3.24072 -1.1843,-9.56483 z"
         style="fill:none;stroke:#000000;stroke-width:3;stroke-linecap:round;stroke-linejoin:round;stop-color:#000000"
         id="rect56384" />
      <path
         sodipodi:nodetypes="cccc"
         d="m -1356.9072,802.74458 c 6.6033,1.5042 14.3785,2.65297 22.2832,0.0797 -0.8152,6.28399 -10.9253,11.95774 -10.9253,11.95774 0,0 -8.9967,-4.67445 -11.3579,-12.03744 z"
         style="fill:#000000;stroke:#000000;stroke-width:3;stroke-linecap:round;stroke-linejoin:round;stop-color:#000000"
         id="rect56384-7" />
    </g>
    <g
       transform="translate(-1.5514235)"
       id="g888">
      <path
         style="fill:none;fill-rule:evenodd;stroke:#000000;stroke-width:3;stroke-linecap:round;stroke-linejoin:miter;stroke-miterlimit:4;stroke-dasharray:none;stroke-opacity:1"
         d="m 44.607149,168.5 c -1.850714,-5.19249 -1.457321,-12.75652 -2.282535,-20"
         id="path869"
         sodipodi:nodetypes="cc" />
      <path
         sodipodi:nodetypes="cc"
         id="path869-9"
         d="m 108.45535,168.5 c 1.85071,-5.19249 1.45731,-12.75652 2.28253,-20"
         style="fill:none;fill-rule:evenodd;stroke:#000000;stroke-width:3;stroke-linecap:round;stroke-linejoin:miter;stroke-miterlimit:4;stroke-dasharray:none;stroke-opacity:1" />
    </g>
  </g>
</svg>
