<?xml version="1.0" encoding="UTF-8" standalone="no"?>
<svg
   xmlns:dc="http://purl.org/dc/elements/1.1/"
   xmlns:cc="http://creativecommons.org/ns#"
   xmlns:rdf="http://www.w3.org/1999/02/22-rdf-syntax-ns#"
   xmlns:svg="http://www.w3.org/2000/svg"
   xmlns="http://www.w3.org/2000/svg"
   xmlns:xlink="http://www.w3.org/1999/xlink"
   xmlns:sodipodi="http://sodipodi.sourceforge.net/DTD/sodipodi-0.dtd"
   xmlns:inkscape="http://www.inkscape.org/namespaces/inkscape"
   sodipodi:docname="brother.svg"
   inkscape:version="1.0 (4035a4fb49, 2020-05-01)"
   id="svg3147"
   version="1.1"
   viewBox="0 0 150 170"
   height="170mm"
   width="150mm">
  <defs
     id="defs3141">
    <pattern
       id="carreau-pt"
       patternTransform="translate(-2054.333,1959.2791)"
       height="7.6109896"
       width="8.7129582"
       patternUnits="userSpaceOnUse">
      <rect
         y="6.2746067e-06"
         x="-2.2737368e-13"
         height="7.6109834"
         width="8.7129364"
         id="rect119919"
         style="fill:#800000;fill-opacity:1;stroke:none;stroke-width:1.08628;stroke-linecap:round;stroke-linejoin:round;stroke-miterlimit:4;stroke-dasharray:none;stop-color:#000000" />
      <path
         id="path119921"
         d="M 3.0751503,7.6109858 V 0"
         style="fill:#800000;stroke:#c11a1a;stroke-width:1.81047;stroke-linecap:butt;stroke-linejoin:miter;stroke-miterlimit:4;stroke-dasharray:none;stroke-opacity:1" />
      <path
         id="path119923"
         d="M 1.3287401e-5,4.7904378 H 8.7129582"
         style="fill:#c11a1a;fill-opacity:1;stroke:#c11a1a;stroke-width:1.81047;stroke-linecap:butt;stroke-linejoin:miter;stroke-miterlimit:4;stroke-dasharray:none;stroke-opacity:1" />
    </pattern>
    <pattern
       id="pattern115842"
       patternTransform="translate(-1862,1831.9999)"
       height="85.000002"
       width="85.000037"
       patternUnits="userSpaceOnUse">
      <rect
         y="0"
         x="3.4178149e-05"
         height="85"
         width="85"
         id="rect104700"
         style="fill:#800000;fill-opacity:1;stroke:none;stroke-width:11.3386;stroke-linecap:round;stroke-linejoin:round;stroke-miterlimit:4;stroke-dasharray:none;stop-color:#000000" />
      <path
         id="path104779"
         d="M 30,84.999998 V 1.0187008e-5"
         style="fill:#800000;stroke:#c11a1a;stroke-width:18.8976;stroke-linecap:butt;stroke-linejoin:miter;stroke-miterlimit:4;stroke-dasharray:none;stroke-opacity:1" />
      <path
         id="path107256"
         d="M 0,53.500092 H 85.000025"
         style="fill:#c11a1a;fill-opacity:1;stroke:#c11a1a;stroke-width:18.8976;stroke-linecap:butt;stroke-linejoin:miter;stroke-miterlimit:4;stroke-dasharray:none;stroke-opacity:1" />
    </pattern>
    <radialGradient
       gradientUnits="userSpaceOnUse"
       gradientTransform="matrix(1.544547,-0.26971894,0.45443624,2.1590227,-1162.9613,-149.39674)"
       r="29.964201"
       fy="144.48944"
       fx="-213.61194"
       cy="144.48944"
       cx="-213.61194"
       id="radialGradient1872-4-64-2"
       xlink:href="#linearGradient228518"
       inkscape:collect="always" />
    <linearGradient
       inkscape:collect="always"
       id="linearGradient228518">
      <stop
         style="stop-color:#e4aa76;stop-opacity:1"
         offset="0"
         id="stop228510" />
      <stop
         id="stop228512"
         offset="0.70677221"
         style="stop-color:#e2aa75;stop-opacity:1" />
      <stop
         id="stop228514"
         offset="0.70677221"
         style="stop-color:#d09a6f;stop-opacity:1" />
      <stop
         style="stop-color:#d1996c;stop-opacity:1"
         offset="1"
         id="stop228516" />
    </linearGradient>
    <radialGradient
       gradientUnits="userSpaceOnUse"
       gradientTransform="matrix(0.33123089,0.00270806,-0.00156891,0.19189788,-1287.5545,185.4417)"
       r="195.66344"
       fy="602.3324"
       fx="-391.23096"
       cy="602.3324"
       cx="-391.23096"
       id="radialGradient23876-5-93-6"
       xlink:href="#linearGradient228518"
       inkscape:collect="always" />
  </defs>
  <sodipodi:namedview
     inkscape:snap-smooth-nodes="true"
     inkscape:object-paths="true"
     inkscape:window-maximized="1"
     inkscape:window-y="-8"
     inkscape:window-x="-8"
     inkscape:window-height="1017"
     inkscape:window-width="1920"
     showgrid="false"
     inkscape:document-rotation="0"
     inkscape:current-layer="layer1"
     inkscape:document-units="mm"
     inkscape:cy="548.78114"
     inkscape:cx="-221.7842"
     inkscape:zoom="0.35"
     inkscape:pageshadow="2"
     inkscape:pageopacity="0.0"
     borderopacity="1.0"
     bordercolor="#666666"
     pagecolor="#ffffff"
     id="base" />
  <metadata
     id="metadata3144">
    <rdf:RDF>
      <cc:Work
         rdf:about="">
        <dc:format>image/svg+xml</dc:format>
        <dc:type
           rdf:resource="http://purl.org/dc/dcmitype/StillImage" />
        <dc:title></dc:title>
      </cc:Work>
    </rdf:RDF>
  </metadata>
  <g
     id="layer1"
     inkscape:groupmode="layer"
     inkscape:label="Calque 1">
    <g
       id="g189446"
       style="mix-blend-mode:normal"
       transform="translate(1492.0775,-163.98952)">
      <path
         sodipodi:nodetypes="cccc"
         id="path153867-4"
         d="m -1445.5417,218.83354 -20.9161,9.0046 c 10.5834,22.72379 52.8742,11.25533 50.6002,-9.0046 z"
         style="fill:#f0a708;fill-opacity:1;stroke:#000000;stroke-width:3;stroke-linecap:round;stroke-linejoin:round;stroke-miterlimit:4;stroke-dasharray:none;stroke-opacity:1" />
      <ellipse
         style="color:#000000;overflow:visible;fill:#e3aa75;fill-opacity:1;stroke:#000000;stroke-width:3;stroke-linecap:round;stroke-miterlimit:4;stroke-dasharray:none;stroke-opacity:1;stop-color:#000000"
         id="path861-2-70-6-7"
         cx="-1448.1455"
         cy="232.26201"
         rx="6.1759887"
         ry="6.678576" />
      <ellipse
         ry="6.678576"
         rx="6.1759887"
         cy="232.26201"
         cx="-1386.0095"
         id="path861-0-6-5-2-2"
         style="color:#000000;overflow:visible;fill:#d09a6e;fill-opacity:1;stroke:#000000;stroke-width:3;stroke-linecap:round;stroke-miterlimit:4;stroke-dasharray:none;stroke-opacity:1;stop-color:#000000" />
      <path
         sodipodi:nodetypes="ssszsss"
         d="m -1417.0775,197.77771 c 15.7692,0 28.4642,12.69503 28.4642,28.4642 v 14.15685 c 0,15.76917 -12.695,28.46421 -28.4642,28.46421 -15.7692,0 -28.4642,-12.69504 -28.4642,-28.46421 v -14.15685 c 0,-15.76917 12.695,-28.4642 28.4642,-28.4642 z"
         style="fill:url(#radialGradient1872-4-64-2);fill-opacity:1;stroke:#000000;stroke-width:2.86316;stroke-linecap:round;stroke-linejoin:round;stop-color:#000000"
         id="rect1621-9-52-2" />
      <path
         sodipodi:nodetypes="cccccccsccc"
         d="m -1429.5507,256.47537 v 14.32522 c -5.8243,8.50699 -14.8878,9.95583 -24.1902,13.26689 -13.8799,4.94035 -13.3922,12.09694 -13.3922,12.09694 v 16.3251 h 100.1112 v -16.3251 c 0,0 -0.3714,-9.0145 -13.3917,-12.09694 -10.0816,-2.38671 -16.7193,-5.95194 -23.4348,-13.26689 v -14.32522 z"
         style="fill:url(#radialGradient23876-5-93-6);fill-opacity:1;stroke:#000000;stroke-width:3;stroke-linecap:round;stroke-linejoin:round;stroke-miterlimit:4;stroke-dasharray:none;stroke-opacity:1;stop-color:#000000"
         id="rect8920-8-3-9" />
      <path
         sodipodi:nodetypes="ccccccsczc"
         d="m -1429.5507,270.80059 c -5.8243,8.50699 -14.8878,9.95583 -24.1902,13.26689 -13.8799,4.94035 -13.3922,12.09694 -13.3922,12.09694 -2.3239,12.6665 -1.0064,23.64642 0,36.3251 h 100.1112 c 2.0883,-12.95734 1.2562,-23.53761 0,-36.3251 0,0 -0.3714,-9.0145 -13.3917,-12.09694 -10.0816,-2.38671 -16.7193,-5.95194 -23.4348,-13.26689 0,0 -0.122,18.52083 -12.8511,18.52083 -12.7292,0 -12.8512,-18.52083 -12.8512,-18.52083 z"
         style="fill:#655d65;fill-opacity:1;stroke:#000000;stroke-width:3;stroke-linecap:round;stroke-linejoin:round;stroke-miterlimit:4;stroke-dasharray:none;stroke-opacity:1;stop-color:#000000"
         id="rect8920-8-3-9-0" />
      <path
         sodipodi:nodetypes="czczc"
         d="m -1388.6133,239.34043 c 0,15.76917 -12.6951,30.05171 -28.4642,30.05171 -15.7692,0 -28.4642,-14.28254 -28.4642,-30.05171 13.1453,16.18513 18.703,5.82084 28.4642,5.82084 9.7612,0 18.2766,12.00745 28.4642,-5.82084 z"
         style="fill:#655d65;fill-opacity:1;stroke:#000000;stroke-width:2.86316;stroke-linecap:round;stroke-linejoin:round;stop-color:#000000"
         id="rect1621-9-9-13-2" />
      <path
         sodipodi:nodetypes="czc"
         id="path2252-47-2-24"
         d="m -1423.2101,253.1702 c 0,0 2.4609,2.11667 6.6618,2.11667 4.2009,0 6.1326,-3.175 6.1326,-3.175"
         style="fill:none;stroke:#000000;stroke-width:3;stroke-linecap:round;stroke-linejoin:miter;stroke-miterlimit:4;stroke-dasharray:none;stroke-opacity:1" />
      <path
         sodipodi:nodetypes="czc"
         id="path2252-4-5-4-7"
         d="m -1420.5644,241.78707 c 0,0 2.1025,1.05833 3.4869,1.05833 1.3843,0 3.4868,-1.05833 3.4868,-1.05833"
         style="fill:none;fill-opacity:1;stroke:#d09a6e;stroke-width:3;stroke-linecap:round;stroke-linejoin:miter;stroke-miterlimit:4;stroke-dasharray:none;stroke-opacity:1" />
      <g
         transform="translate(-1207.3413,90.584207)"
         id="g2407-6-9-7">
        <path
           d="m -220.29867,141.14864 a 2.3012009,3.2740517 0 0 1 -2.27878,3.27389 2.3012009,3.2740517 0 0 1 -2.32318,-3.21011 2.3012009,3.2740517 0 0 1 2.23352,-3.33644 2.3012009,3.2740517 0 0 1 2.3667,3.14511"
           style="color:#000000;overflow:visible;fill:#000000;fill-opacity:1;stroke:none;stroke-width:3;stroke-linecap:round;stroke-linejoin:round;stroke-miterlimit:4;stroke-dasharray:none;stroke-opacity:1;stop-color:#000000"
           id="path984-6-3-5-97"
           sodipodi:type="arc"
           sodipodi:cx="-222.59987"
           sodipodi:cy="141.14864"
           sodipodi:rx="2.3012009"
           sodipodi:ry="3.2740517"
           sodipodi:start="0"
           sodipodi:end="6.2442187"
           sodipodi:open="true"
           sodipodi:arc-type="arc" />
        <path
           d="m -194.57134,141.14864 a 2.3012009,3.2740517 0 0 1 -2.27879,3.27389 2.3012009,3.2740517 0 0 1 -2.32318,-3.21011 2.3012009,3.2740517 0 0 1 2.23352,-3.33644 2.3012009,3.2740517 0 0 1 2.3667,3.14511"
           sodipodi:arc-type="arc"
           sodipodi:open="true"
           sodipodi:end="6.2442187"
           sodipodi:start="0"
           sodipodi:ry="3.2740517"
           sodipodi:rx="2.3012009"
           sodipodi:cy="141.14864"
           sodipodi:cx="-196.87254"
           sodipodi:type="arc"
           id="path984-3-2-8-6-6"
           style="color:#000000;overflow:visible;fill:#000000;fill-opacity:1;stroke:none;stroke-width:3;stroke-linecap:round;stroke-linejoin:round;stroke-miterlimit:4;stroke-dasharray:none;stroke-opacity:1;stop-color:#000000" />
      </g>
      <g
         transform="translate(0,-1.0583333)"
         id="g165168">
        <path
           sodipodi:nodetypes="cc"
           id="path66722-4-3-4"
           d="m -1406.5118,224.72615 5.2917,0.46476"
           style="fill:none;stroke:#000000;stroke-width:3;stroke-linecap:round;stroke-linejoin:round;stroke-miterlimit:4;stroke-dasharray:none;stroke-opacity:1" />
        <path
           sodipodi:nodetypes="cc"
           id="path66722-1-5-7-2"
           d="m -1432.9349,225.42328 5.2917,-0.69713"
           style="fill:none;stroke:#000000;stroke-width:3;stroke-linecap:round;stroke-linejoin:round;stroke-miterlimit:4;stroke-dasharray:none;stroke-opacity:1" />
      </g>
      <path
         sodipodi:nodetypes="cccc"
         id="path153867"
         d="m -1445.5417,218.83354 -20.9161,9.0046 c 29.328,1.52838 42.8099,-3.4563 50.6002,-9.0046 z"
         style="fill:#f8d22b;fill-opacity:1;stroke:#000000;stroke-width:3;stroke-linecap:round;stroke-linejoin:round;stroke-miterlimit:4;stroke-dasharray:none;stroke-opacity:1" />
      <path
         sodipodi:nodetypes="sccs"
         d="m -1417.0775,190.89851 c 15.7691,0 28.4642,12.16586 28.4642,27.93503 h -56.9284 c 0,-15.76917 12.695,-27.93503 28.4642,-27.93503 z"
         style="fill:#e04a56;fill-opacity:1;stroke:#000000;stroke-width:2.86316;stroke-linecap:round;stroke-linejoin:round;stop-color:#000000"
         id="rect1621-9-9-13-3" />
      <circle
         r="5.4885774"
         cy="208.84314"
         cx="-1417.0775"
         id="path165485"
         style="fill:#f8d22b;fill-opacity:1;stroke:#000000;stroke-width:2;stroke-linecap:round;stroke-linejoin:round;stroke-miterlimit:4;stroke-dasharray:none;stroke-opacity:1;stop-color:#000000" />
    </g>
    <circle
       r="16.036171"
       cy="162.2057"
       cx="74.987961"
       id="path870"
       style="color:#000000;overflow:visible;fill:#f8d22b;fill-opacity:1;stroke:#000000;stroke-width:3;stroke-linecap:round;stroke-linejoin:round;stop-color:#000000" />
    <path
       sodipodi:nodetypes="csccccccc"
       id="path872"
       d="M 24.9444,168.5 C 42.588032,139.65646 48.567474,158.00117 76.540176,162.90774 108.42203,168.5 125.83668,145.29791 93.360117,118.49553 l -5.131019,-11.68446 13.690152,10.09724 14.38303,4.71753 8.75332,10.54906 V 168.5 Z"
       style="mix-blend-mode:darken;fill:#4e4e4e;fill-opacity:1;fill-rule:evenodd;stroke:#999999;stroke-width:0.264583px;stroke-linecap:butt;stroke-linejoin:miter;stroke-opacity:1" />
  </g>
</svg>
