<?xml version="1.0" encoding="UTF-8" standalone="no"?>
<svg
   width="150mm"
   height="170mm"
   viewBox="0 0 150 170"
   version="1.1"
   id="svg3147"
   inkscape:version="1.2.2 (732a01da63, 2022-12-09)"
   sodipodi:docname="china-scientist-f.svg"
   xmlns:inkscape="http://www.inkscape.org/namespaces/inkscape"
   xmlns:sodipodi="http://sodipodi.sourceforge.net/DTD/sodipodi-0.dtd"
   xmlns:xlink="http://www.w3.org/1999/xlink"
   xmlns="http://www.w3.org/2000/svg"
   xmlns:svg="http://www.w3.org/2000/svg"
   xmlns:rdf="http://www.w3.org/1999/02/22-rdf-syntax-ns#"
   xmlns:cc="http://creativecommons.org/ns#"
   xmlns:dc="http://purl.org/dc/elements/1.1/">
  <defs
     id="defs3141">
    <pattern
       patternUnits="userSpaceOnUse"
       width="8.7129582"
       height="7.6109896"
       patternTransform="translate(-2054.333,1959.2791)"
       id="carreau-pt">
      <rect
         style="fill:#800000;fill-opacity:1;stroke:none;stroke-width:1.08628;stroke-linecap:round;stroke-linejoin:round;stroke-miterlimit:4;stroke-dasharray:none;stop-color:#000000"
         id="rect119919"
         width="8.7129364"
         height="7.6109834"
         x="-2.2737368e-13"
         y="6.2746067e-06" />
      <path
         style="fill:#800000;stroke:#c11a1a;stroke-width:1.81047;stroke-linecap:butt;stroke-linejoin:miter;stroke-miterlimit:4;stroke-dasharray:none;stroke-opacity:1"
         d="M 3.0751503,7.6109858 V 0"
         id="path119921" />
      <path
         style="fill:#c11a1a;fill-opacity:1;stroke:#c11a1a;stroke-width:1.81047;stroke-linecap:butt;stroke-linejoin:miter;stroke-miterlimit:4;stroke-dasharray:none;stroke-opacity:1"
         d="M 1.3287401e-5,4.7904378 H 8.7129582"
         id="path119923" />
    </pattern>
    <pattern
       patternUnits="userSpaceOnUse"
       width="85.000037"
       height="85.000002"
       patternTransform="translate(-1862,1831.9999)"
       id="pattern115842">
      <rect
         style="fill:#800000;fill-opacity:1;stroke:none;stroke-width:11.3386;stroke-linecap:round;stroke-linejoin:round;stroke-miterlimit:4;stroke-dasharray:none;stop-color:#000000"
         id="rect104700"
         width="85"
         height="85"
         x="3.4178149e-05"
         y="0" />
      <path
         style="fill:#800000;stroke:#c11a1a;stroke-width:18.8976;stroke-linecap:butt;stroke-linejoin:miter;stroke-miterlimit:4;stroke-dasharray:none;stroke-opacity:1"
         d="M 30,84.999998 V 1.0187008e-5"
         id="path104779" />
      <path
         style="fill:#c11a1a;fill-opacity:1;stroke:#c11a1a;stroke-width:18.8976;stroke-linecap:butt;stroke-linejoin:miter;stroke-miterlimit:4;stroke-dasharray:none;stroke-opacity:1"
         d="M 0,53.500092 H 85.000025"
         id="path107256" />
    </pattern>
    <radialGradient
       inkscape:collect="always"
       xlink:href="#linearGradient13774"
       id="radialGradient19801-9"
       cx="138.94185"
       cy="153.20305"
       fx="138.94185"
       fy="153.20305"
       r="38.163376"
       gradientTransform="matrix(1,0,0,0.51494208,6.5012771,125.45264)"
       gradientUnits="userSpaceOnUse" />
    <linearGradient
       id="linearGradient13774"
       inkscape:collect="always">
      <stop
         id="stop13766"
         offset="0"
         style="stop-color:#ffd386;stop-opacity:1;" />
      <stop
         style="stop-color:#ffd386;stop-opacity:1;"
         offset="0.70677221"
         id="stop13768" />
      <stop
         style="stop-color:#f6c36c;stop-opacity:1;"
         offset="0.70677215"
         id="stop13770" />
      <stop
         id="stop13772"
         offset="1"
         style="stop-color:#f6c36c;stop-opacity:1;" />
    </linearGradient>
    <radialGradient
       inkscape:collect="always"
       xlink:href="#linearGradient13774"
       id="radialGradient1872-2-4-5-9"
       cx="-213.61194"
       cy="144.48944"
       fx="-213.61194"
       fy="144.48944"
       r="29.964201"
       gradientTransform="matrix(1.544547,-0.26971894,0.45443624,2.1590227,405.54691,-233.83524)"
       gradientUnits="userSpaceOnUse" />
  </defs>
  <sodipodi:namedview
     inkscape:object-paths="true"
     id="base"
     pagecolor="#ffffff"
     bordercolor="#666666"
     borderopacity="1.0"
     inkscape:pageopacity="0.0"
     inkscape:pageshadow="2"
     inkscape:zoom="0.49497475"
     inkscape:cx="-366.68537"
     inkscape:cy="465.68032"
     inkscape:document-units="mm"
     inkscape:current-layer="layer1"
     inkscape:document-rotation="0"
     showgrid="false"
     inkscape:window-width="1920"
     inkscape:window-height="1017"
     inkscape:window-x="-8"
     inkscape:window-y="-8"
     inkscape:window-maximized="1"
     inkscape:showpageshadow="2"
     inkscape:pagecheckerboard="0"
     inkscape:deskcolor="#d1d1d1" />
  <metadata
     id="metadata3144">
    <rdf:RDF>
      <cc:Work
         rdf:about="">
        <dc:format>image/svg+xml</dc:format>
        <dc:type
           rdf:resource="http://purl.org/dc/dcmitype/StillImage" />
      </cc:Work>
    </rdf:RDF>
  </metadata>
  <g
     inkscape:label="Calque 1"
     inkscape:groupmode="layer"
     id="layer1">
    <g
       id="g20114"
       transform="translate(-76.821567,-80.609361)"
       style="mix-blend-mode:normal">
      <path
         id="path13018-6-8"
         style="overflow:visible;mix-blend-mode:normal;stroke:#000000;stroke-width:0;stroke-linecap:round;stroke-linejoin:round;stop-color:#000000"
         d="m 170.8964,110.35129 c 0,10.75061 -8.71509,19.46569 -19.46569,19.46569 -10.7506,0 -19.46569,-8.71508 -19.46569,-19.46569 0,-10.750602 8.71509,-17.878189 19.46569,-17.878191 10.7506,2e-6 19.46569,7.127589 19.46569,17.878191 z"
         sodipodi:nodetypes="sssss" />
      <circle
         style="color:#000000;overflow:visible;mix-blend-mode:normal;fill:#a6120f;fill-opacity:1;stroke:#000000;stroke-width:0;stroke-linecap:round;stroke-linejoin:round;stroke-dasharray:none;stroke-opacity:1;stop-color:#000000"
         id="path13018-6-6-1"
         cx="151.38037"
         cy="118.20493"
         r="16.335524" />
      <path
         id="path10757-7"
         style="overflow:visible;mix-blend-mode:normal;stroke:#000000;stroke-width:3;stop-color:#000000"
         d="m 179.89816,138.96395 c 0,15.72214 -12.74531,28.46746 -28.46745,28.46746 -15.72214,0 -28.46745,-12.74532 -28.46745,-28.46746 0,-15.72213 12.74531,-29.52578 28.46745,-29.52578 15.72214,0 28.46745,13.80365 28.46745,29.52578 z"
         sodipodi:nodetypes="sssss" />
      <path
         id="rect8920-9-13-6-0-6-0-6-5-6"
         style="mix-blend-mode:normal;fill:url(#radialGradient19801-9);fill-opacity:1;stroke:#000000;stroke-width:3;stroke-linecap:round;stroke-linejoin:round;stroke-miterlimit:4;stroke-dasharray:none;stroke-opacity:1;stop-color:#000000"
         d="m 141.07425,173.09521 v 14.32522 c -5.82436,8.50699 -17.00452,9.95583 -26.30692,13.26689 24.44243,11.05014 48.88486,12.22098 73.32729,0 -10.08161,-2.38671 -18.3068,-5.95194 -25.02223,-13.26689 v -14.32522 z"
         sodipodi:nodetypes="ccccccc" />
      <ellipse
         ry="6.678576"
         rx="6.1759887"
         cy="148.88185"
         cx="121.42102"
         id="path861-2-8-1-3-9"
         style="color:#000000;overflow:visible;mix-blend-mode:normal;fill:#ffd386;fill-opacity:1;stroke:#000000;stroke-width:3;stroke-linecap:round;stroke-miterlimit:4;stroke-dasharray:none;stroke-opacity:1;stop-color:#000000" />
      <ellipse
         style="color:#000000;overflow:visible;mix-blend-mode:normal;fill:#f6c36c;fill-opacity:1;stroke:#000000;stroke-width:3;stroke-linecap:round;stroke-miterlimit:4;stroke-dasharray:none;stroke-opacity:1;stop-color:#000000"
         id="path861-0-6-3-6-8-7"
         cx="181.44043"
         cy="148.88185"
         rx="6.1759887"
         ry="6.678576" />
      <path
         id="rect1621-25-0-5-9"
         style="mix-blend-mode:normal;fill:url(#radialGradient1872-2-4-5-9);stroke:#000000;stroke-width:2.86316;stroke-linecap:round;stroke-linejoin:round;stop-color:#000000"
         d="m 151.43071,123.92255 c 4.4872,9.64472 15.28626,17.71249 28.4642,17.88087 v 14.15685 c -2.71279,15.86271 -21.95593,29.14836 -28.4642,29.52254 -6.50827,0.37418 -25.56433,-13.28565 -28.4642,-29.52254 v -14.15685 c 15.77348,-2.96118 22.58315,-11.42258 28.4642,-17.88087 z"
         sodipodi:nodetypes="ccczccc" />
      <path
         style="mix-blend-mode:normal;fill:none;stroke:#000000;stroke-width:3;stroke-linecap:round;stroke-linejoin:miter;stroke-miterlimit:4;stroke-dasharray:none;stroke-opacity:1"
         d="m 146.35638,168.73171 c 0,0 0.87343,1.5875 5.07433,1.5875 4.20088,0 5.07433,-1.5875 5.07433,-1.5875"
         id="path2252-1-8-7-6"
         sodipodi:nodetypes="czc" />
      <path
         style="mix-blend-mode:normal;fill:#000000;fill-opacity:0;stroke:#f6c36c;stroke-width:3;stroke-linecap:round;stroke-linejoin:miter;stroke-miterlimit:4;stroke-dasharray:none;stroke-opacity:1"
         d="m 147.94388,158.40691 c 0,0 2.10246,1.05833 3.48683,1.05833 1.38437,0 3.48682,-1.05833 3.48682,-1.05833"
         id="path2252-4-05-8-0-1"
         sodipodi:nodetypes="czc" />
      <g
         id="g66903-75-6-2-9"
         transform="translate(347.86842,23.098597)"
         style="mix-blend-mode:normal">
        <path
           style="fill:none;stroke:#000000;stroke-width:3;stroke-linecap:round;stroke-linejoin:round;stroke-miterlimit:4;stroke-dasharray:none;stroke-opacity:1"
           d="m -185.87201,115.07238 5.29167,1.05833"
           id="path66722-78-7-3-4"
           sodipodi:nodetypes="cc" />
        <path
           style="fill:none;stroke:#000000;stroke-width:3;stroke-linecap:round;stroke-linejoin:round;stroke-miterlimit:4;stroke-dasharray:none;stroke-opacity:1"
           d="m -212.29508,116.13071 5.29167,-1.05833"
           id="path66722-1-37-1-4-3"
           sodipodi:nodetypes="cc" />
      </g>
      <g
         id="g3891-3-6"
         transform="translate(379.22037,-299.46687)"
         style="mix-blend-mode:normal;fill:#000000;stroke:none;stroke-width:0;stroke-dasharray:none">
        <path
           id="path115124-2-9-0-8"
           style="mix-blend-mode:normal;fill:#000000;fill-opacity:1;stroke:none;stroke-width:0;stroke-linecap:round;stroke-linejoin:round;stroke-miterlimit:4;stroke-dasharray:none;stroke-opacity:1;stop-color:#000000"
           d="m -239.51071,450.05308 c -2.41346,-0.0818 -6.52595,-2.70056 -6.47949,-3.97091 0.03,-0.62812 9.88046,-0.0607 9.86158,0.36077 -0.0752,2.05931 -0.96884,3.69189 -3.38209,3.61014 z"
           sodipodi:nodetypes="sccs" />
        <path
           id="path115124-0-8-77-0-0"
           style="mix-blend-mode:normal;fill:#000000;fill-opacity:1;stroke:none;stroke-width:0;stroke-linecap:round;stroke-linejoin:round;stroke-miterlimit:4;stroke-dasharray:none;stroke-opacity:1;stop-color:#000000"
           d="m -215.67115,450.05308 c 2.41346,-0.0818 6.52595,-2.70056 6.47949,-3.97091 -0.03,-0.62812 -9.88046,-0.0607 -9.86158,0.36077 0.0752,2.05931 0.96884,3.69189 3.38209,3.61014 z"
           sodipodi:nodetypes="sccs" />
      </g>
      <g
         id="g66322-4-8"
         style="mix-blend-mode:normal"
         transform="translate(507.70626,-98.837783)">
        <g
           id="g712251-6-1"
           transform="translate(3.3110537,-0.67860645)"
           style="fill:#f2f2f2">
          <g
             id="g712740-29-4"
             transform="translate(-0.625065)">
            <g
               id="g717156-2-1">
              <path
                 id="rect8920-5-6-0"
                 style="fill:#f2f2f2;fill-opacity:1;stroke:#000000;stroke-width:3;stroke-linecap:round;stroke-linejoin:round;stroke-miterlimit:4;stroke-dasharray:none;stroke-opacity:1;stop-color:#000000"
                 d="m -370.63006,348.62575 -4.29239,-58.22225 c -5.71059,5.53179 -13.40669,7.00007 -21.27366,9.80021 -13.87987,4.94035 -13.39221,12.09694 -13.39221,12.09694 0,0 -3.18653,31.01421 0,36.3251 h 100.1112 c 3.18653,-8.34568 0,-36.3251 0,-36.3251 0,0 -0.37133,-9.01451 -13.39169,-12.09694 -8.904,-2.10792 -15.12166,-5.13513 -21.07907,-10.85295 l -4.4875,59.27499 z"
                 sodipodi:nodetypes="cccccccsccc"
                 transform="translate(0.96207994)" />
              <path
                 id="rect8920-5-9-70-4"
                 style="fill:#ffaaaa;fill-opacity:1;stroke:#000000;stroke-width:3;stroke-linecap:round;stroke-linejoin:round;stroke-miterlimit:4;stroke-dasharray:none;stroke-opacity:1;stop-color:#000000"
                 d="m -376.91674,292.11941 9.50556,56.50634 h 16.88352 l 9.67113,-56.56873 c -2.53561,-2.01003 -6.81055,8.67497 -18.29817,8.63814 -11.48762,-0.0368 -17.76204,-8.57575 -17.76204,-8.57575 z"
                 sodipodi:nodetypes="cccczc"
                 transform="translate(0.96207994)" />
              <path
                 style="fill:#f2f2f2;stroke:#000000;stroke-width:3;stroke-linecap:butt;stroke-linejoin:round;stroke-miterlimit:4;stroke-dasharray:none;stroke-opacity:1"
                 d="m -384.97918,296.54446 11.14285,-6.90268 7.38723,58.98397 h -3.67466 l -14.05905,-31.59238 5.68826,-2.35375 z"
                 id="path711499-1-2"
                 sodipodi:nodetypes="ccccccc" />
              <path
                 style="fill:#f2f2f2;stroke:#000000;stroke-width:3;stroke-linecap:butt;stroke-linejoin:round;stroke-miterlimit:4;stroke-dasharray:none;stroke-opacity:1"
                 d="m -332.16211,296.54446 -10.82369,-7.1937 -6.57978,59.27499 h 3.46007 l 13.14703,-31.59238 -5.68826,-2.35375 z"
                 id="path711499-8-0-2"
                 sodipodi:nodetypes="ccccccc" />
            </g>
          </g>
        </g>
        <g
           transform="translate(-1.5313831)"
           id="g66310-2-1">
          <path
             id="path66076-3-0"
             d="m -388.30601,347.94714 c -1.73758,-5.63152 -0.99573,-11.26303 -0.30348,-16.89455"
             style="fill:none;stroke:#000000;stroke-width:3;stroke-linecap:round;stroke-linejoin:miter;stroke-miterlimit:4;stroke-dasharray:none;stroke-opacity:1"
             sodipodi:nodetypes="cc" />
          <path
             id="path66076-0-9-0"
             d="m -320.09713,347.94714 c 1.76029,-3.45982 0.88525,-9.9942 -0.30348,-16.89455"
             style="mix-blend-mode:normal;fill:none;stroke:#000000;stroke-width:3;stroke-linecap:round;stroke-linejoin:miter;stroke-miterlimit:4;stroke-dasharray:none;stroke-opacity:1"
             sodipodi:nodetypes="cc" />
        </g>
      </g>
      <path
         style="mix-blend-mode:normal;fill:none;fill-rule:evenodd;stroke:#000000;stroke-width:3;stroke-linecap:round;stroke-linejoin:round;stroke-dasharray:none;stroke-opacity:1"
         d="m 179.89491,141.80342 c -6.4734,7.44171 -2.19298,27.04137 -4.49171,36.31726"
         id="path13014-1"
         sodipodi:nodetypes="cc" />
      <path
         style="mix-blend-mode:normal;fill:none;fill-rule:evenodd;stroke:#000000;stroke-width:3;stroke-linecap:round;stroke-linejoin:round;stroke-dasharray:none;stroke-opacity:1"
         d="m 122.96651,141.80342 c 8.1258,6.95582 1.78594,31.42091 6.1068,36.49964"
         id="path13016-5"
         sodipodi:nodetypes="cc" />
      <g
         id="g746371-4-1"
         transform="translate(660.1494,56.172438)"
         style="mix-blend-mode:normal">
        <g
           id="g744705-8-5"
           transform="translate(-211.65049,37.473608)">
          <path
             id="path215929-3-1-1"
             style="fill:#ffffff;fill-opacity:0.5;stroke:#000000;stroke-width:3;stroke-linecap:round;stroke-linejoin:round;stop-color:#000000"
             d="m -310.01374,45.054096 c -6.18792,0 -11.73314,3.958222 -11.73314,10.146152 0,6.187924 5.54522,10.145628 11.73314,10.145628 4.6872,0 10.52288,-2.87851 13.07827,-6.96391 2.55535,4.08552 8.39153,6.96391 13.07881,6.96391 6.18791,0 11.73313,-3.957704 11.73313,-10.145628 0,-6.18793 -5.54522,-10.146152 -11.73313,-10.146152 z"
             sodipodi:nodetypes="csscsscc" />
          <path
             id="rect743527-41-6"
             style="stroke:#000000;stroke-width:3;stroke-linecap:round;stroke-linejoin:round;stop-color:#000000"
             d="m -325.39303,48.604479 6.32018,1e-6 c -1.89708,1.726738 -2.84366,4.486891 -2.7839,8.341152 h -3.54265 z"
             sodipodi:nodetypes="ccccc" />
          <path
             id="rect743527-4-0-0"
             style="stroke:#000000;stroke-width:3;stroke-linecap:round;stroke-linejoin:round;stop-color:#000000"
             d="m -268.47737,48.604479 -6.32018,1e-6 c 1.89708,1.726738 2.84366,4.486891 2.7839,8.341152 h 3.54265 z"
             sodipodi:nodetypes="ccccc" />
        </g>
        <path
           style="opacity:0.6;fill:#ffffff;stroke:#ffffff;stroke-width:2;stroke-linecap:round;stroke-linejoin:round;stroke-miterlimit:4;stroke-dasharray:none;stroke-opacity:1"
           d="m -505.8901,85.919259 7.93883,-0.138696 c 7.6343,0 10.28834,3.900124 10.43328,7.673643 -5.03422,-6.65969 -11.80655,-6.815886 -18.37211,-7.534947 z"
           id="path745430-5-8"
           sodipodi:nodetypes="cccc" />
      </g>
    </g>
  </g>
</svg>
