<?xml version="1.0" encoding="UTF-8" standalone="no"?>
<svg
   xmlns:dc="http://purl.org/dc/elements/1.1/"
   xmlns:cc="http://creativecommons.org/ns#"
   xmlns:rdf="http://www.w3.org/1999/02/22-rdf-syntax-ns#"
   xmlns:svg="http://www.w3.org/2000/svg"
   xmlns="http://www.w3.org/2000/svg"
   xmlns:xlink="http://www.w3.org/1999/xlink"
   xmlns:sodipodi="http://sodipodi.sourceforge.net/DTD/sodipodi-0.dtd"
   xmlns:inkscape="http://www.inkscape.org/namespaces/inkscape"
   sodipodi:docname="dwarf-2.svg"
   inkscape:version="1.0 (4035a4fb49, 2020-05-01)"
   id="svg3147"
   version="1.1"
   viewBox="0 0 150 150"
   height="150mm"
   width="150mm">
  <defs
     id="defs3141">
    <pattern
       id="carreau-pt"
       patternTransform="translate(-2054.333,1959.2791)"
       height="7.6109896"
       width="8.7129582"
       patternUnits="userSpaceOnUse">
      <rect
         y="6.2746067e-06"
         x="-2.2737368e-13"
         height="7.6109834"
         width="8.7129364"
         id="rect119919"
         style="fill:#800000;fill-opacity:1;stroke:none;stroke-width:1.08628;stroke-linecap:round;stroke-linejoin:round;stroke-miterlimit:4;stroke-dasharray:none;stop-color:#000000" />
      <path
         id="path119921"
         d="M 3.0751503,7.6109858 V 0"
         style="fill:#800000;stroke:#c11a1a;stroke-width:1.81047;stroke-linecap:butt;stroke-linejoin:miter;stroke-miterlimit:4;stroke-dasharray:none;stroke-opacity:1" />
      <path
         id="path119923"
         d="M 1.3287401e-5,4.7904378 H 8.7129582"
         style="fill:#c11a1a;fill-opacity:1;stroke:#c11a1a;stroke-width:1.81047;stroke-linecap:butt;stroke-linejoin:miter;stroke-miterlimit:4;stroke-dasharray:none;stroke-opacity:1" />
    </pattern>
    <pattern
       id="pattern115842"
       patternTransform="translate(-1862,1831.9999)"
       height="85.000002"
       width="85.000037"
       patternUnits="userSpaceOnUse">
      <rect
         y="0"
         x="3.4178149e-05"
         height="85"
         width="85"
         id="rect104700"
         style="fill:#800000;fill-opacity:1;stroke:none;stroke-width:11.3386;stroke-linecap:round;stroke-linejoin:round;stroke-miterlimit:4;stroke-dasharray:none;stop-color:#000000" />
      <path
         id="path104779"
         d="M 30,84.999998 V 1.0187008e-5"
         style="fill:#800000;stroke:#c11a1a;stroke-width:18.8976;stroke-linecap:butt;stroke-linejoin:miter;stroke-miterlimit:4;stroke-dasharray:none;stroke-opacity:1" />
      <path
         id="path107256"
         d="M 0,53.500092 H 85.000025"
         style="fill:#c11a1a;fill-opacity:1;stroke:#c11a1a;stroke-width:18.8976;stroke-linecap:butt;stroke-linejoin:miter;stroke-miterlimit:4;stroke-dasharray:none;stroke-opacity:1" />
    </pattern>
    <radialGradient
       inkscape:collect="always"
       xlink:href="#linearGradient853"
       id="radialGradient855-7-6"
       cx="49.085705"
       cy="126.14996"
       fx="49.085705"
       fy="126.14996"
       r="36.473644"
       gradientTransform="matrix(1.5027544,0.16951695,-0.16869781,1.5122477,463.41016,439.91958)"
       gradientUnits="userSpaceOnUse" />
    <linearGradient
       inkscape:collect="always"
       id="linearGradient853">
      <stop
         style="stop-color:#ffbd86;stop-opacity:1;"
         offset="0"
         id="stop849" />
      <stop
         id="stop859"
         offset="0.70677221"
         style="stop-color:#ffbd86;stop-opacity:1" />
      <stop
         id="stop857"
         offset="0.70677215"
         style="stop-color:#f6a96c;stop-opacity:1" />
      <stop
         style="stop-color:#f6a96c;stop-opacity:1"
         offset="1"
         id="stop851" />
    </linearGradient>
  </defs>
  <sodipodi:namedview
     inkscape:window-maximized="1"
     inkscape:window-y="-8"
     inkscape:window-x="-8"
     inkscape:window-height="1017"
     inkscape:window-width="1920"
     showgrid="false"
     inkscape:document-rotation="0"
     inkscape:current-layer="layer1"
     inkscape:document-units="mm"
     inkscape:cy="529.77597"
     inkscape:cx="143.41376"
     inkscape:zoom="0.7"
     inkscape:pageshadow="2"
     inkscape:pageopacity="0.0"
     borderopacity="1.0"
     bordercolor="#666666"
     pagecolor="#ffffff"
     id="base" />
  <metadata
     id="metadata3144">
    <rdf:RDF>
      <cc:Work
         rdf:about="">
        <dc:format>image/svg+xml</dc:format>
        <dc:type
           rdf:resource="http://purl.org/dc/dcmitype/StillImage" />
        <dc:title></dc:title>
      </cc:Work>
    </rdf:RDF>
  </metadata>
  <g
     id="layer1"
     inkscape:groupmode="layer"
     inkscape:label="Calque 1">
    <g
       transform="translate(-455.03846,-556.69158)"
       style="mix-blend-mode:normal"
       id="g5576">
      <path
         sodipodi:nodetypes="ssccss"
         d="m 530.03847,663.79551 c 21.72509,0 44.27725,15.2408 42.91913,34.0625 v 7.33357 h -85.83826 v -7.33357 c 0,-18.87063 21.19404,-34.0625 42.91913,-34.0625 z"
         style="color:#000000;overflow:visible;fill:#5d665b;fill-opacity:1;stroke:#000000;stroke-width:3;stroke-linecap:round;stroke-miterlimit:4;stroke-dasharray:none;stroke-opacity:1;stop-color:#000000"
         id="rect880-7-73-9" />
      <ellipse
         ry="32.37331"
         rx="34.869713"
         cy="645.16168"
         cx="530.03845"
         id="path847-3-6"
         style="color:#000000;overflow:visible;fill:url(#radialGradient855-7-6);fill-opacity:1;stroke:#000000;stroke-width:3;stroke-linecap:round;stroke-miterlimit:4;stroke-dasharray:none;stroke-opacity:1;stop-color:#000000" />
      <g
         id="g2339-1-2-0"
         transform="translate(796.65106,201.64606)">
        <path
           id="path861-0-1-4-4-6-9"
           style="color:#000000;overflow:visible;fill:#ffbd86;fill-opacity:1;stroke:#000000;stroke-width:3;stroke-linecap:round;stroke-linejoin:round;stroke-miterlimit:4;stroke-dasharray:none;stroke-opacity:1;stop-color:#000000"
           d="m -303.82482,450.19423 c 3.4109,0 5.64682,-2.9901 5.64682,-6.67857 0,-3.68848 -2.76508,-6.67858 -6.17599,-6.67858 -1.70545,0 -4.89625,-1.21889 -4.89625,-1.21889 -1.01343,5.33198 -0.60902,14.15173 5.42542,14.57604 z"
           sodipodi:nodetypes="csscc" />
        <path
           sodipodi:nodetypes="csscc"
           d="m -229.40037,450.19423 c -3.4109,0 -5.64682,-2.9901 -5.64682,-6.67857 0,-3.68848 2.76508,-6.67858 6.17599,-6.67858 1.70545,0 4.89625,-1.21889 4.89625,-1.21889 1.01343,5.33198 0.60902,14.15173 -5.42542,14.57604 z"
           style="color:#000000;overflow:visible;fill:#f6a96c;fill-opacity:1;stroke:#000000;stroke-width:3;stroke-linecap:round;stroke-linejoin:round;stroke-miterlimit:4;stroke-dasharray:none;stroke-opacity:1;stop-color:#000000"
           id="path861-0-1-0-8-9" />
      </g>
      <path
         sodipodi:nodetypes="cc"
         d="m 532.866,665.98737 c -2.40459,1.04546 -3.77966,1.04546 -6.18425,0"
         style="color:#000000;overflow:visible;fill:none;fill-opacity:1;stroke:#000000;stroke-width:3;stroke-linecap:round;stroke-linejoin:round;stroke-miterlimit:4;stroke-dasharray:none;stroke-opacity:1;stop-color:#000000"
         id="path967-6-8-8" />
      <path
         sodipodi:arc-type="arc"
         sodipodi:open="true"
         sodipodi:end="6.2442187"
         sodipodi:start="0"
         sodipodi:ry="3.6081386"
         sodipodi:rx="2.6726952"
         sodipodi:cy="642.23785"
         sodipodi:cx="515.40546"
         sodipodi:type="arc"
         id="path984-4-9"
         style="color:#000000;overflow:visible;fill:#000000;fill-opacity:1;stroke:none;stroke-width:3;stroke-linecap:round;stroke-linejoin:round;stroke-miterlimit:4;stroke-dasharray:none;stroke-opacity:1;stop-color:#000000"
         d="m 518.07815,642.23785 a 2.6726952,3.6081386 0 0 1 -2.64666,3.60797 2.6726952,3.6081386 0 0 1 -2.69822,-3.53767 2.6726952,3.6081386 0 0 1 2.59409,-3.67689 2.6726952,3.6081386 0 0 1 2.74876,3.46603" />
      <path
         style="color:#000000;overflow:visible;fill:#000000;fill-opacity:1;stroke:none;stroke-width:3;stroke-linecap:round;stroke-linejoin:round;stroke-miterlimit:4;stroke-dasharray:none;stroke-opacity:1;stop-color:#000000"
         id="path984-3-5-2"
         sodipodi:type="arc"
         sodipodi:cx="544.67145"
         sodipodi:cy="642.23785"
         sodipodi:rx="2.6726952"
         sodipodi:ry="3.6081386"
         sodipodi:start="0"
         sodipodi:end="6.2442187"
         sodipodi:open="true"
         sodipodi:arc-type="arc"
         d="m 547.34414,642.23785 a 2.6726952,3.6081386 0 0 1 -2.64666,3.60797 2.6726952,3.6081386 0 0 1 -2.69822,-3.53767 2.6726952,3.6081386 0 0 1 2.59409,-3.67689 2.6726952,3.6081386 0 0 1 2.74876,3.46603" />
      <path
         style="color:#000000;overflow:visible;fill:none;fill-opacity:1;stroke:#f6a96c;stroke-width:3;stroke-linecap:round;stroke-linejoin:round;stroke-miterlimit:4;stroke-dasharray:none;stroke-opacity:1;stop-color:#000000"
         id="path967-5-7"
         sodipodi:type="arc"
         sodipodi:cx="530.03845"
         sodipodi:cy="650.07721"
         sodipodi:rx="2.5445035"
         sodipodi:ry="1.0402297"
         sodipodi:start="0"
         sodipodi:end="3.1415927"
         sodipodi:open="true"
         sodipodi:arc-type="arc"
         d="m 532.58296,650.07721 a 2.5445035,1.0402297 0 0 1 -1.27226,0.90086 2.5445035,1.0402297 0 0 1 -2.5445,0 2.5445035,1.0402297 0 0 1 -1.27225,-0.90086" />
      <g
         transform="translate(726.47617,518.96183)"
         id="g66903-6-14-0-5-5">
        <path
           id="path66722-4-0-0-4-4"
           d="m -185.87201,115.07238 h 5.29167"
           style="fill:none;stroke:#000000;stroke-width:3;stroke-linecap:round;stroke-linejoin:round;stroke-miterlimit:4;stroke-dasharray:none;stroke-opacity:1" />
        <path
           id="path66722-1-5-02-2-7-6"
           d="m -212.29508,115.07238 h 5.29167"
           style="fill:none;stroke:#000000;stroke-width:3;stroke-linecap:round;stroke-linejoin:round;stroke-miterlimit:4;stroke-dasharray:none;stroke-opacity:1" />
      </g>
      <path
         sodipodi:nodetypes="cccccccccccccccccccccccccccccccccccccccccccccccccccsc"
         d="m 503.70088,615.77556 c -10.26019,2.33027 -7.79788,12.18184 -9.05422,16.31114 -0.13886,1.04135 -3.50944,2.43869 -5.14491,2.61898 3.02999,4.24021 3.92997,5.31127 2.65669,10.27946 0.16414,6.44843 1.02272,18.02434 5.46168,22.10461 -1.70283,3.16151 0.33057,8.09469 2.97191,10.17146 -1.42888,1.88084 4.40566,7.64162 4.40566,7.64162 0,0 -1.83193,6.67533 4.45582,8.26283 0.61227,5.18467 3.30435,10.52531 7.64243,6.65644 1.95445,3.91551 5.85351,5.12958 9.15239,1.99885 1.939,2.65334 5.93844,2.83305 8.7726,-0.26715 3.8521,2.5423 8.3152,0.79581 10.34045,-1.95855 5.33919,1.20774 7.0852,-3.84834 7.33547,-6.40168 4.67537,-0.40806 6.32071,-5.08079 5.5082,-9.20408 2.21475,-2.94402 2.85475,-6.12746 1.8955,-9.36223 1.57491,-2.4148 2.25028,-4.7707 1.94871,-7.2993 5.28947,-4.33742 6.20615,-15.42878 2.00917,-22.16608 12.18901,0.14317 4.38623,-11.18883 0.0574,-14.72623 3.57063,-1.32588 4.18738,-4.2064 4.45659,-7.26985 -2.23573,1.04468 -4.4404,2.38472 -7.01715,0.18965 2.08442,-4.79885 -0.29966,-7.48535 -7.91527,-7.69874 -7.26811,4.07509 -35.88303,9.66473 -49.93913,0.11885 z m 36.03398,8.76329 c 1.11754,0.41437 3.50798,2.17496 4.39663,4.30311 10.45832,-1.95715 21.404,17.3909 10.10275,18.49239 7.31525,2.44512 -3.49843,6.77344 -8.09718,10.43141 -4.39457,-2.67811 -9.21779,-6.53592 -16.48944,-4.65087 -8.79134,-2.05904 -13.57614,3.65535 -19.07067,6.05956 -3.26694,-1.119 -9.41189,-4.13094 -9.81077,-7.97832 1.48002,-1.57626 4.02307,-2.45073 4.02307,-2.45073 0,0 -5.00441,-4.19389 -5.89841,-7.22154 3.63233,-7.13933 7.76382,-14.52883 19.39276,-14.61712 3.99593,0.24181 5.78975,3.42808 7.96349,6.0079 1.99779,-4.72644 4.08093,-7.90866 9.30132,-2.76294 0,0 3.5248,-4.56586 4.18645,-5.61285 z m -17.95188,35.09553 c 3.24451,1.74104 4.86519,1.73987 7.86464,0.44286 2.99929,1.29691 4.6202,1.29812 7.86463,-0.44286 3.36809,3.32716 5.82007,10.24789 8.64598,9.26404 2.37027,4.1461 5.82324,1.42296 5.82324,1.42296 0,0 -3.53976,6.60275 -2.9867,9.40945 -1.15766,1.18322 -1.95101,2.90425 -2.22726,4.83174 -3.10198,-0.53009 -5.72945,2.77601 -6.38876,4.79195 -3.39037,-1.81348 -5.23981,1.01804 -6.18464,3.49798 -3.45001,-3.86043 -5.82877,-1.81761 -7.48276,-0.0625 -1.92807,-3.53732 -6.77529,-2.82927 -6.77529,-2.82927 0,0 -1.45373,-4.24368 -5.18062,-4.06943 -0.23937,-2.02284 -1.48834,-5.10492 -3.11087,-5.66435 0.77804,-2.80827 -1.03285,-6.01311 -3.25405,-7.15873 0.21399,-1.22044 0.70225,-2.38771 -0.0206,-3.32023 2.23628,1.40102 4.84616,0.71125 5.29362,-1.43851 4.50713,2.92235 4.31314,-5.80221 8.11951,-8.67508 z"
         style="fill:#f56835;fill-opacity:1;stroke:#000000;stroke-width:3;stroke-linecap:round;stroke-linejoin:round;stroke-miterlimit:4;stroke-dasharray:none;stroke-opacity:1"
         id="path855451-5-4-2" />
    </g>
  </g>
</svg>
