<?xml version="1.0" encoding="UTF-8" standalone="no"?>
<svg
   xmlns:dc="http://purl.org/dc/elements/1.1/"
   xmlns:cc="http://creativecommons.org/ns#"
   xmlns:rdf="http://www.w3.org/1999/02/22-rdf-syntax-ns#"
   xmlns:svg="http://www.w3.org/2000/svg"
   xmlns="http://www.w3.org/2000/svg"
   xmlns:xlink="http://www.w3.org/1999/xlink"
   xmlns:sodipodi="http://sodipodi.sourceforge.net/DTD/sodipodi-0.dtd"
   xmlns:inkscape="http://www.inkscape.org/namespaces/inkscape"
   sodipodi:docname="farmer.svg"
   inkscape:version="1.0 (4035a4fb49, 2020-05-01)"
   id="svg3147"
   version="1.1"
   viewBox="0 0 150 150"
   height="150mm"
   width="150mm">
  <defs
     id="defs3141">
    <radialGradient
       gradientUnits="userSpaceOnUse"
       gradientTransform="matrix(0.33019488,-0.02631691,0.01195346,0.14997855,-389.19317,441.14646)"
       r="195.66344"
       fy="602.3324"
       fx="-391.23096"
       cy="602.3324"
       cx="-391.23096"
       id="radialGradient23876-5-93-8"
       xlink:href="#linearGradient228518"
       inkscape:collect="always" />
    <linearGradient
       inkscape:collect="always"
       id="linearGradient228518">
      <stop
         style="stop-color:#e4aa76;stop-opacity:1"
         offset="0"
         id="stop228510" />
      <stop
         id="stop228512"
         offset="0.70677221"
         style="stop-color:#e2aa75;stop-opacity:1" />
      <stop
         id="stop228514"
         offset="0.70677221"
         style="stop-color:#d09a6f;stop-opacity:1" />
      <stop
         style="stop-color:#d1996c;stop-opacity:1"
         offset="1"
         id="stop228516" />
    </linearGradient>
    <pattern
       patternTransform="translate(-2065.1841,1909.8877)"
       id="pattern123206"
       xlink:href="#carreau-pt"
       inkscape:collect="always" />
    <pattern
       id="carreau-pt"
       patternTransform="translate(-2054.333,1959.2791)"
       height="7.6109896"
       width="8.7129582"
       patternUnits="userSpaceOnUse">
      <rect
         y="6.2746067e-06"
         x="-2.2737368e-13"
         height="7.6109834"
         width="8.7129364"
         id="rect119919"
         style="fill:#800000;fill-opacity:1;stroke:none;stroke-width:1.08628;stroke-linecap:round;stroke-linejoin:round;stroke-miterlimit:4;stroke-dasharray:none;stop-color:#000000" />
      <path
         id="path119921"
         d="M 3.0751503,7.6109858 V 0"
         style="fill:#800000;stroke:#c11a1a;stroke-width:1.81047;stroke-linecap:butt;stroke-linejoin:miter;stroke-miterlimit:4;stroke-dasharray:none;stroke-opacity:1" />
      <path
         id="path119923"
         d="M 1.3287401e-5,4.7904378 H 8.7129582"
         style="fill:#c11a1a;fill-opacity:1;stroke:#c11a1a;stroke-width:1.81047;stroke-linecap:butt;stroke-linejoin:miter;stroke-miterlimit:4;stroke-dasharray:none;stroke-opacity:1" />
    </pattern>
    <pattern
       patternTransform="translate(-1442.2287,1978.5843)"
       id="pattern119939"
       xlink:href="#pattern115842"
       inkscape:collect="always" />
    <pattern
       id="pattern115842"
       patternTransform="translate(-1862,1831.9999)"
       height="85.000002"
       width="85.000037"
       patternUnits="userSpaceOnUse">
      <rect
         y="0"
         x="3.4178149e-05"
         height="85"
         width="85"
         id="rect104700"
         style="fill:#800000;fill-opacity:1;stroke:none;stroke-width:11.3386;stroke-linecap:round;stroke-linejoin:round;stroke-miterlimit:4;stroke-dasharray:none;stop-color:#000000" />
      <path
         id="path104779"
         d="M 30,84.999998 V 1.0187008e-5"
         style="fill:#800000;stroke:#c11a1a;stroke-width:18.8976;stroke-linecap:butt;stroke-linejoin:miter;stroke-miterlimit:4;stroke-dasharray:none;stroke-opacity:1" />
      <path
         id="path107256"
         d="M 0,53.500092 H 85.000025"
         style="fill:#c11a1a;fill-opacity:1;stroke:#c11a1a;stroke-width:18.8976;stroke-linecap:butt;stroke-linejoin:miter;stroke-miterlimit:4;stroke-dasharray:none;stroke-opacity:1" />
    </pattern>
    <radialGradient
       gradientUnits="userSpaceOnUse"
       gradientTransform="matrix(1.0473146,-0.18056617,0.12022138,0.66844298,-309.01617,337.88754)"
       r="29.964201"
       fy="159.0999"
       fx="-211.76003"
       cy="159.0999"
       cx="-211.76003"
       id="radialGradient1872-4-64-5"
       xlink:href="#linearGradient228518"
       inkscape:collect="always" />
  </defs>
  <sodipodi:namedview
     inkscape:window-maximized="1"
     inkscape:window-y="-8"
     inkscape:window-x="-8"
     inkscape:window-height="1017"
     inkscape:window-width="1920"
     showgrid="false"
     inkscape:document-rotation="0"
     inkscape:current-layer="layer1"
     inkscape:document-units="mm"
     inkscape:cy="560"
     inkscape:cx="400"
     inkscape:zoom="0.35"
     inkscape:pageshadow="2"
     inkscape:pageopacity="0.0"
     borderopacity="1.0"
     bordercolor="#666666"
     pagecolor="#ffffff"
     id="base" />
  <metadata
     id="metadata3144">
    <rdf:RDF>
      <cc:Work
         rdf:about="">
        <dc:format>image/svg+xml</dc:format>
        <dc:type
           rdf:resource="http://purl.org/dc/dcmitype/StillImage" />
        <dc:title></dc:title>
      </cc:Work>
    </rdf:RDF>
  </metadata>
  <g
     id="layer1"
     inkscape:groupmode="layer"
     inkscape:label="Calque 1">
    <g
       style="mix-blend-mode:normal"
       transform="translate(585.16589,-405.80037)"
       id="g136938">
      <ellipse
         style="color:#000000;overflow:visible;fill:#e3aa75;fill-opacity:1;stroke:#000000;stroke-width:3;stroke-linecap:round;stroke-miterlimit:4;stroke-dasharray:none;stroke-opacity:1;stop-color:#000000"
         id="path861-2-70-6-6"
         cx="-541.23395"
         cy="474.07285"
         rx="6.1759887"
         ry="6.678576" />
      <path
         sodipodi:nodetypes="cccccccsccc"
         d="m -522.63903,498.28622 v 14.32522 c -5.82436,8.50699 -14.88785,9.95583 -24.19025,13.26689 -13.87987,4.94035 -13.39221,12.09694 -13.39221,12.09694 v 16.3251 h 100.1112 v -16.3251 c 0,0 -0.37133,-9.0145 -13.39169,-12.09694 -10.08161,-2.38671 -16.71931,-5.95194 -23.43474,-13.26689 v -14.32522 z"
         style="fill:url(#radialGradient23876-5-93-8);fill-opacity:1;stroke:#000000;stroke-width:3;stroke-linecap:round;stroke-linejoin:round;stroke-miterlimit:4;stroke-dasharray:none;stroke-opacity:1;stop-color:#000000"
         id="rect8920-8-3-5" />
      <rect
         style="color:#000000;overflow:visible;fill:#800000;fill-opacity:1;stroke:#000000;stroke-width:3;stroke-linecap:round;stroke-linejoin:round;stop-color:#000000"
         id="rect1977-7"
         width="30.733421"
         height="24.004753"
         x="-526.05829"
         y="530.29559" />
      <path
         id="rect8920-5-2-6-8"
         style="fill:url(#pattern123206);fill-opacity:1;stroke:#000000;stroke-width:3;stroke-linecap:round;stroke-linejoin:round;stroke-miterlimit:4;stroke-dasharray:none;stroke-opacity:1;stop-color:#000000"
         d="m -525.28486,512.61143 c -5.82436,8.507 -12.24202,9.95583 -21.54442,13.26689 -13.87987,4.94036 -16.03805,12.09694 -16.03805,12.09694 l -1.05833,16.3251 h 106.99037 l -1.05833,-16.3251 c 0,0 -2.488,-9.0145 -15.50836,-12.09694 -10.08161,-2.38671 -14.07348,-5.95194 -20.78891,-13.26689 l -15.49698,28.10548 z"
         sodipodi:nodetypes="ccccccsccc" />
      <path
         style="fill:url(#pattern119939);fill-opacity:1;stroke:#000000;stroke-width:3;stroke-linecap:butt;stroke-linejoin:miter;stroke-miterlimit:4;stroke-dasharray:none;stroke-opacity:1"
         d="m -509.78787,540.71691 v 13.58346"
         id="path71731-9-9-3"
         sodipodi:nodetypes="cc" />
      <path
         sodipodi:nodetypes="ccccccccc"
         transform="matrix(0.26458333,0,0,0.26458333,49.692425,37.132853)"
         d="m -2195.0071,1825.1808 -31.9293,12.2699 -6.5636,117.1977 h 249 l -11.0538,-112.6388 -35.3619,-15.4561 -14.0843,110.0954 h -134.4247 z"
         style="fill:#4a94cc;fill-opacity:1;stroke:#000000;stroke-width:11.3386;stroke-linecap:round;stroke-linejoin:round;stroke-miterlimit:4;stroke-dasharray:none;stroke-opacity:1;stop-color:#000000"
         id="rect8920-8-3-5-2" />
      <path
         style="fill:#800000;fill-opacity:1;stroke:#000000;stroke-width:3;stroke-linecap:round;stroke-linejoin:round;stroke-miterlimit:4;stroke-dasharray:none;stroke-opacity:1"
         d="m -530.70763,518.17443 6.04997,20.59555 10.29899,-8.04941 -10.92619,-18.10914 z"
         id="path71766-3-4-3"
         sodipodi:nodetypes="ccccc" />
      <ellipse
         ry="6.678576"
         rx="6.1759887"
         cy="474.07285"
         cx="-479.0979"
         id="path861-0-6-5-2-8"
         style="color:#000000;overflow:visible;fill:#d09a6e;fill-opacity:1;stroke:#000000;stroke-width:3;stroke-linecap:round;stroke-miterlimit:4;stroke-dasharray:none;stroke-opacity:1;stop-color:#000000" />
      <path
         sodipodi:nodetypes="ssszsss"
         d="m -510.16589,438.53023 c 15.76916,0 28.4642,12.69503 28.4642,28.4642 v 14.15685 c 0,15.76917 -12.69504,28.46421 -28.4642,28.46421 -15.76916,0 -28.4642,-12.69504 -28.4642,-28.46421 v -14.15685 c 0,-15.76917 12.69503,-28.4642 28.4642,-28.4642 z"
         style="fill:url(#radialGradient1872-4-64-5);fill-opacity:1;stroke:#000000;stroke-width:2.86316;stroke-linecap:round;stroke-linejoin:round;stop-color:#000000"
         id="rect1621-9-52-22" />
      <g
         transform="translate(-300.42969,332.39505)"
         id="g2407-6-9-70">
        <path
           d="m -220.29867,141.14864 a 2.3012009,3.2740517 0 0 1 -2.27878,3.27389 2.3012009,3.2740517 0 0 1 -2.32318,-3.21011 2.3012009,3.2740517 0 0 1 2.23352,-3.33644 2.3012009,3.2740517 0 0 1 2.3667,3.14511"
           style="color:#000000;overflow:visible;fill:#000000;fill-opacity:1;stroke:none;stroke-width:3;stroke-linecap:round;stroke-linejoin:round;stroke-miterlimit:4;stroke-dasharray:none;stroke-opacity:1;stop-color:#000000"
           id="path984-6-3-5-22"
           sodipodi:type="arc"
           sodipodi:cx="-222.59987"
           sodipodi:cy="141.14864"
           sodipodi:rx="2.3012009"
           sodipodi:ry="3.2740517"
           sodipodi:start="0"
           sodipodi:end="6.2442187"
           sodipodi:open="true"
           sodipodi:arc-type="arc" />
        <path
           d="m -194.57134,141.14864 a 2.3012009,3.2740517 0 0 1 -2.27879,3.27389 2.3012009,3.2740517 0 0 1 -2.32318,-3.21011 2.3012009,3.2740517 0 0 1 2.23352,-3.33644 2.3012009,3.2740517 0 0 1 2.3667,3.14511"
           sodipodi:arc-type="arc"
           sodipodi:open="true"
           sodipodi:end="6.2442187"
           sodipodi:start="0"
           sodipodi:ry="3.2740517"
           sodipodi:rx="2.3012009"
           sodipodi:cy="141.14864"
           sodipodi:cx="-196.87254"
           sodipodi:type="arc"
           id="path984-3-2-8-6-3"
           style="color:#000000;overflow:visible;fill:#000000;fill-opacity:1;stroke:none;stroke-width:3;stroke-linecap:round;stroke-linejoin:round;stroke-miterlimit:4;stroke-dasharray:none;stroke-opacity:1;stop-color:#000000" />
      </g>
      <g
         transform="translate(-313.72818,350.40628)"
         id="g66903-6-0-9">
        <path
           id="path66722-4-3-3"
           d="m -185.87201,115.07238 h 5.29167"
           style="fill:none;stroke:#000000;stroke-width:3;stroke-linecap:round;stroke-linejoin:round;stroke-miterlimit:4;stroke-dasharray:none;stroke-opacity:1" />
        <path
           sodipodi:nodetypes="cc"
           id="path66722-1-5-7-8"
           d="m -212.29508,115.07238 5.50747,-1.70212"
           style="fill:none;stroke:#000000;stroke-width:3;stroke-linecap:round;stroke-linejoin:round;stroke-miterlimit:4;stroke-dasharray:none;stroke-opacity:1" />
      </g>
      <path
         sodipodi:nodetypes="ccccc"
         id="path71766-3-4-0-0"
         d="m -488.86811,518.17443 -6.04996,20.59556 -10.299,-8.04941 10.92618,-18.10914 z"
         style="fill:#800000;fill-opacity:1;stroke:#000000;stroke-width:3;stroke-linecap:round;stroke-linejoin:round;stroke-miterlimit:4;stroke-dasharray:none;stroke-opacity:1" />
      <path
         sodipodi:nodetypes="scsszsscssczcss"
         d="m -537.92413,456.06026 c -2.63136,0 -4.74959,2.1182 -4.74959,4.74956 -0.0181,13.32889 -0.50138,27.5298 1.05833,40.52104 0.91496,7.62097 7.74992,13.29355 15.68278,14.09579 0,0 10.43848,1.5875 15.69775,1.5875 5.25927,0 15.69774,-1.5875 15.69774,-1.5875 7.76928,-0.7857 14.90172,-6.28779 15.68275,-14.09579 1.312,-13.11615 1.19631,-27.11032 1.19631,-40.52104 0,-2.63136 -2.11873,-4.74956 -4.75009,-4.74956 -2.63136,0 -4.74959,2.1182 -4.74959,4.74956 0,0 1.87089,32.18119 0,35.17461 -8.65244,0.12273 -3.82192,-8.74882 -23.07712,-8.74882 -19.2552,0 -14.28633,8.70231 -22.93969,8.70231 -2.24506,-4.11595 0,-35.1281 0,-35.1281 0,-2.63136 -2.11822,-4.74956 -4.74958,-4.74956 z"
         style="fill:#e6e6e6;fill-opacity:1;stroke:#000000;stroke-width:3;stroke-linecap:round;stroke-linejoin:round;stroke-miterlimit:4;stroke-dasharray:none;stop-color:#000000"
         id="rect85158" />
      <g
         transform="translate(54.293083,184.77123)"
         id="g125275">
        <path
           sodipodi:nodetypes="ssszs"
           d="m -514.56302,271.74962 c 1.17128,5.25069 -19.95197,12.5743 -49.91726,6.84113 -26.50331,-5.0708 -49.91726,-4.90124 -49.91726,-7.89946 0,-2.99823 37.93958,-16.01211 49.91726,-16.01211 11.97768,0 49.26449,14.14414 49.91726,17.07044 z"
           style="fill:#75b5ed;stroke:#000000;stroke-width:3;stroke-linecap:round;stroke-linejoin:round;stop-color:#000000"
           id="path125256" />
        <path
           sodipodi:nodetypes="ssszs"
           d="m -510.75888,272.05981 c 1.26058,5.65102 -21.47314,13.53299 -53.72302,7.36271 -28.52397,-5.4574 -53.72303,-5.27492 -53.72303,-8.50172 0,-3.22682 40.83215,-17.2329 53.72303,-17.2329 12.89087,0 53.02048,15.22251 53.72302,18.37191 z"
           style="fill:#e0bc58;fill-opacity:1;stroke:#000000;stroke-width:3.22872;stroke-linecap:round;stroke-linejoin:round;stop-color:#000000"
           id="path879372-2" />
        <path
           sodipodi:nodetypes="cczcccc"
           d="m -578.77577,228.71293 c 5.66987,0.47293 5.66987,0.47293 0,0 0,0 9.12322,1.6764 13.76573,1.46006 4.6425,-0.21634 13.76572,-2.77327 13.76572,-2.77327 4.69596,6.93831 9.03616,16.74479 12.53965,32.6687 l -52.07431,0.1569 c 2.10558,-9.92235 5.23453,-18.76979 12.00321,-31.51239 z"
           style="fill:#e0bc58;fill-opacity:1;stroke:#000000;stroke-width:3;stroke-linecap:round;stroke-linejoin:round;stop-color:#000000"
           id="rect880720-5" />
        <path
           sodipodi:nodetypes="czcczcc"
           id="path125260"
           d="m -590.77898,260.22532 c 0,0 6.30917,4.23334 26.29868,4.23334 19.98952,0 26.29869,-4.23334 26.29869,-4.23334 l -2.88602,-10.77075 c 0,0 -9.24461,4.23333 -23.41941,4.23333 -14.1748,0 -23.41941,-4.23333 -23.41941,-4.23333 z"
           style="fill:#e0bc58;fill-opacity:1;stroke:#000000;stroke-width:3;stroke-linecap:round;stroke-linejoin:round;stroke-miterlimit:4;stroke-dasharray:none;stroke-opacity:1" />
        <path
           sodipodi:nodetypes="czcczcc"
           id="path882583-5"
           d="m -590.77898,260.22532 c 0,0 6.30917,4.23334 26.29868,4.23334 19.98952,0 26.29869,-4.23334 26.29869,-4.23334 l -2.88602,-10.77075 c 0,0 -9.24461,4.23333 -23.41941,4.23333 -14.1748,0 -23.41941,-4.23333 -23.41941,-4.23333 z"
           style="fill:#800000;fill-opacity:1;stroke:#000000;stroke-width:3;stroke-linecap:round;stroke-linejoin:round;stroke-miterlimit:4;stroke-dasharray:none;stroke-opacity:1" />
      </g>
      <path
         sodipodi:nodetypes="czc"
         id="path2252-47-2-6"
         d="m -516.82772,493.39355 c 0,0 2.46093,2.11667 6.66183,2.11667 4.20088,0 6.66183,-2.11667 6.66183,-2.11667"
         style="fill:none;stroke:#000000;stroke-width:3;stroke-linecap:round;stroke-linejoin:miter;stroke-miterlimit:4;stroke-dasharray:none;stroke-opacity:1" />
      <path
         sodipodi:nodetypes="czc"
         id="path2252-4-5-4-1"
         d="m -513.65272,483.59792 c 0,0 2.10246,1.05833 3.48683,1.05833 1.38437,0 3.48682,-1.05833 3.48682,-1.05833"
         style="fill:none;fill-opacity:1;stroke:#d09a6e;stroke-width:3;stroke-linecap:round;stroke-linejoin:miter;stroke-miterlimit:4;stroke-dasharray:none;stroke-opacity:1" />
    </g>
  </g>
</svg>
