<?xml version="1.0" encoding="UTF-8" standalone="no"?>
<svg
   width="150mm"
   height="170mm"
   viewBox="0 0 150 170"
   version="1.1"
   id="svg3147"
   inkscape:version="1.1.1 (3bf5ae0d25, 2021-09-20)"
   sodipodi:docname="journalist.svg"
   xmlns:inkscape="http://www.inkscape.org/namespaces/inkscape"
   xmlns:sodipodi="http://sodipodi.sourceforge.net/DTD/sodipodi-0.dtd"
   xmlns:xlink="http://www.w3.org/1999/xlink"
   xmlns="http://www.w3.org/2000/svg"
   xmlns:svg="http://www.w3.org/2000/svg"
   xmlns:rdf="http://www.w3.org/1999/02/22-rdf-syntax-ns#"
   xmlns:cc="http://creativecommons.org/ns#"
   xmlns:dc="http://purl.org/dc/elements/1.1/">
  <defs
     id="defs3141">
    <radialGradient
       inkscape:collect="always"
       xlink:href="#linearGradient326752"
       id="radialGradient1872-4-4-5"
       cx="-212.20439"
       cy="154.11053"
       fx="-212.20439"
       fy="154.11053"
       r="29.964201"
       gradientTransform="matrix(1.1258257,0.49931531,-0.54073927,1.2777033,-1613.675,410.77776)"
       gradientUnits="userSpaceOnUse" />
    <linearGradient
       id="linearGradient326752"
       inkscape:collect="always">
      <stop
         id="stop326744"
         offset="0"
         style="stop-color:#f8bc80;stop-opacity:1" />
      <stop
         style="stop-color:#f8bc80;stop-opacity:1"
         offset="0.70677221"
         id="stop326746" />
      <stop
         style="stop-color:#f6ae76;stop-opacity:1"
         offset="0.70677221"
         id="stop326748" />
      <stop
         id="stop326750"
         offset="1"
         style="stop-color:#f6ae76;stop-opacity:1" />
    </linearGradient>
  </defs>
  <sodipodi:namedview
     inkscape:object-paths="true"
     id="base"
     pagecolor="#ffffff"
     bordercolor="#666666"
     borderopacity="1.0"
     inkscape:pageopacity="0.0"
     inkscape:pageshadow="2"
     inkscape:zoom="0.24748737"
     inkscape:cx="393.9595"
     inkscape:cy="468.71079"
     inkscape:document-units="mm"
     inkscape:current-layer="layer1"
     inkscape:document-rotation="0"
     showgrid="false"
     inkscape:window-width="1920"
     inkscape:window-height="1000"
     inkscape:window-x="-11"
     inkscape:window-y="-11"
     inkscape:window-maximized="1"
     inkscape:showpageshadow="2"
     inkscape:pagecheckerboard="0"
     inkscape:deskcolor="#d1d1d1" />
  <metadata
     id="metadata3144">
    <rdf:RDF>
      <cc:Work
         rdf:about="">
        <dc:format>image/svg+xml</dc:format>
        <dc:type
           rdf:resource="http://purl.org/dc/dcmitype/StillImage" />
      </cc:Work>
    </rdf:RDF>
  </metadata>
  <g
     inkscape:label="Calque 1"
     inkscape:groupmode="layer"
     id="layer1">
    <g
       id="g121494"
       style="mix-blend-mode:normal"
       transform="translate(2007.9319,-430.39132)">
      <path
         id="rect8920-9-13-6-4-1"
         style="mix-blend-mode:normal;fill:#f8bc80;fill-opacity:1;stroke:#000000;stroke-width:3;stroke-linecap:round;stroke-linejoin:round;stroke-miterlimit:4;stroke-dasharray:none;stroke-opacity:1;stop-color:#000000"
         d="m -1945.8104,522.87702 v 14.32522 c -5.8244,8.50699 -14.8879,9.95583 -24.1903,13.26689 -13.8798,4.94035 -13.3922,12.09694 -13.3922,12.09694 -0.6204,12.52196 -5.1121,27.62484 0,36.3251 h 100.1112 c 4.3856,-4.79897 4.1658,-17.27369 0,-36.3251 0,0 -0.3713,-9.0145 -13.3917,-12.09694 -10.0816,-2.38671 -16.7193,-5.95194 -23.4347,-13.26689 v -14.32522 z"
         sodipodi:nodetypes="cccccccsccc" />
      <path
         sodipodi:nodetypes="ccccccccc"
         id="path5955-6-2-8"
         d="m -1952.3843,543.54812 6.5739,-6.34588 v -14.32522 h 25.7023 v 14.32522 c 4.0395,7.43179 21.4405,13.04545 34.1514,19.2973 7.4676,13.56652 5.5796,34.8594 2.675,42.39163 -4.833,-18.67683 5.3425,-39.0666 -24.182,-52.07354 0,0 -23.1661,-11.05522 -44.9206,-3.26951 z"
         style="mix-blend-mode:darken;fill:#f6ae76;fill-opacity:1;stroke:none;stroke-width:0.264583px;stroke-linecap:butt;stroke-linejoin:miter;stroke-opacity:1" />
      <ellipse
         ry="6.678576"
         rx="6.1759887"
         cy="498.66367"
         cx="-1962.8179"
         id="path861-2-70-55-4"
         style="color:#000000;overflow:visible;mix-blend-mode:normal;fill:#f8bc80;fill-opacity:1;stroke:#000000;stroke-width:3;stroke-linecap:round;stroke-miterlimit:4;stroke-dasharray:none;stroke-opacity:1;stop-color:#000000" />
      <ellipse
         style="color:#000000;overflow:visible;mix-blend-mode:normal;fill:#f6ae76;fill-opacity:1;stroke:#000000;stroke-width:3;stroke-linecap:round;stroke-miterlimit:4;stroke-dasharray:none;stroke-opacity:1;stop-color:#000000"
         id="path861-0-6-5-42-1"
         cx="-1903.8568"
         cy="498.66367"
         rx="6.1759887"
         ry="6.678576" />
      <path
         id="rect1621-9-0-4"
         style="mix-blend-mode:normal;fill:url(#radialGradient1872-4-4-5);fill-opacity:1;stroke:#000000;stroke-width:2.86316;stroke-linecap:round;stroke-linejoin:round;stop-color:#000000"
         d="m -1933.3373,463.12104 c 15.7692,0 28.4642,7.94473 28.4642,28.4642 v 14.15685 c 0,10.97554 -9.8738,20.88046 -16.9784,24.15676 -3.7642,2.0939 -4.7237,4.02417 -11.4858,4.30744 -6.7621,0.28327 -7.43,-2.00599 -10.8538,-3.7051 -7.5432,-1.44514 -17.6104,-13.29837 -17.6104,-24.7591 v -14.15685 c 0,-20.59032 12.695,-28.46421 28.4642,-28.4642 z"
         sodipodi:nodetypes="sssczcsss" />
      <g
         id="g2407-6-89-3"
         transform="translate(-1723.6011,356.98586)"
         style="mix-blend-mode:normal">
        <path
           sodipodi:arc-type="arc"
           sodipodi:open="true"
           sodipodi:end="6.2442187"
           sodipodi:start="0"
           sodipodi:ry="3.2740517"
           sodipodi:rx="2.3012009"
           sodipodi:cy="141.14864"
           sodipodi:cx="-222.59987"
           sodipodi:type="arc"
           id="path984-6-3-9-5"
           style="color:#000000;overflow:visible;fill:#000000;fill-opacity:1;stroke:none;stroke-width:3;stroke-linecap:round;stroke-linejoin:round;stroke-miterlimit:4;stroke-dasharray:none;stroke-opacity:1;stop-color:#000000"
           d="m -220.29867,141.14864 a 2.3012009,3.2740517 0 0 1 -2.27878,3.27389 2.3012009,3.2740517 0 0 1 -2.32318,-3.21011 2.3012009,3.2740517 0 0 1 2.23352,-3.33644 2.3012009,3.2740517 0 0 1 2.3667,3.14511" />
        <path
           style="color:#000000;overflow:visible;fill:#000000;fill-opacity:1;stroke:none;stroke-width:3;stroke-linecap:round;stroke-linejoin:round;stroke-miterlimit:4;stroke-dasharray:none;stroke-opacity:1;stop-color:#000000"
           id="path984-3-2-8-0-7"
           sodipodi:type="arc"
           sodipodi:cx="-196.87254"
           sodipodi:cy="141.14864"
           sodipodi:rx="2.3012009"
           sodipodi:ry="3.2740517"
           sodipodi:start="0"
           sodipodi:end="6.2442187"
           sodipodi:open="true"
           sodipodi:arc-type="arc"
           d="m -194.57134,141.14864 a 2.3012009,3.2740517 0 0 1 -2.27879,3.27389 2.3012009,3.2740517 0 0 1 -2.32318,-3.21011 2.3012009,3.2740517 0 0 1 2.23352,-3.33644 2.3012009,3.2740517 0 0 1 2.3667,3.14511" />
      </g>
      <g
         id="g66903-6-51-5"
         transform="translate(-1736.8996,374.99709)"
         style="mix-blend-mode:normal">
        <path
           style="fill:none;stroke:#000000;stroke-width:3;stroke-linecap:round;stroke-linejoin:round;stroke-miterlimit:4;stroke-dasharray:none;stroke-opacity:1"
           d="m -185.87201,113.48488 5.29167,1.5875"
           id="path66722-4-06-2"
           sodipodi:nodetypes="cc" />
        <path
           style="fill:none;stroke:#000000;stroke-width:3;stroke-linecap:round;stroke-linejoin:round;stroke-miterlimit:4;stroke-dasharray:none;stroke-opacity:1"
           d="m -212.29508,115.07238 h 5.29167"
           id="path66722-1-5-945-8" />
      </g>
      <path
         id="rect8920-5-2-2-4"
         style="mix-blend-mode:normal;fill:#75b5ed;fill-opacity:1;stroke:#000000;stroke-width:3;stroke-linecap:round;stroke-linejoin:round;stroke-miterlimit:4;stroke-dasharray:none;stroke-opacity:1;stop-color:#000000"
         d="m -1945.8104,537.20224 c -5.8244,8.50699 -14.8879,9.95583 -24.1903,13.26689 l 17.2003,48.42204 h 45.1274 l 10.9996,-48.42204 c -10.0816,-2.38671 -16.7193,-5.95194 -23.4347,-13.26689 l -8.619,10.94261 -4.2322,17.63239 -5.6866,-18.45281 z"
         sodipodi:nodetypes="cccccccccc" />
      <path
         style="mix-blend-mode:normal;fill:#dcd8dc;fill-opacity:1;stroke:#000000;stroke-width:3;stroke-linecap:butt;stroke-linejoin:miter;stroke-miterlimit:4;stroke-dasharray:none;stroke-opacity:1"
         d="m -1932.9593,565.77724 v 33.11393"
         id="path71731-9-1-6"
         sodipodi:nodetypes="cc" />
      <path
         style="mix-blend-mode:normal;fill:none;stroke:#000000;stroke-width:0.264583px;stroke-linecap:butt;stroke-linejoin:miter;stroke-opacity:1"
         d="m -1914.6853,542.76523 -5.4228,-5.56299"
         id="path22674-3-2" />
      <path
         style="mix-blend-mode:normal;fill:none;stroke:#000000;stroke-width:3;stroke-linecap:round;stroke-linejoin:round;stroke-miterlimit:4;stroke-dasharray:none;stroke-opacity:1"
         d="m -1945.8104,537.20224 -5.4228,5.56299 4.6903,14.29339 7.897,-9.73419 z"
         id="path22943-70-8"
         sodipodi:nodetypes="ccccc" />
      <path
         style="mix-blend-mode:normal;fill:none;stroke:#000000;stroke-width:3;stroke-linecap:round;stroke-linejoin:round;stroke-miterlimit:4;stroke-dasharray:none;stroke-opacity:1"
         d="m -1920.1081,537.20224 5.4227,5.56299 -7.0674,14.39674 -6.9743,-9.01712 z"
         id="path22943-7-7-6"
         sodipodi:nodetypes="ccccc" />
      <path
         style="mix-blend-mode:normal;fill:#4c2817;fill-opacity:1;fill-rule:evenodd;stroke:#000000;stroke-width:3;stroke-linecap:round;stroke-linejoin:round;stroke-dasharray:none;stroke-opacity:1"
         d="m -1961.8015,491.58523 v 7.07843 c 7.1043,-6.24889 3.9233,-16.94915 6.2003,-26.6796 4.8321,1.50932 14.9842,-0.43537 14.9842,-0.43537 0.052,0.0187 -4.4548,4.28388 -8.3614,4.50306 10.4806,5.12246 21.9334,1.53393 36.1977,-4.72942 -0.4932,11.42028 7.5002,27.80937 7.9076,27.34133 v -7.07843 l 2.6038,0.39986 c -3.4322,-17.17105 -4.5392,-29.71541 -15.858,-32.29216 -11.3188,-2.57675 -17.3318,-2.27334 -30.4519,-0.0248 -13.1201,2.24854 -11.7632,9.04557 -15.8262,32.31697 l 2.6039,-0.39986 z"
         id="path133770-0"
         sodipodi:nodetypes="ccccccccczzccc" />
      <path
         id="rect8920-9-13-6-4-2-4"
         style="mix-blend-mode:normal;fill:#826856;fill-opacity:1;stroke:#000000;stroke-width:3;stroke-linecap:round;stroke-linejoin:round;stroke-miterlimit:4;stroke-dasharray:none;stroke-opacity:1;stop-color:#000000"
         d="m -1917.9093,539.4567 c 1.8136,20.62275 -8.56,31.75986 -6.5268,59.43447 l 43.2709,1.5e-4 c 1.5354,-6.8818 2.0491,-17.27403 -2.1167,-36.32544 0,0 -0.3711,-9.01449 -13.3914,-12.09693 -8.9824,-2.12648 -15.2305,-5.19617 -21.236,-11.01225 z m -30.8497,1.24282 c -5.7074,5.50629 -13.3894,6.97453 -21.2416,9.76943 -13.8799,4.94035 -13.3925,12.09693 -13.3925,12.09693 -0.6204,12.52196 -3.8495,26.89436 -1.5875,36.32544 l 44.9913,-1.5e-4 c 2.8065,-21.6899 -6.5955,-38.27893 -8.7697,-58.19165 z"
         sodipodi:nodetypes="ccccsccscccc" />
      <path
         style="mix-blend-mode:normal;fill:#826856;fill-opacity:1;stroke:#000000;stroke-width:3;stroke-linecap:round;stroke-linejoin:round;stroke-miterlimit:4;stroke-dasharray:none;stroke-opacity:1"
         d="m -1920.1081,532.93491 c -0.5282,4.54262 2.1044,16.66276 -1.0636,21.03915 -5.5517,10.49644 -3.5061,23.28192 -3.2581,30.87796 2.9898,-3.81353 9.452,-15.55698 8.4876,-33.56091 l 5.3382,10.25306 -2.8967,-19.40177 c -1.904,-3.35462 -2.6716,-7.79631 -6.6074,-9.20749 z"
         id="path51353-4"
         sodipodi:nodetypes="ccccccc" />
      <path
         style="mix-blend-mode:normal;fill:#826856;fill-opacity:1;stroke:#000000;stroke-width:3;stroke-linecap:round;stroke-linejoin:round;stroke-miterlimit:4;stroke-dasharray:none;stroke-opacity:1"
         d="m -1945.7768,534.34063 c 0.5282,4.54262 -1.9111,9.7077 1.257,14.08409 0.1751,16.38287 5.1778,34.24628 4.9904,39.59666 -1.3521,-10.0129 -9.4886,-10.05688 -10.235,-35.91862 l -6.5913,9.53715 3.9714,-18.09179 c 1.9041,-3.35462 2.6716,-7.79631 6.6075,-9.20749 z"
         id="path51353-6-0"
         sodipodi:nodetypes="ccccccc" />
      <path
         id="rect62362-7"
         style="mix-blend-mode:normal;fill:#826856;fill-opacity:1;stroke:#000000;stroke-width:3;stroke-linecap:round;stroke-linejoin:round;stop-color:#000000"
         d="m -1915.4822,579.96151 c 6.595,-0.35277 13.7101,-1.23472 21.0827,-1.5875 l -2.1167,20.51716 h -19.4952 z"
         sodipodi:nodetypes="ccccc" />
      <path
         style="mix-blend-mode:normal;fill:none;stroke:#000000;stroke-width:3;stroke-linecap:butt;stroke-linejoin:miter;stroke-miterlimit:4;stroke-dasharray:none;stroke-opacity:1"
         d="m -1915.7159,588.32082 c 6.5574,1.34419 14.1783,-0.48783 20.4752,-1.79346"
         id="path63180-3"
         sodipodi:nodetypes="cc" />
      <path
         id="rect62362-6-2"
         style="mix-blend-mode:normal;fill:#826856;fill-opacity:1;stroke:#000000;stroke-width:3;stroke-linecap:round;stroke-linejoin:round;stop-color:#000000"
         d="m -1947.7768,578.41124 c -6.5951,-0.35277 -13.7102,0.31557 -21.0827,-0.0372 l 2.1167,20.51716 h 19.4952 z"
         sodipodi:nodetypes="ccccc" />
      <path
         style="mix-blend-mode:normal;fill:none;stroke:#000000;stroke-width:3;stroke-linecap:butt;stroke-linejoin:miter;stroke-miterlimit:4;stroke-dasharray:none;stroke-opacity:1"
         d="m -1947.5431,586.73334 c -5.4057,-0.003 -13.1819,-0.0659 -20.4752,-0.20596"
         id="path63180-0-9"
         sodipodi:nodetypes="cc" />
      <path
         style="mix-blend-mode:normal;fill:none;stroke:#000000;stroke-width:3;stroke-linecap:butt;stroke-linejoin:miter;stroke-miterlimit:4;stroke-dasharray:none;stroke-opacity:1"
         d="m -1982.8345,560.08671 c 12.3344,2.49764 13.975,18.28733 13.975,18.28733"
         id="path64462-6"
         sodipodi:nodetypes="cc" />
      <path
         style="mix-blend-mode:normal;fill:none;stroke:#000000;stroke-width:3;stroke-linecap:butt;stroke-linejoin:miter;stroke-miterlimit:4;stroke-dasharray:none;stroke-opacity:1"
         d="m -1894.3995,578.37401 c 0,0 -2.9006,-14.34606 8.4428,-21.87447"
         id="path64464-5"
         sodipodi:nodetypes="cc" />
      <path
         style="mix-blend-mode:normal;fill:none;stroke:#000000;stroke-width:3;stroke-linecap:butt;stroke-linejoin:miter;stroke-miterlimit:4;stroke-dasharray:none;stroke-opacity:1"
         d="m -1976.5628,563.0128 c 6.5953,-5.77794 14.5518,-6.92814 22.0334,-9.69274"
         id="path64674-9"
         sodipodi:nodetypes="cc" />
      <path
         style="mix-blend-mode:normal;fill:none;stroke:#000000;stroke-width:3;stroke-linecap:butt;stroke-linejoin:miter;stroke-miterlimit:4;stroke-dasharray:none;stroke-opacity:1"
         d="m -1912.0008,552.18824 c 7.3871,5.11539 14.8519,2.92217 21.6862,8.28202"
         id="path64676-4"
         sodipodi:nodetypes="cc" />
      <path
         style="mix-blend-mode:normal;fill:none;stroke:#f6ae76;stroke-width:3;stroke-linecap:round;stroke-linejoin:miter;stroke-miterlimit:4;stroke-dasharray:none;stroke-opacity:1"
         d="m -1941.8484,509.81907 c -5.1935,3.56085 -4.7065,5.73884 -3.2039,11.42049"
         id="path68170-3"
         sodipodi:nodetypes="cc" />
      <path
         style="mix-blend-mode:normal;fill:none;stroke:#f6ae76;stroke-width:3;stroke-linecap:round;stroke-linejoin:miter;stroke-miterlimit:4;stroke-dasharray:none;stroke-opacity:1"
         d="m -1924.8861,509.66404 c 4.9038,3.48161 6.0725,6.18827 3.9484,11.4045"
         id="path68172-9"
         sodipodi:nodetypes="cc" />
      <path
         style="fill:none;stroke:#000000;stroke-width:3;stroke-linecap:round;stroke-linejoin:miter;stroke-miterlimit:4;stroke-dasharray:none;stroke-opacity:1"
         d="m -1939.8412,518.40374 c 0,0 2.7135,1.78146 6.8792,1.23945 4.1658,-0.54201 6.3331,-2.95849 6.3331,-2.95849"
         id="path2252-47-4-4"
         sodipodi:nodetypes="czc" />
      <g
         id="g111362"
         transform="translate(0.05025584,4.7467039)">
        <g
           id="g111688"
           transform="translate(0,1.0583333)">
          <path
             sodipodi:nodetypes="sssss"
             d="m -1886.9123,465.64345 c 0.3939,7.26631 -34.4674,15.37269 -44.9225,18.81549 -15.6022,5.13767 -46.4996,-3.92127 -46.8935,-11.18758 -0.394,-7.26631 19.8437,-11.09719 45.2376,-12.47402 25.3938,-1.37683 46.1844,-2.4202 46.5784,4.84611 z"
             style="mix-blend-mode:normal;fill:#826856;fill-opacity:1;stroke:#000000;stroke-width:3;stroke-linecap:round;stroke-linejoin:round;stop-color:#000000"
             id="path765893-0" />
          <path
             sodipodi:nodetypes="czcccc"
             d="m -1960.0171,446.96202 c 8.5146,-3.49959 16.3175,2.50667 25.2794,1.27909 8.9619,-1.22758 16.2242,-5.16538 24.993,-4.00482 l 3.9928,24.77271 -55.5562,3.01222 z"
             style="mix-blend-mode:normal;fill:#826856;fill-opacity:1;stroke:#000000;stroke-width:3;stroke-linecap:round;stroke-linejoin:round;stop-color:#000000"
             id="rect766154-6" />
          <rect
             style="fill:#ffffff;fill-opacity:1;stroke:#000000;stroke-width:2;stroke-linecap:round;stroke-linejoin:round;stroke-miterlimit:4;stroke-dasharray:none;stroke-opacity:1;stop-color:#000000"
             id="rect111130"
             width="18.230513"
             height="12.431357"
             x="-1896.5892"
             y="-602.30084"
             ry="0.89444244"
             transform="rotate(-31.063486)" />
          <path
             sodipodi:nodetypes="czcczcc"
             id="path767853-6"
             d="m -1961.3081,472.02122 c 0,0 10.6899,4.13782 26.9834,3.31753 16.2936,-0.82029 28.8845,-6.34665 28.5729,-6.32975 l -1.0918,-6.47952 c 0,0 -18.3175,4.17283 -26.868,4.63643 -8.5505,0.4636 -27.2118,-1.70427 -27.2118,-1.70427 z"
             style="mix-blend-mode:normal;fill:#4c2817;fill-opacity:1;stroke:#000000;stroke-width:3;stroke-linecap:round;stroke-linejoin:round;stroke-miterlimit:4;stroke-dasharray:none;stroke-opacity:1" />
        </g>
      </g>
      <path
         d="m -1935.9163,510.29306 c -4.2913,0.0371 -6.3152,7.31622 -11.9,3.82412 1.9312,2.12527 6.9525,7.44989 14.479,1.32308 7.5264,6.12681 12.548,0.80219 14.4792,-1.32308 -6.5925,4.12216 -8.2239,-6.76283 -14.4792,-3.02927 -0.9561,-0.5706 -1.8048,-0.80154 -2.579,-0.79485 z"
         style="mix-blend-mode:normal;fill:#4c2817;fill-opacity:1;fill-rule:evenodd;stroke:#000000;stroke-width:2;stroke-linecap:round;stroke-linejoin:round;stroke-miterlimit:4;stroke-dasharray:none;stroke-opacity:1"
         id="path3913-2-0" />
      <path
         style="mix-blend-mode:normal;fill:#000000;fill-opacity:0;stroke:#f6ae76;stroke-width:3;stroke-linecap:round;stroke-linejoin:miter;stroke-miterlimit:4;stroke-dasharray:none;stroke-opacity:1"
         d="m -1936.8241,508.18873 c 0,0 2.1024,1.05833 3.4868,1.05833 1.3844,0 3.4868,-1.05833 3.4868,-1.05833"
         id="path2252-4-5-0-7"
         sodipodi:nodetypes="czc" />
    </g>
  </g>
</svg>
