<?xml version="1.0" encoding="UTF-8" standalone="no"?>
<svg
   sodipodi:docname="officer-woman.svg"
   inkscape:version="1.2.2 (732a01da63, 2022-12-09)"
   id="svg3147"
   version="1.1"
   viewBox="0 0 150 170"
   height="170mm"
   width="150mm"
   xmlns:inkscape="http://www.inkscape.org/namespaces/inkscape"
   xmlns:sodipodi="http://sodipodi.sourceforge.net/DTD/sodipodi-0.dtd"
   xmlns:xlink="http://www.w3.org/1999/xlink"
   xmlns="http://www.w3.org/2000/svg"
   xmlns:svg="http://www.w3.org/2000/svg"
   xmlns:rdf="http://www.w3.org/1999/02/22-rdf-syntax-ns#"
   xmlns:cc="http://creativecommons.org/ns#"
   xmlns:dc="http://purl.org/dc/elements/1.1/">
  <defs
     id="defs3141">
    <pattern
       id="carreau-pt"
       patternTransform="translate(-2054.333,1959.2791)"
       height="7.6109896"
       width="8.7129582"
       patternUnits="userSpaceOnUse">
      <rect
         y="6.2746067e-06"
         x="-2.2737368e-13"
         height="7.6109834"
         width="8.7129364"
         id="rect119919"
         style="fill:#800000;fill-opacity:1;stroke:none;stroke-width:1.08628;stroke-linecap:round;stroke-linejoin:round;stroke-miterlimit:4;stroke-dasharray:none;stop-color:#000000" />
      <path
         id="path119921"
         d="M 3.0751503,7.6109858 V 0"
         style="fill:#800000;stroke:#c11a1a;stroke-width:1.81047;stroke-linecap:butt;stroke-linejoin:miter;stroke-miterlimit:4;stroke-dasharray:none;stroke-opacity:1" />
      <path
         id="path119923"
         d="M 1.3287401e-5,4.7904378 H 8.7129582"
         style="fill:#c11a1a;fill-opacity:1;stroke:#c11a1a;stroke-width:1.81047;stroke-linecap:butt;stroke-linejoin:miter;stroke-miterlimit:4;stroke-dasharray:none;stroke-opacity:1" />
    </pattern>
    <pattern
       id="pattern115842"
       patternTransform="translate(-1862,1831.9999)"
       height="85.000002"
       width="85.000037"
       patternUnits="userSpaceOnUse">
      <rect
         y="0"
         x="3.4178149e-05"
         height="85"
         width="85"
         id="rect104700"
         style="fill:#800000;fill-opacity:1;stroke:none;stroke-width:11.3386;stroke-linecap:round;stroke-linejoin:round;stroke-miterlimit:4;stroke-dasharray:none;stop-color:#000000" />
      <path
         id="path104779"
         d="M 30,84.999998 V 1.0187008e-5"
         style="fill:#800000;stroke:#c11a1a;stroke-width:18.8976;stroke-linecap:butt;stroke-linejoin:miter;stroke-miterlimit:4;stroke-dasharray:none;stroke-opacity:1" />
      <path
         id="path107256"
         d="M 0,53.500092 H 85.000025"
         style="fill:#c11a1a;fill-opacity:1;stroke:#c11a1a;stroke-width:18.8976;stroke-linecap:butt;stroke-linejoin:miter;stroke-miterlimit:4;stroke-dasharray:none;stroke-opacity:1" />
    </pattern>
    <radialGradient
       inkscape:collect="always"
       xlink:href="#linearGradient846080"
       id="radialGradient23876-5-2-4-8"
       cx="-391.23096"
       cy="602.3324"
       fx="-391.23096"
       fy="602.3324"
       r="195.66344"
       gradientTransform="matrix(0.33123089,0.00270806,-0.00156891,0.19189788,235.29261,49.54149)"
       gradientUnits="userSpaceOnUse" />
    <linearGradient
       id="linearGradient846080"
       inkscape:collect="always">
      <stop
         id="stop846072"
         offset="0"
         style="stop-color:#f8bc80;stop-opacity:1" />
      <stop
         style="stop-color:#f8bc80;stop-opacity:1"
         offset="0.70677221"
         id="stop846074" />
      <stop
         style="stop-color:#e4aa76;stop-opacity:1"
         offset="0.70677221"
         id="stop846076" />
      <stop
         id="stop846078"
         offset="1"
         style="stop-color:#e4aa76;stop-opacity:1" />
    </linearGradient>
    <radialGradient
       inkscape:collect="always"
       xlink:href="#linearGradient846080"
       id="radialGradient1872-4-6-6-8"
       cx="-213.61194"
       cy="144.48944"
       fx="-213.61194"
       fy="144.48944"
       r="29.964201"
       gradientTransform="matrix(1.544547,-0.26971894,0.45443624,2.1590227,359.88581,-286.35529)"
       gradientUnits="userSpaceOnUse" />
  </defs>
  <sodipodi:namedview
     inkscape:object-paths="true"
     inkscape:window-maximized="1"
     inkscape:window-y="-8"
     inkscape:window-x="-8"
     inkscape:window-height="1017"
     inkscape:window-width="1920"
     showgrid="false"
     inkscape:document-rotation="0"
     inkscape:current-layer="layer1"
     inkscape:document-units="mm"
     inkscape:cy="520.71429"
     inkscape:cx="219.28571"
     inkscape:zoom="0.7"
     inkscape:pageshadow="2"
     inkscape:pageopacity="0.0"
     borderopacity="1.0"
     bordercolor="#666666"
     pagecolor="#ffffff"
     id="base"
     inkscape:showpageshadow="2"
     inkscape:pagecheckerboard="0"
     inkscape:deskcolor="#d1d1d1" />
  <metadata
     id="metadata3144">
    <rdf:RDF>
      <cc:Work
         rdf:about="">
        <dc:format>image/svg+xml</dc:format>
        <dc:type
           rdf:resource="http://purl.org/dc/dcmitype/StillImage" />
      </cc:Work>
    </rdf:RDF>
  </metadata>
  <g
     id="layer1"
     inkscape:groupmode="layer"
     inkscape:label="Calque 1">
    <g
       id="g88899"
       transform="translate(-30.769602,-28.61849)"
       style="mix-blend-mode:normal">
      <path
         style="mix-blend-mode:normal;fill:#b67450;fill-opacity:1;stroke:#000000;stroke-width:3;stroke-linecap:round;stroke-linejoin:round;stroke-miterlimit:4;stroke-dasharray:none;stroke-opacity:1"
         d="m 77.83458,103.44022 c 0,0 -4.10134,-10.79876 -4.04288,-21.01281 0.0584,-10.21405 8.25284,-28.575 32.0332,-28.575 23.78036,0 31.6681,18.05065 32.03319,28.575 0.3651,10.52435 -4.15343,21.01281 -4.15343,21.01281 z"
         id="path12633-1"
         sodipodi:nodetypes="czzzcc" />
      <g
         id="g222555-2-1-4"
         transform="translate(302.43514,-15.84312)"
         style="mix-blend-mode:normal">
        <circle
           style="fill:#f8e47e;fill-opacity:1;stroke:#000000;stroke-width:3;stroke-linecap:round;stroke-linejoin:round;stroke-miterlimit:4;stroke-dasharray:none;stroke-opacity:1;stop-color:#000000"
           id="path217080-7-70-6"
           cx="-230.33279"
           cy="125.63338"
           r="4.7831883" />
        <circle
           style="fill:#f8e47e;fill-opacity:1;stroke:#000000;stroke-width:3;stroke-linecap:round;stroke-linejoin:round;stroke-miterlimit:4;stroke-dasharray:none;stroke-opacity:1;stop-color:#000000"
           id="path217080-3-0-8-9"
           cx="-162.99829"
           cy="125.63338"
           r="4.7831883" />
      </g>
      <path
         id="rect8920-8-35-7-8"
         style="mix-blend-mode:normal;fill:url(#radialGradient23876-5-2-4-8);fill-opacity:1;stroke:#000000;stroke-width:3;stroke-linecap:round;stroke-linejoin:round;stroke-miterlimit:4;stroke-dasharray:none;stroke-opacity:1;stop-color:#000000"
         d="m 93.29649,120.57516 v 14.32522 c -5.8244,8.50699 -14.8879,9.95583 -24.1903,13.26689 -13.8798,4.94035 -13.3922,12.09694 -13.3922,12.09694 v 16.3251 h 100.11122 v -16.3251 c 0,0 -0.37133,-9.0145 -13.39169,-12.09694 -10.08161,-2.38671 -16.71931,-5.95194 -23.43474,-13.26689 v -14.32522 z"
         sodipodi:nodetypes="cccccccsccc" />
      <ellipse
         ry="6.678576"
         rx="6.1759887"
         cy="96.361794"
         cx="74.701492"
         id="path861-2-70-5-8-2"
         style="color:#000000;overflow:visible;mix-blend-mode:normal;fill:#f8bc80;fill-opacity:1;stroke:#000000;stroke-width:3;stroke-linecap:round;stroke-miterlimit:4;stroke-dasharray:none;stroke-opacity:1;stop-color:#000000" />
      <ellipse
         style="color:#000000;overflow:visible;mix-blend-mode:normal;fill:#e4aa76;fill-opacity:1;stroke:#000000;stroke-width:3;stroke-linecap:round;stroke-miterlimit:4;stroke-dasharray:none;stroke-opacity:1;stop-color:#000000"
         id="path861-0-6-5-7-8-2"
         cx="136.83766"
         cy="96.361794"
         rx="6.1759887"
         ry="6.678576" />
      <path
         id="rect1621-9-3-6-9"
         style="mix-blend-mode:normal;fill:url(#radialGradient1872-4-6-6-8);fill-opacity:1;stroke:#000000;stroke-width:2.86316;stroke-linecap:round;stroke-linejoin:round;stop-color:#000000"
         d="m 97.50136,70.87334 c 8.81632,18.69571 30.02438,15.95518 36.20328,18.41003 v 14.15685 c -3.36759,16.70461 -19.75732,29.52254 -27.93505,29.52254 -8.1777,0 -25.87706,-13.75337 -27.93503,-29.52254 V 89.28337 c 18.01339,-1.8582 15.55271,-6.66365 19.6668,-18.41003 z"
         sodipodi:nodetypes="ccczccc" />
      <path
         style="mix-blend-mode:normal;fill:#000000;fill-opacity:0;stroke:#e4aa76;stroke-width:3;stroke-linecap:round;stroke-linejoin:miter;stroke-miterlimit:4;stroke-dasharray:none;stroke-opacity:1"
         d="m 102.28279,106.41603 c 0,0 2.1024,1.05833 3.4868,1.05833 1.3844,0 3.4868,-1.05833 3.4868,-1.05833"
         id="path2252-4-5-5-1-1"
         sodipodi:nodetypes="czc" />
      <g
         id="g2407-6-0-1-3"
         transform="translate(315.50581,-45.316)"
         style="mix-blend-mode:normal">
        <path
           sodipodi:arc-type="arc"
           sodipodi:open="true"
           sodipodi:end="6.2442187"
           sodipodi:start="0"
           sodipodi:ry="3.2740517"
           sodipodi:rx="2.3012009"
           sodipodi:cy="141.14864"
           sodipodi:cx="-222.59987"
           sodipodi:type="arc"
           id="path984-6-3-6-7-0"
           style="color:#000000;overflow:visible;fill:#000000;fill-opacity:1;stroke:none;stroke-width:3;stroke-linecap:round;stroke-linejoin:round;stroke-miterlimit:4;stroke-dasharray:none;stroke-opacity:1;stop-color:#000000"
           d="m -220.29867,141.14864 a 2.3012009,3.2740517 0 0 1 -2.27878,3.27389 2.3012009,3.2740517 0 0 1 -2.32318,-3.21011 2.3012009,3.2740517 0 0 1 2.23352,-3.33644 2.3012009,3.2740517 0 0 1 2.3667,3.14511" />
        <path
           style="color:#000000;overflow:visible;fill:#000000;fill-opacity:1;stroke:none;stroke-width:3;stroke-linecap:round;stroke-linejoin:round;stroke-miterlimit:4;stroke-dasharray:none;stroke-opacity:1;stop-color:#000000"
           id="path984-3-2-8-05-4-8"
           sodipodi:type="arc"
           sodipodi:cx="-196.87254"
           sodipodi:cy="141.14864"
           sodipodi:rx="2.3012009"
           sodipodi:ry="3.2740517"
           sodipodi:start="0"
           sodipodi:end="6.2442187"
           sodipodi:open="true"
           sodipodi:arc-type="arc"
           d="m -194.57134,141.14864 a 2.3012009,3.2740517 0 0 1 -2.27879,3.27389 2.3012009,3.2740517 0 0 1 -2.32318,-3.21011 2.3012009,3.2740517 0 0 1 2.23352,-3.33644 2.3012009,3.2740517 0 0 1 2.3667,3.14511" />
      </g>
      <g
         id="g66903-6-7-0-6"
         transform="translate(302.20732,-29.42146)"
         style="mix-blend-mode:normal">
        <path
           style="fill:none;stroke:#000000;stroke-width:3;stroke-linecap:round;stroke-linejoin:round;stroke-miterlimit:4;stroke-dasharray:none;stroke-opacity:1"
           d="m -185.87201,115.07238 h 5.29167"
           id="path66722-4-9-2-9" />
        <path
           style="fill:none;stroke:#000000;stroke-width:3;stroke-linecap:round;stroke-linejoin:round;stroke-miterlimit:4;stroke-dasharray:none;stroke-opacity:1"
           d="m -212.29508,115.07238 h 5.29167"
           id="path66722-1-5-79-2-1" />
      </g>
      <path
         style="mix-blend-mode:normal;fill:#000000;fill-opacity:0;stroke:#000000;stroke-width:3;stroke-linecap:round;stroke-linejoin:round;stroke-miterlimit:4;stroke-dasharray:none;stroke-opacity:1"
         d="m 105.76959,120.97416 c -4.2009,0 -7.191,-4.7625 -7.191,-4.7625 l 7.191,1.05833 7.19102,-1.05833 c 0,0 -2.99012,4.7625 -7.19102,4.7625 z"
         id="path2252-47-29-6-1"
         sodipodi:nodetypes="zcccz" />
      <path
         id="rect8920-9-13-4-9"
         style="mix-blend-mode:normal;fill:#75b5ed;fill-opacity:1;stroke:#000000;stroke-width:3;stroke-linecap:round;stroke-linejoin:round;stroke-miterlimit:4;stroke-dasharray:none;stroke-opacity:1;stop-color:#000000"
         d="m 88.208076,140.44712 c -5.47903,4.28964 -12.41675,5.73074 -19.49271,8.24933 -13.87987,4.94035 -13.39221,12.09694 -13.39221,12.09694 -0.62038,12.52196 -5.11216,27.62484 0,36.3251 H 155.43435 c 4.38564,-4.79897 4.16582,-17.27369 0,-36.3251 0,0 -0.37133,-9.01451 -13.39169,-12.09694 -7.96504,-1.88564 -13.5576,-4.06569 -18.96001,-8.69054 l -17.32587,9.18198 z"
         sodipodi:nodetypes="ccccccsccc" />
      <path
         style="mix-blend-mode:normal;fill:none;fill-rule:evenodd;stroke:#000000;stroke-width:3;stroke-linecap:butt;stroke-linejoin:miter;stroke-dasharray:none;stroke-opacity:1"
         d="m 105.75678,149.18789 v 47.9306"
         id="path66206-2" />
      <path
         style="mix-blend-mode:normal;fill:none;fill-rule:evenodd;stroke:#000000;stroke-width:3;stroke-linecap:round;stroke-linejoin:miter;stroke-dasharray:none;stroke-opacity:1"
         d="m 74.310696,174.72899 c -1.342574,7.41542 0.295266,19.3056 2.412514,22.3895"
         id="path67791-7"
         sodipodi:nodetypes="cc" />
      <path
         style="mix-blend-mode:normal;fill:none;fill-rule:evenodd;stroke:#000000;stroke-width:3;stroke-linecap:round;stroke-linejoin:miter;stroke-dasharray:none;stroke-opacity:1"
         d="m 139.32932,176.51417 c 2.71393,8.07817 0.12232,16.8399 -1.89575,20.60432"
         id="path67791-9-0"
         sodipodi:nodetypes="cc" />
      <path
         style="mix-blend-mode:normal;fill:#f8d062;fill-opacity:1;fill-rule:evenodd;stroke:#000000;stroke-width:3;stroke-linecap:round;stroke-linejoin:round;stroke-dasharray:none;stroke-opacity:1"
         d="m 141.97723,155.21912 -20.10598,-8.3602 6.27577,-4.87898 18.20897,6.4134 c 2.45214,0.86367 3.67491,3.51991 5.24502,5.15257 z"
         id="path67815-4-4"
         sodipodi:nodetypes="cccscc" />
      <path
         style="mix-blend-mode:normal;fill:#f8d062;fill-opacity:1;fill-rule:evenodd;stroke:#000000;stroke-width:3;stroke-linecap:round;stroke-linejoin:round;stroke-dasharray:none;stroke-opacity:1"
         d="m 69.255446,155.21912 20.10599,-8.3602 -7.334107,-4.87898 -14.896562,5.36303 c -3.244218,1.16797 -5.460229,4.08286 -7.499092,6.20294 z"
         id="path67815-5"
         sodipodi:nodetypes="cccscc" />
      <path
         style="fill:none;fill-rule:evenodd;stroke:#000000;stroke-width:3;stroke-linecap:butt;stroke-linejoin:miter;stroke-dasharray:none;stroke-opacity:1"
         d="m 74.579048,144.66145 6.842682,5.03712"
         id="path86172" />
      <path
         style="mix-blend-mode:normal;fill:none;fill-rule:evenodd;stroke:#000000;stroke-width:3;stroke-linecap:butt;stroke-linejoin:miter;stroke-dasharray:none;stroke-opacity:1"
         d="m 67.914746,147.47567 6.842682,5.03712"
         id="path86172-6" />
      <path
         style="mix-blend-mode:normal;fill:none;fill-rule:evenodd;stroke:#000000;stroke-width:3;stroke-linecap:butt;stroke-linejoin:miter;stroke-dasharray:none;stroke-opacity:1"
         d="m 134.74798,144.66145 -6.84268,5.03712"
         id="path86172-5" />
      <path
         style="mix-blend-mode:normal;fill:none;fill-rule:evenodd;stroke:#000000;stroke-width:3;stroke-linecap:butt;stroke-linejoin:miter;stroke-dasharray:none;stroke-opacity:1"
         d="m 142.22274,146.66933 -6.84268,5.03712"
         id="path86172-4" />
      <path
         style="mix-blend-mode:normal;fill:#5f98d8;fill-opacity:1;fill-rule:evenodd;stroke:#000000;stroke-width:3;stroke-linecap:round;stroke-linejoin:round;stroke-dasharray:none;stroke-opacity:1"
         d="m 128.14702,141.97994 c -12.09209,6.60229 -11.64689,30.00073 -22.61307,6.76674 4.92302,-4.18068 12.72021,-5.48713 13.46483,-13.8463 z"
         id="path64893-5-44"
         sodipodi:nodetypes="cccc" />
      <path
         style="mix-blend-mode:normal;fill:#5f98d8;fill-opacity:1;fill-rule:evenodd;stroke:#000000;stroke-width:3;stroke-linecap:round;stroke-linejoin:round;stroke-dasharray:none;stroke-opacity:1"
         d="m 82.027329,141.97994 c 12.09209,6.60229 12.540441,30.00073 23.506621,6.76674 -4.92302,-4.18068 -11.49284,-5.48713 -12.23746,-13.8463 z"
         id="path64893-5-44-1"
         sodipodi:nodetypes="cccc" />
      <rect
         style="color:#000000;overflow:visible;fill:#f8d062;fill-opacity:1;stroke:#000000;stroke-width:3;stroke-linecap:round;stroke-linejoin:round;stroke-dasharray:none;stroke-opacity:1;stop-color:#000000"
         id="rect88005"
         width="21.217501"
         height="6.9583406"
         x="113.27332"
         y="166.19484" />
      <g
         id="g88789"
         transform="translate(0,0.52916667)">
        <path
           id="rect88290"
           style="overflow:visible;fill:#ccd1d9;stroke:#000000;stroke-width:3;stroke-linecap:round;stroke-linejoin:round;stop-color:#000000"
           d="m 89.197393,39.685861 h 33.190927 c 11.58953,3.069863 9.22612,21.400106 10.53537,31.252196 H 77.603682 C 79.448815,62.566488 77.285794,40.047456 89.197393,39.685861 Z"
           sodipodi:nodetypes="ccccc" />
        <path
           id="path88214"
           style="fill:#e6e9ed;fill-opacity:1;fill-rule:evenodd;stroke:#000000;stroke-width:3;stroke-linecap:round;stroke-linejoin:round;stroke-dasharray:none;stroke-opacity:1"
           d="m 76.653029,52.042067 c -2.028287,-0.01408 -2.52181,2.46344 -2.52181,6.410979 v 13.027111 c 2.17041,3.410645 17.801497,8.796363 17.801497,8.796363 0,0 8.873334,1.058333 13.330964,1.058333 4.45764,0 13.33097,-1.058333 13.33097,-1.058333 0,0 15.94115,-5.592424 17.8015,-8.796363 V 58.453046 c 0,-4.444169 -2.29579,-7.203274 -5.37435,-5.369698 l -11.80703,6.402193 -4.75423,10.923364 H 96.06683 L 91.312599,59.485541 79.505568,53.083348 c -1.184504,-0.705486 -2.118904,-1.036186 -2.852539,-1.041281 z"
           sodipodi:nodetypes="sscczccsccccccs" />
      </g>
      <path
         id="path88791"
         style="color:#000000;overflow:visible;fill:#f8d062;fill-opacity:1;stroke:#000000;stroke-width:2;stroke-linecap:round;stroke-linejoin:round;stroke-dasharray:none;stroke-opacity:1;stop-color:#000000"
         d="m 105.26343,47.014354 c 0,0 -3.93668,2.678818 -3.93671,5.983097 7.4e-4,1.042906 0.18084,2.067404 0.52244,2.971912 -1.87466,0.96483 -3.013317,2.653389 -3.014282,4.470011 l 6.428552,3.690731 6.42906,-3.690731 c 10e-6,-1.817274 -1.13854,-3.506756 -3.01377,-4.472078 0.34119,-0.903975 0.52111,-1.92771 0.52193,-2.969845 -3e-5,-3.304582 -3.93722,-5.983097 -3.93722,-5.983097 z"
         sodipodi:nodetypes="ccccccccc" />
    </g>
  </g>
</svg>
