<?xml version="1.0" encoding="UTF-8" standalone="no"?>
<svg
   sodipodi:docname="ship captain.svg"
   inkscape:version="1.2.2 (732a01da63, 2022-12-09)"
   id="svg3147"
   version="1.1"
   viewBox="0 0 150 170"
   height="170mm"
   width="150mm"
   xmlns:inkscape="http://www.inkscape.org/namespaces/inkscape"
   xmlns:sodipodi="http://sodipodi.sourceforge.net/DTD/sodipodi-0.dtd"
   xmlns:xlink="http://www.w3.org/1999/xlink"
   xmlns="http://www.w3.org/2000/svg"
   xmlns:svg="http://www.w3.org/2000/svg"
   xmlns:rdf="http://www.w3.org/1999/02/22-rdf-syntax-ns#"
   xmlns:cc="http://creativecommons.org/ns#"
   xmlns:dc="http://purl.org/dc/elements/1.1/">
  <defs
     id="defs3141">
    <pattern
       id="carreau-pt"
       patternTransform="translate(-2054.333,1959.2791)"
       height="7.6109896"
       width="8.7129582"
       patternUnits="userSpaceOnUse">
      <rect
         y="6.2746067e-06"
         x="-2.2737368e-13"
         height="7.6109834"
         width="8.7129364"
         id="rect119919"
         style="fill:#800000;fill-opacity:1;stroke:none;stroke-width:1.08628;stroke-linecap:round;stroke-linejoin:round;stroke-miterlimit:4;stroke-dasharray:none;stop-color:#000000" />
      <path
         id="path119921"
         d="M 3.0751503,7.6109858 V 0"
         style="fill:#800000;stroke:#c11a1a;stroke-width:1.81047;stroke-linecap:butt;stroke-linejoin:miter;stroke-miterlimit:4;stroke-dasharray:none;stroke-opacity:1" />
      <path
         id="path119923"
         d="M 1.3287401e-5,4.7904378 H 8.7129582"
         style="fill:#c11a1a;fill-opacity:1;stroke:#c11a1a;stroke-width:1.81047;stroke-linecap:butt;stroke-linejoin:miter;stroke-miterlimit:4;stroke-dasharray:none;stroke-opacity:1" />
    </pattern>
    <pattern
       id="pattern115842"
       patternTransform="translate(-1862,1831.9999)"
       height="85.000002"
       width="85.000037"
       patternUnits="userSpaceOnUse">
      <rect
         y="0"
         x="3.4178149e-05"
         height="85"
         width="85"
         id="rect104700"
         style="fill:#800000;fill-opacity:1;stroke:none;stroke-width:11.3386;stroke-linecap:round;stroke-linejoin:round;stroke-miterlimit:4;stroke-dasharray:none;stop-color:#000000" />
      <path
         id="path104779"
         d="M 30,84.999998 V 1.0187008e-5"
         style="fill:#800000;stroke:#c11a1a;stroke-width:18.8976;stroke-linecap:butt;stroke-linejoin:miter;stroke-miterlimit:4;stroke-dasharray:none;stroke-opacity:1" />
      <path
         id="path107256"
         d="M 0,53.500092 H 85.000025"
         style="fill:#c11a1a;fill-opacity:1;stroke:#c11a1a;stroke-width:18.8976;stroke-linecap:butt;stroke-linejoin:miter;stroke-miterlimit:4;stroke-dasharray:none;stroke-opacity:1" />
    </pattern>
    <radialGradient
       gradientUnits="userSpaceOnUse"
       gradientTransform="matrix(0.33019488,-0.02631691,0.01195346,0.14997855,245.84799,49.088957)"
       r="195.66344"
       fy="602.3324"
       fx="-391.23096"
       cy="602.3324"
       cx="-391.23096"
       id="radialGradient23876-5-93-8-4-9"
       xlink:href="#linearGradient228518"
       inkscape:collect="always" />
    <linearGradient
       id="linearGradient228518"
       inkscape:collect="always">
      <stop
         id="stop228510"
         offset="0"
         style="stop-color:#e4aa76;stop-opacity:1" />
      <stop
         style="stop-color:#e2aa75;stop-opacity:1"
         offset="0.70677221"
         id="stop228512" />
      <stop
         style="stop-color:#d09a6f;stop-opacity:1"
         offset="0.70677221"
         id="stop228514" />
      <stop
         id="stop228516"
         offset="1"
         style="stop-color:#d1996c;stop-opacity:1" />
    </linearGradient>
    <pattern
       inkscape:collect="always"
       xlink:href="#Strips1_1white"
       id="pattern13769"
       patternTransform="matrix(0,7.198607,-9.1230218,0,69.741283,66.73613)" />
    <pattern
       inkscape:collect="always"
       patternUnits="userSpaceOnUse"
       width="2"
       height="1"
       patternTransform="translate(0,0) scale(10,10)"
       id="Strips1_1white"
       inkscape:stockid="Stripes 1:1 white">
      <rect
         style="fill:white;stroke:none"
         x="0"
         y="-0.5"
         width="1"
         height="2"
         id="rect11490" />
    </pattern>
    <radialGradient
       gradientUnits="userSpaceOnUse"
       gradientTransform="matrix(1.0473146,-0.18056617,0.12022138,0.66844298,326.02499,-54.169963)"
       r="29.964201"
       fy="159.0999"
       fx="-211.76003"
       cy="159.0999"
       cx="-211.76003"
       id="radialGradient1872-4-64-5-0-2"
       xlink:href="#linearGradient228518"
       inkscape:collect="always" />
    <radialGradient
       inkscape:collect="always"
       xlink:href="#linearGradient50573"
       id="radialGradient3410-2"
       cx="-52.128208"
       cy="-177.55682"
       fx="-52.128208"
       fy="-177.55682"
       r="20.315636"
       gradientTransform="matrix(1.4127658,-0.24411989,0.39331933,2.2762098,237.80516,541.06069)"
       gradientUnits="userSpaceOnUse" />
    <linearGradient
       id="linearGradient50573"
       inkscape:collect="always">
      <stop
         id="stop50565"
         offset="0"
         style="stop-color:#488cc8;stop-opacity:1" />
      <stop
         style="stop-color:#488cc8;stop-opacity:1"
         offset="0.70677221"
         id="stop50567" />
      <stop
         style="stop-color:#25405b;stop-opacity:1"
         offset="0.70677221"
         id="stop50569" />
      <stop
         id="stop50571"
         offset="1"
         style="stop-color:#25405b;stop-opacity:1" />
    </linearGradient>
    <radialGradient
       inkscape:collect="always"
       xlink:href="#linearGradient50573"
       id="radialGradient3490-4"
       gradientUnits="userSpaceOnUse"
       gradientTransform="matrix(-1.4127658,-0.24411989,-0.39331934,2.2762098,11.79963,541.06069)"
       cx="-52.128208"
       cy="-177.55682"
       fx="-52.128208"
       fy="-177.55682"
       r="20.315636" />
  </defs>
  <sodipodi:namedview
     inkscape:object-paths="true"
     inkscape:window-maximized="1"
     inkscape:window-y="-8"
     inkscape:window-x="-8"
     inkscape:window-height="1017"
     inkscape:window-width="1920"
     showgrid="false"
     inkscape:document-rotation="0"
     inkscape:current-layer="layer1"
     inkscape:document-units="mm"
     inkscape:cy="520.71429"
     inkscape:cx="219.28571"
     inkscape:zoom="0.7"
     inkscape:pageshadow="2"
     inkscape:pageopacity="0.0"
     borderopacity="1.0"
     bordercolor="#666666"
     pagecolor="#ffffff"
     id="base"
     inkscape:showpageshadow="2"
     inkscape:pagecheckerboard="0"
     inkscape:deskcolor="#d1d1d1" />
  <metadata
     id="metadata3144">
    <rdf:RDF>
      <cc:Work
         rdf:about="">
        <dc:format>image/svg+xml</dc:format>
        <dc:type
           rdf:resource="http://purl.org/dc/dcmitype/StillImage" />
      </cc:Work>
    </rdf:RDF>
  </metadata>
  <g
     id="layer1"
     inkscape:groupmode="layer"
     inkscape:label="Calque 1">
    <g
       id="g29542"
       transform="translate(-49.420788,-13.74291)"
       style="mix-blend-mode:normal">
      <ellipse
         ry="6.678576"
         rx="6.1759887"
         cy="82.015373"
         cx="93.807289"
         id="path861-2-70-6-6-25-3"
         style="color:#000000;overflow:visible;mix-blend-mode:normal;fill:#e3aa75;fill-opacity:1;stroke:#000000;stroke-width:3;stroke-linecap:round;stroke-miterlimit:4;stroke-dasharray:none;stroke-opacity:1;stop-color:#000000" />
      <path
         id="rect8920-8-3-5-7-6"
         style="mix-blend-mode:normal;fill:url(#radialGradient23876-5-93-8-4-9);fill-opacity:1;stroke:#000000;stroke-width:3;stroke-linecap:round;stroke-linejoin:round;stroke-miterlimit:4;stroke-dasharray:none;stroke-opacity:1;stop-color:#000000"
         d="m 112.40219,106.22872 v 14.32522 c -5.8244,8.50699 -14.887897,9.95583 -24.190297,13.26689 -13.8798,4.94035 -13.3922,12.09694 -13.3922,12.09694 v 16.3251 H 174.93089 v -16.3251 c 0,0 -0.3713,-9.0145 -13.3917,-12.09694 -10.0816,-2.38671 -16.7193,-5.95194 -23.4347,-13.26689 v -14.32522 z"
         sodipodi:nodetypes="cccccccsccc" />
      <path
         sodipodi:nodetypes="ccccccsczc"
         d="m 101.68327,128.35118 c -3.840397,2.3108 -8.191177,3.59023 -13.471377,5.46964 -13.8798,4.94036 -16.038,12.09694 -16.038,12.09694 -1.378,12.09412 -0.8909,24.19295 -0.6326,36.3251 H 177.87789 c 0.6683,-12.1492 -0.045,-24.21327 -0.8303,-36.3251 0,0 -2.488,-9.0145 -15.5084,-12.09694 -5.87244,-1.39024 -9.67867,-3.18034 -13.1605,-5.87847 0,0 -6.81868,13.86082 -23.5724,13.86082 -16.75372,0 -23.12302,-13.45199 -23.12302,-13.45199 z"
         style="mix-blend-mode:normal;fill:#75b5ed;fill-opacity:1;stroke:#000000;stroke-width:3;stroke-linecap:round;stroke-linejoin:round;stroke-miterlimit:4;stroke-dasharray:none;stroke-opacity:1;stop-color:#000000"
         id="rect8920-5-2-6-8-4-3-0" />
      <path
         sodipodi:nodetypes="ccccccsczc"
         d="m 101.68327,128.35118 c -3.840388,2.3108 -8.191178,3.59023 -13.471378,5.46964 -13.8798,4.94036 -16.038,12.09694 -16.038,12.09694 -1.378,12.09412 -0.8909,24.19295 -0.6326,36.3251 H 177.87789 c 0.6683,-12.1492 -0.045,-24.21327 -0.8303,-36.3251 0,0 -2.488,-9.0145 -15.5084,-12.09694 -5.87244,-1.39024 -9.67867,-3.18034 -13.1605,-5.87847 0,0 -6.81868,13.86082 -23.5724,13.86082 -16.75372,0 -23.12302,-13.45199 -23.12302,-13.45199 z"
         style="mix-blend-mode:normal;fill:url(#pattern13769);fill-opacity:1;stroke:#000000;stroke-width:3;stroke-linecap:round;stroke-linejoin:round;stroke-miterlimit:4;stroke-dasharray:none;stroke-opacity:1;stop-color:#000000"
         id="rect8920-5-2-6-8-4-4" />
      <path
         id="rect8920-5-2-6-8-4-4-5"
         style="mix-blend-mode:normal;fill:#1561a3;fill-opacity:1;stroke:#000000;stroke-width:3;stroke-linecap:round;stroke-linejoin:round;stroke-miterlimit:4;stroke-dasharray:none;stroke-opacity:1;stop-color:#000000"
         d="m 148.37888,127.94234 c 0,0 -2.69372,5.47223 -8.85114,9.53999 l -7.36209,44.76053 45.71221,5e-5 c 3.3451,-12.69857 1.58808,-25.89826 -0.83044,-36.32492 0,0 -2.48771,-9.0145 -15.5081,-12.09693 -5.87243,-1.39024 -9.67861,-3.18059 -13.16044,-5.87872 z m -46.69586,0.40876 c -3.840384,2.3108 -8.19081,3.59055 -13.471007,5.46996 -13.879786,4.94035 -16.038298,12.09693 -16.038298,12.09693 -4.052261,12.55017 -3.918103,24.16832 -0.632519,36.32492 l 45.897954,-5e-5 -7.58246,-44.87939 c -5.75988,-3.91865 -8.17366,-9.01237 -8.17367,-9.01237 z"
         sodipodi:nodetypes="cccccscccccccc" />
      <ellipse
         style="color:#000000;overflow:visible;mix-blend-mode:normal;fill:#d09a6e;fill-opacity:1;stroke:#000000;stroke-width:3;stroke-linecap:round;stroke-miterlimit:4;stroke-dasharray:none;stroke-opacity:1;stop-color:#000000"
         id="path861-0-6-5-2-8-6-6"
         cx="155.94328"
         cy="82.015373"
         rx="6.1759887"
         ry="6.678576" />
      <path
         id="rect1621-9-52-22-22-3"
         style="mix-blend-mode:normal;fill:url(#radialGradient1872-4-64-5-0-2);fill-opacity:1;stroke:#000000;stroke-width:2.86316;stroke-linecap:round;stroke-linejoin:round;stop-color:#000000"
         d="m 124.87529,46.472727 c 15.7692,0 28.4642,12.69503 28.4642,28.4642 v 14.15685 c 0,15.769173 -12.695,28.464213 -28.4642,28.464213 -15.7692,0 -28.464197,-12.69504 -28.464197,-28.464213 v -14.15685 c 0,-15.76917 12.694997,-28.4642 28.464197,-28.4642 z"
         sodipodi:nodetypes="ssszsss" />
      <path
         sodipodi:arc-type="arc"
         sodipodi:open="true"
         sodipodi:end="6.2442187"
         sodipodi:start="0"
         sodipodi:ry="3.2740517"
         sodipodi:rx="2.3012009"
         sodipodi:cy="81.486183"
         sodipodi:cx="112.01162"
         sodipodi:type="arc"
         id="path984-6-3-5-22-5-2"
         style="color:#000000;overflow:visible;mix-blend-mode:normal;fill:#000000;fill-opacity:1;stroke:none;stroke-width:3;stroke-linecap:round;stroke-linejoin:round;stroke-miterlimit:4;stroke-dasharray:none;stroke-opacity:1;stop-color:#000000"
         d="m 114.31282,81.486183 a 2.3012009,3.2740517 0 0 1 -2.27878,3.273896 2.3012009,3.2740517 0 0 1 -2.32318,-3.210111 2.3012009,3.2740517 0 0 1 2.23352,-3.336438 2.3012009,3.2740517 0 0 1 2.36669,3.145107" />
      <path
         style="color:#000000;overflow:visible;mix-blend-mode:normal;fill:#000000;fill-opacity:1;stroke:none;stroke-width:3;stroke-linecap:round;stroke-linejoin:round;stroke-miterlimit:4;stroke-dasharray:none;stroke-opacity:1;stop-color:#000000"
         id="path984-3-2-8-6-3-9-5"
         sodipodi:type="arc"
         sodipodi:cx="137.73895"
         sodipodi:cy="81.486183"
         sodipodi:rx="2.3012009"
         sodipodi:ry="3.2740517"
         sodipodi:start="0"
         sodipodi:end="6.2442187"
         sodipodi:open="true"
         sodipodi:arc-type="arc"
         d="m 140.04015,81.486183 a 2.3012009,3.2740517 0 0 1 -2.27878,3.273896 2.3012009,3.2740517 0 0 1 -2.32318,-3.210111 2.3012009,3.2740517 0 0 1 2.23352,-3.336438 2.3012009,3.2740517 0 0 1 2.3667,3.145107" />
      <path
         style="mix-blend-mode:normal;fill:none;stroke:#000000;stroke-width:3;stroke-linecap:round;stroke-linejoin:round;stroke-miterlimit:4;stroke-dasharray:none;stroke-opacity:1"
         d="m 135.44098,73.421157 h 5.29167"
         id="path66722-4-3-3-6-2" />
      <path
         style="mix-blend-mode:normal;fill:none;stroke:#000000;stroke-width:3;stroke-linecap:round;stroke-linejoin:round;stroke-miterlimit:4;stroke-dasharray:none;stroke-opacity:1"
         d="m 109.01791,73.421157 5.50747,-1.70212"
         id="path66722-1-5-7-8-8-5"
         sodipodi:nodetypes="cc" />
      <path
         sodipodi:nodetypes="ccccccc"
         id="path3402-0"
         d="m 117.43915,182.24286 -4.74889,-81.364 c -10.49334,4.30951 -21.65341,12.39544 -33.41171,23.86979 6.14608,1.46557 13.62304,0.26937 16.38788,8.49742 l -4.09697,8.34568 c 13.26512,12.483 15.42206,23.60065 18.28723,40.65116 z"
         style="mix-blend-mode:normal;fill:url(#radialGradient3410-2);fill-opacity:1;fill-rule:evenodd;stroke:#000000;stroke-width:3;stroke-linecap:round;stroke-linejoin:round;stroke-miterlimit:4;stroke-dasharray:none;stroke-opacity:1" />
      <path
         style="mix-blend-mode:normal;fill:url(#radialGradient3490-4);fill-opacity:1;fill-rule:evenodd;stroke:#000000;stroke-width:3;stroke-linecap:round;stroke-linejoin:round;stroke-miterlimit:4;stroke-dasharray:none;stroke-opacity:1"
         d="m 132.16565,182.24286 4.74889,-81.364 c 10.49334,4.30951 21.65341,12.39544 33.41171,23.86979 -6.14608,1.46557 -13.62304,0.26937 -16.38788,8.49742 l 4.09697,8.34568 c -13.20912,12.42844 -15.48812,23.6872 -18.5076,40.65116 z"
         id="path3402-3-6"
         sodipodi:nodetypes="ccccccc" />
      <path
         id="rect85158-0-9"
         style="mix-blend-mode:normal;fill:#e6e6e6;fill-opacity:1;stroke:#000000;stroke-width:3;stroke-linecap:round;stroke-linejoin:round;stroke-miterlimit:4;stroke-dasharray:none;stop-color:#000000"
         d="m 97.117093,64.002757 c -2.6314,0 -4.7496,2.1182 -4.7496,4.74956 -0.018,13.32889 -0.5014,27.5298 1.0583,40.521043 0.915,7.62097 7.749897,13.29355 15.682797,14.09579 0,0 10.4385,1.5875 15.6977,1.5875 5.2593,0 15.6978,-1.5875 15.6978,-1.5875 7.7693,-0.7857 14.9017,-6.28779 15.6827,-14.09579 1.312,-13.116153 1.1963,-27.110323 1.1963,-40.521043 0,-2.63136 -2.1187,-4.74956 -4.7501,-4.74956 -2.6313,0 -4.7495,2.1182 -4.7495,4.74956 0,0 1.8708,32.181193 0,35.174613 -8.6525,0.12273 -3.822,-8.748823 -23.0772,-8.748823 -19.2552,0 -14.2863,8.702313 -22.9397,8.702313 -2.244997,-4.115953 0,-35.128103 0,-35.128103 0,-2.63136 -2.118197,-4.74956 -4.749497,-4.74956 z"
         sodipodi:nodetypes="scsszsscssczcss" />
      <path
         style="mix-blend-mode:normal;fill:none;stroke:#000000;stroke-width:3;stroke-linecap:round;stroke-linejoin:miter;stroke-miterlimit:4;stroke-dasharray:none;stroke-opacity:1"
         d="m 118.21349,101.33605 c 0,0 2.4609,2.11667 6.6618,2.11667 4.2009,0 6.6618,-2.11667 6.6618,-2.11667"
         id="path2252-47-2-6-0-1"
         sodipodi:nodetypes="czc" />
      <path
         style="mix-blend-mode:normal;fill:none;fill-opacity:1;stroke:#d09a6e;stroke-width:3;stroke-linecap:round;stroke-linejoin:miter;stroke-miterlimit:4;stroke-dasharray:none;stroke-opacity:1"
         d="m 121.38849,91.540417 c 0,0 2.1024,1.05833 3.4868,1.05833 1.3844,0 3.4868,-1.05833 3.4868,-1.05833"
         id="path2252-4-5-4-1-7-9"
         sodipodi:nodetypes="czc" />
      <path
         id="rect17289"
         style="overflow:visible;fill:#ffffff;stroke:#000000;stroke-width:3;stroke-linecap:round;stroke-linejoin:round;stop-color:#000000"
         d="m 91.296263,48.228865 c 4.416052,-6.025814 29.663867,-10.583334 33.268147,-10.583334 3.60428,0 28.44428,4.55752 33.26815,10.583334 4.82387,6.025814 -5.1455,7.630679 -5.29166,12.673303 H 96.587929 c 0.219245,-4.531054 -9.707718,-6.647489 -5.291666,-12.673303 z"
         sodipodi:nodetypes="zzzccz" />
      <path
         id="rect15109"
         style="overflow:visible;fill:#1561a3;fill-opacity:1;stroke:#000000;stroke-width:3;stroke-linecap:round;stroke-linejoin:round;stop-color:#000000"
         d="M 96.587929,60.902168 H 152.5409 c 0.031,9.188598 -2.36115,11.667923 -11.62433,11.667923 -6.86183,0 -9.49033,-1.5875 -16.35216,-1.5875 -6.86183,0 -8.96115,1.5875 -15.82298,1.5875 -9.457227,0 -12.153501,-3.654864 -12.153501,-11.667923 z"
         sodipodi:nodetypes="cccccc" />
      <path
         id="path24614"
         style="color:#000000;overflow:visible;fill:#f8d062;fill-opacity:1;stroke:#000000;stroke-width:2;stroke-linecap:round;stroke-linejoin:round;stroke-dasharray:none;stop-color:#000000"
         d="m 124.87541,40.883058 c -2.75415,1.1e-5 -4.98681,1.736593 -4.98678,4.531507 10e-4,1.881389 1.03129,3.07749 2.67374,3.950146 -0.28308,0.97011 -0.18758,1.935003 -0.18758,2.962093 -0.019,2.345609 -2.67757,2.437922 -4.55425,-0.613399 -2.39931,2.624233 -1.91046,6.123512 3.78013,6.101436 1.23387,-0.0048 2.35489,-0.884237 3.27422,-1.469678 0.91938,0.585531 2.04025,1.46489 3.27422,1.469678 5.69059,0.02208 6.17996,-3.477203 3.78065,-6.101436 -1.87668,3.051321 -4.53576,2.959008 -4.55476,0.613399 -0.004,-0.976939 0.0776,-2.094029 -0.18759,-2.961576 1.64301,-0.872459 2.6733,-2.068861 2.67477,-3.950663 3e-5,-2.79491 -2.23262,-4.53149 -4.98677,-4.531507 z"
         sodipodi:nodetypes="cccccscsccccc" />
    </g>
  </g>
</svg>
