<?xml version="1.0" encoding="UTF-8" standalone="no"?>
<svg
   sodipodi:docname="west-gbu-theugly.svg"
   inkscape:version="1.2.2 (732a01da63, 2022-12-09)"
   id="svg3147"
   version="1.1"
   viewBox="0 0 150 170"
   height="170mm"
   width="150mm"
   xmlns:inkscape="http://www.inkscape.org/namespaces/inkscape"
   xmlns:sodipodi="http://sodipodi.sourceforge.net/DTD/sodipodi-0.dtd"
   xmlns:xlink="http://www.w3.org/1999/xlink"
   xmlns="http://www.w3.org/2000/svg"
   xmlns:svg="http://www.w3.org/2000/svg"
   xmlns:rdf="http://www.w3.org/1999/02/22-rdf-syntax-ns#"
   xmlns:cc="http://creativecommons.org/ns#"
   xmlns:dc="http://purl.org/dc/elements/1.1/">
  <defs
     id="defs3141">
    <pattern
       id="carreau-pt"
       patternTransform="translate(-2054.333,1959.2791)"
       height="7.6109896"
       width="8.7129582"
       patternUnits="userSpaceOnUse">
      <rect
         y="6.2746067e-06"
         x="-2.2737368e-13"
         height="7.6109834"
         width="8.7129364"
         id="rect119919"
         style="fill:#800000;fill-opacity:1;stroke:none;stroke-width:1.08628;stroke-linecap:round;stroke-linejoin:round;stroke-miterlimit:4;stroke-dasharray:none;stop-color:#000000" />
      <path
         id="path119921"
         d="M 3.0751503,7.6109858 V 0"
         style="fill:#800000;stroke:#c11a1a;stroke-width:1.81047;stroke-linecap:butt;stroke-linejoin:miter;stroke-miterlimit:4;stroke-dasharray:none;stroke-opacity:1" />
      <path
         id="path119923"
         d="M 1.3287401e-5,4.7904378 H 8.7129582"
         style="fill:#c11a1a;fill-opacity:1;stroke:#c11a1a;stroke-width:1.81047;stroke-linecap:butt;stroke-linejoin:miter;stroke-miterlimit:4;stroke-dasharray:none;stroke-opacity:1" />
    </pattern>
    <pattern
       id="pattern115842"
       patternTransform="translate(-1862,1831.9999)"
       height="85.000002"
       width="85.000037"
       patternUnits="userSpaceOnUse">
      <rect
         y="0"
         x="3.4178149e-05"
         height="85"
         width="85"
         id="rect104700"
         style="fill:#800000;fill-opacity:1;stroke:none;stroke-width:11.3386;stroke-linecap:round;stroke-linejoin:round;stroke-miterlimit:4;stroke-dasharray:none;stop-color:#000000" />
      <path
         id="path104779"
         d="M 30,84.999998 V 1.0187008e-5"
         style="fill:#800000;stroke:#c11a1a;stroke-width:18.8976;stroke-linecap:butt;stroke-linejoin:miter;stroke-miterlimit:4;stroke-dasharray:none;stroke-opacity:1" />
      <path
         id="path107256"
         d="M 0,53.500092 H 85.000025"
         style="fill:#c11a1a;fill-opacity:1;stroke:#c11a1a;stroke-width:18.8976;stroke-linecap:butt;stroke-linejoin:miter;stroke-miterlimit:4;stroke-dasharray:none;stroke-opacity:1" />
    </pattern>
    <radialGradient
       inkscape:collect="always"
       xlink:href="#linearGradient46617"
       id="radialGradient45153"
       cx="1243.1254"
       cy="-640.95343"
       fx="1243.1254"
       fy="-640.95343"
       r="60.730839"
       gradientTransform="matrix(1.2436004,-0.30134317,0.22034288,0.90932372,-157.30207,323.97216)"
       gradientUnits="userSpaceOnUse" />
    <linearGradient
       id="linearGradient46617"
       inkscape:collect="always">
      <stop
         id="stop46609"
         offset="0"
         style="stop-color:#d1b165;stop-opacity:1;" />
      <stop
         style="stop-color:#d1b165;stop-opacity:1;"
         offset="0.69977248"
         id="stop46611" />
      <stop
         style="stop-color:#e2c377;stop-opacity:1;"
         offset="0.69977236"
         id="stop46613" />
      <stop
         id="stop46615"
         offset="1"
         style="stop-color:#e2c377;stop-opacity:1;" />
    </linearGradient>
    <radialGradient
       inkscape:collect="always"
       xlink:href="#linearGradient84595"
       id="radialGradient1872-4-64-30"
       cx="-213.95628"
       cy="162.87541"
       fx="-213.95628"
       fy="162.87541"
       r="29.964201"
       gradientTransform="matrix(1.1532066,-0.54076637,0.44166752,0.91111265,1568.5682,-292.98409)"
       gradientUnits="userSpaceOnUse" />
    <linearGradient
       id="linearGradient84595"
       inkscape:collect="always">
      <stop
         id="stop84587"
         offset="0"
         style="stop-color:#e4aa76;stop-opacity:1" />
      <stop
         style="stop-color:#e2aa75;stop-opacity:1"
         offset="0.70677221"
         id="stop84589" />
      <stop
         style="stop-color:#d09a6f;stop-opacity:1"
         offset="0.71052551"
         id="stop84591" />
      <stop
         id="stop84593"
         offset="1"
         style="stop-color:#d1996c;stop-opacity:1" />
    </linearGradient>
  </defs>
  <sodipodi:namedview
     inkscape:snap-intersection-paths="true"
     inkscape:snap-smooth-nodes="true"
     inkscape:object-paths="true"
     inkscape:window-maximized="1"
     inkscape:window-y="-8"
     inkscape:window-x="-8"
     inkscape:window-height="1009"
     inkscape:window-width="1920"
     showgrid="false"
     inkscape:document-rotation="0"
     inkscape:current-layer="g1284"
     inkscape:document-units="mm"
     inkscape:cy="286.88332"
     inkscape:cx="83.842661"
     inkscape:zoom="0.49497475"
     inkscape:pageshadow="2"
     inkscape:pageopacity="0.0"
     borderopacity="1.0"
     bordercolor="#666666"
     pagecolor="#ffffff"
     id="base"
     inkscape:showpageshadow="0"
     inkscape:pagecheckerboard="0"
     inkscape:deskcolor="#d1d1d1" />
  <metadata
     id="metadata3144">
    <rdf:RDF>
      <cc:Work
         rdf:about="">
        <dc:format>image/svg+xml</dc:format>
        <dc:type
           rdf:resource="http://purl.org/dc/dcmitype/StillImage" />
      </cc:Work>
    </rdf:RDF>
  </metadata>
  <g
     id="layer1"
     inkscape:groupmode="layer"
     inkscape:label="Calque 1">
    <g
       id="g1284"
       transform="translate(154.0147,-81.24178)">
      <g
         id="g40010"
         style="mix-blend-mode:normal"
         transform="translate(-1476.3834,187.92519)">
        <ellipse
           style="opacity:1;fill:url(#radialGradient45153);fill-opacity:1;stroke:#000000;stroke-width:3;stroke-linecap:round;stroke-linejoin:round;stroke-dasharray:none;stroke-opacity:1"
           id="path42967"
           cx="1240.157"
           cy="-645.63129"
           rx="57.551304"
           ry="49.431103"
           transform="rotate(25.533151)" />
        <path
           id="rect8920-9-13-6-0-1"
           style="mix-blend-mode:normal;fill:#e3aa76;fill-opacity:1;stroke:#000000;stroke-width:3;stroke-linecap:round;stroke-linejoin:round;stroke-miterlimit:4;stroke-dasharray:none;stroke-opacity:1;stop-color:#000000"
           d="m 1383.7246,-14.197568 v 14.32522 c -5.8243,8.50699 -13.8295,9.95583 -23.1319,13.26689 -13.8799,4.94035 -15.5089,12.09694 -15.5089,12.09694 -2.4491,9.295158 -4.4875,23.649292 -2.6458,36.325103 h 110.6945 c 1,-10.347274 0.4617,-17.27369 -3.7041,-36.325103 0,0 -2.4881,-9.0145 -15.5084,-12.09694 -10.0816,-2.38671 -15.661,-5.95194 -22.3765,-13.26689 v -14.32522 z"
           sodipodi:nodetypes="cccccccsccc" />
        <path
           sodipodi:nodetypes="ccccccssccc"
           id="path5955-6-7-13"
           d="m 1373.864,8.836324 9.8606,-8.708672 v -14.32522 h 27.2898 v 14.32522 c 4.0396,7.43179 20.9113,13.04545 33.6223,19.2973 6.1434,11.160979 -18.7061,41.023507 -33.2434,42.391633 -11.0667,1.041499 -23.7879,1.677628 -27.0009,-0.371733 -6.6005,-4.210096 7.8768,-21.259985 13.248,-19.609621 9.3183,17.196802 47.6405,-6.386786 18.1087,-19.415482 0,0 -7.9305,-18.8869793 -41.8851,-13.583425 z"
           style="mix-blend-mode:darken;fill:#d09a6e;fill-opacity:1;stroke:none;stroke-width:0.264583px;stroke-linecap:butt;stroke-linejoin:miter;stroke-opacity:1" />
        <ellipse
           ry="6.678576"
           rx="6.1759887"
           cy="-38.410931"
           cx="1366.188"
           id="path861-2-70-6-1"
           style="color:#000000;overflow:visible;mix-blend-mode:normal;fill:#e3aa75;fill-opacity:1;stroke:#000000;stroke-width:3;stroke-linecap:round;stroke-miterlimit:4;stroke-dasharray:none;stroke-opacity:1;stop-color:#000000" />
        <ellipse
           style="color:#000000;overflow:visible;mix-blend-mode:normal;fill:#d09a6e;fill-opacity:1;stroke:#000000;stroke-width:3;stroke-linecap:round;stroke-miterlimit:4;stroke-dasharray:none;stroke-opacity:1;stop-color:#000000"
           id="path861-0-6-5-2-0"
           cx="1428.3241"
           cy="-38.410931"
           rx="6.1759887"
           ry="6.678576" />
        <path
           id="rect1621-9-52-4"
           style="mix-blend-mode:normal;fill:url(#radialGradient1872-4-64-30);fill-opacity:1;stroke:#000000;stroke-width:2.86316;stroke-linecap:round;stroke-linejoin:round;stop-color:#000000"
           d="m 1397.256,-66.755306 c 15.7691,0 28.4643,5.496778 28.4643,21.265948 v 14.15685 c 0,15.769169 -12.6951,28.464209 -28.4642,28.464209 -15.7692,0 -28.4642,-12.69504 -28.4642,-28.464209 v -14.15685 c 0,-15.76917 12.6949,-21.265948 28.4641,-21.265948 z"
           sodipodi:nodetypes="ssszsss" />
        <path
           style="mix-blend-mode:normal;fill:#ffffff;fill-opacity:1;stroke:#000000;stroke-width:3;stroke-linecap:round;stroke-linejoin:round;stroke-miterlimit:4;stroke-dasharray:none;stroke-opacity:1"
           d="m 1403.9179,-19.090238 c 0,0 0.1361,4.241206 -5.3428,4.241206 -5.479,0 -7.4517,-3.182873 -7.4517,-3.182873 0,0 3.3759,-1.587497 5.6035,-1.587497 2.2276,0 7.191,0.529164 7.191,0.529164 z"
           id="path2252-8-9-7-0-6-39"
           sodipodi:nodetypes="czczc" />
        <g
           id="g2407-6-9-6"
           transform="translate(1606.9923,-180.08873)"
           style="mix-blend-mode:normal">
          <path
             d="m -220.29867,141.14864 a 2.3012009,3.2740517 0 0 1 -2.27878,3.27389 2.3012009,3.2740517 0 0 1 -2.32318,-3.21011 2.3012009,3.2740517 0 0 1 2.23352,-3.33644 2.3012009,3.2740517 0 0 1 2.3667,3.14511"
             sodipodi:arc-type="arc"
             sodipodi:open="true"
             sodipodi:end="6.2442187"
             sodipodi:start="0"
             sodipodi:ry="3.2740517"
             sodipodi:rx="2.3012009"
             sodipodi:cy="141.14864"
             sodipodi:cx="-222.59987"
             sodipodi:type="arc"
             id="path984-6-3-5-3"
             style="color:#000000;overflow:visible;fill:#000000;fill-opacity:1;stroke:none;stroke-width:3;stroke-linecap:round;stroke-linejoin:round;stroke-miterlimit:4;stroke-dasharray:none;stroke-opacity:1;stop-color:#000000" />
          <path
             d="m -194.57134,141.14864 a 2.3012009,3.2740517 0 0 1 -2.27879,3.27389 2.3012009,3.2740517 0 0 1 -2.32318,-3.21011 2.3012009,3.2740517 0 0 1 2.23352,-3.33644 2.3012009,3.2740517 0 0 1 2.3667,3.14511"
             style="color:#000000;overflow:visible;fill:#000000;fill-opacity:1;stroke:none;stroke-width:3;stroke-linecap:round;stroke-linejoin:round;stroke-miterlimit:4;stroke-dasharray:none;stroke-opacity:1;stop-color:#000000"
             id="path984-3-2-8-6-05"
             sodipodi:type="arc"
             sodipodi:cx="-196.87254"
             sodipodi:cy="141.14864"
             sodipodi:rx="2.3012009"
             sodipodi:ry="3.2740517"
             sodipodi:start="0"
             sodipodi:end="6.2442187"
             sodipodi:open="true"
             sodipodi:arc-type="arc" />
        </g>
        <g
           id="g66903-6-0-6"
           transform="translate(1593.6938,-164.19418)"
           style="mix-blend-mode:normal">
          <path
             style="fill:none;stroke:#000000;stroke-width:3;stroke-linecap:round;stroke-linejoin:round;stroke-miterlimit:4;stroke-dasharray:none;stroke-opacity:1"
             d="m -185.87201,118.77655 5.29167,-3.175"
             id="path66722-4-3-00"
             sodipodi:nodetypes="cc" />
          <path
             style="fill:none;stroke:#000000;stroke-width:3;stroke-linecap:round;stroke-linejoin:round;stroke-miterlimit:4;stroke-dasharray:none;stroke-opacity:1"
             d="m -212.29508,116.13071 5.29167,1.05834"
             id="path66722-1-5-7-19"
             sodipodi:nodetypes="cc" />
        </g>
        <path
           style="mix-blend-mode:normal;fill:#4c2817;fill-opacity:1;fill-rule:evenodd;stroke:#000000;stroke-width:2;stroke-linecap:round;stroke-linejoin:round;stroke-dasharray:none;stroke-opacity:1"
           d="m 1384.1159,-15.20243 c 3.5445,-7.582745 6.2246,-6.722691 12.4566,-7.654521 l 0.2356,-3.133564 c -7.8517,0.6146 -9.1548,2.37349 -12.6922,10.788085 z"
           id="path103811-8"
           sodipodi:nodetypes="cccc" />
        <path
           style="mix-blend-mode:normal;fill:#4c2817;fill-opacity:1;fill-rule:evenodd;stroke:#000000;stroke-width:2;stroke-linecap:round;stroke-linejoin:round;stroke-dasharray:none;stroke-opacity:1"
           d="m 1411.5003,-15.20243 c -3.5445,-7.582745 -6.2246,-6.722691 -12.4566,-7.654521 l -0.2356,-3.133564 c 7.8517,0.6146 9.1548,2.37349 12.6922,10.788085 z"
           id="path103811-7-3"
           sodipodi:nodetypes="cccc" />
        <path
           id="path50607"
           style="mix-blend-mode:normal;fill:#4c2817;fill-opacity:1;stroke:#000000;stroke-width:2.86316;stroke-linecap:round;stroke-linejoin:round;stop-color:#000000"
           d="m 1397.256,-66.755306 c 11.566,0 23.8592,3.298017 27.8445,11.028195 1.4968,0.60584 5.4954,-0.28502 5.4954,-0.28502 0,0 -1.019,3.6846 -4.1039,4.529601 0.372,2.057042 -0.024,3.435842 -0.7717,5.993172 v 11.517142 l -4.0368,2.288678 c 0.6982,-15.321592 -5.1593,-17.076741 -3.6805,-26.124674 -9.7656,0.409351 -14.5541,-2.091649 -19.4683,-3.646906 -1.8152,1.580901 1.3475,6.163292 1.3475,6.163292 0,0 -8.8528,-1.512705 -9.4126,-6.759301 -25.1246,3.544338 -15.4211,26.499671 -20.1073,28.562309 l -1.5704,-2.882227 v -9.118313 c -2.9434,0.503398 -5.3624,-3.124112 -5.3624,-3.124112 0,0 3.9308,0.21088 6.3796,-3.938625 3.3084,-10.38896 14.311,-14.203211 27.4469,-14.203211 z"
           sodipodi:nodetypes="ccccccccccccccccc" />
        <path
           style="mix-blend-mode:normal;fill:none;fill-opacity:1;stroke:#d09a6e;stroke-width:3;stroke-linecap:round;stroke-linejoin:miter;stroke-miterlimit:4;stroke-dasharray:none;stroke-opacity:1"
           d="m 1393.7692,-28.885868 c 0,0 2.1025,1.05833 3.4869,1.05833 1.3843,0 3.4868,-1.05833 3.4868,-1.05833"
           id="path2252-4-5-4-12"
           sodipodi:nodetypes="czc" />
        <path
           id="path72077"
           style="mix-blend-mode:normal;fill:#f2f2f2;fill-opacity:1;stroke:#000000;stroke-width:3;stroke-linecap:round;stroke-linejoin:round;stroke-miterlimit:4;stroke-dasharray:none;stroke-opacity:1;stop-color:#000000"
           d="m 1388.4871,61.816585 c 0,0 -3.114,-54.4713281 -9.6718,-55.743547 -5.2612,3.5864111 -11.6829,4.993772 -18.2226,7.321504 -13.8799,4.94035 -15.5089,12.09694 -15.5089,12.09694 -2.4491,9.295158 -4.4875,23.649292 -2.6458,36.325103 h 110.6945 c 1,-10.347274 0.4617,-17.27369 -3.7041,-36.325103 0,0 -2.4881,-9.014523 -15.5084,-12.09694 -4.6352,-1.097327 -8.5424,-2.443776 -12.0638,-4.2892331 -7.817,0.1044188 -10.4629,52.7112761 -10.4629,52.7112761 z"
           sodipodi:nodetypes="cccccccsccc" />
        <path
           style="opacity:1;fill:#966a5b;fill-opacity:1;stroke:#000000;stroke-width:3;stroke-linecap:round;stroke-linejoin:round;stroke-dasharray:none;stroke-opacity:1"
           d="m 1353.817,61.816585 c 0.7435,0 0.4503,-39.219713 -5.447,-41.301096 0.2947,-5.791083 19.3326,-12.4005363 25.494,-11.679165 5.3985,16.47506 3.1015,35.258754 4.3451,52.980261 z"
           id="path77226"
           sodipodi:nodetypes="scccs" />
        <path
           style="opacity:1;fill:#966a5b;fill-opacity:1;stroke:#000000;stroke-width:3;stroke-linecap:round;stroke-linejoin:round;stroke-dasharray:none;stroke-opacity:1"
           d="m 1418.353,61.816585 c 0.703,-17.357847 1.189,-34.715695 4.7766,-52.0735418 5.6469,-2.0477785 15.8181,2.9757688 16.2525,5.5199788 -5.4958,8.546486 -4.4879,31.090132 -4.8951,46.553563 z"
           id="path77228"
           sodipodi:nodetypes="ccccc" />
        <path
           style="opacity:1;fill:none;fill-opacity:1;stroke:#000000;stroke-width:3;stroke-linecap:round;stroke-linejoin:round;stroke-dasharray:none;stroke-opacity:1"
           d="m 1382.1397,3.3248413 c 11.2054,25.3646557 23.1108,40.5354147 46.3902,58.4917437"
           id="path75046"
           sodipodi:nodetypes="cc" />
        <path
           style="opacity:0.92;fill:none;fill-opacity:1;stroke:#000000;stroke-width:3;stroke-linecap:round;stroke-linejoin:round;stroke-dasharray:none;stroke-opacity:1"
           d="m 1382.1397,3.3248416 c 0,0 7.4132,32.2791664 16.0134,32.2791664 8.6001,0 14.955,-32.2791664 14.955,-32.2791664"
           id="path99825"
           sodipodi:nodetypes="czc" />
        <ellipse
           style="opacity:0.92;fill:#f8d062;fill-opacity:1;stroke:#000000;stroke-width:2;stroke-linecap:round;stroke-linejoin:round;stroke-dasharray:none;stroke-opacity:1"
           id="path101331"
           cx="1398.1531"
           cy="39.873539"
           rx="2.6387141"
           ry="4.2695293" />
      </g>
    </g>
  </g>
</svg>
