<?xml version="1.0" encoding="UTF-8" standalone="no"?>
<svg
   xmlns:dc="http://purl.org/dc/elements/1.1/"
   xmlns:cc="http://creativecommons.org/ns#"
   xmlns:rdf="http://www.w3.org/1999/02/22-rdf-syntax-ns#"
   xmlns:svg="http://www.w3.org/2000/svg"
   xmlns="http://www.w3.org/2000/svg"
   xmlns:xlink="http://www.w3.org/1999/xlink"
   xmlns:sodipodi="http://sodipodi.sourceforge.net/DTD/sodipodi-0.dtd"
   xmlns:inkscape="http://www.inkscape.org/namespaces/inkscape"
   width="150mm"
   height="150mm"
   viewBox="0 0 150 150"
   version="1.1"
   id="svg8"
   inkscape:version="1.0 (4035a4fb49, 2020-05-01)"
   sodipodi:docname="halloween-3.svg">
  <defs
     id="defs2">
    <linearGradient
       inkscape:collect="always"
       id="linearGradient853">
      <stop
         style="stop-color:#ffbd86;stop-opacity:1;"
         offset="0"
         id="stop849" />
      <stop
         id="stop859"
         offset="0.70677221"
         style="stop-color:#ffbd86;stop-opacity:1" />
      <stop
         id="stop857"
         offset="0.70677215"
         style="stop-color:#f6a96c;stop-opacity:1" />
      <stop
         style="stop-color:#f6a96c;stop-opacity:1"
         offset="1"
         id="stop851" />
    </linearGradient>
    <radialGradient
       inkscape:collect="always"
       xlink:href="#linearGradient853"
       id="radialGradient917"
       cx="-429.75894"
       cy="151.01155"
       fx="-429.75894"
       fy="151.01155"
       r="40.71497"
       gradientTransform="matrix(0.95943271,-0.69755747,0.9519883,1.3093812,-161.76233,-337.25135)"
       gradientUnits="userSpaceOnUse" />
  </defs>
  <sodipodi:namedview
     id="base"
     pagecolor="#ffffff"
     bordercolor="#666666"
     borderopacity="1.0"
     inkscape:pageopacity="0.0"
     inkscape:pageshadow="2"
     inkscape:zoom="1.001548"
     inkscape:cx="-80.621285"
     inkscape:cy="292.47762"
     inkscape:document-units="mm"
     inkscape:current-layer="layer1"
     inkscape:document-rotation="0"
     showgrid="false"
     fit-margin-top="0"
     fit-margin-left="0"
     fit-margin-right="0"
     fit-margin-bottom="0"
     inkscape:window-width="1920"
     inkscape:window-height="1017"
     inkscape:window-x="-8"
     inkscape:window-y="-8"
     inkscape:window-maximized="1" />
  <metadata
     id="metadata5">
    <rdf:RDF>
      <cc:Work
         rdf:about="">
        <dc:format>image/svg+xml</dc:format>
        <dc:type
           rdf:resource="http://purl.org/dc/dcmitype/StillImage" />
        <dc:title></dc:title>
      </cc:Work>
    </rdf:RDF>
  </metadata>
  <g
     inkscape:label="Calque 1"
     inkscape:groupmode="layer"
     id="layer1"
     transform="translate(-49.692425,-37.132853)">
    <g
       transform="translate(-5.2820966,-22.60274)"
       id="g943">
      <path
         id="path913"
         style="color:#000000;overflow:visible;fill:#000000;stroke:none;stroke-width:15.3896;stroke-linecap:round;stroke-linejoin:round;stroke-miterlimit:4;stroke-dasharray:none;stop-color:#000000"
         d="m 101.01389,87.613201 a 25.583244,18.206967 85.252443 0 0 -16.029376,27.003609 25.583244,18.206967 85.252443 0 0 12.120281,22.08017 8.3847864,8.3847864 0 0 1 -0.644316,-2.60124 8.3847864,8.3847864 0 0 1 7.662191,-9.05016 8.3847864,8.3847864 0 0 1 9.04752,7.66241 8.3847864,8.3847864 0 0 1 -0.20858,2.6774 25.583244,18.206967 85.252443 0 0 8.314,-23.78258 25.583244,18.206967 85.252443 0 0 -20.26172,-23.989609 z" />
      <path
         d="m 157.82143,87.709803 a 18.206967,25.583244 2.1401777 0 1 17.24121,26.246447 18.206967,25.583244 2.1401777 0 1 -11.10326,22.60868 8.3847866,8.3847866 0 0 0 0.52531,-2.62786 8.3847866,8.3847866 0 0 0 -8.06597,-8.69222 8.3847866,8.3847866 0 0 0 -8.68957,8.06606 8.3847866,8.3847866 0 0 0 0.33016,2.66514 18.206967,25.583244 2.1401777 0 1 -9.3873,-23.37973 18.206967,25.583244 2.1401777 0 1 19.14942,-24.886517 z"
         style="color:#000000;overflow:visible;fill:#000000;stroke:none;stroke-width:15.3896;stroke-linecap:round;stroke-linejoin:round;stroke-miterlimit:4;stroke-dasharray:none;stop-color:#000000"
         id="path913-2" />
    </g>
  </g>
</svg>
