<?xml version="1.0" encoding="UTF-8" standalone="no"?>
<svg
   xmlns:osb="http://www.openswatchbook.org/uri/2009/osb"
   xmlns:dc="http://purl.org/dc/elements/1.1/"
   xmlns:cc="http://creativecommons.org/ns#"
   xmlns:rdf="http://www.w3.org/1999/02/22-rdf-syntax-ns#"
   xmlns:svg="http://www.w3.org/2000/svg"
   xmlns="http://www.w3.org/2000/svg"
   xmlns:xlink="http://www.w3.org/1999/xlink"
   xmlns:sodipodi="http://sodipodi.sourceforge.net/DTD/sodipodi-0.dtd"
   xmlns:inkscape="http://www.inkscape.org/namespaces/inkscape"
   sodipodi:docname="afro-girl.svg"
   inkscape:version="1.0 (4035a4fb49, 2020-05-01)"
   id="svg3147"
   version="1.1"
   viewBox="0 0 150 170"
   height="170mm"
   width="150mm">
  <defs
     id="defs3141">
    <pattern
       id="carreau-pt"
       patternTransform="translate(-2054.333,1959.2791)"
       height="7.6109896"
       width="8.7129582"
       patternUnits="userSpaceOnUse">
      <rect
         y="6.2746067e-06"
         x="-2.2737368e-13"
         height="7.6109834"
         width="8.7129364"
         id="rect119919"
         style="fill:#800000;fill-opacity:1;stroke:none;stroke-width:1.08628;stroke-linecap:round;stroke-linejoin:round;stroke-miterlimit:4;stroke-dasharray:none;stop-color:#000000" />
      <path
         id="path119921"
         d="M 3.0751503,7.6109858 V 0"
         style="fill:#800000;stroke:#c11a1a;stroke-width:1.81047;stroke-linecap:butt;stroke-linejoin:miter;stroke-miterlimit:4;stroke-dasharray:none;stroke-opacity:1" />
      <path
         id="path119923"
         d="M 1.3287401e-5,4.7904378 H 8.7129582"
         style="fill:#c11a1a;fill-opacity:1;stroke:#c11a1a;stroke-width:1.81047;stroke-linecap:butt;stroke-linejoin:miter;stroke-miterlimit:4;stroke-dasharray:none;stroke-opacity:1" />
    </pattern>
    <pattern
       id="pattern115842"
       patternTransform="translate(-1862,1831.9999)"
       height="85.000002"
       width="85.000037"
       patternUnits="userSpaceOnUse">
      <rect
         y="0"
         x="3.4178149e-05"
         height="85"
         width="85"
         id="rect104700"
         style="fill:#800000;fill-opacity:1;stroke:none;stroke-width:11.3386;stroke-linecap:round;stroke-linejoin:round;stroke-miterlimit:4;stroke-dasharray:none;stop-color:#000000" />
      <path
         id="path104779"
         d="M 30,84.999998 V 1.0187008e-5"
         style="fill:#800000;stroke:#c11a1a;stroke-width:18.8976;stroke-linecap:butt;stroke-linejoin:miter;stroke-miterlimit:4;stroke-dasharray:none;stroke-opacity:1" />
      <path
         id="path107256"
         d="M 0,53.500092 H 85.000025"
         style="fill:#c11a1a;fill-opacity:1;stroke:#c11a1a;stroke-width:18.8976;stroke-linecap:butt;stroke-linejoin:miter;stroke-miterlimit:4;stroke-dasharray:none;stroke-opacity:1" />
    </pattern>
    <pattern
       patternUnits="userSpaceOnUse"
       width="9.5154795"
       height="8.5408786"
       patternTransform="translate(-4914.8373,100.06749)"
       id="carreau-vert">
      <rect
         y="0.6775502"
         x="0.6775502"
         height="7.1857781"
         width="8.1603794"
         id="rect4918"
         style="color:#000000;overflow:visible;fill:url(#linearGradient4920);fill-opacity:1;stroke:#3d662c;stroke-width:1.3551;stroke-linecap:square;stroke-linejoin:miter;stroke-miterlimit:4;stroke-dasharray:none;stroke-opacity:1;stop-color:#000000" />
    </pattern>
    <linearGradient
       inkscape:collect="always"
       xlink:href="#linearGradient4905"
       id="linearGradient4920"
       gradientUnits="userSpaceOnUse"
       gradientTransform="matrix(0.96271559,0,0,0.84773873,1201.0626,-26.799203)"
       x1="-1248.3741"
       y1="37.991222"
       x2="-1234.2153"
       y2="37.991222" />
    <linearGradient
       id="linearGradient4905"
       osb:paint="solid">
      <stop
         style="stop-color:#3f9320;stop-opacity:1;"
         offset="0"
         id="stop4903" />
    </linearGradient>
    <pattern
       patternUnits="userSpaceOnUse"
       width="85.000037"
       height="85.000002"
       patternTransform="translate(-1862,1831.9999)"
       id="pattern115842-0-4">
      <rect
         style="fill:#800000;fill-opacity:1;stroke:none;stroke-width:11.3386;stroke-linecap:round;stroke-linejoin:round;stroke-miterlimit:4;stroke-dasharray:none;stop-color:#000000"
         id="rect104700-3-5"
         width="85"
         height="85"
         x="3.4178149e-05"
         y="0" />
      <path
         style="fill:#800000;stroke:#c11a1a;stroke-width:18.8976;stroke-linecap:butt;stroke-linejoin:miter;stroke-miterlimit:4;stroke-dasharray:none;stroke-opacity:1"
         d="M 30,84.999998 V 1.0187008e-5"
         id="path104779-9-5" />
      <path
         style="fill:#c11a1a;fill-opacity:1;stroke:#c11a1a;stroke-width:18.8976;stroke-linecap:butt;stroke-linejoin:miter;stroke-miterlimit:4;stroke-dasharray:none;stroke-opacity:1"
         d="M 0,53.500092 H 85.000025"
         id="path107256-5-6" />
    </pattern>
    <radialGradient
       inkscape:collect="always"
       xlink:href="#linearGradient453754"
       id="radialGradient23876-9-3-7"
       cx="-386.35892"
       cy="667.26288"
       fx="-386.35892"
       fy="667.26288"
       r="195.66344"
       gradientTransform="matrix(0.32268338,-0.07481091,0.06631411,0.28603396,-527.9897,-556.93956)"
       gradientUnits="userSpaceOnUse" />
    <linearGradient
       id="linearGradient453754"
       inkscape:collect="always">
      <stop
         id="stop453746"
         offset="0"
         style="stop-color:#a06f50;stop-opacity:1" />
      <stop
         style="stop-color:#a06f50;stop-opacity:1"
         offset="0.70413625"
         id="stop453748" />
      <stop
         style="stop-color:#7f583f;stop-opacity:1"
         offset="0.70413625"
         id="stop453750" />
      <stop
         id="stop453752"
         offset="1"
         style="stop-color:#7f583f;stop-opacity:1" />
    </linearGradient>
    <radialGradient
       inkscape:collect="always"
       xlink:href="#linearGradient453754"
       id="radialGradient1872-5-8-4"
       cx="-213.61194"
       cy="144.48944"
       fx="-213.61194"
       fy="144.48944"
       r="29.964201"
       gradientTransform="matrix(1.544547,-0.26971894,0.45443624,2.1590227,-354.79826,-800.07269)"
       gradientUnits="userSpaceOnUse" />
  </defs>
  <sodipodi:namedview
     inkscape:snap-midpoints="true"
     inkscape:snap-smooth-nodes="true"
     inkscape:object-paths="true"
     inkscape:window-maximized="1"
     inkscape:window-y="-8"
     inkscape:window-x="-8"
     inkscape:window-height="1017"
     inkscape:window-width="1920"
     showgrid="false"
     inkscape:document-rotation="0"
     inkscape:current-layer="layer1"
     inkscape:document-units="mm"
     inkscape:cy="392.60846"
     inkscape:cx="498.97015"
     inkscape:zoom="0.7"
     inkscape:pageshadow="2"
     inkscape:pageopacity="0.0"
     borderopacity="1.0"
     bordercolor="#666666"
     pagecolor="#ffffff"
     id="base" />
  <metadata
     id="metadata3144">
    <rdf:RDF>
      <cc:Work
         rdf:about="">
        <dc:format>image/svg+xml</dc:format>
        <dc:type
           rdf:resource="http://purl.org/dc/dcmitype/StillImage" />
        <dc:title></dc:title>
      </cc:Work>
    </rdf:RDF>
  </metadata>
  <g
     id="layer1"
     inkscape:groupmode="layer"
     inkscape:label="Calque 1">
    <g
       id="g91574"
       transform="translate(683.91446,485.62809)"
       style="mix-blend-mode:normal">
      <path
         id="path778702"
         style="opacity:1;fill:#64505c;fill-opacity:1;stroke:#000000;stroke-width:2.36112;stroke-linecap:round;stroke-linejoin:round;stroke-miterlimit:4;stroke-dasharray:none;stroke-opacity:1;stop-color:#000000"
         d="m -607.97762,-468.25971 c -5.17871,0.002 -9.88919,2.9984 -12.08593,7.68812 -1.87681,-3.18715 -5.29944,-5.14383 -8.99815,-5.14413 -5.76758,8e-5 -10.44312,9.43812 -10.4432,15.20571 1.9e-4,0.25636 0.01,0.51263 0.0289,0.76828 -1.39843,-0.66339 -2.92686,-1.00764 -4.47467,-1.00784 -5.76758,8e-5 -10.44313,10.49645 -10.4432,16.26404 0.002,4.51915 1.32349,8.52411 5.62029,9.92423 -4.89221,1.23742 -6.74264,5.73 -6.74526,10.88897 -4e-5,6.198 4.90791,13.33917 10.96216,13.33914 1.49716,4.43957 6.66569,14.48201 13.56201,11.50255 22.0561,16.41012 38.32965,7.46474 42.78717,-2.93409 11.37016,5.36831 13.94432,-5.47879 14.69325,-10.08592 6.18793,10e-5 11.20425,-7.13291 11.20416,-13.32083 -1.4e-4,-4.86179 -2.07747,-9.16866 -6.70422,-10.66202 3.83473,-1.64567 5.26336,-5.41617 5.26649,-9.5891 -8e-5,-5.76759 -4.67563,-16.26396 -10.44321,-16.26404 -1.52172,0.001 -3.02475,0.33542 -4.40389,0.97856 -0.57922,-5.29656 -5.05285,-14.07033 -10.38098,-14.07057 -2.81109,0.002 -5.50248,1.13802 -7.46566,3.15001 -2.39159,-4.10549 -6.78474,-6.63074 -11.53604,-6.63107 z"
         sodipodi:nodetypes="cccccccccccccscccccccc" />
      <path
         id="rect8920-2-3-3"
         style="fill:url(#radialGradient23876-9-3-7);fill-opacity:1;stroke:#000000;stroke-width:3;stroke-linecap:round;stroke-linejoin:round;stroke-miterlimit:4;stroke-dasharray:none;stroke-opacity:1;stop-color:#000000"
         d="m -621.3876,-393.14224 v 14.32522 c -5.82436,8.50699 -14.88785,9.95583 -24.19025,13.26689 -13.87987,4.94035 -13.39221,12.09694 -13.39221,12.09694 0,0 -2.42154,24.0307 1.5875,36.3251 h 96.9362 c 3.20723,-11.49259 1.5875,-36.3251 1.5875,-36.3251 0,0 -0.37133,-9.0145 -13.39169,-12.09694 -10.08161,-2.38671 -16.71931,-5.95194 -23.43474,-13.26689 v -14.32522 z"
         sodipodi:nodetypes="cccccccsccc" />
      <ellipse
         ry="6.678576"
         rx="6.1759887"
         cy="-417.35562"
         cx="-639.98248"
         id="path861-2-7-9-3"
         style="color:#000000;overflow:visible;fill:#a06f50;fill-opacity:1;stroke:#000000;stroke-width:3;stroke-linecap:round;stroke-miterlimit:4;stroke-dasharray:none;stroke-opacity:1;stop-color:#000000" />
      <ellipse
         style="color:#000000;overflow:visible;fill:#7f583f;fill-opacity:1;stroke:#000000;stroke-width:3;stroke-linecap:round;stroke-miterlimit:4;stroke-dasharray:none;stroke-opacity:1;stop-color:#000000"
         id="path861-0-6-0-9-0"
         cx="-577.84644"
         cy="-417.35562"
         rx="6.1759887"
         ry="6.678576" />
      <path
         style="fill:none;fill-opacity:1;stroke:#7f583f;stroke-width:3;stroke-linecap:round;stroke-linejoin:miter;stroke-miterlimit:4;stroke-dasharray:none;stroke-opacity:1"
         d="m -612.40129,-407.83054 c 0,0 2.10246,1.05833 3.48683,1.05833 1.38437,0 3.48682,-1.05833 3.48682,-1.05833"
         id="path2252-4-7-1-5"
         sodipodi:nodetypes="czc" />
      <path
         style="fill:none;stroke:#000000;stroke-width:3;stroke-linecap:round;stroke-linejoin:miter;stroke-miterlimit:4;stroke-dasharray:none;stroke-opacity:1"
         d="m -615.57629,-398.03491 c 0,0 2.46093,2.11667 6.66183,2.11667 4.20088,0 6.66183,-2.11667 6.66183,-2.11667"
         id="path2252-47-6-7"
         sodipodi:nodetypes="czc" />
      <g
         id="g2407-6-6-8"
         transform="translate(-399.17826,-559.0334)">
        <path
           sodipodi:arc-type="arc"
           sodipodi:open="true"
           sodipodi:end="6.2442187"
           sodipodi:start="0"
           sodipodi:ry="3.2740517"
           sodipodi:rx="2.3012009"
           sodipodi:cy="141.14864"
           sodipodi:cx="-222.59987"
           sodipodi:type="arc"
           id="path984-6-3-0-1"
           style="color:#000000;overflow:visible;fill:#000000;fill-opacity:1;stroke:none;stroke-width:3;stroke-linecap:round;stroke-linejoin:round;stroke-miterlimit:4;stroke-dasharray:none;stroke-opacity:1;stop-color:#000000"
           d="m -220.29867,141.14864 a 2.3012009,3.2740517 0 0 1 -2.27878,3.27389 2.3012009,3.2740517 0 0 1 -2.32318,-3.21011 2.3012009,3.2740517 0 0 1 2.23352,-3.33644 2.3012009,3.2740517 0 0 1 2.3667,3.14511" />
        <path
           style="color:#000000;overflow:visible;fill:#000000;fill-opacity:1;stroke:none;stroke-width:3;stroke-linecap:round;stroke-linejoin:round;stroke-miterlimit:4;stroke-dasharray:none;stroke-opacity:1;stop-color:#000000"
           id="path984-3-2-8-9-4"
           sodipodi:type="arc"
           sodipodi:cx="-196.87254"
           sodipodi:cy="141.14864"
           sodipodi:rx="2.3012009"
           sodipodi:ry="3.2740517"
           sodipodi:start="0"
           sodipodi:end="6.2442187"
           sodipodi:open="true"
           sodipodi:arc-type="arc"
           d="m -194.57134,141.14864 a 2.3012009,3.2740517 0 0 1 -2.27879,3.27389 2.3012009,3.2740517 0 0 1 -2.32318,-3.21011 2.3012009,3.2740517 0 0 1 2.23352,-3.33644 2.3012009,3.2740517 0 0 1 2.3667,3.14511" />
      </g>
      <g
         id="g66903-6-50-4"
         transform="translate(-412.47675,-543.13886)">
        <path
           style="fill:none;stroke:#000000;stroke-width:3;stroke-linecap:round;stroke-linejoin:round;stroke-miterlimit:4;stroke-dasharray:none;stroke-opacity:1"
           d="m -185.87201,115.07238 h 5.29167"
           id="path66722-4-6-8" />
        <path
           style="fill:none;stroke:#000000;stroke-width:3;stroke-linecap:round;stroke-linejoin:round;stroke-miterlimit:4;stroke-dasharray:none;stroke-opacity:1"
           d="m -212.29508,115.07238 h 5.29167"
           id="path66722-1-5-1-4" />
      </g>
      <path
         id="rect1621-92-6-9"
         style="fill:url(#radialGradient1872-5-8-4);fill-opacity:1;stroke:#000000;stroke-width:2.86316;stroke-linecap:round;stroke-linejoin:round;stop-color:#000000"
         d="m -608.03174,-445.65987 c 6.34906,6.38953 13.6241,2.27824 18.10413,2.96208 -0.17826,11.30316 7.76001,11.13331 9.47735,18.26376 v 14.15685 c 0,12.41481 -22.05194,29.52254 -28.4642,29.52254 -6.41226,0 -28.4642,-14.81264 -28.4642,-29.52254 v -14.15685 c 6.31729,-3.79323 10.81745,-9.18804 11.1676,-17.49928 4.07067,-4.63229 12.17479,-9.76937 18.17932,-3.72656 z"
         sodipodi:nodetypes="sccszcccs" />
      <path
         style="fill:none;stroke:#000000;stroke-width:3;stroke-linecap:round;stroke-linejoin:miter;stroke-miterlimit:4;stroke-dasharray:none;stroke-opacity:1"
         d="m -615.57629,-398.03491 c 0,0 2.46093,2.11667 6.66183,2.11667 4.20088,0 6.66183,-2.11667 6.66183,-2.11667"
         id="path2252-8-9-7"
         sodipodi:nodetypes="czc" />
      <path
         style="fill:#000000;fill-opacity:0;stroke:#7f583f;stroke-width:3;stroke-linecap:round;stroke-linejoin:miter;stroke-miterlimit:4;stroke-dasharray:none;stroke-opacity:1"
         d="m -612.40129,-407.83054 c 0,0 2.10246,1.05833 3.48683,1.05833 1.38437,0 3.48682,-1.05833 3.48682,-1.05833"
         id="path2252-4-57-8-6"
         sodipodi:nodetypes="czc" />
      <g
         id="g2407-3-9-5"
         transform="translate(-399.17826,-559.0334)">
        <path
           sodipodi:arc-type="arc"
           sodipodi:open="true"
           sodipodi:end="6.2442187"
           sodipodi:start="0"
           sodipodi:ry="3.2740517"
           sodipodi:rx="2.3012009"
           sodipodi:cy="141.14864"
           sodipodi:cx="-222.59987"
           sodipodi:type="arc"
           id="path984-6-9-0-9"
           style="color:#000000;overflow:visible;fill:#000000;fill-opacity:1;stroke:none;stroke-width:3;stroke-linecap:round;stroke-linejoin:round;stroke-miterlimit:4;stroke-dasharray:none;stroke-opacity:1;stop-color:#000000"
           d="m -220.29867,141.14864 a 2.3012009,3.2740517 0 0 1 -2.27878,3.27389 2.3012009,3.2740517 0 0 1 -2.32318,-3.21011 2.3012009,3.2740517 0 0 1 2.23352,-3.33644 2.3012009,3.2740517 0 0 1 2.3667,3.14511" />
        <path
           style="color:#000000;overflow:visible;fill:#000000;fill-opacity:1;stroke:none;stroke-width:3;stroke-linecap:round;stroke-linejoin:round;stroke-miterlimit:4;stroke-dasharray:none;stroke-opacity:1;stop-color:#000000"
           id="path984-3-2-1-7-5"
           sodipodi:type="arc"
           sodipodi:cx="-196.87254"
           sodipodi:cy="141.14864"
           sodipodi:rx="2.3012009"
           sodipodi:ry="3.2740517"
           sodipodi:start="0"
           sodipodi:end="6.2442187"
           sodipodi:open="true"
           sodipodi:arc-type="arc"
           d="m -194.57134,141.14864 a 2.3012009,3.2740517 0 0 1 -2.27879,3.27389 2.3012009,3.2740517 0 0 1 -2.32318,-3.21011 2.3012009,3.2740517 0 0 1 2.23352,-3.33644 2.3012009,3.2740517 0 0 1 2.3667,3.14511" />
      </g>
      <g
         id="g66903-1-4-5"
         transform="translate(-412.47675,-543.13885)">
        <path
           style="fill:none;stroke:#000000;stroke-width:3;stroke-linecap:round;stroke-linejoin:round;stroke-miterlimit:4;stroke-dasharray:none;stroke-opacity:1"
           d="m -185.87201,115.07238 h 5.29167"
           id="path66722-3-3-2" />
        <path
           style="fill:none;stroke:#000000;stroke-width:3;stroke-linecap:round;stroke-linejoin:round;stroke-miterlimit:4;stroke-dasharray:none;stroke-opacity:1"
           d="m -212.29508,115.07238 h 5.29167"
           id="path66722-1-6-7-9" />
      </g>
      <path
         id="rect8920-8-2-9-7-8"
         style="fill:#ffaaaa;fill-opacity:1;stroke:#000000;stroke-width:3;stroke-linecap:round;stroke-linejoin:round;stroke-miterlimit:4;stroke-dasharray:none;stroke-opacity:1;stop-color:#000000"
         d="m -627.72572,-372.62463 c -5.19075,3.40508 -11.46495,4.80107 -17.85213,7.0745 l 2.44946,21.6276 0.0785,6.79442 c 0,0 3.66102,12.62948 8.38572,20.00002 h 50.22461 c 5.85863,-7.55952 9.61291,-20.00002 9.61291,-20.00002 l 0.0786,-6.79442 2.49751,-21.6276 c -6.69861,-1.58583 -11.87664,-3.69387 -16.56747,-7.0745 v 19.76313 c 0,0.7535 -0.60661,1.36011 -1.36011,1.36011 l -18.09399,6.35 -18.09347,-6.35 c -0.71097,-0.2495 -1.36012,-0.60661 -1.36012,-1.36011 z"
         sodipodi:nodetypes="ccccccccccscccsc" />
      <g
         id="g222555-2-0-1-4"
         transform="translate(-412.24892,-527.29385)">
        <circle
           style="fill:#f8e47e;fill-opacity:1;stroke:#000000;stroke-width:3;stroke-linecap:round;stroke-linejoin:round;stroke-miterlimit:4;stroke-dasharray:none;stroke-opacity:1;stop-color:#000000"
           id="path217080-7-3-8-0"
           cx="-230.33279"
           cy="125.63338"
           r="4.7831883" />
        <circle
           style="fill:#f8e47e;fill-opacity:1;stroke:#000000;stroke-width:3;stroke-linecap:round;stroke-linejoin:round;stroke-miterlimit:4;stroke-dasharray:none;stroke-opacity:1;stop-color:#000000"
           id="path217080-3-0-9-5-4"
           cx="-162.99829"
           cy="125.63338"
           r="4.7831883" />
      </g>
      <path
         style="fill:none;stroke:#000000;stroke-width:3;stroke-linecap:butt;stroke-linejoin:miter;stroke-miterlimit:4;stroke-dasharray:none;stroke-opacity:1"
         d="m -623.54511,-376.12271 c 9.32932,31.58053 23.18394,31.77485 30.12462,-0.36781"
         id="path36643-8-8"
         sodipodi:nodetypes="cc" />
      <circle
         style="fill:#f8e47e;fill-opacity:1;stroke:#000000;stroke-width:3;stroke-linecap:round;stroke-linejoin:round;stroke-miterlimit:4;stroke-dasharray:none;stroke-opacity:1;stop-color:#000000"
         id="path217080-3-0-9-9-2-5"
         cx="-608.27209"
         cy="-349.9346"
         r="4.7831883" />
    </g>
  </g>
</svg>
