<?xml version="1.0" encoding="UTF-8" standalone="no"?>
<svg
   sodipodi:docname="ateam-hannibal.svg"
   inkscape:version="1.2.2 (732a01da63, 2022-12-09)"
   id="svg3147"
   version="1.1"
   viewBox="0 0 150 170"
   height="170mm"
   width="150mm"
   xmlns:inkscape="http://www.inkscape.org/namespaces/inkscape"
   xmlns:sodipodi="http://sodipodi.sourceforge.net/DTD/sodipodi-0.dtd"
   xmlns:xlink="http://www.w3.org/1999/xlink"
   xmlns="http://www.w3.org/2000/svg"
   xmlns:svg="http://www.w3.org/2000/svg"
   xmlns:rdf="http://www.w3.org/1999/02/22-rdf-syntax-ns#"
   xmlns:cc="http://creativecommons.org/ns#"
   xmlns:dc="http://purl.org/dc/elements/1.1/">
  <defs
     id="defs3141">
    <pattern
       id="carreau-pt"
       patternTransform="translate(-2054.333,1959.2791)"
       height="7.6109896"
       width="8.7129582"
       patternUnits="userSpaceOnUse">
      <rect
         y="6.2746067e-06"
         x="-2.2737368e-13"
         height="7.6109834"
         width="8.7129364"
         id="rect119919"
         style="fill:#800000;fill-opacity:1;stroke:none;stroke-width:1.08628;stroke-linecap:round;stroke-linejoin:round;stroke-miterlimit:4;stroke-dasharray:none;stop-color:#000000" />
      <path
         id="path119921"
         d="M 3.0751503,7.6109858 V 0"
         style="fill:#800000;stroke:#c11a1a;stroke-width:1.81047;stroke-linecap:butt;stroke-linejoin:miter;stroke-miterlimit:4;stroke-dasharray:none;stroke-opacity:1" />
      <path
         id="path119923"
         d="M 1.3287401e-5,4.7904378 H 8.7129582"
         style="fill:#c11a1a;fill-opacity:1;stroke:#c11a1a;stroke-width:1.81047;stroke-linecap:butt;stroke-linejoin:miter;stroke-miterlimit:4;stroke-dasharray:none;stroke-opacity:1" />
    </pattern>
    <pattern
       id="pattern115842"
       patternTransform="translate(-1862,1831.9999)"
       height="85.000002"
       width="85.000037"
       patternUnits="userSpaceOnUse">
      <rect
         y="0"
         x="3.4178149e-05"
         height="85"
         width="85"
         id="rect104700"
         style="fill:#800000;fill-opacity:1;stroke:none;stroke-width:11.3386;stroke-linecap:round;stroke-linejoin:round;stroke-miterlimit:4;stroke-dasharray:none;stop-color:#000000" />
      <path
         id="path104779"
         d="M 30,84.999998 V 1.0187008e-5"
         style="fill:#800000;stroke:#c11a1a;stroke-width:18.8976;stroke-linecap:butt;stroke-linejoin:miter;stroke-miterlimit:4;stroke-dasharray:none;stroke-opacity:1" />
      <path
         id="path107256"
         d="M 0,53.500092 H 85.000025"
         style="fill:#c11a1a;fill-opacity:1;stroke:#c11a1a;stroke-width:18.8976;stroke-linecap:butt;stroke-linejoin:miter;stroke-miterlimit:4;stroke-dasharray:none;stroke-opacity:1" />
    </pattern>
    <radialGradient
       inkscape:collect="always"
       xlink:href="#linearGradient326752"
       id="radialGradient1872-4-4"
       cx="-212.20439"
       cy="154.11053"
       fx="-212.20439"
       fy="154.11053"
       r="29.964201"
       gradientTransform="matrix(1.1258257,0.49931531,-0.54073927,1.2777033,547.86876,-169.49874)"
       gradientUnits="userSpaceOnUse" />
    <linearGradient
       id="linearGradient326752"
       inkscape:collect="always">
      <stop
         id="stop326744"
         offset="0"
         style="stop-color:#f8bc80;stop-opacity:1" />
      <stop
         style="stop-color:#f8bc80;stop-opacity:1"
         offset="0.70677221"
         id="stop326746" />
      <stop
         style="stop-color:#f6ae76;stop-opacity:1"
         offset="0.70677221"
         id="stop326748" />
      <stop
         id="stop326750"
         offset="1"
         style="stop-color:#f6ae76;stop-opacity:1" />
    </linearGradient>
  </defs>
  <sodipodi:namedview
     inkscape:object-paths="true"
     inkscape:window-maximized="1"
     inkscape:window-y="-8"
     inkscape:window-x="-8"
     inkscape:window-height="1017"
     inkscape:window-width="1920"
     showgrid="false"
     inkscape:document-rotation="0"
     inkscape:current-layer="layer1"
     inkscape:document-units="mm"
     inkscape:cy="520.71429"
     inkscape:cx="219.28571"
     inkscape:zoom="0.7"
     inkscape:pageshadow="2"
     inkscape:pageopacity="0.0"
     borderopacity="1.0"
     bordercolor="#666666"
     pagecolor="#ffffff"
     id="base"
     inkscape:showpageshadow="2"
     inkscape:pagecheckerboard="0"
     inkscape:deskcolor="#d1d1d1" />
  <metadata
     id="metadata3144">
    <rdf:RDF>
      <cc:Work
         rdf:about="">
        <dc:format>image/svg+xml</dc:format>
        <dc:type
           rdf:resource="http://purl.org/dc/dcmitype/StillImage" />
      </cc:Work>
    </rdf:RDF>
  </metadata>
  <g
     id="layer1"
     inkscape:groupmode="layer"
     inkscape:label="Calque 1">
    <g
       id="g79991"
       transform="translate(-153.61192,149.88519)"
       style="mix-blend-mode:normal">
      <path
         id="rect8920-9-13-6-4"
         style="mix-blend-mode:normal;fill:#f8bc80;fill-opacity:1;stroke:#000000;stroke-width:3;stroke-linecap:round;stroke-linejoin:round;stroke-miterlimit:4;stroke-dasharray:none;stroke-opacity:1;stop-color:#000000"
         d="m 215.73337,-57.39948 v 14.32522 c -5.82436,8.50699 -14.88785,9.95583 -24.19024,13.26689 -13.87987,4.94035 -13.39221,12.09694 -13.39221,12.09694 -0.62038,12.52196 -5.11216,27.62484 0,36.3251 H 278.2621 c 4.38564,-4.79897 4.16582,-17.27369 0,-36.3251 0,0 -0.37133,-9.0145 -13.39169,-12.09694 -10.08161,-2.38671 -16.7193,-5.95194 -23.43473,-13.26689 v -14.32522 z"
         sodipodi:nodetypes="cccccccsccc" />
      <path
         sodipodi:nodetypes="ccccccccc"
         id="path5955-6-2"
         d="m 209.15951,-36.72838 6.57386,-6.34588 v -14.32522 h 25.70232 v 14.32522 c 4.03956,7.43179 21.44049,13.04545 34.15141,19.2973 7.46759,13.56652 5.57958,34.8594 2.67502,42.39163 -4.83297,-18.67683 5.34244,-39.0666 -24.18207,-52.07354 0,0 -23.16603,-11.05522 -44.92054,-3.26951 z"
         style="mix-blend-mode:darken;fill:#f6ae76;fill-opacity:1;stroke:none;stroke-width:0.264583px;stroke-linecap:butt;stroke-linejoin:miter;stroke-opacity:1" />
      <ellipse
         ry="6.678576"
         rx="6.1759887"
         cy="-81.612831"
         cx="198.72591"
         id="path861-2-70-55"
         style="color:#000000;overflow:visible;mix-blend-mode:normal;fill:#f8bc80;fill-opacity:1;stroke:#000000;stroke-width:3;stroke-linecap:round;stroke-miterlimit:4;stroke-dasharray:none;stroke-opacity:1;stop-color:#000000" />
      <ellipse
         style="color:#000000;overflow:visible;mix-blend-mode:normal;fill:#f6ae76;fill-opacity:1;stroke:#000000;stroke-width:3;stroke-linecap:round;stroke-miterlimit:4;stroke-dasharray:none;stroke-opacity:1;stop-color:#000000"
         id="path861-0-6-5-42"
         cx="257.68698"
         cy="-81.612831"
         rx="6.1759887"
         ry="6.678576" />
      <path
         id="rect1621-9-0"
         style="mix-blend-mode:normal;fill:url(#radialGradient1872-4-4);fill-opacity:1;stroke:#000000;stroke-width:2.86316;stroke-linecap:round;stroke-linejoin:round;stop-color:#000000"
         d="m 228.20651,-117.15546 c 15.76916,0 28.4642,7.94473 28.4642,28.464195 v 14.15685 c 0,10.975545 -9.87383,20.880465 -16.9784,24.156765 -3.76419,2.0939 -4.72372,4.02417 -11.4858,4.30744 -6.76208,0.28327 -7.43005,-2.00599 -10.85383,-3.7051 -7.54314,-1.44514 -17.61037,-13.29837 -17.61037,-24.759105 v -14.15685 c 0,-20.590315 12.69503,-28.464205 28.4642,-28.464195 z"
         sodipodi:nodetypes="sssczcsss" />
      <path
         style="mix-blend-mode:normal;fill:#000000;fill-opacity:0;stroke:#f6ae76;stroke-width:3;stroke-linecap:round;stroke-linejoin:miter;stroke-miterlimit:4;stroke-dasharray:none;stroke-opacity:1"
         d="m 224.71968,-72.087775 c 0,0 2.10246,1.05833 3.48683,1.05833 1.38437,0 3.48682,-1.05833 3.48682,-1.05833"
         id="path2252-4-5-0"
         sodipodi:nodetypes="czc" />
      <g
         id="g2407-6-89"
         transform="translate(437.94271,-223.29064)"
         style="mix-blend-mode:normal">
        <path
           sodipodi:arc-type="arc"
           sodipodi:open="true"
           sodipodi:end="6.2442187"
           sodipodi:start="0"
           sodipodi:ry="3.2740517"
           sodipodi:rx="2.3012009"
           sodipodi:cy="141.14864"
           sodipodi:cx="-222.59987"
           sodipodi:type="arc"
           id="path984-6-3-9"
           style="color:#000000;overflow:visible;fill:#000000;fill-opacity:1;stroke:none;stroke-width:3;stroke-linecap:round;stroke-linejoin:round;stroke-miterlimit:4;stroke-dasharray:none;stroke-opacity:1;stop-color:#000000"
           d="m -220.29867,141.14864 a 2.3012009,3.2740517 0 0 1 -2.27878,3.27389 2.3012009,3.2740517 0 0 1 -2.32318,-3.21011 2.3012009,3.2740517 0 0 1 2.23352,-3.33644 2.3012009,3.2740517 0 0 1 2.3667,3.14511" />
        <path
           style="color:#000000;overflow:visible;fill:#000000;fill-opacity:1;stroke:none;stroke-width:3;stroke-linecap:round;stroke-linejoin:round;stroke-miterlimit:4;stroke-dasharray:none;stroke-opacity:1;stop-color:#000000"
           id="path984-3-2-8-0"
           sodipodi:type="arc"
           sodipodi:cx="-196.87254"
           sodipodi:cy="141.14864"
           sodipodi:rx="2.3012009"
           sodipodi:ry="3.2740517"
           sodipodi:start="0"
           sodipodi:end="6.2442187"
           sodipodi:open="true"
           sodipodi:arc-type="arc"
           d="m -194.57134,141.14864 a 2.3012009,3.2740517 0 0 1 -2.27879,3.27389 2.3012009,3.2740517 0 0 1 -2.32318,-3.21011 2.3012009,3.2740517 0 0 1 2.23352,-3.33644 2.3012009,3.2740517 0 0 1 2.3667,3.14511" />
      </g>
      <g
         id="g66903-6-51"
         transform="translate(424.64422,-207.39609)"
         style="mix-blend-mode:normal">
        <path
           style="fill:none;stroke:#000000;stroke-width:3;stroke-linecap:round;stroke-linejoin:round;stroke-miterlimit:4;stroke-dasharray:none;stroke-opacity:1"
           d="m -185.87201,113.48488 5.29167,1.5875"
           id="path66722-4-06"
           sodipodi:nodetypes="cc" />
        <path
           style="fill:none;stroke:#000000;stroke-width:3;stroke-linecap:round;stroke-linejoin:round;stroke-miterlimit:4;stroke-dasharray:none;stroke-opacity:1"
           d="m -212.29508,115.07238 h 5.29167"
           id="path66722-1-5-945" />
      </g>
      <path
         id="rect8920-5-2-2"
         style="mix-blend-mode:normal;fill:#75b5ed;fill-opacity:1;stroke:#000000;stroke-width:3;stroke-linecap:round;stroke-linejoin:round;stroke-miterlimit:4;stroke-dasharray:none;stroke-opacity:1;stop-color:#000000"
         d="m 215.73337,-43.07426 c -5.82436,8.50699 -14.88785,9.95583 -24.19025,13.26689 l 17.20024,48.42204 h 45.12747 l 10.99959,-48.42204 c -10.08161,-2.38671 -16.71931,-5.95194 -23.43474,-13.26689 l -8.61898,10.94261 -4.23217,17.63239 -5.68662,-18.45281 z"
         sodipodi:nodetypes="cccccccccc" />
      <path
         style="mix-blend-mode:normal;fill:#dcd8dc;fill-opacity:1;stroke:#000000;stroke-width:3;stroke-linecap:butt;stroke-linejoin:miter;stroke-miterlimit:4;stroke-dasharray:none;stroke-opacity:1"
         d="M 228.58453,-14.49926 V 18.61467"
         id="path71731-9-1"
         sodipodi:nodetypes="cc" />
      <path
         style="mix-blend-mode:normal;fill:none;stroke:#000000;stroke-width:0.264583px;stroke-linecap:butt;stroke-linejoin:miter;stroke-opacity:1"
         d="m 246.85846,-37.51127 -5.42277,-5.56299"
         id="path22674-3" />
      <path
         style="mix-blend-mode:normal;fill:none;stroke:#000000;stroke-width:3;stroke-linecap:round;stroke-linejoin:round;stroke-miterlimit:4;stroke-dasharray:none;stroke-opacity:1"
         d="m 215.73337,-43.07426 -5.42276,5.56299 4.69033,14.29339 7.89697,-9.73419 z"
         id="path22943-70"
         sodipodi:nodetypes="ccccc" />
      <path
         style="mix-blend-mode:normal;fill:none;stroke:#000000;stroke-width:3;stroke-linecap:round;stroke-linejoin:round;stroke-miterlimit:4;stroke-dasharray:none;stroke-opacity:1"
         d="m 241.43569,-43.07426 5.42276,5.56299 -7.06745,14.39674 -6.9743,-9.01712 z"
         id="path22943-7-7"
         sodipodi:nodetypes="ccccc" />
      <path
         style="fill:#fbe2ba;fill-opacity:1;fill-rule:evenodd;stroke:#000000;stroke-width:3;stroke-linecap:round;stroke-linejoin:round;stroke-dasharray:none;stroke-opacity:1"
         d="m 199.74231,-88.691267 v 7.078427 c 7.10433,-6.248891 3.92331,-16.949147 6.20026,-26.6796 4.83213,1.50932 14.98425,-0.43537 14.98425,-0.43537 0.0524,0.0187 -4.4548,4.28388 -8.36147,4.50306 10.48065,5.122462 24.05014,1.53393 38.31447,-4.72942 -0.49323,11.420276 5.38352,27.809365 5.79089,27.34133 v -7.078427 l 2.6038,0.39986 c 1.69361,-18.293373 -2.95176,-29.715413 -14.27054,-32.292163 -11.31878,-2.57675 -17.84022,-3.86308 -32.03938,-0.0248 -14.19915,3.83827 -15.30821,14.26787 -15.82618,32.316968 l 2.6039,-0.39986 z"
         id="path133770"
         sodipodi:nodetypes="ccccccccczzccc" />
      <path
         id="rect140771"
         style="overflow:visible;fill:#ffffff;stroke:#000000;stroke-width:3;stroke-linecap:round;stroke-linejoin:round;stop-color:#000000"
         d="m 220.97443,-64.97974 h 15.24454 c -0.12001,2.20648 -1.07364,5.9534 -3.175,6.08164 h -8.89454 c -2.15181,-0.26083 -2.98259,-3.73145 -3.175,-6.08164 z"
         sodipodi:nodetypes="ccccc" />
      <path
         id="rect8920-9-13-6-4-2"
         style="mix-blend-mode:normal;fill:#f5e7d2;fill-opacity:1;stroke:#000000;stroke-width:3;stroke-linecap:round;stroke-linejoin:round;stroke-miterlimit:4;stroke-dasharray:none;stroke-opacity:1;stop-color:#000000"
         d="m 243.63455,-40.8198 c 1.81355,20.622754 -8.56005,31.7598578 -6.52681,59.43447 l 43.27082,1.45e-4 c 1.53547,-6.881794 2.04916,-17.2740209 -2.11666,-36.325431 0,0 -0.37107,-9.014497 -13.39143,-12.096935 -8.98238,-2.12648 -15.2305,-5.196173 -21.23592,-11.012249 z m -30.84979,1.242819 c -5.70732,5.506291 -13.38935,6.974528 -21.2416,9.76943 -13.87987,4.940348 -13.39246,12.096935 -13.39246,12.096935 -0.62038,12.5219591 -3.84949,26.8943558 -1.5875,36.325431 l 44.99134,-1.45e-4 c 2.8065,-21.689904 -6.59557,-38.278935 -8.76978,-58.191651 z"
         sodipodi:nodetypes="ccccsccscccc" />
      <path
         style="fill:#f5e7d2;fill-opacity:1;stroke:#000000;stroke-width:3;stroke-linecap:round;stroke-linejoin:round;stroke-miterlimit:4;stroke-dasharray:none;stroke-opacity:1"
         d="m 241.43569,-47.34159 c -0.52822,4.54262 2.10444,16.66276 -1.0636,21.03915 -5.55164,10.49644 -3.50611,23.28192 -3.25811,30.87796 2.98983,-3.81353 9.45201,-15.55698 8.48763,-33.56091 l 5.33822,10.25306 -2.89668,-19.40177 c -1.90405,-3.35462 -2.67163,-7.79631 -6.60746,-9.20749 z"
         id="path51353"
         sodipodi:nodetypes="ccccccc" />
      <path
         style="mix-blend-mode:normal;fill:#f5e7d2;fill-opacity:1;stroke:#000000;stroke-width:3;stroke-linecap:round;stroke-linejoin:round;stroke-miterlimit:4;stroke-dasharray:none;stroke-opacity:1"
         d="m 215.76697,-45.93587 c 0.52822,4.54262 -1.91103,9.7077 1.25701,14.08409 0.17515,16.38287 5.17782,34.24628 4.99047,39.59666 -1.35217,-10.0129 -9.48862,-10.05688 -10.23505,-35.91862 l -6.59131,9.53715 3.97142,-18.09179 c 1.90405,-3.35462 2.67163,-7.79631 6.60746,-9.20749 z"
         id="path51353-6"
         sodipodi:nodetypes="ccccccc" />
      <path
         id="rect62362"
         style="fill:#f5e7d2;stroke:#000000;stroke-width:3;stroke-linecap:round;stroke-linejoin:round;stop-color:#000000"
         d="m 246.06157,-0.31499 c 6.59508,-0.35277 13.71014,-1.23472 21.08268,-1.5875 l -2.11667,20.51716 H 245.5324 Z"
         sodipodi:nodetypes="ccccc" />
      <path
         style="fill:none;stroke:#000000;stroke-width:3;stroke-linecap:butt;stroke-linejoin:miter;stroke-miterlimit:4;stroke-dasharray:none;stroke-opacity:1"
         d="m 245.82789,8.04432 c 6.55736,1.34419 14.17836,-0.48783 20.47521,-1.79346"
         id="path63180"
         sodipodi:nodetypes="cc" />
      <path
         id="rect62362-6"
         style="mix-blend-mode:normal;fill:#f5e7d2;stroke:#000000;stroke-width:3;stroke-linecap:round;stroke-linejoin:round;stop-color:#000000"
         d="m 213.76699,-1.86526 c -6.59508,-0.35277 -13.71014,0.31557 -21.08267,-0.0372 l 2.11667,20.51716 h 19.49517 z"
         sodipodi:nodetypes="ccccc" />
      <path
         style="mix-blend-mode:normal;fill:none;stroke:#000000;stroke-width:3;stroke-linecap:butt;stroke-linejoin:miter;stroke-miterlimit:4;stroke-dasharray:none;stroke-opacity:1"
         d="m 214.00067,6.45684 c -5.40565,-0.003 -13.18185,-0.0659 -20.4752,-0.20596"
         id="path63180-0"
         sodipodi:nodetypes="cc" />
      <path
         style="fill:none;stroke:#000000;stroke-width:3;stroke-linecap:butt;stroke-linejoin:miter;stroke-miterlimit:4;stroke-dasharray:none;stroke-opacity:1"
         d="m 178.70933,-20.18979 c 12.33436,2.49764 13.97498,18.28733 13.97498,18.28733"
         id="path64462"
         sodipodi:nodetypes="cc" />
      <path
         style="fill:none;stroke:#000000;stroke-width:3;stroke-linecap:butt;stroke-linejoin:miter;stroke-miterlimit:4;stroke-dasharray:none;stroke-opacity:1"
         d="m 267.14425,-1.90249 c 0,0 -2.90057,-14.34606 8.44285,-21.87447"
         id="path64464"
         sodipodi:nodetypes="cc" />
      <path
         style="fill:none;stroke:#000000;stroke-width:3;stroke-linecap:butt;stroke-linejoin:miter;stroke-miterlimit:4;stroke-dasharray:none;stroke-opacity:1"
         d="m 184.98097,-17.2637 c 6.59536,-5.77794 14.55182,-6.92814 22.03345,-9.69274"
         id="path64674"
         sodipodi:nodetypes="cc" />
      <path
         style="fill:none;stroke:#000000;stroke-width:3;stroke-linecap:butt;stroke-linejoin:miter;stroke-miterlimit:4;stroke-dasharray:none;stroke-opacity:1"
         d="m 249.54299,-28.08826 c 7.38707,5.11539 14.85191,2.92217 21.68624,8.28202"
         id="path64676"
         sodipodi:nodetypes="cc" />
      <path
         style="fill:none;stroke:#f6ae76;stroke-width:3;stroke-linecap:round;stroke-linejoin:miter;stroke-miterlimit:4;stroke-dasharray:none;stroke-opacity:1"
         d="m 219.69545,-70.457432 c -5.19353,3.560852 -4.70652,5.738846 -3.20394,11.420493"
         id="path68170"
         sodipodi:nodetypes="cc" />
      <path
         style="fill:none;stroke:#f6ae76;stroke-width:3;stroke-linecap:round;stroke-linejoin:miter;stroke-miterlimit:4;stroke-dasharray:none;stroke-opacity:1"
         d="m 236.65773,-70.612459 c 4.90374,3.481604 6.07243,6.188273 3.94839,11.404494"
         id="path68172"
         sodipodi:nodetypes="cc" />
      <g
         id="path140787"
         style="stroke:#000000;stroke-width:2;stroke-dasharray:none;stroke-opacity:1"
         transform="translate(83.277079,-167.01823)">
        <path
           style="color:#000000;fill:#a67358;fill-rule:evenodd;stroke:#000000;stroke-width:2;stroke-linecap:round;stroke-dasharray:none;stroke-opacity:1"
           d="m 149.11785,105.03573 13.39293,7.73241"
           id="path140929" />
        <path
           style="color:#000000;fill:#a67358;fill-rule:evenodd;stroke:#000000;stroke-width:2;stroke-linecap:round;stroke-dasharray:none;stroke-opacity:1"
           d="m 149.18807,108.54161 11.82365,6.82558 c 1.43518,0.82788 2.74059,0.33557 3.56848,-1.09961 0.82822,-1.43467 0.86599,-3.2691 -0.56848,-4.09766 l -13.39453,-7.73242 c -3.65185,1.65827 -4.5629,3.00101 -1.42912,6.10411 z"
           id="path140931"
           sodipodi:nodetypes="cccccc" />
      </g>
    </g>
  </g>
</svg>
