<?xml version="1.0" encoding="UTF-8" standalone="no"?>
<svg
   xmlns:dc="http://purl.org/dc/elements/1.1/"
   xmlns:cc="http://creativecommons.org/ns#"
   xmlns:rdf="http://www.w3.org/1999/02/22-rdf-syntax-ns#"
   xmlns:svg="http://www.w3.org/2000/svg"
   xmlns="http://www.w3.org/2000/svg"
   xmlns:xlink="http://www.w3.org/1999/xlink"
   xmlns:sodipodi="http://sodipodi.sourceforge.net/DTD/sodipodi-0.dtd"
   xmlns:inkscape="http://www.inkscape.org/namespaces/inkscape"
   sodipodi:docname="british.svg"
   inkscape:version="1.0 (4035a4fb49, 2020-05-01)"
   id="svg3147"
   version="1.1"
   viewBox="0 0 150 150"
   height="150mm"
   width="150mm">
  <defs
     id="defs3141">
    <pattern
       id="carreau-pt"
       patternTransform="translate(-2054.333,1959.2791)"
       height="7.6109896"
       width="8.7129582"
       patternUnits="userSpaceOnUse">
      <rect
         y="6.2746067e-06"
         x="-2.2737368e-13"
         height="7.6109834"
         width="8.7129364"
         id="rect119919"
         style="fill:#800000;fill-opacity:1;stroke:none;stroke-width:1.08628;stroke-linecap:round;stroke-linejoin:round;stroke-miterlimit:4;stroke-dasharray:none;stop-color:#000000" />
      <path
         id="path119921"
         d="M 3.0751503,7.6109858 V 0"
         style="fill:#800000;stroke:#c11a1a;stroke-width:1.81047;stroke-linecap:butt;stroke-linejoin:miter;stroke-miterlimit:4;stroke-dasharray:none;stroke-opacity:1" />
      <path
         id="path119923"
         d="M 1.3287401e-5,4.7904378 H 8.7129582"
         style="fill:#c11a1a;fill-opacity:1;stroke:#c11a1a;stroke-width:1.81047;stroke-linecap:butt;stroke-linejoin:miter;stroke-miterlimit:4;stroke-dasharray:none;stroke-opacity:1" />
    </pattern>
    <pattern
       id="pattern115842"
       patternTransform="translate(-1862,1831.9999)"
       height="85.000002"
       width="85.000037"
       patternUnits="userSpaceOnUse">
      <rect
         y="0"
         x="3.4178149e-05"
         height="85"
         width="85"
         id="rect104700"
         style="fill:#800000;fill-opacity:1;stroke:none;stroke-width:11.3386;stroke-linecap:round;stroke-linejoin:round;stroke-miterlimit:4;stroke-dasharray:none;stop-color:#000000" />
      <path
         id="path104779"
         d="M 30,84.999998 V 1.0187008e-5"
         style="fill:#800000;stroke:#c11a1a;stroke-width:18.8976;stroke-linecap:butt;stroke-linejoin:miter;stroke-miterlimit:4;stroke-dasharray:none;stroke-opacity:1" />
      <path
         id="path107256"
         d="M 0,53.500092 H 85.000025"
         style="fill:#c11a1a;fill-opacity:1;stroke:#c11a1a;stroke-width:18.8976;stroke-linecap:butt;stroke-linejoin:miter;stroke-miterlimit:4;stroke-dasharray:none;stroke-opacity:1" />
    </pattern>
    <radialGradient
       gradientUnits="userSpaceOnUse"
       gradientTransform="matrix(0.33123089,0.00270806,-0.00156891,0.19189788,-921.4512,842.11934)"
       r="195.66344"
       fy="602.3324"
       fx="-391.23096"
       cy="602.3324"
       cx="-391.23096"
       id="radialGradient23876-5-18-1-2"
       xlink:href="#linearGradient326752"
       inkscape:collect="always" />
    <linearGradient
       inkscape:collect="always"
       id="linearGradient326752">
      <stop
         style="stop-color:#f8bc80;stop-opacity:1"
         offset="0"
         id="stop326744" />
      <stop
         id="stop326746"
         offset="0.70677221"
         style="stop-color:#f8bc80;stop-opacity:1" />
      <stop
         id="stop326748"
         offset="0.70677221"
         style="stop-color:#f6ae76;stop-opacity:1" />
      <stop
         style="stop-color:#f6ae76;stop-opacity:1"
         offset="1"
         id="stop326750" />
    </linearGradient>
    <radialGradient
       gradientUnits="userSpaceOnUse"
       gradientTransform="matrix(1.544547,-0.26971894,0.45443624,2.1590227,-796.85802,506.22256)"
       r="29.964201"
       fy="144.48944"
       fx="-213.61194"
       cy="144.48944"
       cx="-213.61194"
       id="radialGradient1872-4-3-7-9"
       xlink:href="#linearGradient326752"
       inkscape:collect="always" />
  </defs>
  <sodipodi:namedview
     inkscape:window-maximized="1"
     inkscape:window-y="-8"
     inkscape:window-x="-8"
     inkscape:window-height="1017"
     inkscape:window-width="1920"
     showgrid="false"
     inkscape:document-rotation="0"
     inkscape:current-layer="layer1"
     inkscape:document-units="mm"
     inkscape:cy="529.77597"
     inkscape:cx="143.41376"
     inkscape:zoom="0.7"
     inkscape:pageshadow="2"
     inkscape:pageopacity="0.0"
     borderopacity="1.0"
     bordercolor="#666666"
     pagecolor="#ffffff"
     id="base" />
  <metadata
     id="metadata3144">
    <rdf:RDF>
      <cc:Work
         rdf:about="">
        <dc:format>image/svg+xml</dc:format>
        <dc:type
           rdf:resource="http://purl.org/dc/dcmitype/StillImage" />
        <dc:title></dc:title>
      </cc:Work>
    </rdf:RDF>
  </metadata>
  <g
     id="layer1"
     inkscape:groupmode="layer"
     inkscape:label="Calque 1">
    <g
       transform="translate(1125.9742,-820.66715)"
       style="mix-blend-mode:normal"
       id="g3514">
      <path
         sodipodi:nodetypes="cccccccsccc"
         d="m -1063.4474,913.153 v 14.32522 c -5.8243,8.50699 -14.8878,9.95583 -24.1902,13.26689 -13.8799,4.94035 -13.3922,12.09694 -13.3922,12.09694 v 16.3251 h 100.1112 v -16.3251 c 0,0 -0.3714,-9.0145 -13.3917,-12.09694 -10.0816,-2.38671 -16.7193,-5.95194 -23.4348,-13.26689 V 913.153 Z"
         style="fill:url(#radialGradient23876-5-18-1-2);fill-opacity:1;stroke:#000000;stroke-width:3;stroke-linecap:round;stroke-linejoin:round;stroke-miterlimit:4;stroke-dasharray:none;stroke-opacity:1;stop-color:#000000"
         id="rect8920-8-25-0-4" />
      <ellipse
         style="color:#000000;overflow:visible;fill:#f8bc80;fill-opacity:1;stroke:#000000;stroke-width:3;stroke-linecap:round;stroke-miterlimit:4;stroke-dasharray:none;stroke-opacity:1;stop-color:#000000"
         id="path861-2-70-1-4-0"
         cx="-1080.984"
         cy="888.93964"
         rx="6.1759887"
         ry="6.678576" />
      <ellipse
         ry="6.678576"
         rx="6.1759887"
         cy="888.93964"
         cx="-1020.9646"
         id="path861-0-6-5-4-9-1"
         style="color:#000000;overflow:visible;fill:#f6ae76;fill-opacity:1;stroke:#000000;stroke-width:3;stroke-linecap:round;stroke-miterlimit:4;stroke-dasharray:none;stroke-opacity:1;stop-color:#000000" />
      <path
         sodipodi:nodetypes="zcczccz"
         d="m -1050.9742,853.39702 c 12.4618,0.0661 26.2877,12.70603 26.8767,28.4642 3.0966,4.13491 1.662,9.17607 0.5292,14.15685 -5.424,16.43062 -19.7727,28.4642 -27.4059,28.4642 -7.6332,0 -21.0559,-11.50442 -27.4059,-28.4642 -0.8613,-4.70862 -1.197,-9.99274 0.5292,-14.15685 0.589,-15.75817 14.4148,-28.53035 26.8767,-28.4642 z"
         style="fill:url(#radialGradient1872-4-3-7-9);fill-opacity:1;stroke:#000000;stroke-width:2.86316;stroke-linecap:round;stroke-linejoin:round;stop-color:#000000"
         id="rect1621-9-4-2-1" />
      <g
         transform="translate(-841.238,747.26184)"
         id="g2407-6-8-6-6">
        <path
           d="m -220.29867,141.14864 a 2.3012009,3.2740517 0 0 1 -2.27878,3.27389 2.3012009,3.2740517 0 0 1 -2.32318,-3.21011 2.3012009,3.2740517 0 0 1 2.23352,-3.33644 2.3012009,3.2740517 0 0 1 2.3667,3.14511"
           style="color:#000000;overflow:visible;fill:#000000;fill-opacity:1;stroke:none;stroke-width:3;stroke-linecap:round;stroke-linejoin:round;stroke-miterlimit:4;stroke-dasharray:none;stroke-opacity:1;stop-color:#000000"
           id="path984-6-3-8-7-2"
           sodipodi:type="arc"
           sodipodi:cx="-222.59987"
           sodipodi:cy="141.14864"
           sodipodi:rx="2.3012009"
           sodipodi:ry="3.2740517"
           sodipodi:start="0"
           sodipodi:end="6.2442187"
           sodipodi:open="true"
           sodipodi:arc-type="arc" />
        <path
           d="m -194.57134,141.14864 a 2.3012009,3.2740517 0 0 1 -2.27879,3.27389 2.3012009,3.2740517 0 0 1 -2.32318,-3.21011 2.3012009,3.2740517 0 0 1 2.23352,-3.33644 2.3012009,3.2740517 0 0 1 2.3667,3.14511"
           sodipodi:arc-type="arc"
           sodipodi:open="true"
           sodipodi:end="6.2442187"
           sodipodi:start="0"
           sodipodi:ry="3.2740517"
           sodipodi:rx="2.3012009"
           sodipodi:cy="141.14864"
           sodipodi:cx="-196.87254"
           sodipodi:type="arc"
           id="path984-3-2-8-3-8-5"
           style="color:#000000;overflow:visible;fill:#000000;fill-opacity:1;stroke:none;stroke-width:3;stroke-linecap:round;stroke-linejoin:round;stroke-miterlimit:4;stroke-dasharray:none;stroke-opacity:1;stop-color:#000000" />
      </g>
      <g
         transform="translate(-854.5365,763.15639)"
         id="g66903-6-34-4-6">
        <path
           sodipodi:nodetypes="cc"
           id="path66722-4-62-4-0"
           d="m -185.87201,115.07238 5.29167,1.05833"
           style="fill:none;stroke:#000000;stroke-width:3;stroke-linecap:round;stroke-linejoin:round;stroke-miterlimit:4;stroke-dasharray:none;stroke-opacity:1" />
        <path
           sodipodi:nodetypes="cc"
           id="path66722-1-5-94-8-1"
           d="m -212.29508,116.13071 5.29167,-1.05833"
           style="fill:none;stroke:#000000;stroke-width:3;stroke-linecap:round;stroke-linejoin:round;stroke-miterlimit:4;stroke-dasharray:none;stroke-opacity:1" />
      </g>
      <path
         sodipodi:nodetypes="ccccccsccc"
         d="m -1063.4474,927.47822 c -5.8243,8.50699 -14.8878,9.95583 -24.1902,13.26689 -13.8799,4.94035 -13.3922,12.09694 -13.3922,12.09694 v 16.3251 h 100.1112 v -16.3251 c 0,0 -0.3713,-9.0145 -13.3917,-12.09694 -10.0816,-2.38671 -16.7193,-5.95194 -23.4348,-13.26689 l -13.2998,8.82639 z"
         style="fill:#f2f2f2;fill-opacity:1;stroke:#000000;stroke-width:3;stroke-linecap:round;stroke-linejoin:round;stroke-miterlimit:4;stroke-dasharray:none;stroke-opacity:1;stop-color:#000000"
         id="rect8920-5-2-4-9-9" />
      <path
         sodipodi:nodetypes="ccccccsczc"
         d="m -1065.4903,930.04914 c -5.7448,5.82703 -14.1138,7.83656 -22.1473,10.69597 -13.8799,4.94035 -13.3922,12.09694 -13.3922,12.09694 v 16.32508 h 100.1112 v -16.32508 c 0,0 -0.3713,-9.01453 -13.3917,-12.09694 -8.4721,-2.00566 -15.4782,-5.75385 -21.1761,-10.94985 0.5088,0 -0.727,12.49988 -15.5585,12.33018 -14.8315,-0.1697 -14.4454,-12.0763 -14.4454,-12.0763 z"
         style="fill:#425b82;fill-opacity:1;stroke:#000000;stroke-width:3;stroke-linecap:round;stroke-linejoin:round;stroke-miterlimit:4;stroke-dasharray:none;stroke-opacity:1;stop-color:#000000"
         id="rect8920-5-2-4-9-9-0" />
      <path
         id="path22674-4-2-4"
         d="m -1032.3223,933.04121 -5.4227,-5.56299"
         style="fill:none;stroke:#000000;stroke-width:0.264583px;stroke-linecap:butt;stroke-linejoin:miter;stroke-opacity:1" />
      <path
         sodipodi:nodetypes="cccc"
         id="path22943-8-5-3"
         d="m -1050.5962,936.47406 -12.8512,-8.99584 1.7993,15.68433 10.6032,-6.85794"
         style="fill:#f2f2f2;fill-opacity:1;stroke:#000000;stroke-width:3;stroke-linecap:round;stroke-linejoin:round;stroke-miterlimit:4;stroke-dasharray:none;stroke-opacity:1" />
      <path
         sodipodi:nodetypes="cccc"
         id="path22943-7-4-5-1"
         d="m -1037.745,927.47822 -1.8461,15.49724 -11.4538,-6.67085 z"
         style="fill:#f2f2f2;fill-opacity:1;stroke:#000000;stroke-width:3;stroke-linecap:round;stroke-linejoin:round;stroke-miterlimit:4;stroke-dasharray:none;stroke-opacity:1" />
      <path
         sodipodi:nodetypes="czc"
         id="path2252-4-5-2-5-9"
         d="m -1054.4611,898.46471 c 0,0 2.1025,1.05833 3.4869,1.05833 1.3843,0 3.4868,-1.05833 3.4868,-1.05833"
         style="fill:#000000;fill-opacity:0;stroke:#f6ae76;stroke-width:3;stroke-linecap:round;stroke-linejoin:miter;stroke-miterlimit:4;stroke-dasharray:none;stroke-opacity:1" />
      <path
         sodipodi:nodetypes="zcccccccccccz"
         d="m -1053.2108,848.21564 c -8.1367,0.51295 -18.479,2.93595 -18.4123,10.44586 -2.7101,0.88035 -5.1652,2.37276 -7.1985,4.83124 -1.4481,12.56853 -3.2065,20.16638 0.4413,32.52515 1.9612,-5.63203 2.3942,-11.84609 6.7024,-16.58401 -8.1344,-7.84071 0.7905,-18.67294 7.2099,-12.43541 2.6186,2.65755 23.6898,3.02979 26.9875,0 6.4194,-6.23753 15.3443,4.5947 7.2099,12.43541 4.3082,4.73792 4.7412,10.95198 6.7024,16.58401 3.6479,-12.35877 1.8895,-19.95662 0.4414,-32.52515 -3.0789,-3.72274 -7.1259,-5.2265 -11.5642,-5.73868 0,-0.005 0,-0.009 0,-0.0135 0,-4.96826 -10.3841,-10.03794 -18.5208,-9.525 z"
         style="fill:#5f473d;fill-opacity:1;stroke:#000000;stroke-width:3;stroke-linecap:round;stroke-linejoin:round;stroke-miterlimit:4;stroke-dasharray:none;stroke-opacity:1"
         id="path5132" />
      <path
         sodipodi:nodetypes="czczc"
         id="path2252-8-9-7-0-6-65-4"
         d="m -1044.2954,905.25196 c 0,0 -1.1829,5.82084 -6.6618,5.82084 -5.479,0 -6.6618,-5.82084 -6.6618,-5.82084 0,0 4.4342,0.52917 6.6618,0.52917 2.2276,0 6.6618,-0.52917 6.6618,-0.52917 z"
         style="fill:#e08080;fill-opacity:1;stroke:#000000;stroke-width:3;stroke-linecap:round;stroke-linejoin:round;stroke-miterlimit:4;stroke-dasharray:none;stroke-opacity:1" />
      <path
         sodipodi:nodetypes="sscccscs"
         d="m -1053.9544,900.75248 c -0.3835,-5e-5 -0.7995,0.0292 -1.2082,0.19121 -3.4261,1.35848 -8.3383,11.60862 -13.1005,0.84749 0.8159,7.28916 13.3821,10.49737 17.3059,3.46078 3.9238,7.03659 16.4894,3.82838 17.3054,-3.46078 -4.004,10.11424 -7.7422,2.58671 -13.1005,-0.84749 -1.7268,-1.10672 -3.5979,0.31258 -4.2049,1.75596 -0.4769,-1.134 -1.5917,-1.94696 -2.9972,-1.94717 z"
         style="fill:#5f473d;fill-opacity:1;stroke:#000000;stroke-width:3;stroke-linecap:round;stroke-linejoin:round;stroke-miterlimit:4;stroke-dasharray:none;stroke-opacity:1"
         id="path41162-0" />
    </g>
  </g>
</svg>
