<?xml version="1.0" encoding="UTF-8" standalone="no"?>
<svg
   xmlns:osb="http://www.openswatchbook.org/uri/2009/osb"
   xmlns:dc="http://purl.org/dc/elements/1.1/"
   xmlns:cc="http://creativecommons.org/ns#"
   xmlns:rdf="http://www.w3.org/1999/02/22-rdf-syntax-ns#"
   xmlns:svg="http://www.w3.org/2000/svg"
   xmlns="http://www.w3.org/2000/svg"
   xmlns:xlink="http://www.w3.org/1999/xlink"
   xmlns:sodipodi="http://sodipodi.sourceforge.net/DTD/sodipodi-0.dtd"
   xmlns:inkscape="http://www.inkscape.org/namespaces/inkscape"
   width="150mm"
   height="150mm"
   viewBox="0 0 150 150"
   version="1.1"
   id="svg3147"
   inkscape:version="1.0 (4035a4fb49, 2020-05-01)"
   sodipodi:docname="curly-oy.svg">
  <defs
     id="defs3141">
    <pattern
       patternUnits="userSpaceOnUse"
       width="8.7129582"
       height="7.6109896"
       patternTransform="translate(-2054.333,1959.2791)"
       id="carreau-pt">
      <rect
         style="fill:#800000;fill-opacity:1;stroke:none;stroke-width:1.08628;stroke-linecap:round;stroke-linejoin:round;stroke-miterlimit:4;stroke-dasharray:none;stop-color:#000000"
         id="rect119919"
         width="8.7129364"
         height="7.6109834"
         x="-2.2737368e-13"
         y="6.2746067e-06" />
      <path
         style="fill:#800000;stroke:#c11a1a;stroke-width:1.81047;stroke-linecap:butt;stroke-linejoin:miter;stroke-miterlimit:4;stroke-dasharray:none;stroke-opacity:1"
         d="M 3.0751503,7.6109858 V 0"
         id="path119921" />
      <path
         style="fill:#c11a1a;fill-opacity:1;stroke:#c11a1a;stroke-width:1.81047;stroke-linecap:butt;stroke-linejoin:miter;stroke-miterlimit:4;stroke-dasharray:none;stroke-opacity:1"
         d="M 1.3287401e-5,4.7904378 H 8.7129582"
         id="path119923" />
    </pattern>
    <pattern
       patternUnits="userSpaceOnUse"
       width="85.000037"
       height="85.000002"
       patternTransform="translate(-1862,1831.9999)"
       id="pattern115842">
      <rect
         style="fill:#800000;fill-opacity:1;stroke:none;stroke-width:11.3386;stroke-linecap:round;stroke-linejoin:round;stroke-miterlimit:4;stroke-dasharray:none;stop-color:#000000"
         id="rect104700"
         width="85"
         height="85"
         x="3.4178149e-05"
         y="0" />
      <path
         style="fill:#800000;stroke:#c11a1a;stroke-width:18.8976;stroke-linecap:butt;stroke-linejoin:miter;stroke-miterlimit:4;stroke-dasharray:none;stroke-opacity:1"
         d="M 30,84.999998 V 1.0187008e-5"
         id="path104779" />
      <path
         style="fill:#c11a1a;fill-opacity:1;stroke:#c11a1a;stroke-width:18.8976;stroke-linecap:butt;stroke-linejoin:miter;stroke-miterlimit:4;stroke-dasharray:none;stroke-opacity:1"
         d="M 0,53.500092 H 85.000025"
         id="path107256" />
    </pattern>
    <pattern
       id="carreau-vert"
       patternTransform="translate(-4914.8373,100.06749)"
       height="8.5408786"
       width="9.5154795"
       patternUnits="userSpaceOnUse">
      <rect
         style="color:#000000;overflow:visible;fill:url(#linearGradient4920);fill-opacity:1;stroke:#3d662c;stroke-width:1.3551;stroke-linecap:square;stroke-linejoin:miter;stroke-miterlimit:4;stroke-dasharray:none;stroke-opacity:1;stop-color:#000000"
         id="rect4918"
         width="8.1603794"
         height="7.1857781"
         x="0.6775502"
         y="0.6775502" />
    </pattern>
    <linearGradient
       y2="37.991222"
       x2="-1234.2153"
       y1="37.991222"
       x1="-1248.3741"
       gradientTransform="matrix(0.96271559,0,0,0.84773873,1201.0626,-26.799203)"
       gradientUnits="userSpaceOnUse"
       id="linearGradient4920"
       xlink:href="#linearGradient4905"
       inkscape:collect="always" />
    <linearGradient
       osb:paint="solid"
       id="linearGradient4905">
      <stop
         id="stop4903"
         offset="0"
         style="stop-color:#3f9320;stop-opacity:1;" />
    </linearGradient>
    <pattern
       id="pattern115842-0-4"
       patternTransform="translate(-1862,1831.9999)"
       height="85.000002"
       width="85.000037"
       patternUnits="userSpaceOnUse">
      <rect
         y="0"
         x="3.4178149e-05"
         height="85"
         width="85"
         id="rect104700-3-5"
         style="fill:#800000;fill-opacity:1;stroke:none;stroke-width:11.3386;stroke-linecap:round;stroke-linejoin:round;stroke-miterlimit:4;stroke-dasharray:none;stop-color:#000000" />
      <path
         id="path104779-9-5"
         d="M 30,84.999998 V 1.0187008e-5"
         style="fill:#800000;stroke:#c11a1a;stroke-width:18.8976;stroke-linecap:butt;stroke-linejoin:miter;stroke-miterlimit:4;stroke-dasharray:none;stroke-opacity:1" />
      <path
         id="path107256-5-6"
         d="M 0,53.500092 H 85.000025"
         style="fill:#c11a1a;fill-opacity:1;stroke:#c11a1a;stroke-width:18.8976;stroke-linecap:butt;stroke-linejoin:miter;stroke-miterlimit:4;stroke-dasharray:none;stroke-opacity:1" />
    </pattern>
    <radialGradient
       gradientUnits="userSpaceOnUse"
       gradientTransform="matrix(0.33123089,0.00270806,-0.00156891,0.19189788,-1200.976,-201.21746)"
       r="195.66344"
       fy="602.3324"
       fx="-391.23096"
       cy="602.3324"
       cx="-391.23096"
       id="radialGradient23876-5-3"
       xlink:href="#linearGradient326752"
       inkscape:collect="always" />
    <linearGradient
       inkscape:collect="always"
       id="linearGradient326752">
      <stop
         style="stop-color:#f8bc80;stop-opacity:1"
         offset="0"
         id="stop326744" />
      <stop
         id="stop326746"
         offset="0.70677221"
         style="stop-color:#f8bc80;stop-opacity:1" />
      <stop
         id="stop326748"
         offset="0.70677221"
         style="stop-color:#f6ae76;stop-opacity:1" />
      <stop
         style="stop-color:#f6ae76;stop-opacity:1"
         offset="1"
         id="stop326750" />
    </linearGradient>
    <radialGradient
       gradientUnits="userSpaceOnUse"
       gradientTransform="matrix(1.544547,-0.26971894,0.45443624,2.1590227,-1076.3828,-537.11424)"
       r="29.964201"
       fy="144.48944"
       fx="-213.61194"
       cy="144.48944"
       cx="-213.61194"
       id="radialGradient1872-4-2"
       xlink:href="#linearGradient326752"
       inkscape:collect="always" />
  </defs>
  <sodipodi:namedview
     id="base"
     pagecolor="#ffffff"
     bordercolor="#666666"
     borderopacity="1.0"
     inkscape:pageopacity="0.0"
     inkscape:pageshadow="2"
     inkscape:zoom="0.7"
     inkscape:cx="228.18926"
     inkscape:cy="533.2073"
     inkscape:document-units="mm"
     inkscape:current-layer="layer1"
     inkscape:document-rotation="0"
     showgrid="false"
     inkscape:window-width="1920"
     inkscape:window-height="1017"
     inkscape:window-x="-8"
     inkscape:window-y="-8"
     inkscape:window-maximized="1" />
  <metadata
     id="metadata3144">
    <rdf:RDF>
      <cc:Work
         rdf:about="">
        <dc:format>image/svg+xml</dc:format>
        <dc:type
           rdf:resource="http://purl.org/dc/dcmitype/StillImage" />
        <dc:title></dc:title>
      </cc:Work>
    </rdf:RDF>
  </metadata>
  <g
     inkscape:label="Calque 1"
     inkscape:groupmode="layer"
     id="layer1">
    <g
       transform="translate(1405.499,222.66964)"
       style="mix-blend-mode:normal"
       id="g29026">
      <path
         sodipodi:nodetypes="cccccccsccc"
         d="m -1342.9722,-130.18379 v 14.32522 c -5.8243,8.50699 -14.8878,9.95583 -24.1902,13.26689 -13.8799,4.94035 -13.3922,12.09694 -13.3922,12.09694 v 16.3251 h 100.1112 v -16.3251 c 0,0 -0.3714,-9.0145 -13.3917,-12.09694 -10.0816,-2.38671 -16.7193,-5.95194 -23.4348,-13.26689 v -14.32522 z"
         style="fill:url(#radialGradient23876-5-3);fill-opacity:1;stroke:#000000;stroke-width:3;stroke-linecap:round;stroke-linejoin:round;stroke-miterlimit:4;stroke-dasharray:none;stroke-opacity:1;stop-color:#000000"
         id="rect8920-8-9" />
      <ellipse
         style="color:#000000;overflow:visible;fill:#f8bc80;fill-opacity:1;stroke:#000000;stroke-width:3;stroke-linecap:round;stroke-miterlimit:4;stroke-dasharray:none;stroke-opacity:1;stop-color:#000000"
         id="path861-2-70-8"
         cx="-1360.5088"
         cy="-154.39716"
         rx="6.1759887"
         ry="6.678576" />
      <ellipse
         ry="6.678576"
         rx="6.1759887"
         cy="-154.39716"
         cx="-1300.4894"
         id="path861-0-6-5-0"
         style="color:#000000;overflow:visible;fill:#f6ae76;fill-opacity:1;stroke:#000000;stroke-width:3;stroke-linecap:round;stroke-miterlimit:4;stroke-dasharray:none;stroke-opacity:1;stop-color:#000000" />
      <path
         sodipodi:nodetypes="ssszsss"
         d="m -1330.499,-189.93978 c 15.7691,0 27.4059,12.69503 27.4059,28.4642 v 14.15685 c 0,15.76917 -14.1768,29.52254 -27.4059,29.52254 -13.2291,0 -27.4059,-13.75337 -27.4059,-29.52254 v -14.15685 c 0,-15.76917 11.6367,-28.4642 27.4059,-28.4642 z"
         style="fill:url(#radialGradient1872-4-2);fill-opacity:1;stroke:#000000;stroke-width:2.86316;stroke-linecap:round;stroke-linejoin:round;stop-color:#000000"
         id="rect1621-9-5" />
      <path
         sodipodi:nodetypes="czc"
         id="path2252-4-5-1"
         d="m -1333.9859,-143.81376 c 0,0 2.1025,-1.05833 3.4869,-1.05833 1.3843,0 3.4868,1.05833 3.4868,1.05833"
         style="fill:#000000;fill-opacity:0;stroke:#f6ae76;stroke-width:3;stroke-linecap:round;stroke-linejoin:miter;stroke-miterlimit:4;stroke-dasharray:none;stroke-opacity:1" />
      <g
         transform="translate(-1120.7628,-296.07495)"
         id="g2407-6-40">
        <path
           d="m -220.29867,141.14864 a 2.3012009,3.2740517 0 0 1 -2.27878,3.27389 2.3012009,3.2740517 0 0 1 -2.32318,-3.21011 2.3012009,3.2740517 0 0 1 2.23352,-3.33644 2.3012009,3.2740517 0 0 1 2.3667,3.14511"
           style="color:#000000;overflow:visible;fill:#000000;fill-opacity:1;stroke:none;stroke-width:3;stroke-linecap:round;stroke-linejoin:round;stroke-miterlimit:4;stroke-dasharray:none;stroke-opacity:1;stop-color:#000000"
           id="path984-6-3-3"
           sodipodi:type="arc"
           sodipodi:cx="-222.59987"
           sodipodi:cy="141.14864"
           sodipodi:rx="2.3012009"
           sodipodi:ry="3.2740517"
           sodipodi:start="0"
           sodipodi:end="6.2442187"
           sodipodi:open="true"
           sodipodi:arc-type="arc" />
        <path
           d="m -194.57134,141.14864 a 2.3012009,3.2740517 0 0 1 -2.27879,3.27389 2.3012009,3.2740517 0 0 1 -2.32318,-3.21011 2.3012009,3.2740517 0 0 1 2.23352,-3.33644 2.3012009,3.2740517 0 0 1 2.3667,3.14511"
           sodipodi:arc-type="arc"
           sodipodi:open="true"
           sodipodi:end="6.2442187"
           sodipodi:start="0"
           sodipodi:ry="3.2740517"
           sodipodi:rx="2.3012009"
           sodipodi:cy="141.14864"
           sodipodi:cx="-196.87254"
           sodipodi:type="arc"
           id="path984-3-2-8-7"
           style="color:#000000;overflow:visible;fill:#000000;fill-opacity:1;stroke:none;stroke-width:3;stroke-linecap:round;stroke-linejoin:round;stroke-miterlimit:4;stroke-dasharray:none;stroke-opacity:1;stop-color:#000000" />
      </g>
      <g
         transform="translate(-1134.0613,-280.18041)"
         id="g66903-6-54">
        <path
           id="path66722-4-86"
           d="m -185.87201,115.07238 h 5.29167"
           style="fill:none;stroke:#000000;stroke-width:3;stroke-linecap:round;stroke-linejoin:round;stroke-miterlimit:4;stroke-dasharray:none;stroke-opacity:1" />
        <path
           id="path66722-1-5-14"
           d="m -212.29508,115.07238 h 5.29167"
           style="fill:none;stroke:#000000;stroke-width:3;stroke-linecap:round;stroke-linejoin:round;stroke-miterlimit:4;stroke-dasharray:none;stroke-opacity:1" />
      </g>
      <path
         sodipodi:nodetypes="czc"
         id="path2252-47-0"
         d="m -1337.1609,-135.07646 c 0,0 2.461,2.11667 6.6619,2.11667 4.2008,0 6.6618,-2.11667 6.6618,-2.11667"
         style="fill:none;stroke:#000000;stroke-width:3;stroke-linecap:round;stroke-linejoin:miter;stroke-miterlimit:4;stroke-dasharray:none;stroke-opacity:1" />
      <path
         sodipodi:nodetypes="ccccccsccc"
         d="m -1342.9722,-115.85857 c -5.8243,8.50699 -14.8878,9.95583 -24.1902,13.26689 -13.8799,4.94035 -13.3923,12.09694 -13.3923,12.09694 l -1.0583,16.3251 h 102.2279 l -1.0583,-16.3251 c 0,0 -0.3713,-9.0145 -13.3917,-12.09694 -10.0816,-2.38671 -16.7193,-5.95194 -23.4348,-13.26689 l -12.8511,11.64167 z"
         style="fill:#27a7f8;fill-opacity:1;stroke:#000000;stroke-width:3;stroke-linecap:round;stroke-linejoin:round;stroke-miterlimit:4;stroke-dasharray:none;stroke-opacity:1;stop-color:#000000"
         id="rect8920-5-2-8-8-5" />
      <g
         style="fill:#e8f6f8;fill-opacity:1"
         id="g16892">
        <path
           id="path71766-3-5-0-5"
           d="m -1348.3949,-110.29558 7.8942,13.67327 10.3797,-7.59459 -12.8512,-11.64167 z"
           style="fill:#e8f6f8;fill-opacity:1;stroke:#000000;stroke-width:3;stroke-linecap:round;stroke-linejoin:round;stroke-miterlimit:4;stroke-dasharray:none;stroke-opacity:1" />
        <path
           id="path71766-8-1-9-2-0"
           d="m -1330.121,-104.2169 10.3796,7.59459 7.8943,-13.67327 -5.4228,-5.56299 -12.8511,11.64167"
           style="fill:#e8f6f8;fill-opacity:1;stroke:#000000;stroke-width:3;stroke-linecap:round;stroke-linejoin:round;stroke-miterlimit:4;stroke-dasharray:none;stroke-opacity:1" />
      </g>
      <path
         sodipodi:nodetypes="sscsssssssczczcsssssscsss"
         d="m -1347.4083,-195.86326 c -3.7346,-1e-5 -8.3287,3.53575 -8.3287,7.27035 v 3.54294 c -0.027,-2.6e-4 -0.053,-0.004 -0.081,-0.004 h -2.0624 c -3.7346,0 -6.7412,4.59408 -6.7412,8.32869 v 11.13368 c 0,3.73461 0.8899,6.21202 4.6245,6.21202 h 2.5915 c 3.7346,0 6.8825,-3.00925 6.7412,-6.74119 l -0.2689,-7.10329 c -0.1135,0.0275 4.0619,2.85365 10.2428,1.76646 6.1809,-1.08719 8.3858,-4.06054 8.3858,-4.06054 0,0 3.6125,2.11488 9.8866,3.00127 6.2741,0.88639 12.6254,-1.45757 12.5669,-1.50064 l -0.2653,7.89667 c -0.1254,3.73251 3.0066,6.74119 6.7412,6.74119 h 3.1212 c 3.7346,0 4.0954,-2.47741 4.0954,-6.21202 v -11.13368 c 0,-3.73461 -3.0066,-8.32869 -6.7412,-8.32869 h -2.0345 v -3.53881 c 0,-3.73461 -4.5941,-7.27034 -8.3287,-7.27035 z"
         style="fill:#bc5c4c;fill-opacity:1;stroke:#000000;stroke-width:3;stroke-linecap:round;stroke-linejoin:round;stroke-miterlimit:4;stroke-dasharray:none;stop-color:#000000"
         id="rect20988" />
    </g>
  </g>
</svg>
