<?xml version="1.0" encoding="UTF-8" standalone="no"?>
<svg
   xmlns:dc="http://purl.org/dc/elements/1.1/"
   xmlns:cc="http://creativecommons.org/ns#"
   xmlns:rdf="http://www.w3.org/1999/02/22-rdf-syntax-ns#"
   xmlns:svg="http://www.w3.org/2000/svg"
   xmlns="http://www.w3.org/2000/svg"
   xmlns:xlink="http://www.w3.org/1999/xlink"
   xmlns:sodipodi="http://sodipodi.sourceforge.net/DTD/sodipodi-0.dtd"
   xmlns:inkscape="http://www.inkscape.org/namespaces/inkscape"
   width="150mm"
   height="170mm"
   viewBox="0 0 150 170"
   version="1.1"
   id="svg3147"
   inkscape:version="1.0 (4035a4fb49, 2020-05-01)"
   sodipodi:docname="florist-f.svg">
  <defs
     id="defs3141">
    <pattern
       patternUnits="userSpaceOnUse"
       width="8.7129582"
       height="7.6109896"
       patternTransform="translate(-2054.333,1959.2791)"
       id="carreau-pt">
      <rect
         style="fill:#800000;fill-opacity:1;stroke:none;stroke-width:1.08628;stroke-linecap:round;stroke-linejoin:round;stroke-miterlimit:4;stroke-dasharray:none;stop-color:#000000"
         id="rect119919"
         width="8.7129364"
         height="7.6109834"
         x="-2.2737368e-13"
         y="6.2746067e-06" />
      <path
         style="fill:#800000;stroke:#c11a1a;stroke-width:1.81047;stroke-linecap:butt;stroke-linejoin:miter;stroke-miterlimit:4;stroke-dasharray:none;stroke-opacity:1"
         d="M 3.0751503,7.6109858 V 0"
         id="path119921" />
      <path
         style="fill:#c11a1a;fill-opacity:1;stroke:#c11a1a;stroke-width:1.81047;stroke-linecap:butt;stroke-linejoin:miter;stroke-miterlimit:4;stroke-dasharray:none;stroke-opacity:1"
         d="M 1.3287401e-5,4.7904378 H 8.7129582"
         id="path119923" />
    </pattern>
    <pattern
       patternUnits="userSpaceOnUse"
       width="85.000037"
       height="85.000002"
       patternTransform="translate(-1862,1831.9999)"
       id="pattern115842">
      <rect
         style="fill:#800000;fill-opacity:1;stroke:none;stroke-width:11.3386;stroke-linecap:round;stroke-linejoin:round;stroke-miterlimit:4;stroke-dasharray:none;stop-color:#000000"
         id="rect104700"
         width="85"
         height="85"
         x="3.4178149e-05"
         y="0" />
      <path
         style="fill:#800000;stroke:#c11a1a;stroke-width:18.8976;stroke-linecap:butt;stroke-linejoin:miter;stroke-miterlimit:4;stroke-dasharray:none;stroke-opacity:1"
         d="M 30,84.999998 V 1.0187008e-5"
         id="path104779" />
      <path
         style="fill:#c11a1a;fill-opacity:1;stroke:#c11a1a;stroke-width:18.8976;stroke-linecap:butt;stroke-linejoin:miter;stroke-miterlimit:4;stroke-dasharray:none;stroke-opacity:1"
         d="M 0,53.500092 H 85.000025"
         id="path107256" />
    </pattern>
    <radialGradient
       gradientUnits="userSpaceOnUse"
       gradientTransform="matrix(0.33123089,0.00270806,-0.00156891,0.19189788,222.31162,607.77481)"
       r="195.66344"
       fy="602.3324"
       fx="-391.23096"
       cy="602.3324"
       cx="-391.23096"
       id="radialGradient23876-7-7-4-4"
       xlink:href="#linearGradient853"
       inkscape:collect="always" />
    <linearGradient
       id="linearGradient853"
       inkscape:collect="always">
      <stop
         id="stop849"
         offset="0"
         style="stop-color:#ffbd86;stop-opacity:1;" />
      <stop
         style="stop-color:#ffbd86;stop-opacity:1"
         offset="0.70677221"
         id="stop859" />
      <stop
         style="stop-color:#f6a96c;stop-opacity:1"
         offset="0.70677215"
         id="stop857" />
      <stop
         id="stop851"
         offset="1"
         style="stop-color:#f6a96c;stop-opacity:1" />
    </linearGradient>
    <radialGradient
       gradientUnits="userSpaceOnUse"
       gradientTransform="matrix(1.544547,-0.26971894,0.45443624,2.1590227,346.90478,271.87802)"
       r="29.964201"
       fy="144.48944"
       fx="-213.61194"
       cy="144.48944"
       cx="-213.61194"
       id="radialGradient1872-12-2-0-1"
       xlink:href="#linearGradient853"
       inkscape:collect="always" />
  </defs>
  <sodipodi:namedview
     inkscape:snap-smooth-nodes="true"
     inkscape:object-paths="true"
     id="base"
     pagecolor="#ffffff"
     bordercolor="#666666"
     borderopacity="1.0"
     inkscape:pageopacity="0.0"
     inkscape:pageshadow="2"
     inkscape:zoom="0.7"
     inkscape:cx="102.76811"
     inkscape:cy="362.72403"
     inkscape:document-units="mm"
     inkscape:current-layer="layer1"
     inkscape:document-rotation="0"
     showgrid="false"
     inkscape:window-width="1920"
     inkscape:window-height="1017"
     inkscape:window-x="-8"
     inkscape:window-y="-8"
     inkscape:window-maximized="1" />
  <metadata
     id="metadata3144">
    <rdf:RDF>
      <cc:Work
         rdf:about="">
        <dc:format>image/svg+xml</dc:format>
        <dc:type
           rdf:resource="http://purl.org/dc/dcmitype/StillImage" />
        <dc:title></dc:title>
      </cc:Work>
    </rdf:RDF>
  </metadata>
  <g
     inkscape:label="Calque 1"
     inkscape:groupmode="layer"
     id="layer1">
    <g
       transform="translate(-17.524039,-589.91296)"
       id="g3039"
       style="mix-blend-mode:normal">
      <path
         sodipodi:nodetypes="zszzzcz"
         d="m 92.78862,610.21594 c 19.4104,-0.0797 29.14542,13.95711 30.8539,31.10358 l 5.79975,58.20671 c 0,8.61569 -19.56065,23.96305 -36.65365,23.96305 -17.09312,0 -35.718225,-14.97318 -35.718225,-23.58887 L 61.9347,641.31952 c -0.041,-19.15491 11.4435,-31.02386 30.85392,-31.10358 z"
         style="fill:#64505c;fill-opacity:1;stroke:#000000;stroke-width:3;stroke-linecap:round;stroke-linejoin:round;stop-color:#000000"
         id="rect59634-2-4-3" />
      <path
         sodipodi:nodetypes="ccccccsccc"
         d="m 80.3154,694.07818 c -5.8243,8.50699 -14.8878,9.95583 -24.1902,13.26689 -13.8799,4.94035 -14.4506,12.09694 -14.4506,12.09694 l -0.5291,5.74591 102.75709,-2e-5 v -5.74589 c 0,0 -1.42966,-9.0145 -14.45002,-12.09694 -10.08161,-2.38671 -16.71931,-5.95194 -23.43474,-13.26689 l -12.85119,11.64167 z"
         style="fill:#4a94cc;fill-opacity:1;stroke:#000000;stroke-width:3;stroke-linecap:round;stroke-linejoin:round;stroke-miterlimit:4;stroke-dasharray:none;stroke-opacity:1;stop-color:#000000"
         id="rect8920-5-2-82-1-4" />
      <path
         id="path71766-3-9-4-6"
         d="m 93.16664,705.71985 c -11.621595,10.24434 -11.297838,6.00438 -18.27394,-6.07868 l 5.4227,-5.56299 z"
         style="fill:#e5e6e7;fill-opacity:1;stroke:#000000;stroke-width:3;stroke-linecap:round;stroke-linejoin:round;stroke-miterlimit:4;stroke-dasharray:none;stroke-opacity:1"
         sodipodi:nodetypes="cccc" />
      <path
         id="path71766-8-1-7-1-6"
         d="m 111.44061,699.64117 c -7.12244,13.49701 -6.31365,14.82978 -18.27397,6.07868 l 12.85119,-11.64168 z"
         style="fill:#e5e6e7;fill-opacity:1;stroke:#000000;stroke-width:3;stroke-linecap:round;stroke-linejoin:round;stroke-miterlimit:4;stroke-dasharray:none;stroke-opacity:1"
         sodipodi:nodetypes="cccc" />
      <path
         id="rect3025-8-2"
         style="color:#000000;overflow:visible;fill:#ffbd86;fill-opacity:1;stroke:#000000;stroke-width:3;stroke-linecap:round;stroke-linejoin:round;stroke-miterlimit:4;stroke-dasharray:none;stroke-opacity:1;stop-color:#000000"
         d="m 41.4083,728.99147 h 102.49429 l -2.64583,29.42148 -97.465427,2e-5 z"
         sodipodi:nodetypes="ccccc" />
      <path
         sodipodi:nodetypes="cccccccc"
         d="m 83.4904,678.80847 v 14.32522 l -3.175,0.94449 12.85124,11.64167 12.01767,-10.88661 -2.34159,-1.69955 v -14.32522 z"
         style="fill:url(#radialGradient23876-7-7-4-4);fill-opacity:1;stroke:#000000;stroke-width:3;stroke-linecap:round;stroke-linejoin:round;stroke-miterlimit:4;stroke-dasharray:none;stroke-opacity:1;stop-color:#000000"
         id="rect8920-7-7-90-4" />
      <g
         transform="translate(294.73042,499.5964)"
         id="g2217-2-2-8-1">
        <ellipse
           style="color:#000000;overflow:visible;fill:#ffbd86;fill-opacity:1;stroke:#000000;stroke-width:3;stroke-linecap:round;stroke-miterlimit:4;stroke-dasharray:none;stroke-opacity:1;stop-color:#000000"
           id="path861-2-0-1-1-3"
           cx="-230.36407"
           cy="154.99872"
           rx="6.1759887"
           ry="6.678576" />
        <ellipse
           ry="6.678576"
           rx="6.1759887"
           cy="154.99872"
           cx="-173.51959"
           id="path861-0-6-9-4-2-8"
           style="color:#000000;overflow:visible;fill:#f6a96c;fill-opacity:1;stroke:#000000;stroke-width:3;stroke-linecap:round;stroke-miterlimit:4;stroke-dasharray:none;stroke-opacity:1;stop-color:#000000" />
      </g>
      <path
         sodipodi:nodetypes="ccszscccc"
         d="m 101.40172,629.60678 c 10.6116,14.18331 16.3321,6.12943 17.2052,19.4974 v 12.56935 c 0,15.76917 -12.5208,27.93505 -25.8183,27.93505 -13.29762,0 -26.34762,-12.16588 -26.34762,-27.93505 v -12.56935 c 7.9895,-1.4251 15.0081,-7.77472 17.9646,-15.43493 3.296,2.08315 1.1591,8.7322 0.6467,9.52751 7.81792,-1.92588 14.86492,-8.18347 16.34942,-13.58998 z"
         style="fill:url(#radialGradient1872-12-2-0-1);stroke:#000000;stroke-width:2.86316;stroke-linecap:round;stroke-linejoin:round;stop-color:#000000"
         id="rect1621-2-7-83-3" />
      <path
         sodipodi:nodetypes="czc"
         id="path2252-02-0-8-2"
         d="m 86.1267,673.9158 c 0,0 2.461,2.11667 6.66192,2.11667 4.2008,0 6.6618,-2.11667 6.6618,-2.11667"
         style="fill:none;stroke:#000000;stroke-width:3;stroke-linecap:round;stroke-linejoin:miter;stroke-miterlimit:4;stroke-dasharray:none;stroke-opacity:1" />
      <path
         sodipodi:nodetypes="czc"
         id="path2252-4-3-8-2-8"
         d="m 89.3017,664.12017 c 0,0 2.1025,1.05833 3.48692,1.05833 1.3843,0 3.4868,-1.05833 3.4868,-1.05833"
         style="fill:#000000;fill-opacity:0;stroke:#f6a96c;stroke-width:3;stroke-linecap:round;stroke-linejoin:miter;stroke-miterlimit:4;stroke-dasharray:none;stroke-opacity:1" />
      <g
         transform="translate(302.52482,512.91731)"
         id="g2407-9-6-0-8">
        <path
           d="m -220.29867,141.14864 a 2.3012009,3.2740517 0 0 1 -2.27878,3.27389 2.3012009,3.2740517 0 0 1 -2.32318,-3.21011 2.3012009,3.2740517 0 0 1 2.23352,-3.33644 2.3012009,3.2740517 0 0 1 2.3667,3.14511"
           style="color:#000000;overflow:visible;fill:#000000;fill-opacity:1;stroke:none;stroke-width:3;stroke-linecap:round;stroke-linejoin:round;stroke-miterlimit:4;stroke-dasharray:none;stroke-opacity:1;stop-color:#000000"
           id="path984-6-7-6-4-4"
           sodipodi:type="arc"
           sodipodi:cx="-222.59987"
           sodipodi:cy="141.14864"
           sodipodi:rx="2.3012009"
           sodipodi:ry="3.2740517"
           sodipodi:start="0"
           sodipodi:end="6.2442187"
           sodipodi:open="true"
           sodipodi:arc-type="arc" />
        <path
           d="m -194.57134,141.14864 a 2.3012009,3.2740517 0 0 1 -2.27879,3.27389 2.3012009,3.2740517 0 0 1 -2.32318,-3.21011 2.3012009,3.2740517 0 0 1 2.23352,-3.33644 2.3012009,3.2740517 0 0 1 2.3667,3.14511"
           sodipodi:arc-type="arc"
           sodipodi:open="true"
           sodipodi:end="6.2442187"
           sodipodi:start="0"
           sodipodi:ry="3.2740517"
           sodipodi:rx="2.3012009"
           sodipodi:cy="141.14864"
           sodipodi:cx="-196.87254"
           sodipodi:type="arc"
           id="path984-3-2-83-3-6-7"
           style="color:#000000;overflow:visible;fill:#000000;fill-opacity:1;stroke:none;stroke-width:3;stroke-linecap:round;stroke-linejoin:round;stroke-miterlimit:4;stroke-dasharray:none;stroke-opacity:1;stop-color:#000000" />
      </g>
      <g
         transform="translate(289.22632,528.81186)"
         id="g66903-7-9-4-5">
        <path
           sodipodi:nodetypes="cc"
           id="path66722-7-7-76-8"
           d="m -185.87201,115.07238 5.29167,1.5875"
           style="fill:none;stroke:#000000;stroke-width:3;stroke-linecap:round;stroke-linejoin:round;stroke-miterlimit:4;stroke-dasharray:none;stroke-opacity:1" />
        <path
           sodipodi:nodetypes="cc"
           id="path66722-1-0-3-9-9"
           d="m -212.82425,117.18905 5.82084,-1.5875"
           style="fill:none;stroke:#000000;stroke-width:3;stroke-linecap:round;stroke-linejoin:round;stroke-miterlimit:4;stroke-dasharray:none;stroke-opacity:1" />
      </g>
      <rect
         style="color:#000000;overflow:visible;fill:#4a94cc;fill-opacity:1;stroke:#000000;stroke-width:3;stroke-linecap:round;stroke-linejoin:round;stroke-miterlimit:4;stroke-dasharray:none;stroke-opacity:1;stop-color:#000000"
         id="rect2959"
         width="24.373751"
         height="6.1787257"
         x="38.667751"
         y="725.12787"
         ry="3.0893629" />
      <rect
         ry="3.0893629"
         y="725.12787"
         x="122.00658"
         height="6.1787257"
         width="24.373751"
         id="rect2959-2"
         style="color:#000000;overflow:visible;fill:#4a94cc;fill-opacity:1;stroke:#000000;stroke-width:3;stroke-linecap:round;stroke-linejoin:round;stroke-miterlimit:4;stroke-dasharray:none;stroke-opacity:1;stop-color:#000000" />
      <path
         id="rect2957"
         style="color:#000000;overflow:visible;fill:#754c29;fill-opacity:1;stroke:#000000;stroke-width:3;stroke-linecap:round;stroke-linejoin:round;stroke-miterlimit:4;stroke-dasharray:none;stroke-opacity:1;stop-color:#000000"
         d="m 65.64446,722.81274 h 53.75917 c 2.14044,0 3.86361,1.72317 3.86361,3.86361 0,16.97496 -2.64583,31.7366 -2.64583,31.7366 l -56.194724,2e-5 c 0,0 -2.645833,-15.28682 -2.645833,-31.73662 0,-2.14044 1.723169,-3.86361 3.863607,-3.86361 z"
         sodipodi:nodetypes="sssccss" />
      <g
         id="g3010"
         transform="translate(0.48225902,1.5875)"
         style="fill:#754c29;fill-opacity:1">
        <path
           id="rect2959-7"
           style="color:#000000;overflow:visible;fill:#754c29;fill-opacity:1;stroke:#000000;stroke-width:3;stroke-linecap:round;stroke-linejoin:round;stroke-miterlimit:4;stroke-dasharray:none;stroke-opacity:1;stop-color:#000000"
           transform="rotate(-90)"
           d="m -725.29386,65.573524 h 22.84629 l 3.48442,7.486147 h -26.33071 c -2.06071,0 -3.71969,-1.658981 -3.71969,-3.719688 v -0.04677 c 0,-2.060707 1.65898,-3.719689 3.71969,-3.719689 z"
           sodipodi:nodetypes="sccssss" />
        <path
           id="rect2959-7-2"
           style="color:#000000;overflow:visible;fill:#754c29;fill-opacity:1;stroke:#000000;stroke-width:3;stroke-linecap:round;stroke-linejoin:round;stroke-miterlimit:4;stroke-dasharray:none;stroke-opacity:1;stop-color:#000000"
           transform="rotate(-90)"
           d="m -725.29386,111.0239 h 27.65028 l -4.61852,7.48618 h -23.03176 c -2.06071,0 -3.71969,-1.65898 -3.71969,-3.71969 v -0.0468 c 0,-2.06071 1.65898,-3.71969 3.71969,-3.71969 z"
           sodipodi:nodetypes="sccssss" />
      </g>
    </g>
  </g>
</svg>
