<?xml version="1.0" encoding="UTF-8" standalone="no"?>
<svg
   xmlns:dc="http://purl.org/dc/elements/1.1/"
   xmlns:cc="http://creativecommons.org/ns#"
   xmlns:rdf="http://www.w3.org/1999/02/22-rdf-syntax-ns#"
   xmlns:svg="http://www.w3.org/2000/svg"
   xmlns="http://www.w3.org/2000/svg"
   xmlns:xlink="http://www.w3.org/1999/xlink"
   xmlns:sodipodi="http://sodipodi.sourceforge.net/DTD/sodipodi-0.dtd"
   xmlns:inkscape="http://www.inkscape.org/namespaces/inkscape"
   sodipodi:docname="gandalf.svg"
   inkscape:version="1.0 (4035a4fb49, 2020-05-01)"
   id="svg3147"
   version="1.1"
   viewBox="0 0 150 155"
   height="155mm"
   width="150mm">
  <defs
     id="defs3141">
    <pattern
       id="carreau-pt"
       patternTransform="translate(-2054.333,1959.2791)"
       height="7.6109896"
       width="8.7129582"
       patternUnits="userSpaceOnUse">
      <rect
         y="6.2746067e-06"
         x="-2.2737368e-13"
         height="7.6109834"
         width="8.7129364"
         id="rect119919"
         style="fill:#800000;fill-opacity:1;stroke:none;stroke-width:1.08628;stroke-linecap:round;stroke-linejoin:round;stroke-miterlimit:4;stroke-dasharray:none;stop-color:#000000" />
      <path
         id="path119921"
         d="M 3.0751503,7.6109858 V 0"
         style="fill:#800000;stroke:#c11a1a;stroke-width:1.81047;stroke-linecap:butt;stroke-linejoin:miter;stroke-miterlimit:4;stroke-dasharray:none;stroke-opacity:1" />
      <path
         id="path119923"
         d="M 1.3287401e-5,4.7904378 H 8.7129582"
         style="fill:#c11a1a;fill-opacity:1;stroke:#c11a1a;stroke-width:1.81047;stroke-linecap:butt;stroke-linejoin:miter;stroke-miterlimit:4;stroke-dasharray:none;stroke-opacity:1" />
    </pattern>
    <pattern
       id="pattern115842"
       patternTransform="translate(-1862,1831.9999)"
       height="85.000002"
       width="85.000037"
       patternUnits="userSpaceOnUse">
      <rect
         y="0"
         x="3.4178149e-05"
         height="85"
         width="85"
         id="rect104700"
         style="fill:#800000;fill-opacity:1;stroke:none;stroke-width:11.3386;stroke-linecap:round;stroke-linejoin:round;stroke-miterlimit:4;stroke-dasharray:none;stop-color:#000000" />
      <path
         id="path104779"
         d="M 30,84.999998 V 1.0187008e-5"
         style="fill:#800000;stroke:#c11a1a;stroke-width:18.8976;stroke-linecap:butt;stroke-linejoin:miter;stroke-miterlimit:4;stroke-dasharray:none;stroke-opacity:1" />
      <path
         id="path107256"
         d="M 0,53.500092 H 85.000025"
         style="fill:#c11a1a;fill-opacity:1;stroke:#c11a1a;stroke-width:18.8976;stroke-linecap:butt;stroke-linejoin:miter;stroke-miterlimit:4;stroke-dasharray:none;stroke-opacity:1" />
    </pattern>
    <radialGradient
       gradientUnits="userSpaceOnUse"
       gradientTransform="matrix(1.3239398,-0.2346134,0.10276937,0.57993479,1506.814,300.45136)"
       r="29.895781"
       fy="-22.956478"
       fx="-951.63568"
       cy="-22.956478"
       cx="-951.63568"
       id="radialGradient908974"
       xlink:href="#linearGradient846080"
       inkscape:collect="always" />
    <linearGradient
       inkscape:collect="always"
       id="linearGradient846080">
      <stop
         style="stop-color:#f8bc80;stop-opacity:1"
         offset="0"
         id="stop846072" />
      <stop
         id="stop846074"
         offset="0.70677221"
         style="stop-color:#f8bc80;stop-opacity:1" />
      <stop
         id="stop846076"
         offset="0.70677221"
         style="stop-color:#e4aa76;stop-opacity:1" />
      <stop
         style="stop-color:#e4aa76;stop-opacity:1"
         offset="1"
         id="stop846078" />
    </linearGradient>
  </defs>
  <sodipodi:namedview
     inkscape:window-maximized="1"
     inkscape:window-y="-8"
     inkscape:window-x="-8"
     inkscape:window-height="1017"
     inkscape:window-width="1920"
     showgrid="false"
     inkscape:document-rotation="0"
     inkscape:current-layer="layer1"
     inkscape:document-units="mm"
     inkscape:cy="479.46526"
     inkscape:cx="758.59226"
     inkscape:zoom="0.49497475"
     inkscape:pageshadow="2"
     inkscape:pageopacity="0.0"
     borderopacity="1.0"
     bordercolor="#666666"
     pagecolor="#ffffff"
     id="base" />
  <metadata
     id="metadata3144">
    <rdf:RDF>
      <cc:Work
         rdf:about="">
        <dc:format>image/svg+xml</dc:format>
        <dc:type
           rdf:resource="http://purl.org/dc/dcmitype/StillImage" />
        <dc:title></dc:title>
      </cc:Work>
    </rdf:RDF>
  </metadata>
  <g
     id="layer1"
     inkscape:groupmode="layer"
     inkscape:label="Calque 1">
    <g
       id="g2536"
       transform="translate(-177.67767,-426.64999)"
       style="mix-blend-mode:normal;fill:#f2f2f2">
      <g
         id="g2808">
        <g
           id="g2844">
          <path
             sodipodi:nodetypes="cccccczc"
             d="m 240.20453,538.46105 c -5.82436,8.50699 -14.88785,9.95583 -24.19025,13.26689 -14.92156,4.81021 -13.80776,15.30196 -15.50888,28.42204 h 104.34453 c -1.27927,-15.40341 -4.97105,-25.66051 -15.50835,-28.42204 -10.08161,-2.38671 -16.71931,-5.95194 -23.43474,-13.26689 0,0 -8.50972,2.11667 -12.85115,2.11667 -4.34143,0 -12.85116,-2.11667 -12.85116,-2.11667 z"
             style="fill:#e6e6e6;fill-opacity:1;stroke:#000000;stroke-width:3;stroke-linecap:round;stroke-linejoin:round;stroke-miterlimit:4;stroke-dasharray:none;stroke-opacity:1;stop-color:#000000"
             id="rect8920-8-1-6" />
          <path
             sodipodi:nodetypes="cczccc"
             id="path758402-4"
             d="M 226.63004,548.16756 207.6431,520.84268 c 0,0 9.71503,-12.26098 45.13295,-12.26098 35.41793,0 45.13295,12.26098 45.13295,12.26098 l -18.98693,27.32488 z"
             style="fill:#cccccc;fill-opacity:1;stroke:#000000;stroke-width:3;stroke-linecap:butt;stroke-linejoin:miter;stroke-miterlimit:4;stroke-dasharray:none;stroke-opacity:1" />
          <ellipse
             style="color:#000000;overflow:visible;fill:#e3aa75;fill-opacity:1;stroke:#000000;stroke-width:3;stroke-linecap:round;stroke-miterlimit:4;stroke-dasharray:none;stroke-opacity:1;stop-color:#000000"
             id="path861-2-70-6-3"
             cx="221.60962"
             cy="501.50998"
             rx="6.1759887"
             ry="6.678576" />
          <ellipse
             ry="6.678576"
             rx="6.1759887"
             cy="501.50998"
             cx="283.74567"
             id="path861-0-6-5-2-7"
             style="color:#000000;overflow:visible;fill:#d09a6e;fill-opacity:1;stroke:#000000;stroke-width:3;stroke-linecap:round;stroke-miterlimit:4;stroke-dasharray:none;stroke-opacity:1;stop-color:#000000" />
          <path
             sodipodi:nodetypes="ssszsss"
             d="m 252.67767,465.96735 c 15.76916,0 28.4642,12.69503 28.4642,28.4642 v 14.15685 c 0,15.76917 -12.69504,28.46421 -28.4642,28.46421 -15.76916,0 -28.4642,-12.69504 -28.4642,-28.46421 v -14.15685 c 0,-15.76917 12.69503,-28.4642 28.4642,-28.4642 z"
             style="fill:url(#radialGradient908974);fill-opacity:1;stroke:#000000;stroke-width:2.86316;stroke-linecap:round;stroke-linejoin:round;stop-color:#000000"
             id="rect1621-9-9-1" />
          <path
             sodipodi:nodetypes="czc"
             id="path2252-47-2-5"
             d="m 247.07418,524.53484 c 0,0 1.40259,1.05833 5.60349,1.05833 4.20088,0 5.60349,-1.05833 5.60349,-1.05833"
             style="fill:none;stroke:#000000;stroke-width:3;stroke-linecap:round;stroke-linejoin:miter;stroke-miterlimit:4;stroke-dasharray:none;stroke-opacity:1" />
          <g
             transform="translate(462.41388,359.83219)"
             id="g2407-6-9-8">
            <path
               d="m -220.29867,141.14864 a 2.3012009,3.2740517 0 0 1 -2.27878,3.27389 2.3012009,3.2740517 0 0 1 -2.32318,-3.21011 2.3012009,3.2740517 0 0 1 2.23352,-3.33644 2.3012009,3.2740517 0 0 1 2.3667,3.14511"
               style="color:#000000;overflow:visible;fill:#000000;fill-opacity:1;stroke:none;stroke-width:3;stroke-linecap:round;stroke-linejoin:round;stroke-miterlimit:4;stroke-dasharray:none;stroke-opacity:1;stop-color:#000000"
               id="path984-6-3-5-0"
               sodipodi:type="arc"
               sodipodi:cx="-222.59987"
               sodipodi:cy="141.14864"
               sodipodi:rx="2.3012009"
               sodipodi:ry="3.2740517"
               sodipodi:start="0"
               sodipodi:end="6.2442187"
               sodipodi:open="true"
               sodipodi:arc-type="arc" />
            <path
               d="m -194.57134,141.14864 a 2.3012009,3.2740517 0 0 1 -2.27879,3.27389 2.3012009,3.2740517 0 0 1 -2.32318,-3.21011 2.3012009,3.2740517 0 0 1 2.23352,-3.33644 2.3012009,3.2740517 0 0 1 2.3667,3.14511"
               sodipodi:arc-type="arc"
               sodipodi:open="true"
               sodipodi:end="6.2442187"
               sodipodi:start="0"
               sodipodi:ry="3.2740517"
               sodipodi:rx="2.3012009"
               sodipodi:cy="141.14864"
               sodipodi:cx="-196.87254"
               sodipodi:type="arc"
               id="path984-3-2-8-6-0"
               style="color:#000000;overflow:visible;fill:#000000;fill-opacity:1;stroke:none;stroke-width:3;stroke-linecap:round;stroke-linejoin:round;stroke-miterlimit:4;stroke-dasharray:none;stroke-opacity:1;stop-color:#000000" />
          </g>
          <g
             style="stroke:#000000"
             transform="translate(449.11539,378.90174)"
             id="g66903-6-0-5">
            <path
               sodipodi:nodetypes="cc"
               id="path66722-4-3-6"
               d="m -186.13683,116.57302 5.55649,-1.50064"
               style="fill:none;stroke:#000000;stroke-width:3;stroke-linecap:round;stroke-linejoin:round;stroke-miterlimit:4;stroke-dasharray:none;stroke-opacity:1" />
            <path
               sodipodi:nodetypes="cc"
               id="path66722-1-5-7-7"
               d="m -212.29508,115.07238 5.02685,1.14754"
               style="fill:none;stroke:#000000;stroke-width:3;stroke-linecap:round;stroke-linejoin:round;stroke-miterlimit:4;stroke-dasharray:none;stroke-opacity:1" />
          </g>
          <path
             sodipodi:nodetypes="ccscccccc"
             id="path754006-8"
             d="m 207.6431,520.84268 c 7.10416,5.5566 12.77253,10.62207 20.46807,14.57867 6.02976,23.17408 23.57111,21.86851 24.6043,36.42171 l 0.0606,8.30692 h -14.68672 c 0.72728,-6.6699 -8.38982,-13.97492 -14.36331,-21.07712 l 10.3251,-6.58938 -11.71632,-2.84549 c 0.0745,-9.0754 -7.42629,-19.05493 -14.6917,-28.79531 z"
             style="fill:#cccccc;fill-opacity:1;stroke:#000000;stroke-width:3;stroke-linecap:round;stroke-linejoin:round;stroke-miterlimit:4;stroke-dasharray:none;stroke-opacity:1" />
          <path
             sodipodi:nodetypes="ccsccccccc"
             id="path754006-8-6"
             d="m 297.90904,520.84268 c -7.10416,5.5566 -12.77253,10.62207 -20.46807,14.57867 -6.02976,23.17408 -25.42596,21.85504 -24.6043,36.42172 l -0.0606,8.30691 h 14.68672 c -0.72728,-6.6699 8.38982,-13.97492 14.36331,-21.07712 l -10.3251,-6.58938 11.71632,-2.84549 c -0.0745,-9.0754 7.42629,-19.05493 14.6917,-28.79531 z"
             style="fill:#cccccc;fill-opacity:1;stroke:#000000;stroke-width:3;stroke-linecap:round;stroke-linejoin:round;stroke-miterlimit:4;stroke-dasharray:none;stroke-opacity:1" />
          <g
             id="g906298"
             transform="translate(1196.2295,527.7123)">
            <path
               sodipodi:nodetypes="ccczzccccsssccc"
               transform="matrix(0.26458333,0,0,0.26458333,49.692425,37.132853)"
               d="m -3860.3926,-261.62695 c -2.4587,19.57823 -16.0203,36.23053 -2.5351,60.93359 -13.4575,24.77624 -14.6265,47.99095 -6.2559,67.38477 43.6244,99.727877 82.5164,166.981264 116.6191,166.814449 34.1027,-0.166815 90.6197,-107.253503 116.6172,-166.814449 25.9975,-59.56095 7.2016,-42.60853 -6.2558,-67.38477 13.4851,-24.70306 -0.076,-41.35536 -2.5352,-60.93359 -9.0732,25.54441 -7.8488,51.00608 -33.5801,62.59179 l -27.6757,51.17383 c 0,0 -12.9412,15.4217 -22.2852,16 -9.344,0.57831 -16.1462,-12 -24.2852,-12 -8.1389,0 -14.9431,12.57831 -24.2871,12 -9.3439,-0.5783 -22.2851,-16 -22.2851,-16 l -27.6758,-51.17383 c -25.7313,-11.58571 -24.5069,-37.04738 -33.5801,-62.59179 z"
               style="fill:#ffffff;stroke:#000000;stroke-width:11.3386;stroke-linecap:round;stroke-linejoin:round;stroke-miterlimit:4;stroke-dasharray:none;stroke-opacity:1"
               id="path861087" />
            <path
               sodipodi:nodetypes="cc"
               id="path862962"
               d="m -953.9867,36.693882 3.68702,-15.773998"
               style="fill:none;stroke:#000000;stroke-width:3;stroke-linecap:round;stroke-linejoin:miter;stroke-miterlimit:4;stroke-dasharray:none;stroke-opacity:1" />
            <path
               sodipodi:nodetypes="cc"
               id="path862962-2"
               d="m -941.01016,45.511624 -3.41155,-22.162235"
               style="fill:none;stroke:#000000;stroke-width:3;stroke-linecap:round;stroke-linejoin:miter;stroke-miterlimit:4;stroke-dasharray:none;stroke-opacity:1" />
            <path
               sodipodi:nodetypes="cc"
               id="path862964"
               d="m -962.17838,26.358691 4.60469,-12.006288"
               style="fill:none;stroke:#000000;stroke-width:3;stroke-linecap:round;stroke-linejoin:miter;stroke-miterlimit:4;stroke-dasharray:none;stroke-opacity:1" />
            <path
               sodipodi:nodetypes="cc"
               id="path862966"
               d="m -966.98279,17.141555 4.87596,-11.2178086"
               style="fill:none;stroke:#000000;stroke-width:3;stroke-linecap:round;stroke-linejoin:miter;stroke-miterlimit:4;stroke-dasharray:none;stroke-opacity:1" />
            <path
               sodipodi:nodetypes="cc"
               id="path862962-9"
               d="m -932.25366,37.479271 -5.24747,-18.083472"
               style="fill:none;stroke:#000000;stroke-width:3;stroke-linecap:round;stroke-linejoin:miter;stroke-miterlimit:4;stroke-dasharray:none;stroke-opacity:1" />
            <path
               sodipodi:nodetypes="cc"
               id="path862964-9"
               d="m -925.65802,27.752291 c -1.43488,-5.934784 -2.04358,-9.391057 -2.85393,-13.452265"
               style="fill:none;stroke:#000000;stroke-width:3;stroke-linecap:round;stroke-linejoin:miter;stroke-miterlimit:4;stroke-dasharray:none;stroke-opacity:1" />
            <path
               id="path862966-3"
               d="M -919.94566,17.647582 -923.67038,4.913647"
               style="fill:none;stroke:#000000;stroke-width:3;stroke-linecap:round;stroke-linejoin:miter;stroke-miterlimit:4;stroke-dasharray:none;stroke-opacity:1" />
          </g>
          <path
             sodipodi:nodetypes="ccccccc"
             d="m 232.46137,521.21424 c 4.50783,3.04473 7.45032,3.17888 12.33929,-0.51108 3.24451,1.74104 4.86518,1.73986 7.86463,0.44286 2.99929,1.2969 4.62021,1.29813 7.86464,-0.44286 4.88897,3.68996 7.83148,3.55581 12.33929,0.51108 -5.54707,-1.84246 -10.85224,-8.9257 -20.20393,-6.50142 -9.38955,-2.19916 -14.20905,4.46964 -20.20392,6.50142 z"
             style="fill:#ffffff;stroke:#000000;stroke-width:3;stroke-linecap:round;stroke-linejoin:round;stroke-miterlimit:4;stroke-dasharray:none;stroke-opacity:1"
             id="path855451-5" />
          <path
             sodipodi:nodetypes="czc"
             id="path2252-4-5-4-0"
             d="m 249.19084,511.03504 c 0,0 2.10246,1.05833 3.48683,1.05833 1.38437,0 3.48682,-1.05833 3.48682,-1.05833"
             style="fill:none;fill-opacity:1;stroke:#d09a6e;stroke-width:3;stroke-linecap:round;stroke-linejoin:miter;stroke-miterlimit:4;stroke-dasharray:none;stroke-opacity:1" />
          <path
             id="path107570-3"
             d="m 276.32966,499.83053 -5.82602,1.85373 3.70748,2.38336"
             style="fill:none;stroke:#d09a6e;stroke-width:2;stroke-linecap:round;stroke-linejoin:round;stroke-miterlimit:4;stroke-dasharray:none;stroke-opacity:1" />
          <path
             sodipodi:nodetypes="cc"
             id="path71939-6-9-2-7"
             d="m 207.33719,556.53909 c 10.3107,2.06278 11.74941,13.9172 13.88962,23.61089"
             style="fill:none;fill-opacity:1;stroke:#000000;stroke-width:3;stroke-linecap:round;stroke-linejoin:round;stroke-miterlimit:4;stroke-dasharray:none;stroke-opacity:1" />
          <path
             sodipodi:nodetypes="cc"
             id="path71939-0-6-8-2-8"
             d="m 297.84439,556.99813 c -10.3107,2.06278 -11.52762,13.45816 -13.66782,23.15185"
             style="fill:none;fill-opacity:1;stroke:#000000;stroke-width:3;stroke-linecap:round;stroke-linejoin:round;stroke-miterlimit:4;stroke-dasharray:none;stroke-opacity:1" />
          <path
             id="path107570"
             d="m 229.28546,499.25855 5.82602,1.85373 -3.70748,2.38336"
             style="fill:none;stroke:#d09a6e;stroke-width:2;stroke-linecap:round;stroke-linejoin:round;stroke-miterlimit:4;stroke-dasharray:none;stroke-opacity:1" />
          <path
             sodipodi:nodetypes="ccccccccccczcccccccc"
             id="path909636"
             d="m 224.21347,494.43155 c 4.5975,-0.40874 7.47679,-2.61672 16.08777,-10.67318 1.93047,7.98538 9.44949,10.575 14.04294,10.23858 0.0584,-5.37204 4.99067,-7.14587 9.17666,-7.24251 3.86428,6.07628 7.24358,12.74147 15.60454,13.3575 7.81441,15.47259 -4.24439,38.30386 1.32179,47.44829 9.19854,12.71832 -1.57459,21.22608 -0.50393,32.58976 h 20.67336 c -12.2473,-9.56933 -3.19205,-32.5429 -12.27457,-38.61266 2.25987,-19.78911 -2.04091,-47.0273 -3.31844,-47.0175 -1.68208,-7.23386 -2.04559,-12.50819 -6.88336,-19.74205 -2.61924,-6.73519 -11.4215,-15.61782 -28.10526,-14.59917 -16.68377,1.01864 -23.96892,12.63964 -23.96892,12.63964 -2.67697,5.76823 -9.15623,16.04904 -7.81915,21.69279 -8.86209,14.27747 -2.447,35.8369 -1.14396,51.6807 -3.234,9.40591 0.89904,20.94868 -5.53966,33.95825 h 17.53244 c -1.27605,-16.54674 -8.97822,-24.03651 -2.46568,-30.39492 4.71114,-29.96769 -5.79473,-28.18738 -2.41657,-55.32353 z"
             style="fill:#ffffff;stroke:#000000;stroke-width:3;stroke-linecap:round;stroke-linejoin:round;stroke-miterlimit:4;stroke-dasharray:none;stroke-opacity:1" />
          <g
             id="g2767"
             transform="translate(0,1.0583333)"
             style="fill:#ececec">
            <g
               id="g2772"
               transform="translate(0,1.0583333)">
              <path
                 sodipodi:nodetypes="ccccsssccc"
                 transform="matrix(0.26458333,0,0,0.26458333,50.005325,37.26599)"
                 d="m 754.01953,1470.7715 c -64.77298,13.4655 -251.46262,45.559 -43.22656,68.3086 -25.58241,48.161 -37.40909,69.5997 -45.36719,107.1015 l 3.88086,-0.012 c -47.76354,14.8386 -93.14648,33.1933 -93.14648,39.5684 0,11.3318 88.49212,10.6902 188.66211,29.8555 113.25463,21.6686 193.09094,-6.0104 188.66406,-25.8555 -1.45446,-6.5202 -51.02958,-27.7702 -100.75781,-44.1211 l 9.51367,-0.029 c -27.7592,-126.1699 -69.41473,-138.727 -108.22266,-174.8164 z"
                 style="fill:#ececec;stroke:#000000;stroke-width:11.3386;stroke-linecap:round;stroke-linejoin:round;stop-color:#000000"
                 id="path879372" />
              <path
                 style="fill:#cccccc;fill-opacity:1;stroke:#000000;stroke-width:3;stroke-linecap:round;stroke-linejoin:round;stroke-miterlimit:4;stroke-dasharray:none;stroke-opacity:1"
                 d="m 226.06608,472.81825 c 0,0 6.30917,4.23334 26.29868,4.23334 19.98952,0 26.29869,-4.23334 26.29869,-4.23334 l -2.88602,-10.77075 c 0,0 -9.24461,4.23333 -23.41941,4.23333 -14.1748,0 -23.41941,-4.23333 -23.41941,-4.23333 z"
                 id="path882583"
                 sodipodi:nodetypes="czcczcc" />
            </g>
          </g>
        </g>
      </g>
    </g>
  </g>
</svg>
