<?xml version="1.0" encoding="UTF-8" standalone="no"?>
<svg
   xmlns:osb="http://www.openswatchbook.org/uri/2009/osb"
   xmlns:dc="http://purl.org/dc/elements/1.1/"
   xmlns:cc="http://creativecommons.org/ns#"
   xmlns:rdf="http://www.w3.org/1999/02/22-rdf-syntax-ns#"
   xmlns:svg="http://www.w3.org/2000/svg"
   xmlns="http://www.w3.org/2000/svg"
   xmlns:xlink="http://www.w3.org/1999/xlink"
   xmlns:sodipodi="http://sodipodi.sourceforge.net/DTD/sodipodi-0.dtd"
   xmlns:inkscape="http://www.inkscape.org/namespaces/inkscape"
   sodipodi:docname="pirate.svg"
   inkscape:version="1.0 (4035a4fb49, 2020-05-01)"
   id="svg3147"
   version="1.1"
   viewBox="0 0 150 150"
   height="150mm"
   width="150mm">
  <defs
     id="defs3141">
    <pattern
       id="carreau-pt"
       patternTransform="translate(-2054.333,1959.2791)"
       height="7.6109896"
       width="8.7129582"
       patternUnits="userSpaceOnUse">
      <rect
         y="6.2746067e-06"
         x="-2.2737368e-13"
         height="7.6109834"
         width="8.7129364"
         id="rect119919"
         style="fill:#800000;fill-opacity:1;stroke:none;stroke-width:1.08628;stroke-linecap:round;stroke-linejoin:round;stroke-miterlimit:4;stroke-dasharray:none;stop-color:#000000" />
      <path
         id="path119921"
         d="M 3.0751503,7.6109858 V 0"
         style="fill:#800000;stroke:#c11a1a;stroke-width:1.81047;stroke-linecap:butt;stroke-linejoin:miter;stroke-miterlimit:4;stroke-dasharray:none;stroke-opacity:1" />
      <path
         id="path119923"
         d="M 1.3287401e-5,4.7904378 H 8.7129582"
         style="fill:#c11a1a;fill-opacity:1;stroke:#c11a1a;stroke-width:1.81047;stroke-linecap:butt;stroke-linejoin:miter;stroke-miterlimit:4;stroke-dasharray:none;stroke-opacity:1" />
    </pattern>
    <pattern
       id="pattern115842"
       patternTransform="translate(-1862,1831.9999)"
       height="85.000002"
       width="85.000037"
       patternUnits="userSpaceOnUse">
      <rect
         y="0"
         x="3.4178149e-05"
         height="85"
         width="85"
         id="rect104700"
         style="fill:#800000;fill-opacity:1;stroke:none;stroke-width:11.3386;stroke-linecap:round;stroke-linejoin:round;stroke-miterlimit:4;stroke-dasharray:none;stop-color:#000000" />
      <path
         id="path104779"
         d="M 30,84.999998 V 1.0187008e-5"
         style="fill:#800000;stroke:#c11a1a;stroke-width:18.8976;stroke-linecap:butt;stroke-linejoin:miter;stroke-miterlimit:4;stroke-dasharray:none;stroke-opacity:1" />
      <path
         id="path107256"
         d="M 0,53.500092 H 85.000025"
         style="fill:#c11a1a;fill-opacity:1;stroke:#c11a1a;stroke-width:18.8976;stroke-linecap:butt;stroke-linejoin:miter;stroke-miterlimit:4;stroke-dasharray:none;stroke-opacity:1" />
    </pattern>
    <pattern
       patternUnits="userSpaceOnUse"
       width="9.5154795"
       height="8.5408786"
       patternTransform="translate(-4914.8373,100.06749)"
       id="carreau-vert">
      <rect
         y="0.6775502"
         x="0.6775502"
         height="7.1857781"
         width="8.1603794"
         id="rect4918"
         style="color:#000000;overflow:visible;fill:url(#linearGradient4920);fill-opacity:1;stroke:#3d662c;stroke-width:1.3551;stroke-linecap:square;stroke-linejoin:miter;stroke-miterlimit:4;stroke-dasharray:none;stroke-opacity:1;stop-color:#000000" />
    </pattern>
    <linearGradient
       inkscape:collect="always"
       xlink:href="#linearGradient4905"
       id="linearGradient4920"
       gradientUnits="userSpaceOnUse"
       gradientTransform="matrix(0.96271559,0,0,0.84773873,1201.0626,-26.799203)"
       x1="-1248.3741"
       y1="37.991222"
       x2="-1234.2153"
       y2="37.991222" />
    <linearGradient
       id="linearGradient4905"
       osb:paint="solid">
      <stop
         style="stop-color:#3f9320;stop-opacity:1;"
         offset="0"
         id="stop4903" />
    </linearGradient>
    <pattern
       patternUnits="userSpaceOnUse"
       width="85.000037"
       height="85.000002"
       patternTransform="translate(-1862,1831.9999)"
       id="pattern115842-0-4">
      <rect
         style="fill:#800000;fill-opacity:1;stroke:none;stroke-width:11.3386;stroke-linecap:round;stroke-linejoin:round;stroke-miterlimit:4;stroke-dasharray:none;stop-color:#000000"
         id="rect104700-3-5"
         width="85"
         height="85"
         x="3.4178149e-05"
         y="0" />
      <path
         style="fill:#800000;stroke:#c11a1a;stroke-width:18.8976;stroke-linecap:butt;stroke-linejoin:miter;stroke-miterlimit:4;stroke-dasharray:none;stroke-opacity:1"
         d="M 30,84.999998 V 1.0187008e-5"
         id="path104779-9-5" />
      <path
         style="fill:#c11a1a;fill-opacity:1;stroke:#c11a1a;stroke-width:18.8976;stroke-linecap:butt;stroke-linejoin:miter;stroke-miterlimit:4;stroke-dasharray:none;stroke-opacity:1"
         d="M 0,53.500092 H 85.000025"
         id="path107256-5-6" />
    </pattern>
    <radialGradient
       inkscape:collect="always"
       xlink:href="#linearGradient228518"
       id="radialGradient23876-5-93-0"
       cx="-391.23096"
       cy="602.3324"
       fx="-391.23096"
       fy="602.3324"
       r="195.66344"
       gradientTransform="matrix(0.33123089,0.00270806,-0.00156891,0.19189788,6.3023795,-248.1333)"
       gradientUnits="userSpaceOnUse" />
    <linearGradient
       inkscape:collect="always"
       id="linearGradient228518">
      <stop
         style="stop-color:#e4aa76;stop-opacity:1"
         offset="0"
         id="stop228510" />
      <stop
         id="stop228512"
         offset="0.70677221"
         style="stop-color:#e2aa75;stop-opacity:1" />
      <stop
         id="stop228514"
         offset="0.70677221"
         style="stop-color:#d09a6f;stop-opacity:1" />
      <stop
         style="stop-color:#d1996c;stop-opacity:1"
         offset="1"
         id="stop228516" />
    </linearGradient>
    <radialGradient
       inkscape:collect="always"
       xlink:href="#linearGradient228518"
       id="radialGradient1872-4-64-6"
       cx="-213.61194"
       cy="144.48944"
       fx="-213.61194"
       fy="144.48944"
       r="29.964201"
       gradientTransform="matrix(1.544547,-0.26971895,0.45443624,2.1590227,130.89557,-584.03009)"
       gradientUnits="userSpaceOnUse" />
  </defs>
  <sodipodi:namedview
     inkscape:window-maximized="1"
     inkscape:window-y="-8"
     inkscape:window-x="-8"
     inkscape:window-height="1017"
     inkscape:window-width="1920"
     showgrid="false"
     inkscape:document-rotation="0"
     inkscape:current-layer="layer1"
     inkscape:document-units="mm"
     inkscape:cy="533.2073"
     inkscape:cx="228.18926"
     inkscape:zoom="0.7"
     inkscape:pageshadow="2"
     inkscape:pageopacity="0.0"
     borderopacity="1.0"
     bordercolor="#666666"
     pagecolor="#ffffff"
     id="base" />
  <metadata
     id="metadata3144">
    <rdf:RDF>
      <cc:Work
         rdf:about="">
        <dc:format>image/svg+xml</dc:format>
        <dc:type
           rdf:resource="http://purl.org/dc/dcmitype/StillImage" />
        <dc:title />
      </cc:Work>
    </rdf:RDF>
  </metadata>
  <g
     id="layer1"
     inkscape:groupmode="layer"
     inkscape:label="Calque 1">
    <g
       style="mix-blend-mode:normal"
       id="g3656"
       transform="translate(198.22063,269.58534)">
      <path
         sodipodi:nodetypes="cczc"
         id="path3449"
         d="m -182.3904,-202.71573 c 38.40998,-0.30185 77.97957,-3.10124 118.340062,0 0,0 -40.018312,-30.38973 -62.123522,-29.94448 -22.10521,0.44525 -56.21654,29.94448 -56.21654,29.94448 z"
         style="fill:#453d47;fill-opacity:1;fill-rule:evenodd;stroke:#000000;stroke-width:3;stroke-linecap:butt;stroke-linejoin:round;stroke-miterlimit:4;stroke-dasharray:none;stroke-opacity:1" />
      <path
         sodipodi:nodetypes="czzzzszzzzszc"
         id="path3380"
         d="m -156.57944,-214.36924 c -5.57939,12.66094 0.79552,26.66597 1.07296,30.4721 0.27745,3.80612 -3.32611,6.69961 -3.03217,11.75498 0.29394,5.05536 3.3846,5.53811 3.28174,10.25914 -0.10287,4.72103 -4.9949,7.28405 -4.62711,12.3755 0.36779,5.09145 67.834099,8.21842 73.327299,0 2.533821,-3.79087 -2.460492,-6.46027 -2.878892,-11.33936 -0.418401,-4.87909 1.731366,-3.20809 2.46403,-8.40591 0.732665,-5.19781 -2.141456,-5.75718 -2.408117,-10.90293 -0.266661,-5.14574 2.449402,-5.25434 2.33448,-10.01851 -0.114921,-4.76417 1.281237,-13.67999 -2.581424,-23.55124 -3.862661,-9.87124 -4.614462,-27.36348 -33.593986,-27.36348 -28.97952,0 -33.35881,26.71971 -33.35881,26.71971 z"
         style="fill:#965353;fill-opacity:1;fill-rule:evenodd;stroke:#000000;stroke-width:3;stroke-linecap:butt;stroke-linejoin:miter;stroke-miterlimit:4;stroke-dasharray:none;stroke-opacity:1" />
      <ellipse
         ry="6.678576"
         rx="6.1759887"
         cy="-201.31299"
         cx="-154.28868"
         id="path861-2-70-6-5"
         style="color:#000000;overflow:visible;mix-blend-mode:normal;fill:#e3aa75;fill-opacity:1;stroke:#000000;stroke-width:3;stroke-linecap:round;stroke-miterlimit:4;stroke-dasharray:none;stroke-opacity:1;stop-color:#000000" />
      <path
         id="rect8920-8-3-61"
         style="mix-blend-mode:normal;fill:url(#radialGradient23876-5-93-0);fill-opacity:1;stroke:#000000;stroke-width:3;stroke-linecap:round;stroke-linejoin:round;stroke-miterlimit:4;stroke-dasharray:none;stroke-opacity:1;stop-color:#000000"
         d="m -135.69377,-177.09963 v 14.32522 c -5.82436,8.50699 -14.88785,9.95583 -24.19025,13.26689 -13.87987,4.94035 -13.39221,12.09694 -13.39221,12.09694 v 16.3251 h 100.111199 v -16.3251 c 0,0 -0.37133,-9.0145 -13.39169,-12.09694 -10.08161,-2.38671 -16.719309,-5.95194 -23.434739,-13.26689 v -14.32522 z"
         sodipodi:nodetypes="cccccccsccc" />
      <ellipse
         style="color:#000000;overflow:visible;mix-blend-mode:normal;fill:#d09a6e;fill-opacity:1;stroke:#000000;stroke-width:3;stroke-linecap:round;stroke-miterlimit:4;stroke-dasharray:none;stroke-opacity:1;stop-color:#000000"
         id="path861-0-6-5-2-26"
         cx="-92.152641"
         cy="-201.31299"
         rx="6.1759887"
         ry="6.678576" />
      <path
         id="rect1621-9-52-1"
         style="mix-blend-mode:normal;fill:url(#radialGradient1872-4-64-6);fill-opacity:1;stroke:#000000;stroke-width:2.86316;stroke-linecap:round;stroke-linejoin:round;stop-color:#000000"
         d="m -123.67585,-229.57212 c 9.54784,13.80831 28.919419,12.99851 28.919419,21.1807 v 14.15685 c 0,15.76917 -12.695039,28.46421 -28.464199,28.46421 -15.76916,0 -28.4642,-12.69504 -28.4642,-28.46421 v -14.15685 c 0,-12.73438 13.86884,11.66735 28.00898,-21.1807 z"
         sodipodi:nodetypes="csszssc" />
      <g
         id="g3464">
        <path
           d="m -126.67203,-187.03341 c -2.14722,0.0208 -4.5179,0.39254 -6.31279,0.47904 -3.45376,5.02308 -7.74375,10.04629 -7.38612,15.06937 4.16955,6.78508 10.12374,10.17913 17.15038,11.53573 7.02664,-1.3566 12.98083,-4.75065 17.15037,-11.53573 0.35763,-5.02308 -3.93287,-10.04629 -7.38663,-15.06937 -2.87182,-0.13839 -7.21685,-1.00752 -9.76374,0 -0.95508,-0.37782 -2.16314,-0.49152 -3.45147,-0.47904 z"
           style="mix-blend-mode:normal;fill:#965353;fill-opacity:1;fill-rule:evenodd;stroke:#000000;stroke-width:3;stroke-linecap:butt;stroke-linejoin:miter;stroke-miterlimit:4;stroke-dasharray:none;stroke-opacity:1"
           id="path12863" />
        <path
           style="fill:none;fill-rule:evenodd;stroke:#000000;stroke-width:2;stroke-linecap:round;stroke-linejoin:miter;stroke-miterlimit:4;stroke-dasharray:none;stroke-opacity:1"
           d="m -111.7233,-165.01137 -5.00061,-7.40509"
           id="path3457" />
        <path
           style="fill:none;fill-rule:evenodd;stroke:#000000;stroke-width:2;stroke-linecap:round;stroke-linejoin:miter;stroke-miterlimit:4;stroke-dasharray:none;stroke-opacity:1"
           d="m -116.13782,-162.24262 -3.59038,-6.84765"
           id="path3459"
           sodipodi:nodetypes="cc" />
      </g>
      <path
         style="mix-blend-mode:normal;fill:none;stroke:#000000;stroke-width:3;stroke-linecap:round;stroke-linejoin:miter;stroke-miterlimit:4;stroke-dasharray:none;stroke-opacity:1"
         d="m -127.7658,-179.34647 c 0,0 1.63408,-0.52916 4.54517,-0.52916 2.91109,0 4.54517,-1.05834 4.54517,-1.05834"
         id="path2252-47-2-62"
         sodipodi:nodetypes="czc" />
      <path
         style="mix-blend-mode:normal;fill:none;fill-opacity:1;stroke:#d09a6e;stroke-width:3;stroke-linecap:round;stroke-linejoin:miter;stroke-miterlimit:4;stroke-dasharray:none;stroke-opacity:1"
         d="m -126.70746,-191.78793 c 0,0 2.10246,1.05833 3.48683,1.05833 1.38437,0 3.48682,-1.05833 3.48682,-1.05833"
         id="path2252-4-5-4-98"
         sodipodi:nodetypes="czc" />
      <g
         style="mix-blend-mode:normal"
         id="g2407-6-9-2"
         transform="translate(86.515587,-342.99079)">
        <path
           d="m -220.29867,141.14864 a 2.3012009,3.2740517 0 0 1 -2.27878,3.27389 2.3012009,3.2740517 0 0 1 -2.32318,-3.21011 2.3012009,3.2740517 0 0 1 2.23352,-3.33644 2.3012009,3.2740517 0 0 1 2.3667,3.14511"
           sodipodi:arc-type="arc"
           sodipodi:open="true"
           sodipodi:end="6.2442187"
           sodipodi:start="0"
           sodipodi:ry="3.2740517"
           sodipodi:rx="2.3012009"
           sodipodi:cy="141.14864"
           sodipodi:cx="-222.59987"
           sodipodi:type="arc"
           id="path984-6-3-5-7"
           style="color:#000000;overflow:visible;fill:#000000;fill-opacity:1;stroke:none;stroke-width:3;stroke-linecap:round;stroke-linejoin:round;stroke-miterlimit:4;stroke-dasharray:none;stroke-opacity:1;stop-color:#000000" />
        <path
           d="m -194.57134,141.14864 a 2.3012009,3.2740517 0 0 1 -2.27879,3.27389 2.3012009,3.2740517 0 0 1 -2.32318,-3.21011 2.3012009,3.2740517 0 0 1 2.23352,-3.33644 2.3012009,3.2740517 0 0 1 2.3667,3.14511"
           style="color:#000000;overflow:visible;fill:#000000;fill-opacity:1;stroke:none;stroke-width:3;stroke-linecap:round;stroke-linejoin:round;stroke-miterlimit:4;stroke-dasharray:none;stroke-opacity:1;stop-color:#000000"
           id="path984-3-2-8-6-5"
           sodipodi:type="arc"
           sodipodi:cx="-196.87254"
           sodipodi:cy="141.14864"
           sodipodi:rx="2.3012009"
           sodipodi:ry="3.2740517"
           sodipodi:start="0"
           sodipodi:end="6.2442187"
           sodipodi:open="true"
           sodipodi:arc-type="arc" />
      </g>
      <g
         style="mix-blend-mode:normal"
         id="g66903-6-0-40"
         transform="translate(73.217097,-327.09624)">
        <path
           style="fill:none;stroke:#000000;stroke-width:3;stroke-linecap:round;stroke-linejoin:round;stroke-miterlimit:4;stroke-dasharray:none;stroke-opacity:1"
           d="m -185.87201,115.07238 h 5.29167"
           id="path66722-4-3-33" />
        <path
           sodipodi:nodetypes="cc"
           style="fill:none;stroke:#000000;stroke-width:3;stroke-linecap:round;stroke-linejoin:round;stroke-miterlimit:4;stroke-dasharray:none;stroke-opacity:1"
           d="m -212.29508,115.07238 5.29167,3.175"
           id="path66722-1-5-7-17" />
      </g>
      <path
         sodipodi:nodetypes="cc"
         id="path3445"
         d="m -139.83043,-226.8941 c 12.22444,12.3475 23.83017,21.74527 45.073999,29.387"
         style="fill:none;fill-rule:evenodd;stroke:#000000;stroke-width:5;stroke-linecap:butt;stroke-linejoin:miter;stroke-miterlimit:4;stroke-dasharray:none;stroke-opacity:1" />
      <circle
         r="5.7512059"
         cy="-203.26099"
         cx="-110.35696"
         id="path3447"
         style="color:#000000;overflow:visible;fill:#5d5360;fill-opacity:1;stroke:#000000;stroke-width:4.99999;stroke-linecap:round;stroke-miterlimit:4;stroke-dasharray:none;stroke-opacity:1;stop-color:#000000" />
      <g
         id="g3455">
        <path
           id="path3386"
           style="fill:#5d5360;fill-opacity:1;fill-rule:evenodd;stroke:#000000;stroke-width:3;stroke-linecap:round;stroke-linejoin:round;stroke-miterlimit:4;stroke-dasharray:none;stroke-opacity:1"
           d="m -153.64594,-233.85692 c -4.51425,6.52481 -35.90394,26.6312 -28.74446,31.14119 14.82406,-8.45397 34.36666,-15.02004 59.32389,-14.89978 24.957192,-0.12023 44.192123,6.44581 59.016171,14.89978 5.657349,-7.51428 -25.488055,-24.72368 -30.002309,-31.24849 -4.514257,-6.52478 -14.258222,-14.63606 -29.167722,-14.63606 -14.9095,0 -25.91131,8.21858 -30.42557,14.74336 z"
           sodipodi:nodetypes="scccscs" />
        <path
           id="path3423"
           style="color:#000000;font-style:normal;font-variant:normal;font-weight:normal;font-stretch:normal;font-size:medium;line-height:normal;font-family:sans-serif;font-variant-ligatures:normal;font-variant-position:normal;font-variant-caps:normal;font-variant-numeric:normal;font-variant-alternates:normal;font-variant-east-asian:normal;font-feature-settings:normal;font-variation-settings:normal;text-indent:0;text-align:start;text-decoration:none;text-decoration-line:none;text-decoration-style:solid;text-decoration-color:#000000;letter-spacing:normal;word-spacing:normal;text-transform:none;writing-mode:lr-tb;direction:ltr;text-orientation:mixed;dominant-baseline:auto;baseline-shift:baseline;text-anchor:start;white-space:normal;shape-padding:0;shape-margin:0;inline-size:0;clip-rule:nonzero;display:inline;overflow:visible;visibility:visible;isolation:auto;mix-blend-mode:normal;color-interpolation:sRGB;color-interpolation-filters:linearRGB;solid-color:#000000;solid-opacity:1;vector-effect:none;fill:#ffe07d;fill-opacity:1;fill-rule:evenodd;stroke:#000000;stroke-width:3;stroke-linecap:round;stroke-linejoin:round;stroke-miterlimit:4;stroke-dasharray:none;stroke-dashoffset:0;stroke-opacity:1;color-rendering:auto;image-rendering:auto;shape-rendering:auto;text-rendering:auto;enable-background:accumulate;stop-color:#000000"
           d="m -145.96265,-247.96517 c -4.54878,3.37537 -6.6879,8.5501 -9.078,12.07006 -2.10409,3.09878 -9.89953,8.54567 -16.99999,13.31806 -3.55023,2.3862 -6.95035,4.83016 -9.55498,7.537 -2.60462,2.70685 -4.66071,5.96025 -4.16202,9.74204 0.21649,1.64306 1.72425,2.79935 3.36724,2.58228 1.64216,-0.21651 2.79811,-1.72294 2.58227,-3.36518 -0.14508,-1.10017 0.51701,-2.69962 2.5368,-4.79867 2.01979,-2.09905 5.14897,-4.41404 8.57829,-6.71896 6.85863,-4.60986 14.81976,-9.33349 18.61695,-14.9257 2.62712,-3.86902 4.30786,-8.11334 7.68945,-10.62263 3.38159,-2.50925 12.52394,-5.45342 19.16627,-5.4534 6.64217,3e-5 15.78417,2.94415 19.16576,5.4534 3.38158,2.50929 5.062328,6.75361 7.689447,10.62263 3.797186,5.59221 11.758834,10.31584 18.617469,14.9257 3.429315,2.30492 6.557984,4.61991 8.57777,6.71896 2.019785,2.09905 2.682392,3.6985 2.537313,4.79867 -0.215838,1.64224 0.940112,3.14867 2.582271,3.36518 1.64281,0.21677 3.150231,-0.93943 3.36672,-2.58228 0.498697,-3.78179 -1.55739,-7.03519 -4.16202,-9.74204 -2.604629,-2.70684 -6.004224,-5.1508 -9.554455,-7.537 -7.100462,-4.77239 -14.895894,-10.21928 -16.999995,-13.31806 -2.390101,-3.51996 -4.52922,-8.69469 -9.078,-12.07006 -7.32926,-3.89577 -15.78946,-6.61918 -22.74228,-6.61561 -6.95281,0.004 -17.43343,2.79254 -22.74228,6.61561 z"
           sodipodi:nodetypes="cssscccssssasssscccsssczc" />
      </g>
      <g
         transform="matrix(0.62430071,0,0,0.62430071,9.6412688,-95.825055)"
         id="g3534">
        <path
           id="path3466"
           style="color:#000000;overflow:visible;fill:#cbd0d8;fill-opacity:1;stroke:#000000;stroke-width:3;stroke-linecap:round;stroke-linejoin:round;stroke-miterlimit:4;stroke-dasharray:none;stroke-opacity:1;stop-color:#000000"
           d="m -212.86265,-228.31303 a 10.916108,10.916108 0 0 0 -10.87051,10.91602 10.916108,10.916108 0 0 0 5.17085,9.28174 v 4.79423 h 11.07843 v -4.5516 a 10.916108,10.916108 0 0 0 5.58274,-9.52437 10.916108,10.916108 0 0 0 -10.91601,-10.91602 10.916108,10.916108 0 0 0 -0.0455,0 z" />
        <g
           id="g3487"
           transform="translate(50.908646,-29.4375)">
          <circle
             r="2.5795741"
             cy="-188.04875"
             cx="-268.20218"
             id="path3468"
             style="color:#000000;overflow:visible;fill:#000000;fill-opacity:1;stroke:none;stroke-width:2;stroke-linecap:round;stroke-linejoin:round;stroke-miterlimit:4;stroke-dasharray:none;stroke-opacity:1;stop-color:#000000" />
          <circle
             style="color:#000000;overflow:visible;mix-blend-mode:normal;fill:#000000;fill-opacity:1;stroke:none;stroke-width:2;stroke-linecap:round;stroke-linejoin:round;stroke-miterlimit:4;stroke-dasharray:none;stroke-opacity:1;stop-color:#000000"
             id="path3468-0"
             cx="-259.24954"
             cy="-188.04875"
             r="2.5795741" />
        </g>
        <g
           id="g3525"
           transform="matrix(1.3332148,0,0,1.3332148,70.561077,68.305772)">
          <circle
             style="color:#000000;overflow:visible;mix-blend-mode:normal;fill:#000000;fill-opacity:1;stroke:none;stroke-width:1.29412;stroke-linecap:round;stroke-linejoin:round;stroke-miterlimit:4;stroke-dasharray:none;stroke-opacity:1;stop-color:#000000"
             id="path3468-4"
             cx="-214.18494"
             cy="-204.99019"
             r="1.6691412" />
          <circle
             r="1.6691412"
             cy="-204.99019"
             cx="-210.9202"
             id="path3468-0-0"
             style="color:#000000;overflow:visible;mix-blend-mode:normal;fill:#000000;fill-opacity:1;stroke:none;stroke-width:1.29412;stroke-linecap:round;stroke-linejoin:round;stroke-miterlimit:4;stroke-dasharray:none;stroke-opacity:1;stop-color:#000000" />
        </g>
      </g>
      <path
         sodipodi:nodetypes="csccccscczcc"
         transform="matrix(0.26458333,0,0,0.26458333,49.6924,37.1329)"
         d="m -781.98438,-708.85156 c -3.35881,1.10466 -6.72954,2.23436 -10.11523,3.43945 -52.45935,18.67219 -50.61719,45.7207 -50.61719,45.7207 v 61.70118 h 378.37305 v -61.70118 c 0,0 -1.40247,-34.07053 -50.61328,-45.7207 -4.54321,-1.07556 -8.89026,-2.22078 -13.08594,-3.43945 l -114.31452,20 c 0,50.28648 0.93281,58 -12.65619,58 -13.589,0 -12.46954,-7.71288 -12.89212,-58 z"
         style="mix-blend-mode:normal;fill:#966a5b;fill-opacity:1;stroke:#000000;stroke-width:11.3386;stroke-linecap:round;stroke-linejoin:round;stroke-miterlimit:4;stroke-dasharray:none;stroke-opacity:1;stop-color:#000000"
         id="rect8920-8-3-61-7" />
      <path
         sodipodi:nodetypes="csccccccccsc"
         transform="matrix(0.26458333,0,0,0.26458333,49.6924,37.1329)"
         d="m -733.35647,-735.02327 c -10.92268,3.773 -47.22841,21.51265 -58.74314,25.61116 -52.45935,18.67219 -54.61523,49.7207 -54.61523,49.7207 v 61.70118 l 153.28111,-5.1e-4 z m 165.82427,1.48815 -36.12032,135.54489 h 143.30877 v -61.70118 c 0,0 -5.40247,-38.07053 -54.61328,-49.7207 -12.53569,-2.96769 -42.38315,-19.8451 -52.57517,-24.12301 z"
         style="mix-blend-mode:normal;fill:#5d5360;fill-opacity:1;stroke:#000000;stroke-width:11.3386;stroke-linecap:round;stroke-linejoin:round;stroke-miterlimit:4;stroke-dasharray:none;stroke-opacity:1;stop-color:#000000"
         id="rect8920-8-3-61-9" />
      <path
         sodipodi:nodetypes="ccccccccccccccc"
         id="path3604"
         d="m -155.10031,-152.60171 -5.18573,10.56506 c -0.87878,1.75781 0.14152,3.87177 2.06445,4.27734 l 6.49805,1.36914 -1.94922,4.19532 c -0.52737,1.13586 -0.29377,2.4798 0.58594,3.37109 l 7.74935,7.73829 h 8.32287 l -10.3379,-10.4707 2.66211,-5.72852 c 0.81255,-1.74986 -0.21384,-3.80075 -2.10156,-4.19922 l -6.38867,-1.3457 3.64648,-7.28906 c 0.74154,-1.48157 5.19264,-7.22333 5.19264,-7.22333 z"
         style="color:#000000;font-style:normal;font-variant:normal;font-weight:normal;font-stretch:normal;font-size:medium;line-height:normal;font-family:sans-serif;font-variant-ligatures:normal;font-variant-position:normal;font-variant-caps:normal;font-variant-numeric:normal;font-variant-alternates:normal;font-variant-east-asian:normal;font-feature-settings:normal;font-variation-settings:normal;text-indent:0;text-align:start;text-decoration:none;text-decoration-line:none;text-decoration-style:solid;text-decoration-color:#000000;letter-spacing:normal;word-spacing:normal;text-transform:none;writing-mode:lr-tb;direction:ltr;text-orientation:mixed;dominant-baseline:auto;baseline-shift:baseline;text-anchor:start;white-space:normal;shape-padding:0;shape-margin:0;inline-size:0;clip-rule:nonzero;display:inline;overflow:visible;visibility:visible;opacity:1;isolation:auto;mix-blend-mode:normal;color-interpolation:sRGB;color-interpolation-filters:linearRGB;solid-color:#000000;solid-opacity:1;vector-effect:none;fill:#ffe07d;fill-opacity:1;fill-rule:evenodd;stroke:#000000;stroke-width:3;stroke-linecap:round;stroke-linejoin:round;stroke-miterlimit:4;stroke-dasharray:none;stroke-dashoffset:0;stroke-opacity:1;color-rendering:auto;image-rendering:auto;shape-rendering:auto;text-rendering:auto;enable-background:accumulate;stop-color:#000000;stop-opacity:1" />
      <path
         style="color:#000000;font-style:normal;font-variant:normal;font-weight:normal;font-stretch:normal;font-size:medium;line-height:normal;font-family:sans-serif;font-variant-ligatures:normal;font-variant-position:normal;font-variant-caps:normal;font-variant-numeric:normal;font-variant-alternates:normal;font-variant-east-asian:normal;font-feature-settings:normal;font-variation-settings:normal;text-indent:0;text-align:start;text-decoration:none;text-decoration-line:none;text-decoration-style:solid;text-decoration-color:#000000;letter-spacing:normal;word-spacing:normal;text-transform:none;writing-mode:lr-tb;direction:ltr;text-orientation:mixed;dominant-baseline:auto;baseline-shift:baseline;text-anchor:start;white-space:normal;shape-padding:0;shape-margin:0;inline-size:0;clip-rule:nonzero;display:inline;overflow:visible;visibility:visible;opacity:1;isolation:auto;mix-blend-mode:normal;color-interpolation:sRGB;color-interpolation-filters:linearRGB;solid-color:#000000;solid-opacity:1;vector-effect:none;fill:#ffe07d;fill-opacity:1;fill-rule:evenodd;stroke:#000000;stroke-width:3;stroke-linecap:round;stroke-linejoin:round;stroke-miterlimit:4;stroke-dasharray:none;stroke-dashoffset:0;stroke-opacity:1;color-rendering:auto;image-rendering:auto;shape-rendering:auto;text-rendering:auto;enable-background:accumulate;stop-color:#000000;stop-opacity:1"
         d="m -87.903799,-150.98507 5.429661,8.94841 c 0.87878,1.75781 -0.14152,3.87177 -2.06445,4.27734 l -6.49805,1.36914 1.94922,4.19532 c 0.52737,1.13586 0.29377,2.4798 -0.58594,3.37109 l -7.749346,7.73829 h -8.322866 l 10.337892,-10.4707 -2.662107,-5.72852 c -0.81255,-1.74986 0.213841,-3.80075 2.101561,-4.19922 l 6.388666,-1.3457 -3.64648,-7.28906 c -0.74154,-1.48157 -7.241122,-6.82958 -7.241122,-6.82958 z"
         id="path3604-7"
         sodipodi:nodetypes="ccccccccccccccc" />
    </g>
  </g>
</svg>
