<?xml version="1.0" encoding="UTF-8" standalone="no"?>
<svg
   sodipodi:docname="police-woman.svg"
   inkscape:version="1.2.2 (732a01da63, 2022-12-09)"
   id="svg3147"
   version="1.1"
   viewBox="0 0 150 170"
   height="170mm"
   width="150mm"
   xmlns:inkscape="http://www.inkscape.org/namespaces/inkscape"
   xmlns:sodipodi="http://sodipodi.sourceforge.net/DTD/sodipodi-0.dtd"
   xmlns:xlink="http://www.w3.org/1999/xlink"
   xmlns="http://www.w3.org/2000/svg"
   xmlns:svg="http://www.w3.org/2000/svg"
   xmlns:rdf="http://www.w3.org/1999/02/22-rdf-syntax-ns#"
   xmlns:cc="http://creativecommons.org/ns#"
   xmlns:dc="http://purl.org/dc/elements/1.1/">
  <defs
     id="defs3141">
    <pattern
       id="carreau-pt"
       patternTransform="translate(-2054.333,1959.2791)"
       height="7.6109896"
       width="8.7129582"
       patternUnits="userSpaceOnUse">
      <rect
         y="6.2746067e-06"
         x="-2.2737368e-13"
         height="7.6109834"
         width="8.7129364"
         id="rect119919"
         style="fill:#800000;fill-opacity:1;stroke:none;stroke-width:1.08628;stroke-linecap:round;stroke-linejoin:round;stroke-miterlimit:4;stroke-dasharray:none;stop-color:#000000" />
      <path
         id="path119921"
         d="M 3.0751503,7.6109858 V 0"
         style="fill:#800000;stroke:#c11a1a;stroke-width:1.81047;stroke-linecap:butt;stroke-linejoin:miter;stroke-miterlimit:4;stroke-dasharray:none;stroke-opacity:1" />
      <path
         id="path119923"
         d="M 1.3287401e-5,4.7904378 H 8.7129582"
         style="fill:#c11a1a;fill-opacity:1;stroke:#c11a1a;stroke-width:1.81047;stroke-linecap:butt;stroke-linejoin:miter;stroke-miterlimit:4;stroke-dasharray:none;stroke-opacity:1" />
    </pattern>
    <pattern
       id="pattern115842"
       patternTransform="translate(-1862,1831.9999)"
       height="85.000002"
       width="85.000037"
       patternUnits="userSpaceOnUse">
      <rect
         y="0"
         x="3.4178149e-05"
         height="85"
         width="85"
         id="rect104700"
         style="fill:#800000;fill-opacity:1;stroke:none;stroke-width:11.3386;stroke-linecap:round;stroke-linejoin:round;stroke-miterlimit:4;stroke-dasharray:none;stop-color:#000000" />
      <path
         id="path104779"
         d="M 30,84.999998 V 1.0187008e-5"
         style="fill:#800000;stroke:#c11a1a;stroke-width:18.8976;stroke-linecap:butt;stroke-linejoin:miter;stroke-miterlimit:4;stroke-dasharray:none;stroke-opacity:1" />
      <path
         id="path107256"
         d="M 0,53.500092 H 85.000025"
         style="fill:#c11a1a;fill-opacity:1;stroke:#c11a1a;stroke-width:18.8976;stroke-linecap:butt;stroke-linejoin:miter;stroke-miterlimit:4;stroke-dasharray:none;stroke-opacity:1" />
    </pattern>
    <radialGradient
       inkscape:collect="always"
       xlink:href="#linearGradient846080"
       id="radialGradient23876-5-2-4-1"
       cx="-391.23096"
       cy="602.3324"
       fx="-391.23096"
       fy="602.3324"
       r="195.66344"
       gradientTransform="matrix(0.33123089,0.00270806,-0.00156891,0.19189788,272.13527,49.54149)"
       gradientUnits="userSpaceOnUse" />
    <linearGradient
       id="linearGradient846080"
       inkscape:collect="always">
      <stop
         id="stop846072"
         offset="0"
         style="stop-color:#f8bc80;stop-opacity:1" />
      <stop
         style="stop-color:#f8bc80;stop-opacity:1"
         offset="0.70677221"
         id="stop846074" />
      <stop
         style="stop-color:#e4aa76;stop-opacity:1"
         offset="0.70677221"
         id="stop846076" />
      <stop
         id="stop846078"
         offset="1"
         style="stop-color:#e4aa76;stop-opacity:1" />
    </linearGradient>
    <radialGradient
       inkscape:collect="always"
       xlink:href="#linearGradient846080"
       id="radialGradient1872-4-6-6-9"
       cx="-213.61194"
       cy="144.48944"
       fx="-213.61194"
       fy="144.48944"
       r="29.964201"
       gradientTransform="matrix(1.544547,-0.26971894,0.45443624,2.1590227,396.72847,-286.35529)"
       gradientUnits="userSpaceOnUse" />
  </defs>
  <sodipodi:namedview
     inkscape:object-paths="true"
     inkscape:window-maximized="1"
     inkscape:window-y="-8"
     inkscape:window-x="-8"
     inkscape:window-height="1017"
     inkscape:window-width="1920"
     showgrid="false"
     inkscape:document-rotation="0"
     inkscape:current-layer="layer1"
     inkscape:document-units="mm"
     inkscape:cy="520.71429"
     inkscape:cx="219.28571"
     inkscape:zoom="0.7"
     inkscape:pageshadow="2"
     inkscape:pageopacity="0.0"
     borderopacity="1.0"
     bordercolor="#666666"
     pagecolor="#ffffff"
     id="base"
     inkscape:showpageshadow="2"
     inkscape:pagecheckerboard="0"
     inkscape:deskcolor="#d1d1d1" />
  <metadata
     id="metadata3144">
    <rdf:RDF>
      <cc:Work
         rdf:about="">
        <dc:format>image/svg+xml</dc:format>
        <dc:type
           rdf:resource="http://purl.org/dc/dcmitype/StillImage" />
      </cc:Work>
    </rdf:RDF>
  </metadata>
  <g
     id="layer1"
     inkscape:groupmode="layer"
     inkscape:label="Calque 1">
    <g
       id="g104452"
       transform="translate(-67.612263,-31.8671)"
       style="mix-blend-mode:normal">
      <path
         style="mix-blend-mode:normal;fill:#b67450;fill-opacity:1;stroke:#000000;stroke-width:3;stroke-linecap:round;stroke-linejoin:round;stroke-miterlimit:4;stroke-dasharray:none;stroke-opacity:1"
         d="m 114.67724,103.44022 c 0,0 -4.10134,-10.79876 -4.04288,-21.01281 0.0584,-10.21405 8.25284,-28.575 32.0332,-28.575 23.78036,0 31.6681,18.05065 32.03319,28.575 0.3651,10.52435 -4.15343,21.01281 -4.15343,21.01281 z"
         id="path12633-6"
         sodipodi:nodetypes="czzzcc" />
      <g
         id="g222555-2-1-9"
         transform="translate(339.2778,-15.84312)"
         style="mix-blend-mode:normal">
        <circle
           style="fill:#f8e47e;fill-opacity:1;stroke:#000000;stroke-width:3;stroke-linecap:round;stroke-linejoin:round;stroke-miterlimit:4;stroke-dasharray:none;stroke-opacity:1;stop-color:#000000"
           id="path217080-7-70-63"
           cx="-230.33279"
           cy="125.63338"
           r="4.7831883" />
        <circle
           style="fill:#f8e47e;fill-opacity:1;stroke:#000000;stroke-width:3;stroke-linecap:round;stroke-linejoin:round;stroke-miterlimit:4;stroke-dasharray:none;stroke-opacity:1;stop-color:#000000"
           id="path217080-3-0-8-1"
           cx="-162.99829"
           cy="125.63338"
           r="4.7831883" />
      </g>
      <path
         id="rect8920-8-35-7-3"
         style="mix-blend-mode:normal;fill:url(#radialGradient23876-5-2-4-1);fill-opacity:1;stroke:#000000;stroke-width:3;stroke-linecap:round;stroke-linejoin:round;stroke-miterlimit:4;stroke-dasharray:none;stroke-opacity:1;stop-color:#000000"
         d="m 130.13915,120.57516 v 14.32522 c -5.8244,8.50699 -14.8879,9.95583 -24.1903,13.26689 -13.8798,4.94035 -13.3922,12.09694 -13.3922,12.09694 v 16.3251 h 100.11122 v -16.3251 c 0,0 -0.37133,-9.0145 -13.39169,-12.09694 -10.08161,-2.38671 -16.71931,-5.95194 -23.43474,-13.26689 v -14.32522 z"
         sodipodi:nodetypes="cccccccsccc" />
      <ellipse
         ry="6.678576"
         rx="6.1759887"
         cy="96.361794"
         cx="111.54415"
         id="path861-2-70-5-8-6"
         style="color:#000000;overflow:visible;mix-blend-mode:normal;fill:#f8bc80;fill-opacity:1;stroke:#000000;stroke-width:3;stroke-linecap:round;stroke-miterlimit:4;stroke-dasharray:none;stroke-opacity:1;stop-color:#000000" />
      <ellipse
         style="color:#000000;overflow:visible;mix-blend-mode:normal;fill:#e4aa76;fill-opacity:1;stroke:#000000;stroke-width:3;stroke-linecap:round;stroke-miterlimit:4;stroke-dasharray:none;stroke-opacity:1;stop-color:#000000"
         id="path861-0-6-5-7-8-1"
         cx="173.68033"
         cy="96.361794"
         rx="6.1759887"
         ry="6.678576" />
      <path
         id="rect1621-9-3-6-8"
         style="mix-blend-mode:normal;fill:url(#radialGradient1872-4-6-6-9);fill-opacity:1;stroke:#000000;stroke-width:2.86316;stroke-linecap:round;stroke-linejoin:round;stop-color:#000000"
         d="m 134.34402,70.87334 c 8.81632,18.69571 30.02438,15.95518 36.20328,18.41003 v 14.15685 c -3.36759,16.70461 -19.75732,29.52254 -27.93505,29.52254 -8.1777,0 -25.87706,-13.75337 -27.93503,-29.52254 V 89.28337 c 18.01339,-1.8582 15.55271,-6.66365 19.6668,-18.41003 z"
         sodipodi:nodetypes="ccczccc" />
      <path
         style="mix-blend-mode:normal;fill:#000000;fill-opacity:0;stroke:#e4aa76;stroke-width:3;stroke-linecap:round;stroke-linejoin:miter;stroke-miterlimit:4;stroke-dasharray:none;stroke-opacity:1"
         d="m 139.12545,106.41603 c 0,0 2.1024,1.05833 3.4868,1.05833 1.3844,0 3.4868,-1.05833 3.4868,-1.05833"
         id="path2252-4-5-5-1-3"
         sodipodi:nodetypes="czc" />
      <g
         id="g2407-6-0-1-8"
         transform="translate(352.34847,-45.316)"
         style="mix-blend-mode:normal">
        <path
           sodipodi:arc-type="arc"
           sodipodi:open="true"
           sodipodi:end="6.2442187"
           sodipodi:start="0"
           sodipodi:ry="3.2740517"
           sodipodi:rx="2.3012009"
           sodipodi:cy="141.14864"
           sodipodi:cx="-222.59987"
           sodipodi:type="arc"
           id="path984-6-3-6-7-3"
           style="color:#000000;overflow:visible;fill:#000000;fill-opacity:1;stroke:none;stroke-width:3;stroke-linecap:round;stroke-linejoin:round;stroke-miterlimit:4;stroke-dasharray:none;stroke-opacity:1;stop-color:#000000"
           d="m -220.29867,141.14864 a 2.3012009,3.2740517 0 0 1 -2.27878,3.27389 2.3012009,3.2740517 0 0 1 -2.32318,-3.21011 2.3012009,3.2740517 0 0 1 2.23352,-3.33644 2.3012009,3.2740517 0 0 1 2.3667,3.14511" />
        <path
           style="color:#000000;overflow:visible;fill:#000000;fill-opacity:1;stroke:none;stroke-width:3;stroke-linecap:round;stroke-linejoin:round;stroke-miterlimit:4;stroke-dasharray:none;stroke-opacity:1;stop-color:#000000"
           id="path984-3-2-8-05-4-6"
           sodipodi:type="arc"
           sodipodi:cx="-196.87254"
           sodipodi:cy="141.14864"
           sodipodi:rx="2.3012009"
           sodipodi:ry="3.2740517"
           sodipodi:start="0"
           sodipodi:end="6.2442187"
           sodipodi:open="true"
           sodipodi:arc-type="arc"
           d="m -194.57134,141.14864 a 2.3012009,3.2740517 0 0 1 -2.27879,3.27389 2.3012009,3.2740517 0 0 1 -2.32318,-3.21011 2.3012009,3.2740517 0 0 1 2.23352,-3.33644 2.3012009,3.2740517 0 0 1 2.3667,3.14511" />
      </g>
      <g
         id="g66903-6-7-0-69"
         transform="translate(339.04998,-29.42146)"
         style="mix-blend-mode:normal">
        <path
           style="fill:none;stroke:#000000;stroke-width:3;stroke-linecap:round;stroke-linejoin:round;stroke-miterlimit:4;stroke-dasharray:none;stroke-opacity:1"
           d="m -185.87201,115.07238 h 5.29167"
           id="path66722-4-9-2-7" />
        <path
           style="fill:none;stroke:#000000;stroke-width:3;stroke-linecap:round;stroke-linejoin:round;stroke-miterlimit:4;stroke-dasharray:none;stroke-opacity:1"
           d="m -212.29508,115.07238 h 5.29167"
           id="path66722-1-5-79-2-6" />
      </g>
      <path
         style="mix-blend-mode:normal;fill:#000000;fill-opacity:0;stroke:#000000;stroke-width:3;stroke-linecap:round;stroke-linejoin:round;stroke-miterlimit:4;stroke-dasharray:none;stroke-opacity:1"
         d="m 142.61225,120.97416 c -4.2009,0 -7.191,-4.7625 -7.191,-4.7625 l 7.191,1.05833 7.19102,-1.05833 c 0,0 -2.99012,4.7625 -7.19102,4.7625 z"
         id="path2252-47-29-6-15"
         sodipodi:nodetypes="zcccz" />
      <g
         id="g104159"
         transform="translate(126.88024,21.49986)">
        <g
           id="g66903-13-1-7"
           transform="translate(212.19999,-50.92132)"
           style="mix-blend-mode:normal">
          <path
             style="fill:none;stroke:#000000;stroke-width:3;stroke-linecap:round;stroke-linejoin:round;stroke-miterlimit:4;stroke-dasharray:none;stroke-opacity:1"
             d="m -185.87201,115.07238 h 5.29167"
             id="path66722-5-9-9" />
          <path
             style="fill:none;stroke:#000000;stroke-width:3;stroke-linecap:round;stroke-linejoin:round;stroke-miterlimit:4;stroke-dasharray:none;stroke-opacity:1"
             d="m -212.29508,115.07238 h 5.29167"
             id="path66722-1-7-2-3" />
        </g>
        <path
           id="path69802-8-3"
           style="overflow:visible;mix-blend-mode:normal;fill:#488cc8;fill-opacity:1;stroke:#000000;stroke-width:3;stroke-linecap:round;stroke-linejoin:round;stop-color:#000000"
           d="m 60.12913,42.347844 c 6.90591,7.171811 -19.86372,15.91067 -44.36685,15.91067 -24.50314,0 -51.501856,-8.966732 -44.366855,-15.91067 l 18.086635,-17.602301 26.28022,-5.187529 28.27574,6.079164 z"
           sodipodi:nodetypes="ssscccs" />
        <path
           id="rect70531-9-9"
           style="overflow:visible;mix-blend-mode:normal;fill:#25405b;fill-opacity:1;stroke:#000000;stroke-width:3;stroke-linecap:round;stroke-linejoin:round;stop-color:#000000"
           d="m -16.363936,46.605997 c 0,0 7.860336,-7.40834 32.126216,-7.40834 24.26588,0 32.12621,7.9375 32.12621,7.9375 L 46.301,55.15609 -15.660427,55.772 Z"
           sodipodi:nodetypes="czcccc" />
        <path
           id="rect70531-8-5-3"
           style="overflow:visible;mix-blend-mode:normal;fill:#488cc8;fill-opacity:1;stroke:#000000;stroke-width:3;stroke-linecap:round;stroke-linejoin:round;stop-color:#000000"
           d="m -14.776437,55.15609 c 0,0 20.496727,-2.64583 30.538717,-2.64583 10.04199,0 30.53872,2.64583 30.53872,2.64583 0,0 -2.0336,9.83867 -30.53872,9.83867 -28.50512,0 -30.538717,-9.83867 -30.538717,-9.83867 z"
           sodipodi:nodetypes="czczc" />
        <path
           id="rect101236-2"
           style="overflow:visible;mix-blend-mode:normal;fill:#f8d062;stroke:#000000;stroke-width:3;stroke-linecap:round;stroke-linejoin:round;stroke-dasharray:none;stop-color:#000000"
           d="m 8.69413,31.256052 7.03802,-4.169517 7.03803,4.169517 c 0,8.334905 -0.13361,9.831219 -7.03803,14.290219 C 8.72897,40.849335 8.69413,39.479704 8.69413,31.256052 Z"
           sodipodi:nodetypes="ccccc" />
      </g>
      <path
         sodipodi:nodetypes="cccczc"
         d="m 123.55264,143.12851 5.92203,57.23859 h 25.61446 l 9.1604,-56.50587 c 0,0 -4.4125,10.25041 -21.27956,10.25041 -16.86706,0 -19.41733,-10.98313 -19.41733,-10.98313 z"
         style="mix-blend-mode:normal;fill:#b3b3b3;fill-opacity:1;stroke:#000000;stroke-width:3;stroke-linecap:round;stroke-linejoin:round;stroke-miterlimit:4;stroke-dasharray:none;stroke-opacity:1;stop-color:#000000"
         id="rect8920-09-0-0-2" />
      <path
         sodipodi:nodetypes="cccccccccccccccc"
         d="m 123.55281,143.12872 c -5.14586,2.82795 -12.91797,3.48866 -19.21174,5.72886 -16.7086,5.31234 -20.196972,15.0553 -18.683608,30.00952 l 1.821395,21.5 h 55.734513 v -31.49936 z m 40.69675,0.73226 c 0,0 -0.0381,0.0809 -0.0956,0.19585 l -20.94059,24.81091 v 31.49936 h 55.84221 l 0.47142,-21.5 c 2.0847,-17.17005 -4.94027,-26.91077 -18.6836,-30.00952 -5.96445,-1.41202 -12.31096,-2.68102 -16.59382,-4.9966 z"
         style="mix-blend-mode:normal;fill:#488cc8;fill-opacity:1;stroke:#000000;stroke-width:3;stroke-linecap:round;stroke-linejoin:round;stroke-miterlimit:4;stroke-dasharray:none;stroke-opacity:1;stop-color:#000000"
         id="rect8920-09-0-6-9-1" />
      <path
         style="mix-blend-mode:normal;fill:#488cc8;fill-opacity:1;fill-rule:evenodd;stroke:#000000;stroke-width:3;stroke-linecap:round;stroke-linejoin:round;stroke-miterlimit:4;stroke-dasharray:none;stroke-opacity:1"
         d="m 143.21337,168.86774 c 6.25993,-19.77214 21.45283,-23.0199 14.19526,-31.68943 l -0.45354,-4.09265 20.94632,18.11615 -11.78421,2.6386 3.04272,4.7625 c -10.12893,1.79353 -19.67035,4.2333 -25.94655,10.26483 z"
         id="path2076-0-1-7"
         sodipodi:nodetypes="ccccccc" />
      <path
         style="mix-blend-mode:normal;fill:#488cc8;fill-opacity:1;fill-rule:evenodd;stroke:#000000;stroke-width:3;stroke-linecap:round;stroke-linejoin:round;stroke-miterlimit:4;stroke-dasharray:none;stroke-opacity:1"
         d="m 143.21337,168.86774 c -6.25993,-19.77214 -21.93962,-23.0199 -14.68205,-31.68943 l 0.45354,-4.09265 -20.94632,18.11615 11.78421,2.6386 -3.04272,4.7625 c 9.05855,2.61743 18.80404,3.00232 26.43334,10.26483 z"
         id="path2076-0-1-3-6"
         sodipodi:nodetypes="ccccccc" />
      <g
         id="g104416"
         transform="translate(0,-6.879167)">
        <path
           style="mix-blend-mode:normal;fill:none;fill-rule:evenodd;stroke:#000000;stroke-width:3;stroke-linecap:round;stroke-linejoin:round;stroke-dasharray:none;stroke-opacity:1"
           d="m 106.13354,185.20416 v 5.97414 c 0,0 3.64805,-0.91419 5.28641,-0.91419 1.63835,0 5.2864,0.91419 5.2864,0.91419 0,0 3.64805,-0.91419 5.28641,-0.91419 1.63835,0 5.2864,0.91419 5.2864,0.91419 v -5.97414"
           id="path101208-5"
           sodipodi:nodetypes="cczczcc" />
        <path
           style="mix-blend-mode:normal;fill:none;fill-rule:evenodd;stroke:#000000;stroke-width:3;stroke-linecap:round;stroke-linejoin:round;stroke-dasharray:none;stroke-opacity:1"
           d="m 157.94536,185.20416 v 5.97414 c 0,0 3.64805,-0.91419 5.28641,-0.91419 1.63836,0 5.2864,0.91419 5.2864,0.91419 0,0 3.64805,-0.91419 5.28641,-0.91419 1.63835,0 5.2864,0.91419 5.2864,0.91419 v -5.97414"
           id="path101208-5-1"
           sodipodi:nodetypes="cczczcc" />
      </g>
      <path
         id="rect101236-7-1"
         style="overflow:visible;mix-blend-mode:normal;fill:#f8d062;stroke:#000000;stroke-width:2;stroke-linecap:round;stroke-linejoin:round;stroke-dasharray:none;stop-color:#000000"
         d="m 167.40316,167.07735 4.5758,-2.71083 4.57582,2.71083 c 0,5.41899 -0.0869,6.39183 -4.57582,9.29088 -4.55316,-3.05375 -4.5758,-3.94422 -4.5758,-9.29088 z"
         sodipodi:nodetypes="ccccc" />
      <path
         style="fill:none;fill-rule:evenodd;stroke:#000000;stroke-width:3;stroke-linecap:round;stroke-linejoin:miter;stroke-dasharray:none;stroke-opacity:1"
         d="m 100.72338,181.24964 c -1.181117,6.32834 -0.33546,13.55628 4.04491,19.11746"
         id="path104179"
         sodipodi:nodetypes="cc" />
      <path
         style="mix-blend-mode:normal;fill:none;fill-rule:evenodd;stroke:#000000;stroke-width:3;stroke-linecap:round;stroke-linejoin:miter;stroke-dasharray:none;stroke-opacity:1"
         d="m 184.50115,181.24964 c 1.18112,6.32834 0.33546,13.55628 -4.04491,19.11746"
         id="path104179-7"
         sodipodi:nodetypes="cc" />
    </g>
  </g>
</svg>
