<?xml version="1.0" encoding="UTF-8" standalone="no"?>
<svg
   sodipodi:docname="sailor-woman.svg"
   inkscape:version="1.2.2 (732a01da63, 2022-12-09)"
   id="svg3147"
   version="1.1"
   viewBox="0 0 150 170"
   height="170mm"
   width="150mm"
   xmlns:inkscape="http://www.inkscape.org/namespaces/inkscape"
   xmlns:sodipodi="http://sodipodi.sourceforge.net/DTD/sodipodi-0.dtd"
   xmlns:xlink="http://www.w3.org/1999/xlink"
   xmlns="http://www.w3.org/2000/svg"
   xmlns:svg="http://www.w3.org/2000/svg"
   xmlns:rdf="http://www.w3.org/1999/02/22-rdf-syntax-ns#"
   xmlns:cc="http://creativecommons.org/ns#"
   xmlns:dc="http://purl.org/dc/elements/1.1/">
  <defs
     id="defs3141">
    <pattern
       id="carreau-pt"
       patternTransform="translate(-2054.333,1959.2791)"
       height="7.6109896"
       width="8.7129582"
       patternUnits="userSpaceOnUse">
      <rect
         y="6.2746067e-06"
         x="-2.2737368e-13"
         height="7.6109834"
         width="8.7129364"
         id="rect119919"
         style="fill:#800000;fill-opacity:1;stroke:none;stroke-width:1.08628;stroke-linecap:round;stroke-linejoin:round;stroke-miterlimit:4;stroke-dasharray:none;stop-color:#000000" />
      <path
         id="path119921"
         d="M 3.0751503,7.6109858 V 0"
         style="fill:#800000;stroke:#c11a1a;stroke-width:1.81047;stroke-linecap:butt;stroke-linejoin:miter;stroke-miterlimit:4;stroke-dasharray:none;stroke-opacity:1" />
      <path
         id="path119923"
         d="M 1.3287401e-5,4.7904378 H 8.7129582"
         style="fill:#c11a1a;fill-opacity:1;stroke:#c11a1a;stroke-width:1.81047;stroke-linecap:butt;stroke-linejoin:miter;stroke-miterlimit:4;stroke-dasharray:none;stroke-opacity:1" />
    </pattern>
    <pattern
       id="pattern115842"
       patternTransform="translate(-1862,1831.9999)"
       height="85.000002"
       width="85.000037"
       patternUnits="userSpaceOnUse">
      <rect
         y="0"
         x="3.4178149e-05"
         height="85"
         width="85"
         id="rect104700"
         style="fill:#800000;fill-opacity:1;stroke:none;stroke-width:11.3386;stroke-linecap:round;stroke-linejoin:round;stroke-miterlimit:4;stroke-dasharray:none;stop-color:#000000" />
      <path
         id="path104779"
         d="M 30,84.999998 V 1.0187008e-5"
         style="fill:#800000;stroke:#c11a1a;stroke-width:18.8976;stroke-linecap:butt;stroke-linejoin:miter;stroke-miterlimit:4;stroke-dasharray:none;stroke-opacity:1" />
      <path
         id="path107256"
         d="M 0,53.500092 H 85.000025"
         style="fill:#c11a1a;fill-opacity:1;stroke:#c11a1a;stroke-width:18.8976;stroke-linecap:butt;stroke-linejoin:miter;stroke-miterlimit:4;stroke-dasharray:none;stroke-opacity:1" />
    </pattern>
    <radialGradient
       inkscape:collect="always"
       xlink:href="#linearGradient853"
       id="radialGradient23876-6-2-7-2"
       cx="-391.23096"
       cy="602.3324"
       fx="-391.23096"
       fy="602.3324"
       r="195.66344"
       gradientTransform="matrix(0.33123089,0.00270806,-0.00156891,0.19189788,242.3705,44.00379)"
       gradientUnits="userSpaceOnUse" />
    <linearGradient
       id="linearGradient853"
       inkscape:collect="always">
      <stop
         id="stop849"
         offset="0"
         style="stop-color:#ffbd86;stop-opacity:1;" />
      <stop
         style="stop-color:#ffbd86;stop-opacity:1"
         offset="0.70677221"
         id="stop859" />
      <stop
         style="stop-color:#f6a96c;stop-opacity:1"
         offset="0.70677215"
         id="stop857" />
      <stop
         id="stop851"
         offset="1"
         style="stop-color:#f6a96c;stop-opacity:1" />
    </linearGradient>
    <radialGradient
       inkscape:collect="always"
       xlink:href="#linearGradient853"
       id="radialGradient1872-5-1-2-2"
       cx="-213.61194"
       cy="144.48944"
       fx="-213.61194"
       fy="144.48944"
       r="29.964201"
       gradientTransform="matrix(1.544547,-0.26971894,0.45443624,2.1590227,366.9637,-291.893)"
       gradientUnits="userSpaceOnUse" />
    <pattern
       inkscape:collect="always"
       xlink:href="#Strips1_1white-3-9-9"
       id="pattern13769-4-5-6"
       patternTransform="matrix(0,7.198607,-9.1230218,0,58.16031,75.462147)" />
    <pattern
       inkscape:collect="always"
       patternUnits="userSpaceOnUse"
       width="2"
       height="1"
       patternTransform="translate(0,0) scale(10,10)"
       id="Strips1_1white-3-9-9"
       inkscape:stockid="Stripes 1:1 white">
      <rect
         style="fill:white;stroke:none"
         x="0"
         y="-0.5"
         width="1"
         height="2"
         id="rect11490-0-6-6" />
    </pattern>
  </defs>
  <sodipodi:namedview
     inkscape:object-paths="true"
     inkscape:window-maximized="1"
     inkscape:window-y="-8"
     inkscape:window-x="-8"
     inkscape:window-height="1017"
     inkscape:window-width="1920"
     showgrid="false"
     inkscape:document-rotation="0"
     inkscape:current-layer="layer1"
     inkscape:document-units="mm"
     inkscape:cy="520.71429"
     inkscape:cx="219.28571"
     inkscape:zoom="0.7"
     inkscape:pageshadow="2"
     inkscape:pageopacity="0.0"
     borderopacity="1.0"
     bordercolor="#666666"
     pagecolor="#ffffff"
     id="base"
     inkscape:showpageshadow="2"
     inkscape:pagecheckerboard="0"
     inkscape:deskcolor="#d1d1d1" />
  <metadata
     id="metadata3144">
    <rdf:RDF>
      <cc:Work
         rdf:about="">
        <dc:format>image/svg+xml</dc:format>
        <dc:type
           rdf:resource="http://purl.org/dc/dcmitype/StillImage" />
      </cc:Work>
    </rdf:RDF>
  </metadata>
  <g
     id="layer1"
     inkscape:groupmode="layer"
     inkscape:label="Calque 1">
    <g
       id="g56072"
       transform="translate(-38.17268,-22.46888)"
       style="mix-blend-mode:normal">
      <path
         id="path609335-67-3-6"
         style="mix-blend-mode:normal;fill:#b78060;fill-opacity:1;stroke:#000000;stroke-width:3;stroke-linecap:round;stroke-linejoin:round;stop-color:#000000"
         d="M 114.1339,153.2155 C 58.5245,139.62652 98.9152,120.40834 81.7794,84.14552 76.3953,54.3882 94.1095,39.57127 105.2987,44.2407 c 8.8713,-0.62132 14.9898,4.33094 19.7929,11.08444 6.658,9.36173 10.7885,22.18465 16.2201,28.42052 -10.3444,39.01884 27.4633,52.69452 -27.1778,69.46984 z"
         sodipodi:nodetypes="cccscc" />
      <path
         id="rect8920-58-4-7-9"
         style="mix-blend-mode:normal;fill:url(#radialGradient23876-6-2-7-2);fill-opacity:1;stroke:#000000;stroke-width:3;stroke-linecap:round;stroke-linejoin:round;stroke-miterlimit:4;stroke-dasharray:none;stroke-opacity:1;stop-color:#000000"
         d="m 100.3743,115.03745 v 14.32522 c -5.8243,8.50699 -14.8878,9.95583 -24.1902,13.26689 -13.8799,4.94035 -13.3922,12.09694 -13.3922,12.09694 -0.4439,11.9548 -2.0617,23.57635 0,36.24238 h 100.1112 c 3.3611,-15.66013 0.4987,-24.69273 0,-36.24238 0,0 -0.3713,-9.0145 -13.3917,-12.09694 -10.0816,-2.38671 -16.7192,-5.95194 -23.4347,-13.26689 v -14.32522 z"
         sodipodi:nodetypes="cccccccsccc" />
      <g
         id="g2217-3-8-6-6"
         transform="translate(314.7893,-64.17462)"
         style="mix-blend-mode:normal">
        <ellipse
           ry="6.678576"
           rx="6.1759887"
           cy="154.99872"
           cx="-233.00987"
           id="path861-2-6-0-0-3"
           style="color:#000000;overflow:visible;fill:#ffbd86;fill-opacity:1;stroke:#000000;stroke-width:3;stroke-linecap:round;stroke-miterlimit:4;stroke-dasharray:none;stroke-opacity:1;stop-color:#000000" />
        <ellipse
           style="color:#000000;overflow:visible;fill:#f6a96c;fill-opacity:1;stroke:#000000;stroke-width:3;stroke-linecap:round;stroke-miterlimit:4;stroke-dasharray:none;stroke-opacity:1;stop-color:#000000"
           id="path861-0-6-8-2-6-2"
           cx="-170.87379"
           cy="154.99872"
           rx="6.1759887"
           ry="6.678576" />
      </g>
      <path
         id="rect1621-92-5-5-0"
         style="mix-blend-mode:normal;fill:url(#radialGradient1872-5-1-2-2);stroke:#000000;stroke-width:2.86316;stroke-linecap:round;stroke-linejoin:round;stop-color:#000000"
         d="m 113.2888,60.04818 c 10.2606,-4.37127 28.0229,6.36108 28.0229,23.69748 v 14.15685 c 0,12.41481 -22.052,29.52254 -28.4642,29.52254 -6.4122,0 -28.4641,-14.81264 -28.4641,-29.52254 V 83.74566 C 100.7063,71.59839 105.058,74.2344 113.2888,60.04818 Z"
         sodipodi:nodetypes="csszccc" />
      <path
         style="mix-blend-mode:normal;fill:none;stroke:#000000;stroke-width:3;stroke-linecap:round;stroke-linejoin:miter;stroke-miterlimit:4;stroke-dasharray:none;stroke-opacity:1"
         d="m 107.7732,111.73228 c 0,0 2.872,0.67194 5.0743,0.52917 2.2023,-0.14277 5.0744,-1.05834 5.0744,-1.05834"
         id="path2252-8-3-1-9"
         sodipodi:nodetypes="czc" />
      <path
         style="mix-blend-mode:normal;fill:#000000;fill-opacity:0;stroke:#f6a96c;stroke-width:3;stroke-linecap:round;stroke-linejoin:miter;stroke-miterlimit:4;stroke-dasharray:none;stroke-opacity:1"
         d="m 109.3607,100.34915 c 0,0 2.1024,1.05833 3.4868,1.05833 1.3844,0 3.4868,-1.05833 3.4868,-1.05833"
         id="path2252-4-57-1-8-0"
         sodipodi:nodetypes="czc" />
      <g
         id="g2407-3-4-2-6"
         transform="translate(322.5837,-50.85371)"
         style="mix-blend-mode:normal">
        <path
           sodipodi:arc-type="arc"
           sodipodi:open="true"
           sodipodi:end="6.2442187"
           sodipodi:start="0"
           sodipodi:ry="3.2740517"
           sodipodi:rx="2.3012009"
           sodipodi:cy="141.14864"
           sodipodi:cx="-222.59987"
           sodipodi:type="arc"
           id="path984-6-9-6-6-2"
           style="color:#000000;overflow:visible;fill:#000000;fill-opacity:1;stroke:none;stroke-width:3;stroke-linecap:round;stroke-linejoin:round;stroke-miterlimit:4;stroke-dasharray:none;stroke-opacity:1;stop-color:#000000"
           d="m -220.29867,141.14864 a 2.3012009,3.2740517 0 0 1 -2.27878,3.27389 2.3012009,3.2740517 0 0 1 -2.32318,-3.21011 2.3012009,3.2740517 0 0 1 2.23352,-3.33644 2.3012009,3.2740517 0 0 1 2.3667,3.14511" />
        <path
           style="color:#000000;overflow:visible;fill:#000000;fill-opacity:1;stroke:none;stroke-width:3;stroke-linecap:round;stroke-linejoin:round;stroke-miterlimit:4;stroke-dasharray:none;stroke-opacity:1;stop-color:#000000"
           id="path984-3-2-1-5-8-4"
           sodipodi:type="arc"
           sodipodi:cx="-196.87254"
           sodipodi:cy="141.14864"
           sodipodi:rx="2.3012009"
           sodipodi:ry="3.2740517"
           sodipodi:start="0"
           sodipodi:end="6.2442187"
           sodipodi:open="true"
           sodipodi:arc-type="arc"
           d="m -194.57134,141.14864 a 2.3012009,3.2740517 0 0 1 -2.27879,3.27389 2.3012009,3.2740517 0 0 1 -2.32318,-3.21011 2.3012009,3.2740517 0 0 1 2.23352,-3.33644 2.3012009,3.2740517 0 0 1 2.3667,3.14511" />
      </g>
      <g
         id="g66903-1-1-2-5"
         transform="translate(309.2852,-34.95916)"
         style="mix-blend-mode:normal">
        <path
           style="fill:none;stroke:#000000;stroke-width:3;stroke-linecap:round;stroke-linejoin:round;stroke-miterlimit:4;stroke-dasharray:none;stroke-opacity:1"
           d="m -185.87201,115.07238 c 1.95754,-0.36547 3.91508,0.72908 5.87262,2.20759"
           id="path66722-3-2-7-4"
           sodipodi:nodetypes="cc" />
        <path
           style="fill:none;stroke:#000000;stroke-width:3;stroke-linecap:round;stroke-linejoin:round;stroke-miterlimit:4;stroke-dasharray:none;stroke-opacity:1"
           d="m -213.1084,116.81522 c 1.6557,-1.33954 3.52608,-2.24971 6.10499,-1.74284"
           id="path66722-1-6-6-6-1"
           sodipodi:nodetypes="cc" />
      </g>
      <path
         style="mix-blend-mode:normal;fill:#b28060;fill-opacity:1;stroke:#000000;stroke-width:3;stroke-linecap:round;stroke-linejoin:round;stroke-miterlimit:4;stroke-dasharray:none;stroke-opacity:1"
         d="m 105.2987,44.2407 c -3.042,5.62159 0.2288,15.28658 5.7624,19.22876 8.5477,6.08947 24.9112,9.06621 30.2506,20.2762 2.5439,-7.57554 2.295,-17.90924 -1.158,-27.78805 -5.35,-15.30633 -29.5118,-21.59107 -34.855,-11.71691 z"
         id="path195982-2"
         sodipodi:nodetypes="sscss" />
      <path
         id="rect1621-7-1-02-2-9"
         style="mix-blend-mode:normal;fill:#75b5ed;fill-opacity:1;stroke:#000000;stroke-width:3;stroke-linecap:round;stroke-linejoin:round;stroke-dasharray:none;stop-color:#000000"
         d="m 111.97204,39.844075 c 17.16957,0 30.99202,10.941639 30.99202,28.11122 l -30.99202,-3.456962 -30.992014,3.456962 c 0,-17.169581 13.822437,-28.11123 30.992014,-28.11122 z"
         sodipodi:nodetypes="scccs" />
      <path
         id="rect43743-5"
         style="overflow:visible;mix-blend-mode:normal;fill:#ffffff;stroke:#000000;stroke-width:3;stroke-linecap:round;stroke-linejoin:round;stroke-dasharray:none;stop-color:#000000"
         d="m 74.642256,56.975592 c 0,0 25.0245,-5.761607 37.329784,-5.761607 12.30528,0 37.32979,5.761607 37.32979,5.761607 l -5.76161,17.893627 c 0,0 -20.98255,-5.185443 -31.56818,-5.185443 -10.58564,0 -31.568178,5.185443 -31.568178,5.185443 z"
         sodipodi:nodetypes="czcczcc" />
      <path
         style="mix-blend-mode:multiply;fill:#488cc8;fill-opacity:1;fill-rule:evenodd;stroke:none;stroke-width:0.264583px;stroke-linecap:butt;stroke-linejoin:miter;stroke-opacity:1"
         d="m 78.511123,68.991003 -3.868867,-12.015411 37.329784,-5.761607 37.32979,5.761607 -4.38422,12.015411 c 0,0 -22.00298,-5.291667 -33.21391,-5.291667 -11.21093,10e-7 -33.2139,5.291667 -33.2139,5.291667 v 0 0 0 0"
         id="path55253"
         sodipodi:nodetypes="ccccczccccc" />
      <ellipse
         style="color:#000000;overflow:visible;mix-blend-mode:normal;fill:#ffffff;fill-opacity:1;stroke:#000000;stroke-width:3;stroke-linecap:round;stroke-linejoin:round;stroke-dasharray:none;stop-color:#000000"
         id="path49124-3"
         cx="111.97203"
         cy="61.153172"
         rx="5.6855555"
         ry="5.5700159" />
      <g
         id="g56026">
        <path
           style="mix-blend-mode:normal;fill:#488cc8;fill-opacity:1;fill-rule:evenodd;stroke:#000000;stroke-width:3;stroke-linecap:round;stroke-linejoin:round;stroke-dasharray:none;stroke-opacity:1"
           d="m 59.78619,166.80524 17.24724,1.89728 0.0901,7.10264 -17.30994,-2.15258 z"
           id="path40116-6"
           sodipodi:nodetypes="ccccc" />
        <path
           style="mix-blend-mode:normal;fill:#488cc8;fill-opacity:1;fill-rule:evenodd;stroke:#000000;stroke-width:3;stroke-linecap:round;stroke-linejoin:round;stroke-dasharray:none;stroke-opacity:1"
           d="m 166.59437,166.93577 -17.7764,1.36811 -0.0901,7.10264 17.83911,-1.62341 z"
           id="path40116-4-1"
           sodipodi:nodetypes="ccccc" />
        <path
           sodipodi:nodetypes="ccccccccccsczcc"
           d="m 90.10231,137.0772 c -3.8404,2.3108 -8.19119,3.59023 -13.47139,5.46964 -13.8798,4.94036 -16.038,12.09694 -16.038,12.09694 -0.92373,8.10716 -0.88498,9.17173 -0.80673,12.16146 l 17.24724,1.89728 c -2.467527,11.11051 1.335761,15.94942 4.04265,22.26636 h 65.02135 c 2.22934,-6.23251 5.48312,-11.44059 2.72057,-22.665 l 17.77637,-1.36811 c -0.10375,-2.54096 -0.63465,-4.688 -1.12767,-12.29199 0,0 -2.488,-9.0145 -15.5084,-12.09694 -5.87245,-1.39024 -9.67868,-3.18034 -13.16051,-5.87847 0,0 -6.81867,13.86082 -23.57239,13.86082 -16.75373,0 -23.12303,-13.45199 -23.12303,-13.45199 z"
           style="mix-blend-mode:normal;fill:#75b5ed;fill-opacity:1;stroke:#000000;stroke-width:3;stroke-linecap:round;stroke-linejoin:round;stroke-miterlimit:4;stroke-dasharray:none;stroke-opacity:1;stop-color:#000000"
           id="rect8920-5-2-6-8-4-4-3-3-8-8" />
        <path
           sodipodi:nodetypes="ccccccccccsczcc"
           d="m 90.10231,137.0772 c -3.8404,2.3108 -8.19119,3.59023 -13.47139,5.46964 -13.8798,4.94036 -16.038,12.09694 -16.038,12.09694 -0.92373,8.10716 -0.88498,9.17173 -0.80673,12.16146 l 17.24724,1.89728 c -2.467527,11.11051 1.335761,15.94942 4.04265,22.26636 h 65.02135 c 2.22934,-6.23251 5.48312,-11.44059 2.72057,-22.665 l 17.77637,-1.36811 c -0.10375,-2.54096 -0.63465,-4.688 -1.12767,-12.29199 0,0 -2.488,-9.0145 -15.5084,-12.09694 -5.87245,-1.39024 -9.67868,-3.18034 -13.16051,-5.87847 0,0 -6.81867,13.86082 -23.57239,13.86082 -16.75373,0 -23.12303,-13.45199 -23.12303,-13.45199 z"
           style="mix-blend-mode:normal;fill:url(#pattern13769-4-5-6);fill-opacity:1;stroke:#000000;stroke-width:3;stroke-linecap:round;stroke-linejoin:round;stroke-miterlimit:4;stroke-dasharray:none;stroke-opacity:1;stop-color:#000000"
           id="rect8920-5-2-6-8-4-4-3-3-8" />
        <path
           id="path36022-3"
           style="mix-blend-mode:normal;fill:#488cc8;fill-opacity:1;fill-rule:evenodd;stroke:#000000;stroke-width:3;stroke-linecap:round;stroke-linejoin:round;stroke-dasharray:none;stroke-opacity:1"
           d="m 95.76042,133.3924 c -6.28537,2.91788 -12.66654,5.58698 -19.12958,8.09615 17.37129,3.15516 24.42817,10.9518 36.59466,16.44912 12.14329,-5.51498 21.44291,-12.68877 36.59415,-16.44912 -6.46304,-2.50917 -12.84369,-5.17827 -19.12906,-8.09615 0,0 -13.51097,17.13694 -17.46509,17.13694 -3.95412,0 -17.46508,-17.13694 -17.46508,-17.13694 z"
           sodipodi:nodetypes="ccccczc" />
        <path
           style="mix-blend-mode:normal;fill:#488cc8;fill-opacity:1;fill-rule:evenodd;stroke:#000000;stroke-width:3;stroke-linecap:round;stroke-linejoin:round;stroke-dasharray:none;stroke-opacity:1"
           d="m 102.57892,179.556 c 0.95006,-4.38489 11.89061,-10.37343 10.94055,-25.5013 -11.09044,8.11169 -16.46424,12.46722 -10.94055,25.5013 z"
           id="path39366-0"
           sodipodi:nodetypes="ccc" />
        <path
           style="mix-blend-mode:normal;fill:#488cc8;fill-opacity:1;fill-rule:evenodd;stroke:#000000;stroke-width:3;stroke-linecap:round;stroke-linejoin:round;stroke-dasharray:none;stroke-opacity:1"
           d="m 126.43322,174.8057 c -3.25676,-2.79833 -13.86381,-5.62313 -12.91375,-20.751 11.09044,8.11169 14.05255,7.27843 12.91375,20.751 z"
           id="path39366-7-8"
           sodipodi:nodetypes="ccc" />
        <ellipse
           style="color:#000000;overflow:visible;mix-blend-mode:normal;fill:#488cc8;fill-opacity:1;stroke:#000000;stroke-width:3;stroke-linecap:round;stroke-linejoin:round;stroke-dasharray:none;stop-color:#000000"
           id="path37912-1"
           cx="113.51947"
           cy="154.05469"
           rx="5.2018194"
           ry="5.3829494" />
      </g>
    </g>
  </g>
</svg>
