<?xml version="1.0" encoding="UTF-8" standalone="no"?>
<svg
   sodipodi:docname="west-gbu-thebad.svg"
   inkscape:version="1.2.2 (732a01da63, 2022-12-09)"
   id="svg3147"
   version="1.1"
   viewBox="0 0 150 170"
   height="170mm"
   width="150mm"
   xmlns:inkscape="http://www.inkscape.org/namespaces/inkscape"
   xmlns:sodipodi="http://sodipodi.sourceforge.net/DTD/sodipodi-0.dtd"
   xmlns:xlink="http://www.w3.org/1999/xlink"
   xmlns="http://www.w3.org/2000/svg"
   xmlns:svg="http://www.w3.org/2000/svg"
   xmlns:rdf="http://www.w3.org/1999/02/22-rdf-syntax-ns#"
   xmlns:cc="http://creativecommons.org/ns#"
   xmlns:dc="http://purl.org/dc/elements/1.1/">
  <defs
     id="defs3141">
    <pattern
       id="carreau-pt"
       patternTransform="translate(-2054.333,1959.2791)"
       height="7.6109896"
       width="8.7129582"
       patternUnits="userSpaceOnUse">
      <rect
         y="6.2746067e-06"
         x="-2.2737368e-13"
         height="7.6109834"
         width="8.7129364"
         id="rect119919"
         style="fill:#800000;fill-opacity:1;stroke:none;stroke-width:1.08628;stroke-linecap:round;stroke-linejoin:round;stroke-miterlimit:4;stroke-dasharray:none;stop-color:#000000" />
      <path
         id="path119921"
         d="M 3.0751503,7.6109858 V 0"
         style="fill:#800000;stroke:#c11a1a;stroke-width:1.81047;stroke-linecap:butt;stroke-linejoin:miter;stroke-miterlimit:4;stroke-dasharray:none;stroke-opacity:1" />
      <path
         id="path119923"
         d="M 1.3287401e-5,4.7904378 H 8.7129582"
         style="fill:#c11a1a;fill-opacity:1;stroke:#c11a1a;stroke-width:1.81047;stroke-linecap:butt;stroke-linejoin:miter;stroke-miterlimit:4;stroke-dasharray:none;stroke-opacity:1" />
    </pattern>
    <pattern
       id="pattern115842"
       patternTransform="translate(-1862,1831.9999)"
       height="85.000002"
       width="85.000037"
       patternUnits="userSpaceOnUse">
      <rect
         y="0"
         x="3.4178149e-05"
         height="85"
         width="85"
         id="rect104700"
         style="fill:#800000;fill-opacity:1;stroke:none;stroke-width:11.3386;stroke-linecap:round;stroke-linejoin:round;stroke-miterlimit:4;stroke-dasharray:none;stop-color:#000000" />
      <path
         id="path104779"
         d="M 30,84.999998 V 1.0187008e-5"
         style="fill:#800000;stroke:#c11a1a;stroke-width:18.8976;stroke-linecap:butt;stroke-linejoin:miter;stroke-miterlimit:4;stroke-dasharray:none;stroke-opacity:1" />
      <path
         id="path107256"
         d="M 0,53.500092 H 85.000025"
         style="fill:#c11a1a;fill-opacity:1;stroke:#c11a1a;stroke-width:18.8976;stroke-linecap:butt;stroke-linejoin:miter;stroke-miterlimit:4;stroke-dasharray:none;stroke-opacity:1" />
    </pattern>
    <radialGradient
       inkscape:collect="always"
       xlink:href="#linearGradient228518"
       id="radialGradient1872-4-64-90"
       cx="-213.44748"
       cy="162.63844"
       fx="-213.44748"
       fy="162.63844"
       r="29.964201"
       gradientTransform="matrix(1.0177436,-0.63476612,0.42206702,0.66271963,1742.277,-255.09051)"
       gradientUnits="userSpaceOnUse" />
    <linearGradient
       id="linearGradient228518"
       inkscape:collect="always">
      <stop
         id="stop228510"
         offset="0"
         style="stop-color:#e4aa76;stop-opacity:1" />
      <stop
         style="stop-color:#e2aa75;stop-opacity:1"
         offset="0.70677221"
         id="stop228512" />
      <stop
         style="stop-color:#d09a6f;stop-opacity:1"
         offset="0.70677221"
         id="stop228514" />
      <stop
         id="stop228516"
         offset="1"
         style="stop-color:#d1996c;stop-opacity:1" />
    </linearGradient>
  </defs>
  <sodipodi:namedview
     inkscape:snap-intersection-paths="true"
     inkscape:snap-smooth-nodes="true"
     inkscape:object-paths="true"
     inkscape:window-maximized="1"
     inkscape:window-y="-8"
     inkscape:window-x="-8"
     inkscape:window-height="1009"
     inkscape:window-width="1920"
     showgrid="false"
     inkscape:document-rotation="0"
     inkscape:current-layer="g1284"
     inkscape:document-units="mm"
     inkscape:cy="286.88332"
     inkscape:cx="83.842661"
     inkscape:zoom="0.49497475"
     inkscape:pageshadow="2"
     inkscape:pageopacity="0.0"
     borderopacity="1.0"
     bordercolor="#666666"
     pagecolor="#ffffff"
     id="base"
     inkscape:showpageshadow="0"
     inkscape:pagecheckerboard="0"
     inkscape:deskcolor="#d1d1d1" />
  <metadata
     id="metadata3144">
    <rdf:RDF>
      <cc:Work
         rdf:about="">
        <dc:format>image/svg+xml</dc:format>
        <dc:type
           rdf:resource="http://purl.org/dc/dcmitype/StillImage" />
        <dc:title />
      </cc:Work>
    </rdf:RDF>
  </metadata>
  <g
     id="layer1"
     inkscape:groupmode="layer"
     inkscape:label="Calque 1">
    <g
       id="g1284"
       transform="translate(154.0147,-81.24178)">
      <g
         id="g39408"
         style="mix-blend-mode:normal"
         transform="translate(-1673.9398,177.37772)">
        <path
           id="rect8520"
           style="stroke:#000000;stroke-width:3;stroke-linecap:round;stroke-linejoin:round;stroke-dasharray:none"
           d="m 1568.4013,-70.242894 c 0,0 6.9743,-3.704167 25.4414,-3.704167 18.4671,0 25.4414,3.704167 25.4414,3.704167 l 1.0583,30.53271 h -52.9994 z"
           sodipodi:nodetypes="czcccc" />
        <path
           id="rect8520-1"
           style="mix-blend-mode:normal;fill:#333333;stroke:#000000;stroke-width:3;stroke-linecap:round;stroke-linejoin:round;stroke-dasharray:none"
           d="m 1567.8721,-54.976539 c 0,0 7.5035,-3.753958 25.9706,-3.753958 18.4671,0 25.9705,3.753958 25.9705,3.753958 l 0.5292,15.266355 h -52.9994 z"
           sodipodi:nodetypes="czcccc" />
        <path
           id="path4527"
           style="stroke:#000000;stroke-width:3;stroke-linecap:round;stroke-linejoin:round"
           d="m 1647.8116,-38.528637 c -3.7651,5.216306 -23.778,11.64827 -53.1097,11.648275 -29.3317,-5e-6 -57.8109,-4.785986 -53.1097,-11.648275 4.7012,-6.862289 118.4838,-16.991647 106.2194,0 z"
           sodipodi:nodetypes="sszs" />
        <path
           id="rect8920-9-13-6-0-81"
           style="mix-blend-mode:normal;fill:#e3aa76;fill-opacity:1;stroke:#000000;stroke-width:3;stroke-linecap:round;stroke-linejoin:round;stroke-miterlimit:4;stroke-dasharray:none;stroke-opacity:1;stop-color:#000000"
           d="m 1582.2287,-3.650093 v 14.32522 c -5.8243,8.50699 -14.8878,9.95583 -24.1902,13.26689 -13.8799,4.94035 -13.3922,12.09694 -13.3922,12.09694 -0.6204,12.52196 -5.1122,27.624843 0,36.325103 h 100.1112 c 4.3856,-4.79897 4.1658,-17.27369 0,-36.325103 0,0 -0.3714,-9.0145 -13.3917,-12.09694 -10.0816,-2.38671 -16.7193,-5.95194 -23.4348,-13.26689 v -14.32522 z"
           sodipodi:nodetypes="cccccccsccc" />
        <path
           sodipodi:nodetypes="ccccccccc"
           id="path5955-6-7-53"
           d="m 1575.6549,17.021007 6.5738,-6.34588 v -14.32522 h 25.7023 v 14.32522 c 4.0396,7.43179 21.4405,13.04545 34.1514,19.2973 7.4676,13.56652 5.5796,34.859403 2.6751,42.391633 -4.833,-18.67683 5.3424,-39.066603 -24.1821,-52.073543 0,0 -23.166,-11.05522 -44.9205,-3.26951 z"
           style="mix-blend-mode:darken;fill:#d09a6e;fill-opacity:1;stroke:none;stroke-width:0.264583px;stroke-linecap:butt;stroke-linejoin:miter;stroke-opacity:1" />
        <ellipse
           ry="6.678576"
           rx="6.1759887"
           cy="-24.159286"
           cx="1565.2213"
           id="path861-2-70-6-14"
           style="color:#000000;overflow:visible;mix-blend-mode:normal;fill:#e3aa75;fill-opacity:1;stroke:#000000;stroke-width:3;stroke-linecap:round;stroke-miterlimit:4;stroke-dasharray:none;stroke-opacity:1;stop-color:#000000" />
        <ellipse
           style="color:#000000;overflow:visible;mix-blend-mode:normal;fill:#d09a6e;fill-opacity:1;stroke:#000000;stroke-width:3;stroke-linecap:round;stroke-miterlimit:4;stroke-dasharray:none;stroke-opacity:1;stop-color:#000000"
           id="path861-0-6-5-2-5"
           cx="1624.1824"
           cy="-24.159286"
           rx="6.1759887"
           ry="6.678576" />
        <path
           id="rect1621-9-52-47"
           style="mix-blend-mode:normal;fill:url(#radialGradient1872-4-64-90);fill-opacity:1;stroke:#000000;stroke-width:2.86316;stroke-linecap:round;stroke-linejoin:round;stop-color:#000000"
           d="m 1594.7019,-47.001914 c 9.8307,0 29.1632,0.09325 27.4059,15.7642 l -1.5875,14.15685 c -1.7573,15.6709467 -17.6566,28.464207 -25.8184,28.464207 -8.1618,0 -24.0611,-12.7932603 -25.8184,-28.464207 l -1.5875,-14.15685 c -1.7573,-15.67095 17.5752,-15.7642 27.4059,-15.7642 z"
           sodipodi:nodetypes="zsszssz" />
        <path
           style="mix-blend-mode:normal;fill:none;stroke:#000000;stroke-width:3;stroke-linecap:round;stroke-linejoin:miter;stroke-miterlimit:4;stroke-dasharray:none;stroke-opacity:1"
           d="m 1590.6513,-4.3094295 c 2.5032,1.5839906 5.6694,1.2655097 8.1008,-0.9945709"
           id="path2252-47-2-0"
           sodipodi:nodetypes="cc" />
        <path
           style="fill:none;stroke:#d09a6e;stroke-width:3;stroke-linecap:round;stroke-linejoin:round;stroke-dasharray:none;stroke-opacity:1"
           d="m 1612.1726,-30.576612 -4.1966,2.850864 5.1674,1.661929"
           id="path9888"
           sodipodi:nodetypes="ccc" />
        <path
           style="mix-blend-mode:darken;fill:none;stroke:#d09a6e;stroke-width:3;stroke-linecap:round;stroke-linejoin:round;stroke-dasharray:none;stroke-opacity:1"
           d="m 1615.7794,-17.681995 -4.1966,2.850864 -2.5672,15.08813811"
           id="path9888-7"
           sodipodi:nodetypes="ccc" />
        <path
           style="mix-blend-mode:darken;fill:#d09a6e;fill-opacity:1;stroke:#d09a6e;stroke-width:2;stroke-linecap:round;stroke-linejoin:round;stroke-dasharray:none;stroke-opacity:1"
           d="m 1568.5722,-19.857098 c 2.7737,1.210569 2.3184,4.117843 8.9371,3.308067 l 2.8285,13.7573416 c 2.1504,1.85670657 7.0696,4.0858487 12.1855,4.33764 -5.6863,5.0794269 0.6346,7.8226941 2.1786,9.8373924 -12.4732,-4.1666591 -23.286,-19.5816192 -26.1297,-31.240441 z"
           id="path9888-7-3"
           sodipodi:nodetypes="cccccc" />
        <path
           style="mix-blend-mode:normal;fill:none;stroke:#d09a6e;stroke-width:3;stroke-linecap:round;stroke-linejoin:round;stroke-dasharray:none;stroke-opacity:1"
           d="m 1604.4609,-32.351865 -6.4704,2.195832 -1.1633,10.316739"
           id="path9888-0"
           sodipodi:nodetypes="ccc" />
        <g
           id="g66903-6-0-7"
           transform="translate(1791.1396,-152.0592)"
           style="mix-blend-mode:normal">
          <path
             style="fill:none;stroke:#000000;stroke-width:3;stroke-linecap:round;stroke-linejoin:round;stroke-miterlimit:4;stroke-dasharray:none;stroke-opacity:1"
             d="m -186.67871,119.70735 3.9817,-2.78289 2.3672,0.23185"
             id="path66722-4-3-284"
             sodipodi:nodetypes="ccc" />
          <path
             style="fill:none;stroke:#000000;stroke-width:3;stroke-linecap:round;stroke-linejoin:round;stroke-miterlimit:4;stroke-dasharray:none;stroke-opacity:1"
             d="m -212.54563,117.60468 2.92571,-1.27143 3.48526,3.56026"
             id="path66722-1-5-7-3"
             sodipodi:nodetypes="ccc" />
        </g>
        <path
           id="path115124-2-9-0-9"
           style="mix-blend-mode:normal;fill:#000000;fill-opacity:1;stroke:none;stroke-width:0;stroke-linecap:round;stroke-linejoin:round;stroke-miterlimit:4;stroke-dasharray:none;stroke-opacity:1;stop-color:#000000"
           d="m 1583.3113,-25.040555 c -2.4135,-0.0818 -6.526,-2.70056 -6.4795,-3.97091 0.03,-0.62812 9.8805,-0.0607 9.8616,0.36077 -0.075,2.05931 -0.9689,3.69189 -3.3821,3.61014 z"
           sodipodi:nodetypes="sccs" />
        <path
           id="path115124-0-8-77-0-5"
           style="mix-blend-mode:normal;fill:#000000;fill-opacity:1;stroke:none;stroke-width:0;stroke-linecap:round;stroke-linejoin:round;stroke-miterlimit:4;stroke-dasharray:none;stroke-opacity:1;stop-color:#000000"
           d="m 1606.0925,-25.040555 c 2.4134,-0.0818 6.5259,-2.70056 6.4794,-3.97091 -0.03,-0.62812 -9.8804,-0.0607 -9.8615,0.36077 0.075,2.05931 0.9688,3.69189 3.3821,3.61014 z"
           sodipodi:nodetypes="sccs" />
        <path
           id="path4792"
           style="fill:#000000;stroke:#000000;stroke-width:2;stroke-linecap:round;stroke-linejoin:round"
           d="m 1593.6865,-11.817598 c 0,0 -10.5634,1.241065 -11.0598,4.5919652 0,0 6.8947,-1.3641761 11.0598,-0.5911777 0.4294,0 0.7677,-0.1793497 1.0155,-0.4614707 0.2477,0.282051 0.5856,0.4614707 1.0149,0.4614707 4.1651,-0.7729984 11.0598,0.5911777 11.0598,0.5911777 -0.4964,-3.3509002 -11.0598,-4.5919652 -11.0598,-4.5919652 z"
           sodipodi:nodetypes="cccccccc" />
        <path
           style="mix-blend-mode:normal;fill:none;fill-opacity:1;stroke:#d09a6e;stroke-width:3;stroke-linecap:round;stroke-linejoin:miter;stroke-miterlimit:4;stroke-dasharray:none;stroke-opacity:1"
           d="m 1591.215,-15.163391 c 0,0 2.1025,1.05833 3.4869,1.05833 1.3843,0 3.4868,-1.05833 3.4868,-1.05833"
           id="path2252-4-5-4-000"
           sodipodi:nodetypes="czc" />
        <path
           style="fill:#000000;stroke:#000000;stroke-width:2;stroke-linecap:round;stroke-linejoin:round"
           d="m 1573.9842,-12.28843 c 0,0 -3.8324,-7.173759 -5.412,-7.568668 0,0 -4.5303,-6.110225 -2.2926,-10.980764 -0.9394,-9.067607 2.7749,-12.455583 8.2839,-13.331409 -1.7551,3.422541 -1.6662,9.06001 -1.6662,9.06001 -3.4812,12.918874 -0.062,16.301206 1.0869,22.820831 z"
           id="path8444"
           sodipodi:nodetypes="cccccc" />
        <path
           style="mix-blend-mode:normal;fill:#000000;stroke:#000000;stroke-width:2;stroke-linecap:round;stroke-linejoin:round"
           d="m 1615.4849,-12.28843 c 0,0 3.8324,-7.173759 5.412,-7.568668 0,0 4.5303,-6.110225 2.2926,-10.980764 0.9394,-9.067607 -2.1359,-12.113537 -7.6449,-12.989363 1.7551,3.422541 1.0272,8.717964 1.0272,8.717964 3.4812,12.918874 0.062,16.301206 -1.0869,22.820831 z"
           id="path8444-6"
           sodipodi:nodetypes="cccccc" />
        <path
           style="fill:#000000;fill-opacity:1;stroke:#000000;stroke-width:2;stroke-linecap:round;stroke-linejoin:round;stroke-dasharray:none;stroke-opacity:1"
           d="m 1582.2287,10.675127 c -0.6813,3.895391 4.2349,5.999349 8.8357,8.204222 -1.6186,6.084517 0.1188,12.169034 3.6373,18.253551 l 2e-4,35.23116 h -17.608 l -1.439,-55.343053 z"
           id="path21913"
           sodipodi:nodetypes="ccccccc" />
        <path
           style="mix-blend-mode:normal;fill:#000000;fill-opacity:1;stroke:#000000;stroke-width:2;stroke-linecap:round;stroke-linejoin:round;stroke-dasharray:none;stroke-opacity:1"
           d="m 1607.931,10.675127 c 0.6813,3.895391 -3.7057,6.528516 -8.3065,8.733389 0.1913,6.45684 -4.1851,7.730472 -4.1665,17.724384 l -2e-4,35.23116 h 17.608 l 1.439,-55.343053 z"
           id="path21913-3"
           sodipodi:nodetypes="ccccccc" />
        <path
           style="mix-blend-mode:normal;fill:#e6e6e6;fill-opacity:1;stroke:#000000;stroke-width:2;stroke-linecap:round;stroke-linejoin:round;stroke-dasharray:none;stroke-opacity:1"
           d="m 1607.9311,10.675083 c -0.5,1.842985 0.5254,3.282172 -3.532,6.066922 -3.5779,28.334203 -8.9311,39.769759 -12.413,55.622055 l 26.5467,0.499764 -2.9118,-55.343053 z"
           id="path24115-2"
           sodipodi:nodetypes="cccccc" />
        <path
           style="mix-blend-mode:normal;fill:#333333;fill-opacity:1;stroke:#000000;stroke-width:3;stroke-linecap:round;stroke-linejoin:round;stroke-miterlimit:4;stroke-dasharray:none;stroke-opacity:1;stop-color:#000000"
           d="m 1610.4752,13.268724 c 5.2972,9.847438 -2.5441,40.756094 -2.5441,59.0951 h 36.8262 c 4.3856,-4.798965 4.1658,-17.27352 0,-36.324914 0,0 -0.3711,-9.014499 -13.3914,-12.096936 -8.8102,-2.085705 -14.9904,-5.071622 -20.8907,-10.67325 z"
           id="path24967" />
        <path
           style="mix-blend-mode:normal;fill:#333333;fill-opacity:1;stroke:#000000;stroke-width:3;stroke-linecap:round;stroke-linejoin:round;stroke-miterlimit:4;stroke-dasharray:none;stroke-opacity:1;stop-color:#000000"
           d="m 1607.9311,13.320918 c 0.847,0.922534 1.6925,1.785231 2.5441,2.593641 -0.6424,-1.194188 -1.4778,-2.078901 -2.5441,-2.593641 z"
           id="path24965" />
        <path
           style="mix-blend-mode:normal;fill:#333333;fill-opacity:1;stroke:#000000;stroke-width:3;stroke-linecap:round;stroke-linejoin:round;stroke-miterlimit:4;stroke-dasharray:none;stroke-opacity:1;stop-color:#000000"
           d="m 1582.2288,13.320918 c -0.5338,0.485807 -0.994,1.099697 -1.3885,1.827796 0.4807,-0.570803 0.9442,-1.178793 1.3885,-1.827796 z"
           id="rect8920-9-13-6-0-81-2" />
        <path
           style="fill:#f2f2f2;fill-opacity:1;stroke:#000000;stroke-width:2;stroke-linecap:round;stroke-linejoin:round;stroke-dasharray:none;stroke-opacity:1"
           d="m 1582.2396,11.332842 c 0.1605,1.365728 1.4885,3.063067 2.4458,4.092995 5.3383,29.983681 23.6831,40.699727 27.2498,56.938223 h -39.1921 l 2.9118,-55.343053 z"
           id="path24115"
           sodipodi:nodetypes="cccccc" />
        <path
           style="mix-blend-mode:normal;fill:#333333;fill-opacity:1;stroke:#000000;stroke-width:3;stroke-linecap:round;stroke-linejoin:round;stroke-miterlimit:4;stroke-dasharray:none;stroke-opacity:1;stop-color:#000000"
           d="m 1580.8403,12.502879 c -5.8204,6.911157 -14.209,8.380641 -22.8017,11.439095 -13.8799,4.940345 -13.3925,12.096936 -13.3925,12.096936 -0.6204,12.521947 -5.1122,27.624663 0,36.324914 h 37.5827 c 0,-19.148596 -6.7295,-50.003435 -1.3885,-59.860945 z"
           id="path24963"
           sodipodi:nodetypes="cscccc" />
        <path
           style="fill:none;fill-opacity:1;stroke:#000000;stroke-width:3;stroke-linecap:round;stroke-linejoin:round;stroke-dasharray:none;stroke-opacity:1"
           d="m 1607.9311,10.675083 c 14.5582,10.443233 16.4617,20.171333 16.4617,20.171333 l -4.86,1.669213 4.1155,3.376193 c -5.2922,13.653641 -8.1112,25.985163 -7.4798,36.472238"
           id="path28689"
           sodipodi:nodetypes="ccccc" />
        <path
           style="mix-blend-mode:normal;fill:none;fill-opacity:1;stroke:#000000;stroke-width:3;stroke-linecap:round;stroke-linejoin:round;stroke-dasharray:none;stroke-opacity:1"
           d="m 1582.2288,10.675083 c -14.5582,10.443233 -16.4617,20.171333 -16.4617,20.171333 l 4.86,1.669213 -4.1155,3.376193 c 5.2922,13.653641 6.8301,25.095315 8.5381,36.472238"
           id="path28689-6"
           sodipodi:nodetypes="ccccc" />
      </g>
    </g>
  </g>
</svg>
