<?xml version="1.0" encoding="UTF-8" standalone="no"?>
<svg
   width="150mm"
   height="170mm"
   viewBox="0 0 150 170"
   version="1.1"
   id="svg3147"
   inkscape:version="1.2.2 (732a01da63, 2022-12-09)"
   sodipodi:docname="zorro-sergeantgarcia.svg"
   xmlns:inkscape="http://www.inkscape.org/namespaces/inkscape"
   xmlns:sodipodi="http://sodipodi.sourceforge.net/DTD/sodipodi-0.dtd"
   xmlns:xlink="http://www.w3.org/1999/xlink"
   xmlns="http://www.w3.org/2000/svg"
   xmlns:svg="http://www.w3.org/2000/svg"
   xmlns:rdf="http://www.w3.org/1999/02/22-rdf-syntax-ns#"
   xmlns:cc="http://creativecommons.org/ns#"
   xmlns:dc="http://purl.org/dc/elements/1.1/">
  <defs
     id="defs3141">
    <pattern
       patternUnits="userSpaceOnUse"
       width="8.7129582"
       height="7.6109896"
       patternTransform="translate(-2054.333,1959.2791)"
       id="carreau-pt">
      <rect
         style="fill:#800000;fill-opacity:1;stroke:none;stroke-width:1.08628;stroke-linecap:round;stroke-linejoin:round;stroke-miterlimit:4;stroke-dasharray:none;stop-color:#000000"
         id="rect119919"
         width="8.7129364"
         height="7.6109834"
         x="-2.2737368e-13"
         y="6.2746067e-06" />
      <path
         style="fill:#800000;stroke:#c11a1a;stroke-width:1.81047;stroke-linecap:butt;stroke-linejoin:miter;stroke-miterlimit:4;stroke-dasharray:none;stroke-opacity:1"
         d="M 3.0751503,7.6109858 V 0"
         id="path119921" />
      <path
         style="fill:#c11a1a;fill-opacity:1;stroke:#c11a1a;stroke-width:1.81047;stroke-linecap:butt;stroke-linejoin:miter;stroke-miterlimit:4;stroke-dasharray:none;stroke-opacity:1"
         d="M 1.3287401e-5,4.7904378 H 8.7129582"
         id="path119923" />
    </pattern>
    <pattern
       patternUnits="userSpaceOnUse"
       width="85.000037"
       height="85.000002"
       patternTransform="translate(-1862,1831.9999)"
       id="pattern115842">
      <rect
         style="fill:#800000;fill-opacity:1;stroke:none;stroke-width:11.3386;stroke-linecap:round;stroke-linejoin:round;stroke-miterlimit:4;stroke-dasharray:none;stop-color:#000000"
         id="rect104700"
         width="85"
         height="85"
         x="3.4178149e-05"
         y="0" />
      <path
         style="fill:#800000;stroke:#c11a1a;stroke-width:18.8976;stroke-linecap:butt;stroke-linejoin:miter;stroke-miterlimit:4;stroke-dasharray:none;stroke-opacity:1"
         d="M 30,84.999998 V 1.0187008e-5"
         id="path104779" />
      <path
         style="fill:#c11a1a;fill-opacity:1;stroke:#c11a1a;stroke-width:18.8976;stroke-linecap:butt;stroke-linejoin:miter;stroke-miterlimit:4;stroke-dasharray:none;stroke-opacity:1"
         d="M 0,53.500092 H 85.000025"
         id="path107256" />
    </pattern>
    <radialGradient
       inkscape:collect="always"
       xlink:href="#linearGradient326752"
       id="radialGradient1872-4-61"
       cx="-213.61194"
       cy="144.48944"
       fx="-213.61194"
       fy="144.48944"
       r="29.964201"
       gradientTransform="matrix(1.544547,-0.26971894,0.45443624,2.1590227,378.95667,-297.3117)"
       gradientUnits="userSpaceOnUse" />
    <linearGradient
       id="linearGradient326752"
       inkscape:collect="always">
      <stop
         id="stop326744"
         offset="0"
         style="stop-color:#f8bc80;stop-opacity:1" />
      <stop
         style="stop-color:#f8bc80;stop-opacity:1"
         offset="0.70677221"
         id="stop326746" />
      <stop
         style="stop-color:#f6ae76;stop-opacity:1"
         offset="0.70677221"
         id="stop326748" />
      <stop
         id="stop326750"
         offset="1"
         style="stop-color:#f6ae76;stop-opacity:1" />
    </linearGradient>
  </defs>
  <sodipodi:namedview
     inkscape:object-paths="true"
     id="base"
     pagecolor="#ffffff"
     bordercolor="#666666"
     borderopacity="1.0"
     inkscape:pageopacity="0.0"
     inkscape:pageshadow="2"
     inkscape:zoom="0.24748737"
     inkscape:cx="535.38085"
     inkscape:cy="470.73109"
     inkscape:document-units="mm"
     inkscape:current-layer="layer1"
     inkscape:document-rotation="0"
     showgrid="false"
     inkscape:window-width="1920"
     inkscape:window-height="1017"
     inkscape:window-x="-8"
     inkscape:window-y="-8"
     inkscape:window-maximized="1"
     inkscape:showpageshadow="2"
     inkscape:pagecheckerboard="0"
     inkscape:deskcolor="#d1d1d1" />
  <metadata
     id="metadata3144">
    <rdf:RDF>
      <cc:Work
         rdf:about="">
        <dc:format>image/svg+xml</dc:format>
        <dc:type
           rdf:resource="http://purl.org/dc/dcmitype/StillImage" />
      </cc:Work>
    </rdf:RDF>
  </metadata>
  <g
     inkscape:label="Calque 1"
     inkscape:groupmode="layer"
     id="layer1">
    <g
       id="g120921"
       transform="translate(-50.054059,-17.1329)"
       style="mix-blend-mode:normal">
      <ellipse
         style="color:#000000;overflow:visible;opacity:1;fill:#000000;fill-opacity:1;stroke:#000000;stroke-width:3;stroke-linecap:round;stroke-linejoin:round;stroke-dasharray:none;stroke-opacity:1;stop-color:#000000"
         id="path120891"
         cx="124.84047"
         cy="57.734173"
         rx="33.333561"
         ry="20.601273" />
      <path
         id="rect8920-9-13-6-2"
         style="mix-blend-mode:normal;fill:#f6ae76;fill-opacity:1;stroke:#000000;stroke-width:3;stroke-linecap:round;stroke-linejoin:round;stroke-miterlimit:4;stroke-dasharray:none;stroke-opacity:1;stop-color:#000000"
         d="m 112.36733,109.61875 v 19.08772 c -4.34874,6.15605 -9.68372,17.51548 -4.17509,17.5772 l 33.63514,0.37682 c 6.60879,0.074 2.6381,-11.28347 -3.75774,-17.95402 v -19.08772 z"
         sodipodi:nodetypes="ccssccc" />
      <path
         id="rect8920-9-13-6-2-4"
         style="mix-blend-mode:normal;fill:#125b9a;fill-opacity:1;stroke:#000000;stroke-width:3;stroke-linecap:round;stroke-linejoin:round;stroke-miterlimit:4;stroke-dasharray:none;stroke-opacity:1;stop-color:#000000"
         d="m 112.36733,128.70647 c -5.82436,8.50699 -15.946185,5.19333 -25.248585,8.50439 -13.87987,4.94035 -17.625543,12.09694 -17.625543,12.09694 -2.538023,11.71985 -11.462157,27.62484 -6.349997,36.3251 H 187.06689 c 4.38564,-4.79897 -1.89951,-19.15366 -6.87917,-36.3251 0,0 -4.60466,-9.0145 -17.62502,-12.09694 -10.08161,-2.38671 -17.77763,-1.18944 -24.49306,-8.50439 0,0 -6.44556,14.2875 -12.85116,14.2875 -6.4056,0 -12.85115,-14.2875 -12.85115,-14.2875 z"
         sodipodi:nodetypes="ccccccsczc" />
      <path
         id="rect8920-9-13-6-2-4-8"
         style="mix-blend-mode:normal;fill:#f53332;fill-opacity:1;stroke:#000000;stroke-width:3;stroke-linecap:round;stroke-linejoin:round;stroke-miterlimit:4;stroke-dasharray:none;stroke-opacity:1;stop-color:#000000"
         d="m 112.36713,128.70664 c -1.36777,1.99774 -2.91562,3.3382 -4.60179,4.27106 l 0.008,0.002 17.36483,9.9689 c -0.72455,-0.70375 -2.43282,-10.10764 -3.20238,-10.26088 -4.58044,-0.91201 -9.56841,-3.98063 -9.56841,-3.98063 z m 25.7023,0 c 0,0 -5.30726,2.96193 -9.85572,3.93051 -0.85639,0.18236 -2.15798,9.62163 -2.91145,10.31306 l 18.56165,-9.7901 c -1.97911,-0.98169 -3.88388,-2.37231 -5.79448,-4.45347 z" />
      <path
         id="path107175"
         style="overflow:visible;opacity:1;stroke:#000000;stroke-width:2;stroke-linecap:round;stroke-linejoin:round;stop-color:#000000"
         d="m 175.94266,77.614143 c 0,19.31666 -22.87923,40.267577 -51.10219,40.267577 -28.222962,0 -51.102192,-20.950917 -51.102189,-40.267577 10e-7,-19.316658 22.87923,-34.975902 51.102189,-34.975902 28.22296,-10e-7 51.10219,15.659244 51.10219,34.975902 z"
         sodipodi:nodetypes="sssss" />
      <ellipse
         ry="6.678576"
         rx="6.1759887"
         cy="85.405396"
         cx="93.772369"
         id="path861-2-70-0"
         style="color:#000000;overflow:visible;mix-blend-mode:normal;fill:#f8bc80;fill-opacity:1;stroke:#000000;stroke-width:3;stroke-linecap:round;stroke-miterlimit:4;stroke-dasharray:none;stroke-opacity:1;stop-color:#000000" />
      <ellipse
         style="color:#000000;overflow:visible;mix-blend-mode:normal;fill:#f6ae76;fill-opacity:1;stroke:#000000;stroke-width:3;stroke-linecap:round;stroke-miterlimit:4;stroke-dasharray:none;stroke-opacity:1;stop-color:#000000"
         id="path861-0-6-5-5"
         cx="155.90848"
         cy="85.405396"
         rx="6.1759887"
         ry="6.678576" />
      <path
         id="rect1621-9-527"
         style="mix-blend-mode:normal;fill:url(#radialGradient1872-4-61);fill-opacity:1;stroke:#000000;stroke-width:2.86316;stroke-linecap:round;stroke-linejoin:round;stop-color:#000000"
         d="m 124.84047,49.862765 c 15.76916,0 29.52253,12.69503 29.52253,28.4642 v 14.15685 c 0,15.769165 -13.75337,33.226705 -29.52253,33.226705 -15.76916,0 -29.522533,-17.45754 -29.522533,-33.226705 v -14.15685 c 0,-15.76917 13.753363,-28.4642 29.522533,-28.4642 z"
         sodipodi:nodetypes="ssszsss" />
      <path
         id="rect1621-9-527-5"
         style="mix-blend-mode:normal;fill:#000000;fill-opacity:1;stroke:#000000;stroke-width:2.86316;stroke-linecap:round;stroke-linejoin:round;stop-color:#000000"
         d="m 124.84047,49.862765 c 15.76916,0 29.52253,12.69503 29.52253,28.4642 v 14.15685 l -5.32652,-2.116667 c 0,0 1.63598,-1.918229 2.63818,-4.795573 1.00219,-2.877344 1.37061,-6.713802 0.95215,-10.55026 -0.41846,-3.836458 -4.14512,-9.342429 -6.41493,-10.55026 -2.26981,-1.20783 -3.01951,4.214059 -3.6893,3.857645 -0.66979,-0.356413 -2.97761,-6.914822 -4.75068,-7.334435 -1.77307,-0.419613 -4.82927,4.899114 -5.92562,4.846732 -1.09634,-0.05238 -5.89959,-6.102708 -7.21413,-6.165515 -1.31454,-0.06281 -6.13107,5.987474 -7.21413,6.165515 l -5.92562,-4.846732 c -0.89896,0.147778 -3.35031,6.749974 -4.75067,7.334435 -1.40036,0.584461 -1.02558,-5.655985 -3.68931,-3.857645 -2.66373,1.79834 -5.996467,6.713802 -6.414927,10.55026 -0.418459,3.836458 -0.05004,7.672916 0.952152,10.55026 1.002197,2.877344 2.638175,4.795573 2.638175,4.795573 l -4.909885,2.116667 v -14.15685 c 0,-15.76917 13.753365,-28.4642 29.522535,-28.4642 z"
         sodipodi:nodetypes="ssccsszzzzzzzzzssccss" />
      <g
         id="g2407-6-02"
         transform="translate(334.57667,-56.272407)"
         style="mix-blend-mode:normal">
        <path
           d="m -220.29867,141.14864 a 2.3012009,3.2740517 0 0 1 -2.27878,3.27389 2.3012009,3.2740517 0 0 1 -2.32318,-3.21011 2.3012009,3.2740517 0 0 1 2.23352,-3.33644 2.3012009,3.2740517 0 0 1 2.3667,3.14511"
           sodipodi:arc-type="arc"
           sodipodi:open="true"
           sodipodi:end="6.2442187"
           sodipodi:start="0"
           sodipodi:ry="3.2740517"
           sodipodi:rx="2.3012009"
           sodipodi:cy="141.14864"
           sodipodi:cx="-222.59987"
           sodipodi:type="arc"
           id="path984-6-3-67"
           style="color:#000000;overflow:visible;fill:#000000;fill-opacity:1;stroke:none;stroke-width:3;stroke-linecap:round;stroke-linejoin:round;stroke-miterlimit:4;stroke-dasharray:none;stroke-opacity:1;stop-color:#000000" />
        <path
           d="m -194.57134,141.14864 a 2.3012009,3.2740517 0 0 1 -2.27879,3.27389 2.3012009,3.2740517 0 0 1 -2.32318,-3.21011 2.3012009,3.2740517 0 0 1 2.23352,-3.33644 2.3012009,3.2740517 0 0 1 2.3667,3.14511"
           style="color:#000000;overflow:visible;fill:#000000;fill-opacity:1;stroke:none;stroke-width:3;stroke-linecap:round;stroke-linejoin:round;stroke-miterlimit:4;stroke-dasharray:none;stroke-opacity:1;stop-color:#000000"
           id="path984-3-2-8-70"
           sodipodi:type="arc"
           sodipodi:cx="-196.87254"
           sodipodi:cy="141.14864"
           sodipodi:rx="2.3012009"
           sodipodi:ry="3.2740517"
           sodipodi:start="0"
           sodipodi:end="6.2442187"
           sodipodi:open="true"
           sodipodi:arc-type="arc" />
      </g>
      <g
         id="g66903-6-6"
         transform="translate(321.27818,-40.377865)"
         style="mix-blend-mode:normal">
        <path
           style="fill:none;stroke:#000000;stroke-width:3;stroke-linecap:round;stroke-linejoin:round;stroke-miterlimit:4;stroke-dasharray:none;stroke-opacity:1"
           d="m -185.87201,115.07238 5.29167,1.05833"
           id="path66722-4-7"
           sodipodi:nodetypes="cc" />
        <path
           style="fill:none;stroke:#000000;stroke-width:3;stroke-linecap:round;stroke-linejoin:round;stroke-miterlimit:4;stroke-dasharray:none;stroke-opacity:1"
           d="m -212.29508,116.13071 5.29167,-1.05833"
           id="path66722-1-5-5"
           sodipodi:nodetypes="cc" />
      </g>
      <path
         style="mix-blend-mode:normal;fill:none;stroke:#000000;stroke-width:3;stroke-linecap:round;stroke-linejoin:miter;stroke-miterlimit:4;stroke-dasharray:none;stroke-opacity:1"
         d="m 118.70781,105.78441 c 0,0 1.93176,1.05834 6.13266,1.05834 4.20088,0 6.13266,-1.5875 6.13266,-1.5875"
         id="path2252-47-74"
         sodipodi:nodetypes="czc" />
      <g
         id="g120731">
        <circle
           style="mix-blend-mode:normal;fill:#f8e47e;fill-opacity:1;stroke:#000000;stroke-width:2;stroke-linecap:round;stroke-linejoin:round;stroke-miterlimit:4;stroke-dasharray:none;stroke-opacity:1;stop-color:#000000"
           id="path217080-3-0-6-9-9"
           cx="128.74013"
           cy="168.15744"
           r="3.1843019" />
        <circle
           style="mix-blend-mode:normal;fill:#f8e47e;fill-opacity:1;stroke:#000000;stroke-width:2;stroke-linecap:round;stroke-linejoin:round;stroke-miterlimit:4;stroke-dasharray:none;stroke-opacity:1;stop-color:#000000"
           id="path217080-3-0-6-9-9-5"
           cx="128.74013"
           cy="178.11353"
           r="3.1843019" />
      </g>
      <path
         style="fill:#000000;fill-rule:evenodd;stroke:#000000;stroke-width:2;stroke-linecap:round;stroke-linejoin:round;stroke-dasharray:none;stroke-opacity:1"
         d="m 110.41833,109.49967 c 3.54447,-7.58275 6.75372,-7.78103 12.98571,-8.71286 l 0.23566,-2.07523 c -7.85167,0.614599 -9.68402,2.37349 -13.22137,10.78809 z"
         id="path103811"
         sodipodi:nodetypes="cccc" />
      <path
         style="mix-blend-mode:normal;fill:#000000;fill-rule:evenodd;stroke:#000000;stroke-width:2;stroke-linecap:round;stroke-linejoin:round;stroke-dasharray:none;stroke-opacity:1"
         d="m 138.86104,109.49967 c -3.54447,-7.58275 -6.75372,-7.78103 -12.98571,-8.71286 l -0.23566,-2.07523 c 7.85167,0.614599 9.68402,2.37349 13.22137,10.78809 z"
         id="path103811-7"
         sodipodi:nodetypes="cccc" />
      <path
         style="mix-blend-mode:normal;fill:#000000;fill-opacity:0;stroke:#f6ae76;stroke-width:3;stroke-linecap:round;stroke-linejoin:miter;stroke-miterlimit:4;stroke-dasharray:none;stroke-opacity:1"
         d="m 121.35364,94.930455 c 0,0 2.10246,1.05833 3.48683,1.05833 1.38437,0 3.48682,-1.05833 3.48682,-1.05833"
         id="path2252-4-5-13"
         sodipodi:nodetypes="czc" />
      <path
         style="fill:none;fill-rule:evenodd;stroke:#000000;stroke-width:3;stroke-linecap:round;stroke-linejoin:round;stroke-dasharray:none;stroke-opacity:1"
         d="m 95.317935,92.483815 c 0,0 9.344695,28.575005 29.522535,28.575005 20.17783,-1e-5 29.52253,-28.575005 29.52253,-28.575005"
         id="path107178"
         sodipodi:nodetypes="czc" />
      <path
         style="fill:none;fill-rule:evenodd;stroke:#000000;stroke-width:3;stroke-linecap:butt;stroke-linejoin:round;stroke-dasharray:none;stroke-opacity:1"
         d="m 125.30226,142.95021 c -0.16434,-0.002 -4.46819,4.52156 -4.46819,4.52156 v 38.16113"
         id="path120661"
         sodipodi:nodetypes="ccc" />
      <path
         style="fill:#ffffff;fill-rule:evenodd;stroke:#000000;stroke-width:3;stroke-linecap:round;stroke-linejoin:round;stroke-dasharray:none;stroke-opacity:1"
         d="m 91.600262,185.6329 49.918798,-53.86457 c 0,0 18.26214,5.00168 15.89837,4.60964 -2.36378,-0.39204 -44.67615,49.25493 -44.67615,49.25493 H 92.067984"
         id="path116222" />
      <path
         style="fill:none;fill-rule:evenodd;stroke:#000000;stroke-width:3;stroke-linecap:round;stroke-linejoin:round;stroke-dasharray:none;stroke-opacity:1"
         d="m 123.9024,157.24382 c 1.95909,-18.55284 -6.79844,-28.10784 0.21792,-36.19719 0.72015,0.0122 2.74434,-0.085 2.74434,-0.085 l -1.40135,2.23207 -0.62284,-2.13487 c 10.37373,13.26404 1.41435,15.52753 4.95797,42.85599"
         id="path107180"
         sodipodi:nodetypes="cccccc" />
      <path
         style="color:#000000;fill:#f53332;fill-opacity:1;fill-rule:evenodd;stroke:#000000;stroke-width:3;stroke-linecap:round;stroke-linejoin:round;stroke-dasharray:none;stroke-opacity:1"
         d="m 168.22836,132.49036 c -0.79496,0.0304 -1.54528,0.37539 -2.08594,0.95899 -5.83832,6.30013 -11.85168,17.06929 -13.73047,32.10547 -0.20589,1.64456 0.96082,3.14448 2.60547,3.34961 1.64385,0.20472 3.14251,-0.96167 3.34766,-2.60547 1.72642,-13.81678 7.26989,-23.47543 12.17773,-28.77149 1.12642,-1.21557 1.05383,-3.11421 -0.16211,-4.24023 -0.58346,-0.54041 -1.35763,-0.82704 -2.15234,-0.79688 z"
         id="path120733"
         sodipodi:nodetypes="cccccssc" />
      <path
         style="color:#000000;mix-blend-mode:normal;fill:#f53332;fill-opacity:1;fill-rule:evenodd;stroke:#000000;stroke-width:3;stroke-linecap:round;stroke-linejoin:round;stroke-dasharray:none;stroke-opacity:1"
         d="m 81.697977,132.49036 c 0.794963,0.0304 1.545283,0.37539 2.08594,0.95899 5.83832,6.30013 11.85168,17.06929 13.73047,32.10547 0.20589,1.64456 -0.960814,3.14448 -2.60547,3.34961 -1.64385,0.20472 -3.142507,-0.96167 -3.34766,-2.60547 -1.72642,-13.81678 -7.26989,-23.47543 -12.17773,-28.77149 -1.126415,-1.21557 -1.053827,-3.11421 0.16211,-4.24023 0.583462,-0.54041 1.357629,-0.82704 2.15234,-0.79688 z"
         id="path120733-4"
         sodipodi:nodetypes="cccccssc" />
    </g>
  </g>
</svg>
